G04 #@! TF.GenerationSoftware,KiCad,Pcbnew,5.1.5+dfsg1-2build2*
G04 #@! TF.CreationDate,2021-03-20T12:23:53+01:00*
G04 #@! TF.ProjectId,ATSAME51J18A-devboard-panel,41545341-4d45-4353-914a-3138412d6465,rev?*
G04 #@! TF.SameCoordinates,Original*
G04 #@! TF.FileFunction,Profile,NP*
%FSLAX46Y46*%
G04 Gerber Fmt 4.6, Leading zero omitted, Abs format (unit mm)*
G04 Created by KiCad (PCBNEW 5.1.5+dfsg1-2build2) date 2021-03-20 12:23:53*
%MOMM*%
%LPD*%
G04 APERTURE LIST*
%ADD10C,0.100000*%
G04 APERTURE END LIST*
D10*
X48000200Y-47010000D02*
X89545800Y-47010000D01*
X47903000Y-47014800D02*
X48000200Y-47010000D01*
X47806900Y-47029000D02*
X47903000Y-47014800D01*
X47712600Y-47052600D02*
X47806900Y-47029000D01*
X47621100Y-47085400D02*
X47712600Y-47052600D01*
X47533300Y-47126900D02*
X47621100Y-47085400D01*
X47450000Y-47176900D02*
X47533300Y-47126900D01*
X47372000Y-47234700D02*
X47450000Y-47176900D01*
X47300000Y-47300000D02*
X47372000Y-47234700D01*
X47234700Y-47372000D02*
X47300000Y-47300000D01*
X47176900Y-47450000D02*
X47234700Y-47372000D01*
X47126900Y-47533300D02*
X47176900Y-47450000D01*
X47085400Y-47621100D02*
X47126900Y-47533300D01*
X47052600Y-47712600D02*
X47085400Y-47621100D01*
X47029000Y-47806900D02*
X47052600Y-47712600D01*
X47014800Y-47903000D02*
X47029000Y-47806900D01*
X47010000Y-48000200D02*
X47014800Y-47903000D01*
X47010000Y-61732800D02*
X47010000Y-48000200D01*
X47014800Y-61830000D02*
X47010000Y-61732800D01*
X47029000Y-61926100D02*
X47014800Y-61830000D01*
X47052600Y-62020400D02*
X47029000Y-61926100D01*
X47085400Y-62111900D02*
X47052600Y-62020400D01*
X47126900Y-62199700D02*
X47085400Y-62111900D01*
X47176900Y-62283000D02*
X47126900Y-62199700D01*
X47234700Y-62361000D02*
X47176900Y-62283000D01*
X47300000Y-62433000D02*
X47234700Y-62361000D01*
X47372000Y-62498300D02*
X47300000Y-62433000D01*
X47450000Y-62556100D02*
X47372000Y-62498300D01*
X47533300Y-62606100D02*
X47450000Y-62556100D01*
X47621100Y-62647600D02*
X47533300Y-62606100D01*
X47712600Y-62680400D02*
X47621100Y-62647600D01*
X47806900Y-62704000D02*
X47712600Y-62680400D01*
X47903000Y-62718200D02*
X47806900Y-62704000D01*
X48000200Y-62723000D02*
X47903000Y-62718200D01*
X49008800Y-62723000D02*
X48000200Y-62723000D01*
X49106000Y-62718200D02*
X49008800Y-62723000D01*
X49202100Y-62704000D02*
X49106000Y-62718200D01*
X49296400Y-62680400D02*
X49202100Y-62704000D01*
X49387900Y-62647600D02*
X49296400Y-62680400D01*
X49475700Y-62606100D02*
X49387900Y-62647600D01*
X49559000Y-62556100D02*
X49475700Y-62606100D01*
X49637000Y-62498300D02*
X49559000Y-62556100D01*
X49709000Y-62433000D02*
X49637000Y-62498300D01*
X49774300Y-62361000D02*
X49709000Y-62433000D01*
X49832100Y-62283000D02*
X49774300Y-62361000D01*
X49882100Y-62199700D02*
X49832100Y-62283000D01*
X49923600Y-62111900D02*
X49882100Y-62199700D01*
X49956400Y-62020400D02*
X49923600Y-62111900D01*
X49980000Y-61926100D02*
X49956400Y-62020400D01*
X49994200Y-61830000D02*
X49980000Y-61926100D01*
X49999000Y-61732800D02*
X49994200Y-61830000D01*
X49999000Y-51022600D02*
X49999000Y-61732800D01*
X50003900Y-50922800D02*
X49999000Y-51022600D01*
X50006600Y-50896700D02*
X50003900Y-50922800D01*
X50021500Y-50804900D02*
X50006600Y-50896700D01*
X50045400Y-50714500D02*
X50021500Y-50804900D01*
X50053500Y-50689500D02*
X50045400Y-50714500D01*
X50087100Y-50602700D02*
X50053500Y-50689500D01*
X50129300Y-50519200D02*
X50087100Y-50602700D01*
X50142400Y-50496500D02*
X50129300Y-50519200D01*
X50186100Y-50429300D02*
X50142400Y-50496500D01*
X50201500Y-50408000D02*
X50186100Y-50429300D01*
X50260300Y-50335900D02*
X50201500Y-50408000D01*
X50326200Y-50269500D02*
X50260300Y-50335900D01*
X50345700Y-50252000D02*
X50326200Y-50269500D01*
X50418700Y-50193300D02*
X50345700Y-50252000D01*
X50507500Y-50135700D02*
X50418700Y-50193300D01*
X50590600Y-50092900D02*
X50507500Y-50135700D01*
X50614600Y-50082200D02*
X50590600Y-50092900D01*
X50701600Y-50049200D02*
X50614600Y-50082200D01*
X50804400Y-50021600D02*
X50701600Y-50049200D01*
X50896700Y-50006600D02*
X50804400Y-50021600D01*
X50922800Y-50003900D02*
X50896700Y-50006600D01*
X51022500Y-49999000D02*
X50922800Y-50003900D01*
X89545800Y-49999000D02*
X51022500Y-49999000D01*
X89643000Y-49994200D02*
X89545800Y-49999000D01*
X89739100Y-49980000D02*
X89643000Y-49994200D01*
X89833400Y-49956400D02*
X89739100Y-49980000D01*
X89924900Y-49923600D02*
X89833400Y-49956400D01*
X90012700Y-49882100D02*
X89924900Y-49923600D01*
X90096000Y-49832100D02*
X90012700Y-49882100D01*
X90174000Y-49774300D02*
X90096000Y-49832100D01*
X90246000Y-49709000D02*
X90174000Y-49774300D01*
X90311300Y-49637000D02*
X90246000Y-49709000D01*
X90369100Y-49559000D02*
X90311300Y-49637000D01*
X90419100Y-49475700D02*
X90369100Y-49559000D01*
X90460600Y-49387900D02*
X90419100Y-49475700D01*
X90493400Y-49296400D02*
X90460600Y-49387900D01*
X90517000Y-49202100D02*
X90493400Y-49296400D01*
X90531200Y-49106000D02*
X90517000Y-49202100D01*
X90536000Y-49008800D02*
X90531200Y-49106000D01*
X90536000Y-48000200D02*
X90536000Y-49008800D01*
X90531200Y-47903000D02*
X90536000Y-48000200D01*
X90517000Y-47806900D02*
X90531200Y-47903000D01*
X90493400Y-47712600D02*
X90517000Y-47806900D01*
X90460600Y-47621100D02*
X90493400Y-47712600D01*
X90419100Y-47533300D02*
X90460600Y-47621100D01*
X90369100Y-47450000D02*
X90419100Y-47533300D01*
X90311300Y-47372000D02*
X90369100Y-47450000D01*
X90246000Y-47300000D02*
X90311300Y-47372000D01*
X90174000Y-47234700D02*
X90246000Y-47300000D01*
X90096000Y-47176900D02*
X90174000Y-47234700D01*
X90012700Y-47126900D02*
X90096000Y-47176900D01*
X89924900Y-47085400D02*
X90012700Y-47126900D01*
X89833400Y-47052600D02*
X89924900Y-47085400D01*
X89739100Y-47029000D02*
X89833400Y-47052600D01*
X89643000Y-47014800D02*
X89739100Y-47029000D01*
X89545800Y-47010000D02*
X89643000Y-47014800D01*
X47010000Y-143343800D02*
X47010000Y-129611300D01*
X47014800Y-143441100D02*
X47010000Y-143343800D01*
X47029000Y-143537200D02*
X47014800Y-143441100D01*
X47052600Y-143631400D02*
X47029000Y-143537200D01*
X47085400Y-143722900D02*
X47052600Y-143631400D01*
X47126900Y-143810700D02*
X47085400Y-143722900D01*
X47176900Y-143894000D02*
X47126900Y-143810700D01*
X47234700Y-143972100D02*
X47176900Y-143894000D01*
X47300000Y-144044100D02*
X47234700Y-143972100D01*
X47372000Y-144109300D02*
X47300000Y-144044100D01*
X47450000Y-144167200D02*
X47372000Y-144109300D01*
X47533300Y-144217100D02*
X47450000Y-144167200D01*
X47621100Y-144258700D02*
X47533300Y-144217100D01*
X47712600Y-144291400D02*
X47621100Y-144258700D01*
X47806900Y-144315000D02*
X47712600Y-144291400D01*
X47903000Y-144329200D02*
X47806900Y-144315000D01*
X48000200Y-144334000D02*
X47903000Y-144329200D01*
X89545800Y-144334000D02*
X48000200Y-144334000D01*
X89643000Y-144329200D02*
X89545800Y-144334000D01*
X89739100Y-144315000D02*
X89643000Y-144329200D01*
X89833400Y-144291400D02*
X89739100Y-144315000D01*
X89924900Y-144258700D02*
X89833400Y-144291400D01*
X90012700Y-144217100D02*
X89924900Y-144258700D01*
X90096000Y-144167200D02*
X90012700Y-144217100D01*
X90174000Y-144109300D02*
X90096000Y-144167200D01*
X90246000Y-144044100D02*
X90174000Y-144109300D01*
X90311300Y-143972100D02*
X90246000Y-144044100D01*
X90369100Y-143894000D02*
X90311300Y-143972100D01*
X90419100Y-143810700D02*
X90369100Y-143894000D01*
X90460600Y-143722900D02*
X90419100Y-143810700D01*
X90493400Y-143631400D02*
X90460600Y-143722900D01*
X90517000Y-143537200D02*
X90493400Y-143631400D01*
X90531200Y-143441100D02*
X90517000Y-143537200D01*
X90536000Y-143343800D02*
X90531200Y-143441100D01*
X90536000Y-142335300D02*
X90536000Y-143343800D01*
X90531200Y-142238000D02*
X90536000Y-142335300D01*
X90517000Y-142141900D02*
X90531200Y-142238000D01*
X90493400Y-142047600D02*
X90517000Y-142141900D01*
X90460600Y-141956200D02*
X90493400Y-142047600D01*
X90419100Y-141868300D02*
X90460600Y-141956200D01*
X90369100Y-141785000D02*
X90419100Y-141868300D01*
X90311300Y-141707000D02*
X90369100Y-141785000D01*
X90246000Y-141635000D02*
X90311300Y-141707000D01*
X90174000Y-141569700D02*
X90246000Y-141635000D01*
X90096000Y-141511900D02*
X90174000Y-141569700D01*
X90012700Y-141461900D02*
X90096000Y-141511900D01*
X89924900Y-141420400D02*
X90012700Y-141461900D01*
X89833400Y-141387700D02*
X89924900Y-141420400D01*
X89739100Y-141364000D02*
X89833400Y-141387700D01*
X89643000Y-141349800D02*
X89739100Y-141364000D01*
X89545800Y-141345000D02*
X89643000Y-141349800D01*
X51022600Y-141345000D02*
X89545800Y-141345000D01*
X50922800Y-141340100D02*
X51022600Y-141345000D01*
X50896700Y-141337400D02*
X50922800Y-141340100D01*
X50804300Y-141322400D02*
X50896700Y-141337400D01*
X50702100Y-141295000D02*
X50804300Y-141322400D01*
X50614600Y-141261800D02*
X50702100Y-141295000D01*
X50590600Y-141251100D02*
X50614600Y-141261800D01*
X50507400Y-141208300D02*
X50590600Y-141251100D01*
X50418600Y-141150600D02*
X50507400Y-141208300D01*
X50345700Y-141092100D02*
X50418600Y-141150600D01*
X50326200Y-141074500D02*
X50345700Y-141092100D01*
X50260600Y-141008500D02*
X50326200Y-141074500D01*
X50201500Y-140936000D02*
X50260600Y-141008500D01*
X50186100Y-140914800D02*
X50201500Y-140936000D01*
X50135700Y-140836500D02*
X50186100Y-140914800D01*
X50092900Y-140753400D02*
X50135700Y-140836500D01*
X50082200Y-140729400D02*
X50092900Y-140753400D01*
X50049200Y-140642400D02*
X50082200Y-140729400D01*
X50024600Y-140552200D02*
X50049200Y-140642400D01*
X50019200Y-140526500D02*
X50024600Y-140552200D01*
X50006600Y-140447300D02*
X50019200Y-140526500D01*
X50003900Y-140421200D02*
X50006600Y-140447300D01*
X49999000Y-140321500D02*
X50003900Y-140421200D01*
X49999000Y-129611300D02*
X49999000Y-140321500D01*
X49994200Y-129514000D02*
X49999000Y-129611300D01*
X49980000Y-129417900D02*
X49994200Y-129514000D01*
X49956400Y-129323600D02*
X49980000Y-129417900D01*
X49923600Y-129232200D02*
X49956400Y-129323600D01*
X49882100Y-129144300D02*
X49923600Y-129232200D01*
X49832100Y-129061000D02*
X49882100Y-129144300D01*
X49774300Y-128983000D02*
X49832100Y-129061000D01*
X49709000Y-128911000D02*
X49774300Y-128983000D01*
X49637000Y-128845800D02*
X49709000Y-128911000D01*
X49559000Y-128787900D02*
X49637000Y-128845800D01*
X49475700Y-128737900D02*
X49559000Y-128787900D01*
X49387900Y-128696400D02*
X49475700Y-128737900D01*
X49296400Y-128663700D02*
X49387900Y-128696400D01*
X49202100Y-128640100D02*
X49296400Y-128663700D01*
X49106000Y-128625800D02*
X49202100Y-128640100D01*
X49008800Y-128621000D02*
X49106000Y-128625800D01*
X48000200Y-128621000D02*
X49008800Y-128621000D01*
X47903000Y-128625800D02*
X48000200Y-128621000D01*
X47806900Y-128640100D02*
X47903000Y-128625800D01*
X47712600Y-128663700D02*
X47806900Y-128640100D01*
X47621100Y-128696400D02*
X47712600Y-128663700D01*
X47533300Y-128737900D02*
X47621100Y-128696400D01*
X47450000Y-128787900D02*
X47533300Y-128737900D01*
X47372000Y-128845800D02*
X47450000Y-128787900D01*
X47300000Y-128911000D02*
X47372000Y-128845800D01*
X47234700Y-128983000D02*
X47300000Y-128911000D01*
X47176900Y-129061000D02*
X47234700Y-128983000D01*
X47126900Y-129144300D02*
X47176900Y-129061000D01*
X47085400Y-129232200D02*
X47126900Y-129144300D01*
X47052600Y-129323600D02*
X47085400Y-129232200D01*
X47029000Y-129417900D02*
X47052600Y-129323600D01*
X47014800Y-129514000D02*
X47029000Y-129417900D01*
X47010000Y-129611300D02*
X47014800Y-129514000D01*
X47010000Y-124628800D02*
X47010000Y-98163300D01*
X47014800Y-124726100D02*
X47010000Y-124628800D01*
X47029000Y-124822200D02*
X47014800Y-124726100D01*
X47052600Y-124916400D02*
X47029000Y-124822200D01*
X47085400Y-125007900D02*
X47052600Y-124916400D01*
X47126900Y-125095700D02*
X47085400Y-125007900D01*
X47176900Y-125179000D02*
X47126900Y-125095700D01*
X47234700Y-125257100D02*
X47176900Y-125179000D01*
X47300000Y-125329000D02*
X47234700Y-125257100D01*
X47372000Y-125394300D02*
X47300000Y-125329000D01*
X47450000Y-125452200D02*
X47372000Y-125394300D01*
X47533300Y-125502100D02*
X47450000Y-125452200D01*
X47621100Y-125543700D02*
X47533300Y-125502100D01*
X47712600Y-125576400D02*
X47621100Y-125543700D01*
X47806900Y-125600000D02*
X47712600Y-125576400D01*
X47903000Y-125614200D02*
X47806900Y-125600000D01*
X48000200Y-125619000D02*
X47903000Y-125614200D01*
X49008800Y-125619000D02*
X48000200Y-125619000D01*
X49106000Y-125614200D02*
X49008800Y-125619000D01*
X49202100Y-125600000D02*
X49106000Y-125614200D01*
X49296400Y-125576400D02*
X49202100Y-125600000D01*
X49387900Y-125543700D02*
X49296400Y-125576400D01*
X49475700Y-125502100D02*
X49387900Y-125543700D01*
X49559000Y-125452200D02*
X49475700Y-125502100D01*
X49637000Y-125394300D02*
X49559000Y-125452200D01*
X49709000Y-125329000D02*
X49637000Y-125394300D01*
X49774300Y-125257100D02*
X49709000Y-125329000D01*
X49832100Y-125179000D02*
X49774300Y-125257100D01*
X49882100Y-125095700D02*
X49832100Y-125179000D01*
X49923600Y-125007900D02*
X49882100Y-125095700D01*
X49956400Y-124916400D02*
X49923600Y-125007900D01*
X49980000Y-124822200D02*
X49956400Y-124916400D01*
X49994200Y-124726100D02*
X49980000Y-124822200D01*
X49999000Y-124628800D02*
X49994200Y-124726100D01*
X49999000Y-113918600D02*
X49999000Y-124628800D01*
X50003900Y-113818900D02*
X49999000Y-113918600D01*
X50006600Y-113792700D02*
X50003900Y-113818900D01*
X50021500Y-113700900D02*
X50006600Y-113792700D01*
X50045400Y-113610500D02*
X50021500Y-113700900D01*
X50053500Y-113585500D02*
X50045400Y-113610500D01*
X50087100Y-113498700D02*
X50053500Y-113585500D01*
X50129300Y-113415300D02*
X50087100Y-113498700D01*
X50142400Y-113392500D02*
X50129300Y-113415300D01*
X50186100Y-113325300D02*
X50142400Y-113392500D01*
X50201500Y-113304000D02*
X50186100Y-113325300D01*
X50260300Y-113231900D02*
X50201500Y-113304000D01*
X50326200Y-113165600D02*
X50260300Y-113231900D01*
X50345700Y-113148000D02*
X50326200Y-113165600D01*
X50418700Y-113089400D02*
X50345700Y-113148000D01*
X50507500Y-113031700D02*
X50418700Y-113089400D01*
X50590600Y-112988900D02*
X50507500Y-113031700D01*
X50614600Y-112978200D02*
X50590600Y-112988900D01*
X50702100Y-112945000D02*
X50614600Y-112978200D01*
X50804400Y-112917600D02*
X50702100Y-112945000D01*
X50896700Y-112902600D02*
X50804400Y-112917600D01*
X50922800Y-112899900D02*
X50896700Y-112902600D01*
X51022600Y-112895000D02*
X50922800Y-112899900D01*
X89545800Y-112895000D02*
X51022600Y-112895000D01*
X89643000Y-112890200D02*
X89545800Y-112895000D01*
X89739100Y-112876000D02*
X89643000Y-112890200D01*
X89833400Y-112852400D02*
X89739100Y-112876000D01*
X89924900Y-112819600D02*
X89833400Y-112852400D01*
X90012700Y-112778100D02*
X89924900Y-112819600D01*
X90096000Y-112728200D02*
X90012700Y-112778100D01*
X90174000Y-112670300D02*
X90096000Y-112728200D01*
X90246000Y-112605000D02*
X90174000Y-112670300D01*
X90311300Y-112533100D02*
X90246000Y-112605000D01*
X90369100Y-112455000D02*
X90311300Y-112533100D01*
X90419100Y-112371700D02*
X90369100Y-112455000D01*
X90460600Y-112283900D02*
X90419100Y-112371700D01*
X90493400Y-112192400D02*
X90460600Y-112283900D01*
X90517000Y-112098100D02*
X90493400Y-112192400D01*
X90531200Y-112002000D02*
X90517000Y-112098100D01*
X90536000Y-111904800D02*
X90531200Y-112002000D01*
X90536000Y-110887300D02*
X90536000Y-111904800D01*
X90531200Y-110790000D02*
X90536000Y-110887300D01*
X90517000Y-110693900D02*
X90531200Y-110790000D01*
X90493400Y-110599600D02*
X90517000Y-110693900D01*
X90460600Y-110508200D02*
X90493400Y-110599600D01*
X90419100Y-110420300D02*
X90460600Y-110508200D01*
X90369100Y-110337000D02*
X90419100Y-110420300D01*
X90311300Y-110259000D02*
X90369100Y-110337000D01*
X90246000Y-110187000D02*
X90311300Y-110259000D01*
X90174000Y-110121700D02*
X90246000Y-110187000D01*
X90096000Y-110063900D02*
X90174000Y-110121700D01*
X90012700Y-110013900D02*
X90096000Y-110063900D01*
X89924900Y-109972400D02*
X90012700Y-110013900D01*
X89833400Y-109939600D02*
X89924900Y-109972400D01*
X89739100Y-109916000D02*
X89833400Y-109939600D01*
X89643000Y-109901800D02*
X89739100Y-109916000D01*
X89545800Y-109897000D02*
X89643000Y-109901800D01*
X51022600Y-109897000D02*
X89545800Y-109897000D01*
X50922800Y-109892100D02*
X51022600Y-109897000D01*
X50896700Y-109889400D02*
X50922800Y-109892100D01*
X50804300Y-109874400D02*
X50896700Y-109889400D01*
X50702100Y-109847000D02*
X50804300Y-109874400D01*
X50614600Y-109813800D02*
X50702100Y-109847000D01*
X50590600Y-109803100D02*
X50614600Y-109813800D01*
X50507400Y-109760300D02*
X50590600Y-109803100D01*
X50418600Y-109702600D02*
X50507400Y-109760300D01*
X50345700Y-109644100D02*
X50418600Y-109702600D01*
X50326200Y-109626500D02*
X50345700Y-109644100D01*
X50260600Y-109560500D02*
X50326200Y-109626500D01*
X50201500Y-109488000D02*
X50260600Y-109560500D01*
X50186100Y-109466800D02*
X50201500Y-109488000D01*
X50135700Y-109388500D02*
X50186100Y-109466800D01*
X50092900Y-109305400D02*
X50135700Y-109388500D01*
X50082200Y-109281400D02*
X50092900Y-109305400D01*
X50049200Y-109194400D02*
X50082200Y-109281400D01*
X50024600Y-109104200D02*
X50049200Y-109194400D01*
X50019200Y-109078500D02*
X50024600Y-109104200D01*
X50006600Y-108999300D02*
X50019200Y-109078500D01*
X50003900Y-108973200D02*
X50006600Y-108999300D01*
X49999000Y-108873500D02*
X50003900Y-108973200D01*
X49999000Y-98163300D02*
X49999000Y-108873500D01*
X49994200Y-98066000D02*
X49999000Y-98163300D01*
X49980000Y-97969900D02*
X49994200Y-98066000D01*
X49956400Y-97875600D02*
X49980000Y-97969900D01*
X49923600Y-97784200D02*
X49956400Y-97875600D01*
X49882100Y-97696300D02*
X49923600Y-97784200D01*
X49832100Y-97613000D02*
X49882100Y-97696300D01*
X49774300Y-97535000D02*
X49832100Y-97613000D01*
X49709000Y-97463000D02*
X49774300Y-97535000D01*
X49637000Y-97397700D02*
X49709000Y-97463000D01*
X49559000Y-97339900D02*
X49637000Y-97397700D01*
X49475700Y-97289900D02*
X49559000Y-97339900D01*
X49387900Y-97248400D02*
X49475700Y-97289900D01*
X49296400Y-97215700D02*
X49387900Y-97248400D01*
X49202100Y-97192000D02*
X49296400Y-97215700D01*
X49106000Y-97177800D02*
X49202100Y-97192000D01*
X49008800Y-97173000D02*
X49106000Y-97177800D01*
X48000200Y-97173000D02*
X49008800Y-97173000D01*
X47903000Y-97177800D02*
X48000200Y-97173000D01*
X47806900Y-97192000D02*
X47903000Y-97177800D01*
X47712600Y-97215700D02*
X47806900Y-97192000D01*
X47621100Y-97248400D02*
X47712600Y-97215700D01*
X47533300Y-97289900D02*
X47621100Y-97248400D01*
X47450000Y-97339900D02*
X47533300Y-97289900D01*
X47372000Y-97397700D02*
X47450000Y-97339900D01*
X47300000Y-97463000D02*
X47372000Y-97397700D01*
X47234700Y-97535000D02*
X47300000Y-97463000D01*
X47176900Y-97613000D02*
X47234700Y-97535000D01*
X47126900Y-97696300D02*
X47176900Y-97613000D01*
X47085400Y-97784200D02*
X47126900Y-97696300D01*
X47052600Y-97875600D02*
X47085400Y-97784200D01*
X47029000Y-97969900D02*
X47052600Y-97875600D01*
X47014800Y-98066000D02*
X47029000Y-97969900D01*
X47010000Y-98163300D02*
X47014800Y-98066000D01*
X47010000Y-93180800D02*
X47010000Y-66715200D01*
X47014800Y-93278000D02*
X47010000Y-93180800D01*
X47029000Y-93374200D02*
X47014800Y-93278000D01*
X47052600Y-93468400D02*
X47029000Y-93374200D01*
X47085400Y-93559900D02*
X47052600Y-93468400D01*
X47126900Y-93647700D02*
X47085400Y-93559900D01*
X47176900Y-93731000D02*
X47126900Y-93647700D01*
X47234700Y-93809100D02*
X47176900Y-93731000D01*
X47300000Y-93881000D02*
X47234700Y-93809100D01*
X47372000Y-93946300D02*
X47300000Y-93881000D01*
X47450000Y-94004200D02*
X47372000Y-93946300D01*
X47533300Y-94054100D02*
X47450000Y-94004200D01*
X47621100Y-94095600D02*
X47533300Y-94054100D01*
X47712600Y-94128400D02*
X47621100Y-94095600D01*
X47806900Y-94152000D02*
X47712600Y-94128400D01*
X47903000Y-94166200D02*
X47806900Y-94152000D01*
X48000200Y-94171000D02*
X47903000Y-94166200D01*
X49008800Y-94171000D02*
X48000200Y-94171000D01*
X49106000Y-94166200D02*
X49008800Y-94171000D01*
X49202100Y-94152000D02*
X49106000Y-94166200D01*
X49296400Y-94128400D02*
X49202100Y-94152000D01*
X49387900Y-94095600D02*
X49296400Y-94128400D01*
X49475700Y-94054100D02*
X49387900Y-94095600D01*
X49559000Y-94004200D02*
X49475700Y-94054100D01*
X49637000Y-93946300D02*
X49559000Y-94004200D01*
X49709000Y-93881000D02*
X49637000Y-93946300D01*
X49774300Y-93809100D02*
X49709000Y-93881000D01*
X49832100Y-93731000D02*
X49774300Y-93809100D01*
X49882100Y-93647700D02*
X49832100Y-93731000D01*
X49923600Y-93559900D02*
X49882100Y-93647700D01*
X49956400Y-93468400D02*
X49923600Y-93559900D01*
X49980000Y-93374200D02*
X49956400Y-93468400D01*
X49994200Y-93278000D02*
X49980000Y-93374200D01*
X49999000Y-93180800D02*
X49994200Y-93278000D01*
X49999000Y-82470600D02*
X49999000Y-93180800D01*
X50003900Y-82370900D02*
X49999000Y-82470600D01*
X50006600Y-82344700D02*
X50003900Y-82370900D01*
X50021500Y-82252900D02*
X50006600Y-82344700D01*
X50045400Y-82162500D02*
X50021500Y-82252900D01*
X50053500Y-82137500D02*
X50045400Y-82162500D01*
X50087100Y-82050700D02*
X50053500Y-82137500D01*
X50129300Y-81967200D02*
X50087100Y-82050700D01*
X50142400Y-81944500D02*
X50129300Y-81967200D01*
X50186100Y-81877300D02*
X50142400Y-81944500D01*
X50201500Y-81856000D02*
X50186100Y-81877300D01*
X50260300Y-81783900D02*
X50201500Y-81856000D01*
X50326200Y-81717500D02*
X50260300Y-81783900D01*
X50345700Y-81700000D02*
X50326200Y-81717500D01*
X50418700Y-81641400D02*
X50345700Y-81700000D01*
X50507500Y-81583700D02*
X50418700Y-81641400D01*
X50590600Y-81540900D02*
X50507500Y-81583700D01*
X50614600Y-81530200D02*
X50590600Y-81540900D01*
X50702100Y-81497000D02*
X50614600Y-81530200D01*
X50804400Y-81469600D02*
X50702100Y-81497000D01*
X50896700Y-81454600D02*
X50804400Y-81469600D01*
X50922800Y-81451900D02*
X50896700Y-81454600D01*
X51022600Y-81447000D02*
X50922800Y-81451900D01*
X89545800Y-81447000D02*
X51022600Y-81447000D01*
X89643000Y-81442200D02*
X89545800Y-81447000D01*
X89739100Y-81428000D02*
X89643000Y-81442200D01*
X89833400Y-81404400D02*
X89739100Y-81428000D01*
X89924900Y-81371600D02*
X89833400Y-81404400D01*
X90012700Y-81330100D02*
X89924900Y-81371600D01*
X90096000Y-81280100D02*
X90012700Y-81330100D01*
X90174000Y-81222300D02*
X90096000Y-81280100D01*
X90246000Y-81157000D02*
X90174000Y-81222300D01*
X90311300Y-81085000D02*
X90246000Y-81157000D01*
X90369100Y-81007000D02*
X90311300Y-81085000D01*
X90419100Y-80923700D02*
X90369100Y-81007000D01*
X90460600Y-80835900D02*
X90419100Y-80923700D01*
X90493400Y-80744400D02*
X90460600Y-80835900D01*
X90517000Y-80650100D02*
X90493400Y-80744400D01*
X90531200Y-80554000D02*
X90517000Y-80650100D01*
X90536000Y-80456800D02*
X90531200Y-80554000D01*
X90536000Y-79439200D02*
X90536000Y-80456800D01*
X90531200Y-79342000D02*
X90536000Y-79439200D01*
X90517000Y-79245900D02*
X90531200Y-79342000D01*
X90493400Y-79151600D02*
X90517000Y-79245900D01*
X90460600Y-79060100D02*
X90493400Y-79151600D01*
X90419100Y-78972300D02*
X90460600Y-79060100D01*
X90369100Y-78889000D02*
X90419100Y-78972300D01*
X90311300Y-78811000D02*
X90369100Y-78889000D01*
X90246000Y-78739000D02*
X90311300Y-78811000D01*
X90174000Y-78673700D02*
X90246000Y-78739000D01*
X90096000Y-78615900D02*
X90174000Y-78673700D01*
X90012700Y-78565900D02*
X90096000Y-78615900D01*
X89924900Y-78524400D02*
X90012700Y-78565900D01*
X89833400Y-78491600D02*
X89924900Y-78524400D01*
X89739100Y-78468000D02*
X89833400Y-78491600D01*
X89643000Y-78453800D02*
X89739100Y-78468000D01*
X89545800Y-78449000D02*
X89643000Y-78453800D01*
X51022600Y-78449000D02*
X89545800Y-78449000D01*
X50922800Y-78444100D02*
X51022600Y-78449000D01*
X50896700Y-78441400D02*
X50922800Y-78444100D01*
X50804300Y-78426400D02*
X50896700Y-78441400D01*
X50702100Y-78399000D02*
X50804300Y-78426400D01*
X50614600Y-78365800D02*
X50702100Y-78399000D01*
X50590600Y-78355100D02*
X50614600Y-78365800D01*
X50507400Y-78312300D02*
X50590600Y-78355100D01*
X50418600Y-78254600D02*
X50507400Y-78312300D01*
X50345700Y-78196100D02*
X50418600Y-78254600D01*
X50326200Y-78178500D02*
X50345700Y-78196100D01*
X50260600Y-78112400D02*
X50326200Y-78178500D01*
X50201500Y-78040000D02*
X50260600Y-78112400D01*
X50186100Y-78018800D02*
X50201500Y-78040000D01*
X50135700Y-77940500D02*
X50186100Y-78018800D01*
X50092900Y-77857400D02*
X50135700Y-77940500D01*
X50082200Y-77833400D02*
X50092900Y-77857400D01*
X50049200Y-77746400D02*
X50082200Y-77833400D01*
X50024600Y-77656200D02*
X50049200Y-77746400D01*
X50019200Y-77630500D02*
X50024600Y-77656200D01*
X50006600Y-77551300D02*
X50019200Y-77630500D01*
X50003900Y-77525200D02*
X50006600Y-77551300D01*
X49999000Y-77425500D02*
X50003900Y-77525200D01*
X49999000Y-66715200D02*
X49999000Y-77425500D01*
X49994200Y-66618000D02*
X49999000Y-66715200D01*
X49980000Y-66521900D02*
X49994200Y-66618000D01*
X49956400Y-66427600D02*
X49980000Y-66521900D01*
X49923600Y-66336200D02*
X49956400Y-66427600D01*
X49882100Y-66248300D02*
X49923600Y-66336200D01*
X49832100Y-66165000D02*
X49882100Y-66248300D01*
X49774300Y-66087000D02*
X49832100Y-66165000D01*
X49709000Y-66015000D02*
X49774300Y-66087000D01*
X49637000Y-65949700D02*
X49709000Y-66015000D01*
X49559000Y-65891900D02*
X49637000Y-65949700D01*
X49475700Y-65841900D02*
X49559000Y-65891900D01*
X49387900Y-65800400D02*
X49475700Y-65841900D01*
X49296400Y-65767600D02*
X49387900Y-65800400D01*
X49202100Y-65744000D02*
X49296400Y-65767600D01*
X49106000Y-65729800D02*
X49202100Y-65744000D01*
X49008800Y-65725000D02*
X49106000Y-65729800D01*
X48000200Y-65725000D02*
X49008800Y-65725000D01*
X47903000Y-65729800D02*
X48000200Y-65725000D01*
X47806900Y-65744000D02*
X47903000Y-65729800D01*
X47712600Y-65767600D02*
X47806900Y-65744000D01*
X47621100Y-65800400D02*
X47712600Y-65767600D01*
X47533300Y-65841900D02*
X47621100Y-65800400D01*
X47450000Y-65891900D02*
X47533300Y-65841900D01*
X47372000Y-65949700D02*
X47450000Y-65891900D01*
X47300000Y-66015000D02*
X47372000Y-65949700D01*
X47234700Y-66087000D02*
X47300000Y-66015000D01*
X47176900Y-66165000D02*
X47234700Y-66087000D01*
X47126900Y-66248300D02*
X47176900Y-66165000D01*
X47085400Y-66336200D02*
X47126900Y-66248300D01*
X47052600Y-66427600D02*
X47085400Y-66336200D01*
X47029000Y-66521900D02*
X47052600Y-66427600D01*
X47014800Y-66618000D02*
X47029000Y-66521900D01*
X47010000Y-66715200D02*
X47014800Y-66618000D01*
X137064000Y-98163300D02*
X137064000Y-124628800D01*
X137059200Y-98066000D02*
X137064000Y-98163300D01*
X137045000Y-97969900D02*
X137059200Y-98066000D01*
X137021400Y-97875600D02*
X137045000Y-97969900D01*
X136988600Y-97784200D02*
X137021400Y-97875600D01*
X136947100Y-97696300D02*
X136988600Y-97784200D01*
X136897200Y-97613000D02*
X136947100Y-97696300D01*
X136839300Y-97535000D02*
X136897200Y-97613000D01*
X136774000Y-97463000D02*
X136839300Y-97535000D01*
X136702000Y-97397700D02*
X136774000Y-97463000D01*
X136624000Y-97339900D02*
X136702000Y-97397700D01*
X136540700Y-97289900D02*
X136624000Y-97339900D01*
X136452900Y-97248400D02*
X136540700Y-97289900D01*
X136361400Y-97215700D02*
X136452900Y-97248400D01*
X136267100Y-97192000D02*
X136361400Y-97215700D01*
X136171000Y-97177800D02*
X136267100Y-97192000D01*
X136073800Y-97173000D02*
X136171000Y-97177800D01*
X135065200Y-97173000D02*
X136073800Y-97173000D01*
X134968000Y-97177800D02*
X135065200Y-97173000D01*
X134871900Y-97192000D02*
X134968000Y-97177800D01*
X134777600Y-97215700D02*
X134871900Y-97192000D01*
X134686100Y-97248400D02*
X134777600Y-97215700D01*
X134598300Y-97289900D02*
X134686100Y-97248400D01*
X134515000Y-97339900D02*
X134598300Y-97289900D01*
X134437000Y-97397700D02*
X134515000Y-97339900D01*
X134365000Y-97463000D02*
X134437000Y-97397700D01*
X134299700Y-97535000D02*
X134365000Y-97463000D01*
X134241900Y-97613000D02*
X134299700Y-97535000D01*
X134191900Y-97696300D02*
X134241900Y-97613000D01*
X134150400Y-97784200D02*
X134191900Y-97696300D01*
X134117600Y-97875600D02*
X134150400Y-97784200D01*
X134094000Y-97969900D02*
X134117600Y-97875600D01*
X134079800Y-98066000D02*
X134094000Y-97969900D01*
X134075000Y-98163300D02*
X134079800Y-98066000D01*
X134074700Y-109140600D02*
X134075000Y-98163300D01*
X134070500Y-109213500D02*
X134074700Y-109140600D01*
X134060400Y-109279600D02*
X134070500Y-109213500D01*
X134054900Y-109305300D02*
X134060400Y-109279600D01*
X134037200Y-109370000D02*
X134054900Y-109305300D01*
X134008800Y-109444000D02*
X134037200Y-109370000D01*
X133978800Y-109503800D02*
X134008800Y-109444000D01*
X133965600Y-109526500D02*
X133978800Y-109503800D01*
X133928800Y-109582500D02*
X133965600Y-109526500D01*
X133878900Y-109644100D02*
X133928800Y-109582500D01*
X133831900Y-109691700D02*
X133878900Y-109644100D01*
X133812300Y-109709300D02*
X133831900Y-109691700D01*
X133760000Y-109751200D02*
X133812300Y-109709300D01*
X133693500Y-109794400D02*
X133760000Y-109751200D01*
X133634100Y-109825100D02*
X133693500Y-109794400D01*
X133610100Y-109835800D02*
X133634100Y-109825100D01*
X133547400Y-109859400D02*
X133610100Y-109835800D01*
X133470800Y-109879900D02*
X133547400Y-109859400D01*
X133404800Y-109890800D02*
X133470800Y-109879900D01*
X133378600Y-109893500D02*
X133404800Y-109890800D01*
X133305500Y-109897000D02*
X133378600Y-109893500D01*
X94528200Y-109897000D02*
X133305500Y-109897000D01*
X94431000Y-109901800D02*
X94528200Y-109897000D01*
X94334900Y-109916000D02*
X94431000Y-109901800D01*
X94240600Y-109939600D02*
X94334900Y-109916000D01*
X94149200Y-109972400D02*
X94240600Y-109939600D01*
X94061300Y-110013900D02*
X94149200Y-109972400D01*
X93978000Y-110063900D02*
X94061300Y-110013900D01*
X93900000Y-110121700D02*
X93978000Y-110063900D01*
X93828000Y-110187000D02*
X93900000Y-110121700D01*
X93762700Y-110259000D02*
X93828000Y-110187000D01*
X93704900Y-110337000D02*
X93762700Y-110259000D01*
X93654900Y-110420300D02*
X93704900Y-110337000D01*
X93613400Y-110508200D02*
X93654900Y-110420300D01*
X93580600Y-110599600D02*
X93613400Y-110508200D01*
X93557000Y-110693900D02*
X93580600Y-110599600D01*
X93542800Y-110790000D02*
X93557000Y-110693900D01*
X93538000Y-110887300D02*
X93542800Y-110790000D01*
X93538000Y-111904800D02*
X93538000Y-110887300D01*
X93542800Y-112002000D02*
X93538000Y-111904800D01*
X93557000Y-112098100D02*
X93542800Y-112002000D01*
X93580600Y-112192400D02*
X93557000Y-112098100D01*
X93613400Y-112283900D02*
X93580600Y-112192400D01*
X93654900Y-112371700D02*
X93613400Y-112283900D01*
X93704900Y-112455000D02*
X93654900Y-112371700D01*
X93762700Y-112533100D02*
X93704900Y-112455000D01*
X93828000Y-112605000D02*
X93762700Y-112533100D01*
X93900000Y-112670300D02*
X93828000Y-112605000D01*
X93978000Y-112728200D02*
X93900000Y-112670300D01*
X94061300Y-112778100D02*
X93978000Y-112728200D01*
X94149200Y-112819600D02*
X94061300Y-112778100D01*
X94240600Y-112852400D02*
X94149200Y-112819600D01*
X94334900Y-112876000D02*
X94240600Y-112852400D01*
X94431000Y-112890200D02*
X94334900Y-112876000D01*
X94528200Y-112895000D02*
X94431000Y-112890200D01*
X133305400Y-112895000D02*
X94528200Y-112895000D01*
X133378600Y-112898500D02*
X133305400Y-112895000D01*
X133404700Y-112901300D02*
X133378600Y-112898500D01*
X133470800Y-112912100D02*
X133404700Y-112901300D01*
X133547400Y-112932600D02*
X133470800Y-112912100D01*
X133610000Y-112956300D02*
X133547400Y-112932600D01*
X133634100Y-112966900D02*
X133610000Y-112956300D01*
X133693600Y-112997700D02*
X133634100Y-112966900D01*
X133760100Y-113040900D02*
X133693600Y-112997700D01*
X133812300Y-113082700D02*
X133760100Y-113040900D01*
X133831800Y-113100300D02*
X133812300Y-113082700D01*
X133879000Y-113147900D02*
X133831800Y-113100300D01*
X133928900Y-113209600D02*
X133879000Y-113147900D01*
X133965600Y-113265500D02*
X133928900Y-113209600D01*
X133978700Y-113288200D02*
X133965600Y-113265500D01*
X134008800Y-113348100D02*
X133978700Y-113288200D01*
X134037300Y-113422100D02*
X134008800Y-113348100D01*
X134054900Y-113486700D02*
X134037300Y-113422100D01*
X134060400Y-113512400D02*
X134054900Y-113486700D01*
X134070500Y-113578600D02*
X134060400Y-113512400D01*
X134074700Y-113651400D02*
X134070500Y-113578600D01*
X134075000Y-124628800D02*
X134074700Y-113651400D01*
X134079800Y-124726100D02*
X134075000Y-124628800D01*
X134094000Y-124822200D02*
X134079800Y-124726100D01*
X134117600Y-124916400D02*
X134094000Y-124822200D01*
X134150400Y-125007900D02*
X134117600Y-124916400D01*
X134191900Y-125095700D02*
X134150400Y-125007900D01*
X134241900Y-125179000D02*
X134191900Y-125095700D01*
X134299700Y-125257100D02*
X134241900Y-125179000D01*
X134365000Y-125329000D02*
X134299700Y-125257100D01*
X134437000Y-125394300D02*
X134365000Y-125329000D01*
X134515000Y-125452200D02*
X134437000Y-125394300D01*
X134598300Y-125502100D02*
X134515000Y-125452200D01*
X134686100Y-125543700D02*
X134598300Y-125502100D01*
X134777600Y-125576400D02*
X134686100Y-125543700D01*
X134871900Y-125600000D02*
X134777600Y-125576400D01*
X134968000Y-125614200D02*
X134871900Y-125600000D01*
X135065200Y-125619000D02*
X134968000Y-125614200D01*
X136073800Y-125619000D02*
X135065200Y-125619000D01*
X136171000Y-125614200D02*
X136073800Y-125619000D01*
X136267100Y-125600000D02*
X136171000Y-125614200D01*
X136361400Y-125576400D02*
X136267100Y-125600000D01*
X136452900Y-125543700D02*
X136361400Y-125576400D01*
X136540700Y-125502100D02*
X136452900Y-125543700D01*
X136624000Y-125452200D02*
X136540700Y-125502100D01*
X136702000Y-125394300D02*
X136624000Y-125452200D01*
X136774000Y-125329000D02*
X136702000Y-125394300D01*
X136839300Y-125257100D02*
X136774000Y-125329000D01*
X136897200Y-125179000D02*
X136839300Y-125257100D01*
X136947100Y-125095700D02*
X136897200Y-125179000D01*
X136988600Y-125007900D02*
X136947100Y-125095700D01*
X137021400Y-124916400D02*
X136988600Y-125007900D01*
X137045000Y-124822200D02*
X137021400Y-124916400D01*
X137059200Y-124726100D02*
X137045000Y-124822200D01*
X137064000Y-124628800D02*
X137059200Y-124726100D01*
X137064000Y-66715200D02*
X137064000Y-93180800D01*
X137059200Y-66618000D02*
X137064000Y-66715200D01*
X137045000Y-66521900D02*
X137059200Y-66618000D01*
X137021400Y-66427600D02*
X137045000Y-66521900D01*
X136988600Y-66336200D02*
X137021400Y-66427600D01*
X136947100Y-66248300D02*
X136988600Y-66336200D01*
X136897200Y-66165000D02*
X136947100Y-66248300D01*
X136839300Y-66087000D02*
X136897200Y-66165000D01*
X136774000Y-66015000D02*
X136839300Y-66087000D01*
X136702000Y-65949700D02*
X136774000Y-66015000D01*
X136624000Y-65891900D02*
X136702000Y-65949700D01*
X136540700Y-65841900D02*
X136624000Y-65891900D01*
X136452900Y-65800400D02*
X136540700Y-65841900D01*
X136361400Y-65767600D02*
X136452900Y-65800400D01*
X136267100Y-65744000D02*
X136361400Y-65767600D01*
X136171000Y-65729800D02*
X136267100Y-65744000D01*
X136073800Y-65725000D02*
X136171000Y-65729800D01*
X135065200Y-65725000D02*
X136073800Y-65725000D01*
X134968000Y-65729800D02*
X135065200Y-65725000D01*
X134871900Y-65744000D02*
X134968000Y-65729800D01*
X134777600Y-65767600D02*
X134871900Y-65744000D01*
X134686100Y-65800400D02*
X134777600Y-65767600D01*
X134598300Y-65841900D02*
X134686100Y-65800400D01*
X134515000Y-65891900D02*
X134598300Y-65841900D01*
X134437000Y-65949700D02*
X134515000Y-65891900D01*
X134365000Y-66015000D02*
X134437000Y-65949700D01*
X134299700Y-66087000D02*
X134365000Y-66015000D01*
X134241900Y-66165000D02*
X134299700Y-66087000D01*
X134191900Y-66248300D02*
X134241900Y-66165000D01*
X134150400Y-66336200D02*
X134191900Y-66248300D01*
X134117600Y-66427600D02*
X134150400Y-66336200D01*
X134094000Y-66521900D02*
X134117600Y-66427600D01*
X134079800Y-66618000D02*
X134094000Y-66521900D01*
X134075000Y-66715200D02*
X134079800Y-66618000D01*
X134074700Y-77692600D02*
X134075000Y-66715200D01*
X134070500Y-77765500D02*
X134074700Y-77692600D01*
X134060400Y-77831600D02*
X134070500Y-77765500D01*
X134054900Y-77857300D02*
X134060400Y-77831600D01*
X134037200Y-77921900D02*
X134054900Y-77857300D01*
X134008800Y-77996000D02*
X134037200Y-77921900D01*
X133978800Y-78055800D02*
X134008800Y-77996000D01*
X133965600Y-78078500D02*
X133978800Y-78055800D01*
X133928800Y-78134500D02*
X133965600Y-78078500D01*
X133878900Y-78196100D02*
X133928800Y-78134500D01*
X133831900Y-78243700D02*
X133878900Y-78196100D01*
X133812300Y-78261300D02*
X133831900Y-78243700D01*
X133760000Y-78303200D02*
X133812300Y-78261300D01*
X133693500Y-78346400D02*
X133760000Y-78303200D01*
X133634100Y-78377100D02*
X133693500Y-78346400D01*
X133610100Y-78387700D02*
X133634100Y-78377100D01*
X133547400Y-78411400D02*
X133610100Y-78387700D01*
X133470800Y-78431900D02*
X133547400Y-78411400D01*
X133404800Y-78442800D02*
X133470800Y-78431900D01*
X133378600Y-78445500D02*
X133404800Y-78442800D01*
X133305500Y-78449000D02*
X133378600Y-78445500D01*
X94528200Y-78449000D02*
X133305500Y-78449000D01*
X94431000Y-78453800D02*
X94528200Y-78449000D01*
X94334900Y-78468000D02*
X94431000Y-78453800D01*
X94240600Y-78491600D02*
X94334900Y-78468000D01*
X94149200Y-78524400D02*
X94240600Y-78491600D01*
X94061300Y-78565900D02*
X94149200Y-78524400D01*
X93978000Y-78615900D02*
X94061300Y-78565900D01*
X93900000Y-78673700D02*
X93978000Y-78615900D01*
X93828000Y-78739000D02*
X93900000Y-78673700D01*
X93762700Y-78811000D02*
X93828000Y-78739000D01*
X93704900Y-78889000D02*
X93762700Y-78811000D01*
X93654900Y-78972300D02*
X93704900Y-78889000D01*
X93613400Y-79060100D02*
X93654900Y-78972300D01*
X93580600Y-79151600D02*
X93613400Y-79060100D01*
X93557000Y-79245900D02*
X93580600Y-79151600D01*
X93542800Y-79342000D02*
X93557000Y-79245900D01*
X93538000Y-79439200D02*
X93542800Y-79342000D01*
X93538000Y-80456800D02*
X93538000Y-79439200D01*
X93542800Y-80554000D02*
X93538000Y-80456800D01*
X93557000Y-80650100D02*
X93542800Y-80554000D01*
X93580600Y-80744400D02*
X93557000Y-80650100D01*
X93613400Y-80835900D02*
X93580600Y-80744400D01*
X93654900Y-80923700D02*
X93613400Y-80835900D01*
X93704900Y-81007000D02*
X93654900Y-80923700D01*
X93762700Y-81085000D02*
X93704900Y-81007000D01*
X93828000Y-81157000D02*
X93762700Y-81085000D01*
X93900000Y-81222300D02*
X93828000Y-81157000D01*
X93978000Y-81280200D02*
X93900000Y-81222300D01*
X94061300Y-81330100D02*
X93978000Y-81280200D01*
X94149200Y-81371600D02*
X94061300Y-81330100D01*
X94240600Y-81404400D02*
X94149200Y-81371600D01*
X94334900Y-81428000D02*
X94240600Y-81404400D01*
X94431000Y-81442200D02*
X94334900Y-81428000D01*
X94528200Y-81447000D02*
X94431000Y-81442200D01*
X133305400Y-81447000D02*
X94528200Y-81447000D01*
X133378600Y-81450500D02*
X133305400Y-81447000D01*
X133404700Y-81453200D02*
X133378600Y-81450500D01*
X133470800Y-81464100D02*
X133404700Y-81453200D01*
X133547400Y-81484600D02*
X133470800Y-81464100D01*
X133610000Y-81508300D02*
X133547400Y-81484600D01*
X133634100Y-81518900D02*
X133610000Y-81508300D01*
X133693600Y-81549700D02*
X133634100Y-81518900D01*
X133760100Y-81592900D02*
X133693600Y-81549700D01*
X133812300Y-81634700D02*
X133760100Y-81592900D01*
X133831800Y-81652300D02*
X133812300Y-81634700D01*
X133879000Y-81699900D02*
X133831800Y-81652300D01*
X133928900Y-81761500D02*
X133879000Y-81699900D01*
X133965600Y-81817500D02*
X133928900Y-81761500D01*
X133978700Y-81840200D02*
X133965600Y-81817500D01*
X134008800Y-81900100D02*
X133978700Y-81840200D01*
X134037300Y-81974100D02*
X134008800Y-81900100D01*
X134054900Y-82038700D02*
X134037300Y-81974100D01*
X134060400Y-82064400D02*
X134054900Y-82038700D01*
X134070500Y-82130600D02*
X134060400Y-82064400D01*
X134074700Y-82203400D02*
X134070500Y-82130600D01*
X134075000Y-93180800D02*
X134074700Y-82203400D01*
X134079800Y-93278000D02*
X134075000Y-93180800D01*
X134094000Y-93374200D02*
X134079800Y-93278000D01*
X134117600Y-93468400D02*
X134094000Y-93374200D01*
X134150400Y-93559900D02*
X134117600Y-93468400D01*
X134191900Y-93647700D02*
X134150400Y-93559900D01*
X134241900Y-93731000D02*
X134191900Y-93647700D01*
X134299700Y-93809100D02*
X134241900Y-93731000D01*
X134365000Y-93881000D02*
X134299700Y-93809100D01*
X134437000Y-93946300D02*
X134365000Y-93881000D01*
X134515000Y-94004200D02*
X134437000Y-93946300D01*
X134598300Y-94054100D02*
X134515000Y-94004200D01*
X134686100Y-94095600D02*
X134598300Y-94054100D01*
X134777600Y-94128400D02*
X134686100Y-94095600D01*
X134871900Y-94152000D02*
X134777600Y-94128400D01*
X134968000Y-94166200D02*
X134871900Y-94152000D01*
X135065200Y-94171000D02*
X134968000Y-94166200D01*
X136073800Y-94171000D02*
X135065200Y-94171000D01*
X136171000Y-94166200D02*
X136073800Y-94171000D01*
X136267100Y-94152000D02*
X136171000Y-94166200D01*
X136361400Y-94128400D02*
X136267100Y-94152000D01*
X136452900Y-94095600D02*
X136361400Y-94128400D01*
X136540700Y-94054100D02*
X136452900Y-94095600D01*
X136624000Y-94004200D02*
X136540700Y-94054100D01*
X136702000Y-93946300D02*
X136624000Y-94004200D01*
X136774000Y-93881000D02*
X136702000Y-93946300D01*
X136839300Y-93809100D02*
X136774000Y-93881000D01*
X136897200Y-93731000D02*
X136839300Y-93809100D01*
X136947100Y-93647700D02*
X136897200Y-93731000D01*
X136988600Y-93559900D02*
X136947100Y-93647700D01*
X137021400Y-93468400D02*
X136988600Y-93559900D01*
X137045000Y-93374200D02*
X137021400Y-93468400D01*
X137059200Y-93278000D02*
X137045000Y-93374200D01*
X137064000Y-93180800D02*
X137059200Y-93278000D01*
X137064000Y-48000200D02*
X137064000Y-61732800D01*
X137059200Y-47903000D02*
X137064000Y-48000200D01*
X137045000Y-47806900D02*
X137059200Y-47903000D01*
X137021400Y-47712600D02*
X137045000Y-47806900D01*
X136988600Y-47621100D02*
X137021400Y-47712600D01*
X136947100Y-47533300D02*
X136988600Y-47621100D01*
X136897200Y-47450000D02*
X136947100Y-47533300D01*
X136839300Y-47372000D02*
X136897200Y-47450000D01*
X136774000Y-47300000D02*
X136839300Y-47372000D01*
X136702000Y-47234700D02*
X136774000Y-47300000D01*
X136624000Y-47176900D02*
X136702000Y-47234700D01*
X136540700Y-47126900D02*
X136624000Y-47176900D01*
X136452900Y-47085400D02*
X136540700Y-47126900D01*
X136361400Y-47052600D02*
X136452900Y-47085400D01*
X136267100Y-47029000D02*
X136361400Y-47052600D01*
X136171000Y-47014800D02*
X136267100Y-47029000D01*
X136073800Y-47010000D02*
X136171000Y-47014800D01*
X94528200Y-47010000D02*
X136073800Y-47010000D01*
X94431000Y-47014800D02*
X94528200Y-47010000D01*
X94334900Y-47029000D02*
X94431000Y-47014800D01*
X94240600Y-47052600D02*
X94334900Y-47029000D01*
X94149200Y-47085400D02*
X94240600Y-47052600D01*
X94061300Y-47126900D02*
X94149200Y-47085400D01*
X93978000Y-47176900D02*
X94061300Y-47126900D01*
X93900000Y-47234700D02*
X93978000Y-47176900D01*
X93828000Y-47300000D02*
X93900000Y-47234700D01*
X93762700Y-47372000D02*
X93828000Y-47300000D01*
X93704900Y-47450000D02*
X93762700Y-47372000D01*
X93654900Y-47533300D02*
X93704900Y-47450000D01*
X93613400Y-47621100D02*
X93654900Y-47533300D01*
X93580600Y-47712600D02*
X93613400Y-47621100D01*
X93557000Y-47806900D02*
X93580600Y-47712600D01*
X93542800Y-47903000D02*
X93557000Y-47806900D01*
X93538000Y-48000200D02*
X93542800Y-47903000D01*
X93538000Y-49008800D02*
X93538000Y-48000200D01*
X93542800Y-49106000D02*
X93538000Y-49008800D01*
X93557000Y-49202100D02*
X93542800Y-49106000D01*
X93580600Y-49296400D02*
X93557000Y-49202100D01*
X93613400Y-49387900D02*
X93580600Y-49296400D01*
X93654900Y-49475700D02*
X93613400Y-49387900D01*
X93704900Y-49559000D02*
X93654900Y-49475700D01*
X93762700Y-49637000D02*
X93704900Y-49559000D01*
X93828000Y-49709000D02*
X93762700Y-49637000D01*
X93900000Y-49774300D02*
X93828000Y-49709000D01*
X93978000Y-49832100D02*
X93900000Y-49774300D01*
X94061300Y-49882100D02*
X93978000Y-49832100D01*
X94149200Y-49923600D02*
X94061300Y-49882100D01*
X94240600Y-49956400D02*
X94149200Y-49923600D01*
X94334900Y-49980000D02*
X94240600Y-49956400D01*
X94431000Y-49994200D02*
X94334900Y-49980000D01*
X94528200Y-49999000D02*
X94431000Y-49994200D01*
X133305400Y-49999000D02*
X94528200Y-49999000D01*
X133378600Y-50002500D02*
X133305400Y-49999000D01*
X133404700Y-50005200D02*
X133378600Y-50002500D01*
X133470800Y-50016100D02*
X133404700Y-50005200D01*
X133547400Y-50036600D02*
X133470800Y-50016100D01*
X133610000Y-50060200D02*
X133547400Y-50036600D01*
X133634100Y-50070900D02*
X133610000Y-50060200D01*
X133693600Y-50101700D02*
X133634100Y-50070900D01*
X133760100Y-50144900D02*
X133693600Y-50101700D01*
X133812300Y-50186700D02*
X133760100Y-50144900D01*
X133831800Y-50204300D02*
X133812300Y-50186700D01*
X133879000Y-50251900D02*
X133831800Y-50204300D01*
X133928900Y-50313500D02*
X133879000Y-50251900D01*
X133965600Y-50369500D02*
X133928900Y-50313500D01*
X133978700Y-50392200D02*
X133965600Y-50369500D01*
X134008800Y-50452100D02*
X133978700Y-50392200D01*
X134037300Y-50526100D02*
X134008800Y-50452100D01*
X134054900Y-50590600D02*
X134037300Y-50526100D01*
X134060400Y-50616300D02*
X134054900Y-50590600D01*
X134070500Y-50682600D02*
X134060400Y-50616300D01*
X134074700Y-50755400D02*
X134070500Y-50682600D01*
X134075000Y-61732800D02*
X134074700Y-50755400D01*
X134079800Y-61830000D02*
X134075000Y-61732800D01*
X134094000Y-61926100D02*
X134079800Y-61830000D01*
X134117600Y-62020400D02*
X134094000Y-61926100D01*
X134150400Y-62111900D02*
X134117600Y-62020400D01*
X134191900Y-62199700D02*
X134150400Y-62111900D01*
X134241900Y-62283000D02*
X134191900Y-62199700D01*
X134299700Y-62361000D02*
X134241900Y-62283000D01*
X134365000Y-62433000D02*
X134299700Y-62361000D01*
X134437000Y-62498300D02*
X134365000Y-62433000D01*
X134515000Y-62556100D02*
X134437000Y-62498300D01*
X134598300Y-62606100D02*
X134515000Y-62556100D01*
X134686100Y-62647600D02*
X134598300Y-62606100D01*
X134777600Y-62680400D02*
X134686100Y-62647600D01*
X134871900Y-62704000D02*
X134777600Y-62680400D01*
X134968000Y-62718200D02*
X134871900Y-62704000D01*
X135065200Y-62723000D02*
X134968000Y-62718200D01*
X136073800Y-62723000D02*
X135065200Y-62723000D01*
X136171000Y-62718200D02*
X136073800Y-62723000D01*
X136267100Y-62704000D02*
X136171000Y-62718200D01*
X136361400Y-62680400D02*
X136267100Y-62704000D01*
X136452900Y-62647600D02*
X136361400Y-62680400D01*
X136540700Y-62606100D02*
X136452900Y-62647600D01*
X136624000Y-62556100D02*
X136540700Y-62606100D01*
X136702000Y-62498300D02*
X136624000Y-62556100D01*
X136774000Y-62433000D02*
X136702000Y-62498300D01*
X136839300Y-62361000D02*
X136774000Y-62433000D01*
X136897200Y-62283000D02*
X136839300Y-62361000D01*
X136947100Y-62199700D02*
X136897200Y-62283000D01*
X136988600Y-62111900D02*
X136947100Y-62199700D01*
X137021400Y-62020400D02*
X136988600Y-62111900D01*
X137045000Y-61926100D02*
X137021400Y-62020400D01*
X137059200Y-61830000D02*
X137045000Y-61926100D01*
X137064000Y-61732800D02*
X137059200Y-61830000D01*
X136073800Y-144334000D02*
X94528200Y-144334000D01*
X136171000Y-144329200D02*
X136073800Y-144334000D01*
X136267100Y-144315000D02*
X136171000Y-144329200D01*
X136361400Y-144291400D02*
X136267100Y-144315000D01*
X136452900Y-144258700D02*
X136361400Y-144291400D01*
X136540700Y-144217100D02*
X136452900Y-144258700D01*
X136624000Y-144167200D02*
X136540700Y-144217100D01*
X136702000Y-144109300D02*
X136624000Y-144167200D01*
X136774000Y-144044100D02*
X136702000Y-144109300D01*
X136839300Y-143972100D02*
X136774000Y-144044100D01*
X136897200Y-143894000D02*
X136839300Y-143972100D01*
X136947100Y-143810700D02*
X136897200Y-143894000D01*
X136988600Y-143722900D02*
X136947100Y-143810700D01*
X137021400Y-143631400D02*
X136988600Y-143722900D01*
X137045000Y-143537200D02*
X137021400Y-143631400D01*
X137059200Y-143441100D02*
X137045000Y-143537200D01*
X137064000Y-143343800D02*
X137059200Y-143441100D01*
X137064000Y-129611300D02*
X137064000Y-143343800D01*
X137059200Y-129514000D02*
X137064000Y-129611300D01*
X137045000Y-129417900D02*
X137059200Y-129514000D01*
X137021400Y-129323600D02*
X137045000Y-129417900D01*
X136988600Y-129232200D02*
X137021400Y-129323600D01*
X136947100Y-129144300D02*
X136988600Y-129232200D01*
X136897200Y-129061000D02*
X136947100Y-129144300D01*
X136839300Y-128983000D02*
X136897200Y-129061000D01*
X136774000Y-128911000D02*
X136839300Y-128983000D01*
X136702000Y-128845800D02*
X136774000Y-128911000D01*
X136624000Y-128787900D02*
X136702000Y-128845800D01*
X136540700Y-128737900D02*
X136624000Y-128787900D01*
X136452900Y-128696400D02*
X136540700Y-128737900D01*
X136361400Y-128663700D02*
X136452900Y-128696400D01*
X136267100Y-128640100D02*
X136361400Y-128663700D01*
X136171000Y-128625800D02*
X136267100Y-128640100D01*
X136073800Y-128621000D02*
X136171000Y-128625800D01*
X135065200Y-128621000D02*
X136073800Y-128621000D01*
X134968000Y-128625800D02*
X135065200Y-128621000D01*
X134871900Y-128640100D02*
X134968000Y-128625800D01*
X134777600Y-128663700D02*
X134871900Y-128640100D01*
X134686100Y-128696400D02*
X134777600Y-128663700D01*
X134598300Y-128737900D02*
X134686100Y-128696400D01*
X134515000Y-128787900D02*
X134598300Y-128737900D01*
X134437000Y-128845800D02*
X134515000Y-128787900D01*
X134365000Y-128911000D02*
X134437000Y-128845800D01*
X134299700Y-128983000D02*
X134365000Y-128911000D01*
X134241900Y-129061000D02*
X134299700Y-128983000D01*
X134191900Y-129144300D02*
X134241900Y-129061000D01*
X134150400Y-129232200D02*
X134191900Y-129144300D01*
X134117600Y-129323600D02*
X134150400Y-129232200D01*
X134094000Y-129417900D02*
X134117600Y-129323600D01*
X134079800Y-129514000D02*
X134094000Y-129417900D01*
X134075000Y-129611300D02*
X134079800Y-129514000D01*
X134074700Y-140588600D02*
X134075000Y-129611300D01*
X134070500Y-140661500D02*
X134074700Y-140588600D01*
X134060400Y-140727600D02*
X134070500Y-140661500D01*
X134054900Y-140753400D02*
X134060400Y-140727600D01*
X134037200Y-140818000D02*
X134054900Y-140753400D01*
X134008800Y-140892000D02*
X134037200Y-140818000D01*
X133978800Y-140951800D02*
X134008800Y-140892000D01*
X133965600Y-140974500D02*
X133978800Y-140951800D01*
X133928800Y-141030500D02*
X133965600Y-140974500D01*
X133878900Y-141092200D02*
X133928800Y-141030500D01*
X133831900Y-141139700D02*
X133878900Y-141092200D01*
X133812300Y-141157300D02*
X133831900Y-141139700D01*
X133760000Y-141199200D02*
X133812300Y-141157300D01*
X133693500Y-141242400D02*
X133760000Y-141199200D01*
X133634100Y-141273100D02*
X133693500Y-141242400D01*
X133610100Y-141283800D02*
X133634100Y-141273100D01*
X133547900Y-141307300D02*
X133610100Y-141283800D01*
X133470800Y-141328000D02*
X133547900Y-141307300D01*
X133404800Y-141338800D02*
X133470800Y-141328000D01*
X133378600Y-141341500D02*
X133404800Y-141338800D01*
X133305500Y-141345000D02*
X133378600Y-141341500D01*
X94528200Y-141345000D02*
X133305500Y-141345000D01*
X94431000Y-141349800D02*
X94528200Y-141345000D01*
X94334900Y-141364000D02*
X94431000Y-141349800D01*
X94240600Y-141387600D02*
X94334900Y-141364000D01*
X94149200Y-141420400D02*
X94240600Y-141387600D01*
X94061300Y-141461900D02*
X94149200Y-141420400D01*
X93978000Y-141511900D02*
X94061300Y-141461900D01*
X93900000Y-141569700D02*
X93978000Y-141511900D01*
X93828000Y-141635000D02*
X93900000Y-141569700D01*
X93762700Y-141707000D02*
X93828000Y-141635000D01*
X93704900Y-141785000D02*
X93762700Y-141707000D01*
X93654900Y-141868300D02*
X93704900Y-141785000D01*
X93613400Y-141956200D02*
X93654900Y-141868300D01*
X93580600Y-142047600D02*
X93613400Y-141956200D01*
X93557000Y-142141900D02*
X93580600Y-142047600D01*
X93542800Y-142238000D02*
X93557000Y-142141900D01*
X93538000Y-142335300D02*
X93542800Y-142238000D01*
X93538000Y-143343800D02*
X93538000Y-142335300D01*
X93542800Y-143441100D02*
X93538000Y-143343800D01*
X93557000Y-143537200D02*
X93542800Y-143441100D01*
X93580600Y-143631400D02*
X93557000Y-143537200D01*
X93613400Y-143722900D02*
X93580600Y-143631400D01*
X93654900Y-143810700D02*
X93613400Y-143722900D01*
X93704900Y-143894000D02*
X93654900Y-143810700D01*
X93762700Y-143972100D02*
X93704900Y-143894000D01*
X93828000Y-144044100D02*
X93762700Y-143972100D01*
X93900000Y-144109300D02*
X93828000Y-144044100D01*
X93978000Y-144167200D02*
X93900000Y-144109300D01*
X94061300Y-144217100D02*
X93978000Y-144167200D01*
X94149200Y-144258700D02*
X94061300Y-144217100D01*
X94240600Y-144291400D02*
X94149200Y-144258700D01*
X94334900Y-144315000D02*
X94240600Y-144291400D01*
X94431000Y-144329200D02*
X94334900Y-144315000D01*
X94528200Y-144334000D02*
X94431000Y-144329200D01*
X42037800Y-45681200D02*
X42037000Y-45696100D01*
X42041000Y-45675300D02*
X42037800Y-45681200D01*
X42046200Y-45672800D02*
X42041000Y-45675300D01*
X42061600Y-45672000D02*
X42046200Y-45672800D01*
X142012500Y-45672000D02*
X42061600Y-45672000D01*
X142027800Y-45672800D02*
X142012500Y-45672000D01*
X142033000Y-45675300D02*
X142027800Y-45672800D01*
X142036200Y-45681200D02*
X142033000Y-45675300D01*
X142037000Y-45696600D02*
X142036200Y-45681200D01*
X142037000Y-145647500D02*
X142037000Y-45696600D01*
X142036200Y-145662800D02*
X142037000Y-145647500D01*
X142033700Y-145668000D02*
X142036200Y-145662800D01*
X142027800Y-145671200D02*
X142033700Y-145668000D01*
X142012500Y-145672000D02*
X142027800Y-145671200D01*
X42061600Y-145672000D02*
X142012500Y-145672000D01*
X42046200Y-145671200D02*
X42061600Y-145672000D01*
X42041000Y-145668700D02*
X42046200Y-145671200D01*
X42037800Y-145662800D02*
X42041000Y-145668700D01*
X42037000Y-145647500D02*
X42037800Y-145662800D01*
X42037000Y-45696100D02*
X42037000Y-145647500D01*
M02*
