M48
; DRILL file {KiCad 5.1.5+dfsg1-2build2} date pon, 22 mar 2021, 12:15:29
; FORMAT={-:-/ absolute / inch / decimal}
; #@! TF.CreationDate,2021-03-22T12:15:29+01:00
; #@! TF.GenerationSoftware,Kicad,Pcbnew,5.1.5+dfsg1-2build2
; #@! TF.FileFunction,Plated,1,2,PTH
FMAT,2
INCH
T1C0.0010
T2C0.0118
T3C0.0157
T4C0.0315
T5C0.0394
%
G90
G05
T1
X2.0374Y-2.5017
X2.0374Y-2.8553
X2.28Y-2.5159
X2.28Y-2.8411
X2.0374Y-4.978
X2.0374Y-5.3315
X2.28Y-4.9921
X2.28Y-5.3173
X2.0374Y-3.7398
X2.0374Y-4.0934
X2.28Y-3.754
X2.28Y-4.0792
T2
X2.8488Y-3.8262
X2.8488Y-3.8616
X2.8488Y-3.897
X2.8882Y-3.8262
X2.8882Y-3.8616
X2.8882Y-3.897
X4.2235Y-4.8404
X4.2235Y-4.8797
X4.2235Y-4.9191
X2.8488Y-2.5881
X2.8488Y-2.6235
X2.8488Y-2.6589
X2.8882Y-2.5881
X2.8882Y-2.6235
X2.8882Y-2.6589
X4.2235Y-3.6022
X4.2235Y-3.6416
X4.2235Y-3.681
X2.8488Y-5.0643
X2.8488Y-5.0997
X2.8488Y-5.1352
X2.8882Y-5.0643
X2.8882Y-5.0997
X2.8882Y-5.1352
X4.2235Y-2.3641
X4.2235Y-2.4035
X4.2235Y-2.4429
T3
X2.2139Y-2.8657
X2.2139Y-4.1038
X2.2139Y-5.3419
X2.2285Y-2.4285
X2.2285Y-2.8085
X2.2285Y-3.6666
X2.2285Y-4.0466
X2.2285Y-4.9047
X2.2285Y-5.2847
X2.244Y-2.9104
X2.244Y-4.1485
X2.244Y-5.3866
X2.2475Y-2.6945
X2.2475Y-3.9326
X2.2475Y-5.1707
X2.2535Y-2.6585
X2.2535Y-3.8966
X2.2535Y-5.1347
X2.2785Y-2.7885
X2.2785Y-4.0266
X2.2785Y-5.2647
X2.2885Y-2.8985
X2.2885Y-4.1366
X2.2885Y-5.3747
X2.3035Y-2.2999
X2.3035Y-3.538
X2.3035Y-4.7761
X2.3428Y-2.8595
X2.3428Y-4.0976
X2.3428Y-5.3357
X2.3485Y-2.2185
X2.3485Y-3.4566
X2.3485Y-4.6947
X2.3491Y-2.9253
X2.3491Y-4.1635
X2.3491Y-5.4016
X2.375Y-2.8799
X2.375Y-4.118
X2.375Y-5.3561
X2.3841Y-2.9371
X2.3841Y-4.1752
X2.3841Y-5.4133
X2.3985Y-2.2185
X2.3985Y-3.4566
X2.3985Y-4.6947
X2.425Y-2.692
X2.425Y-2.7285
X2.425Y-3.9301
X2.425Y-3.9666
X2.425Y-5.1682
X2.425Y-5.2047
X2.4284Y-2.1535
X2.4284Y-3.3916
X2.4284Y-4.6297
X2.4306Y-2.1899
X2.4306Y-3.428
X2.4306Y-4.6661
X2.4624Y-2.4244
X2.4624Y-3.6625
X2.4624Y-4.9007
X2.4885Y-2.2085
X2.4885Y-3.4466
X2.4885Y-4.6847
X2.4917Y-2.4537
X2.4917Y-3.6918
X2.4917Y-4.9299
X2.492Y-2.4985
X2.492Y-3.7366
X2.492Y-4.9747
X2.4985Y-2.8085
X2.4985Y-4.0466
X2.4985Y-5.2847
X2.5185Y-2.6785
X2.5185Y-3.9166
X2.5185Y-5.1547
X2.5785Y-2.5485
X2.5785Y-3.7866
X2.5785Y-5.0247
X2.5937Y-2.2157
X2.5937Y-3.4539
X2.5937Y-4.692
X2.5985Y-2.1585
X2.5985Y-2.6185
X2.5985Y-3.3966
X2.5985Y-3.8566
X2.5985Y-4.6347
X2.5985Y-5.0947
X2.6185Y-2.3885
X2.6185Y-2.8485
X2.6185Y-3.6266
X2.6185Y-4.0866
X2.6185Y-4.8647
X2.6185Y-5.3247
X2.6385Y-2.9085
X2.6385Y-4.1466
X2.6385Y-5.3847
X2.6485Y-2.6685
X2.6485Y-3.9066
X2.6485Y-5.1447
X2.6785Y-2.2185
X2.6785Y-3.4566
X2.6785Y-4.6947
X2.6885Y-2.3285
X2.6885Y-3.5666
X2.6885Y-4.8047
X2.6985Y-2.5785
X2.6985Y-3.8166
X2.6985Y-5.0547
X2.7085Y-2.4185
X2.7085Y-3.6566
X2.7085Y-4.8947
X2.7176Y-2.4694
X2.7176Y-3.7075
X2.7176Y-4.9456
X2.7485Y-2.3885
X2.7485Y-2.7785
X2.7485Y-3.6266
X2.7485Y-4.0166
X2.7485Y-4.8647
X2.7485Y-5.2547
X2.7836Y-2.6185
X2.7836Y-3.8566
X2.7836Y-5.0947
X2.8438Y-2.7485
X2.8438Y-3.9866
X2.8438Y-5.2247
X2.8485Y-2.1878
X2.8485Y-2.2292
X2.8485Y-3.4259
X2.8485Y-3.4673
X2.8485Y-4.6641
X2.8485Y-4.7054
X2.8685Y-2.3385
X2.8685Y-3.5766
X2.8685Y-4.8147
X2.8785Y-2.8047
X2.8785Y-4.0428
X2.8785Y-5.2809
X2.8885Y-2.8585
X2.8885Y-4.0966
X2.8885Y-5.3347
X2.9013Y-2.5084
X2.9013Y-3.7465
X2.9013Y-4.9847
X2.9179Y-2.2286
X2.9179Y-3.4667
X2.9179Y-4.7048
X2.9185Y-2.1878
X2.9185Y-3.4259
X2.9185Y-4.6641
X2.9409Y-2.2984
X2.9409Y-3.5366
X2.9409Y-4.7747
X2.9487Y-2.41
X2.9487Y-3.6481
X2.9487Y-4.8862
X2.9534Y-2.6185
X2.9534Y-3.8566
X2.9534Y-5.0947
X2.956Y-2.826
X2.956Y-4.0642
X2.956Y-5.3023
X2.9622Y-2.4832
X2.9622Y-3.7213
X2.9622Y-4.9594
X2.9633Y-2.1626
X2.9633Y-3.4007
X2.9633Y-4.6388
X2.9646Y-2.2647
X2.9646Y-3.5028
X2.9646Y-4.7409
X2.9985Y-2.4385
X2.9985Y-3.6766
X2.9985Y-4.9147
X2.9998Y-2.1624
X2.9998Y-3.4005
X2.9998Y-4.6386
X3.0243Y-2.2949
X3.0243Y-3.533
X3.0243Y-4.7711
X3.0244Y-2.4905
X3.0244Y-3.7286
X3.0244Y-4.9667
X3.0341Y-2.175
X3.0341Y-3.4131
X3.0341Y-4.6512
X3.0385Y-2.6685
X3.0385Y-3.9066
X3.0385Y-5.1447
X3.0411Y-2.8115
X3.0411Y-4.0496
X3.0411Y-5.2877
X3.0522Y-2.4646
X3.0522Y-3.7028
X3.0522Y-4.9409
X3.0585Y-2.8985
X3.0585Y-4.1366
X3.0585Y-5.3747
X3.0785Y-2.5685
X3.0785Y-3.8066
X3.0785Y-5.0447
X3.0846Y-2.5175
X3.0846Y-3.7556
X3.0846Y-4.9937
X3.0985Y-2.2885
X3.0985Y-2.3785
X3.0985Y-2.7485
X3.0985Y-3.5266
X3.0985Y-3.6166
X3.0985Y-3.9866
X3.0985Y-4.7647
X3.0985Y-4.8547
X3.0985Y-5.2247
X3.1109Y-2.5873
X3.1109Y-3.8255
X3.1109Y-5.0636
X3.1185Y-2.4985
X3.1185Y-3.7366
X3.1185Y-4.9747
X3.1385Y-2.4385
X3.1385Y-3.6766
X3.1385Y-4.9147
X3.1461Y-2.5969
X3.1461Y-3.835
X3.1461Y-5.0731
X3.1651Y-2.5216
X3.1651Y-3.7598
X3.1651Y-4.9979
X3.1785Y-2.8085
X3.1785Y-4.0466
X3.1785Y-5.2847
X3.1793Y-2.4078
X3.1793Y-3.6459
X3.1793Y-4.8841
X3.2085Y-2.2385
X3.2085Y-3.4766
X3.2085Y-4.7147
X3.222Y-2.4033
X3.222Y-3.6414
X3.222Y-4.8795
X3.2285Y-2.5085
X3.2285Y-3.7466
X3.2285Y-4.9847
X3.2685Y-2.5785
X3.2685Y-2.8985
X3.2685Y-3.8166
X3.2685Y-4.1366
X3.2685Y-5.0547
X3.2685Y-5.3747
X3.3113Y-2.6583
X3.3113Y-3.8964
X3.3113Y-5.1345
X3.3477Y-2.6601
X3.3477Y-3.8982
X3.3477Y-5.1363
X3.3585Y-2.2385
X3.3585Y-2.3385
X3.3585Y-3.4766
X3.3585Y-3.5766
X3.3585Y-4.7147
X3.3585Y-4.8147
X3.3825Y-2.6491
X3.3825Y-3.8872
X3.3825Y-5.1253
X3.4087Y-2.5938
X3.4087Y-3.8319
X3.4087Y-5.07
X3.4106Y-2.3795
X3.4106Y-3.6177
X3.4106Y-4.8558
X3.4193Y-2.2678
X3.4193Y-3.5059
X3.4193Y-4.744
X3.4239Y-2.8505
X3.4239Y-4.0886
X3.4239Y-5.3267
X3.4385Y-2.2185
X3.4385Y-3.4566
X3.4385Y-4.6947
X3.4585Y-2.3185
X3.4585Y-3.5566
X3.4585Y-4.7947
X3.4591Y-2.8409
X3.4591Y-4.079
X3.4591Y-5.3172
X3.469Y-2.8058
X3.469Y-4.0439
X3.469Y-5.282
X3.4885Y-2.2185
X3.4885Y-3.4566
X3.4885Y-4.6947
X3.5013Y-2.7155
X3.5013Y-3.9536
X3.5013Y-5.1918
X3.5085Y-2.3985
X3.5085Y-3.6366
X3.5085Y-4.8747
X3.5185Y-2.6185
X3.5185Y-3.8566
X3.5185Y-5.0947
X3.5354Y-2.5311
X3.5354Y-3.7692
X3.5354Y-5.0073
X3.5504Y-2.6362
X3.5504Y-3.8743
X3.5504Y-5.1124
X3.5594Y-2.4757
X3.5594Y-3.7139
X3.5594Y-4.952
X3.573Y-2.6649
X3.573Y-3.903
X3.573Y-5.1411
X3.574Y-2.1225
X3.574Y-3.3606
X3.574Y-4.5987
X3.5763Y-2.5362
X3.5763Y-3.7743
X3.5763Y-5.0124
X3.5792Y-2.1848
X3.5792Y-3.4229
X3.5792Y-4.661
X3.59Y-3.0027
X3.59Y-4.2409
X3.59Y-5.479
X3.6085Y-2.3885
X3.6085Y-3.6266
X3.6085Y-4.8647
X3.6247Y-2.6038
X3.6247Y-3.8419
X3.6247Y-5.08
X3.6463Y-2.4518
X3.6463Y-3.6899
X3.6463Y-4.928
X3.6464Y-2.388
X3.6464Y-3.6261
X3.6464Y-4.8643
X3.6485Y-2.2085
X3.6485Y-3.4466
X3.6485Y-4.6847
X3.6514Y-2.5496
X3.6514Y-3.7877
X3.6514Y-5.0258
X3.6725Y-2.4136
X3.6725Y-3.6517
X3.6725Y-4.8898
X3.6785Y-2.8248
X3.6785Y-4.0629
X3.6785Y-5.301
X3.6814Y-3.0515
X3.6814Y-4.2896
X3.6814Y-5.5277
X3.6885Y-2.3585
X3.6885Y-2.9385
X3.6885Y-3.5966
X3.6885Y-4.1766
X3.6885Y-4.8347
X3.6885Y-5.4147
X3.6922Y-2.6145
X3.6922Y-3.8526
X3.6922Y-5.0907
X3.695Y-2.232
X3.695Y-3.4701
X3.695Y-4.7082
X3.699Y-2.5572
X3.699Y-3.7954
X3.699Y-5.0335
X3.7127Y-2.7875
X3.7127Y-4.0256
X3.7127Y-5.2637
X3.7185Y-2.6785
X3.7185Y-3.9166
X3.7185Y-5.1547
X3.7238Y-2.3322
X3.7238Y-3.5703
X3.7238Y-4.8084
X3.7343Y-2.5479
X3.7343Y-3.786
X3.7343Y-5.0241
X3.738Y-2.4056
X3.738Y-3.6437
X3.738Y-4.8818
X3.7385Y-2.4985
X3.7385Y-3.7366
X3.7385Y-4.9747
X3.7479Y-2.7778
X3.7479Y-4.0159
X3.7479Y-5.254
X3.7485Y-2.1785
X3.7485Y-3.4166
X3.7485Y-4.6547
X3.7504Y-2.611
X3.7504Y-3.8491
X3.7504Y-5.0872
X3.7727Y-2.6638
X3.7727Y-3.9019
X3.7727Y-5.14
X3.7728Y-2.5469
X3.7728Y-3.785
X3.7728Y-5.0231
X3.793Y-2.5085
X3.793Y-3.7466
X3.793Y-4.9847
X3.7998Y-2.6016
X3.7998Y-3.8397
X3.7998Y-5.0778
X3.8085Y-2.2185
X3.8085Y-3.4566
X3.8085Y-4.6947
X3.8316Y-2.5489
X3.8316Y-3.7871
X3.8316Y-5.0252
X3.8353Y-2.7346
X3.8353Y-3.9727
X3.8353Y-5.2109
X3.8368Y-2.6035
X3.8368Y-3.8416
X3.8368Y-5.0797
X3.8384Y-2.4138
X3.8384Y-3.6519
X3.8384Y-4.89
X3.8485Y-2.3785
X3.8485Y-2.4785
X3.8485Y-2.5185
X3.8485Y-2.6381
X3.8485Y-3.6166
X3.8485Y-3.7166
X3.8485Y-3.7566
X3.8485Y-3.8762
X3.8485Y-4.8547
X3.8485Y-4.9547
X3.8485Y-4.9947
X3.8485Y-5.1143
X3.8665Y-2.8703
X3.8665Y-4.1084
X3.8665Y-5.3465
X3.8822Y-2.7774
X3.8822Y-4.0155
X3.8822Y-5.2536
X3.8889Y-2.8991
X3.8889Y-4.1372
X3.8889Y-5.3753
X3.8938Y-2.8461
X3.8938Y-4.0842
X3.8938Y-5.3223
X3.8985Y-2.3285
X3.8985Y-3.5666
X3.8985Y-4.8047
X3.9149Y-2.9247
X3.9149Y-4.1628
X3.9149Y-5.4009
X3.9358Y-2.8039
X3.9358Y-4.042
X3.9358Y-5.2801
X3.9505Y-2.3938
X3.9505Y-3.6319
X3.9505Y-4.87
X3.9534Y-2.4937
X3.9534Y-3.7318
X3.9534Y-4.9699
X3.9548Y-2.5794
X3.9548Y-3.8175
X3.9548Y-5.0556
X3.9578Y-2.543
X3.9578Y-3.7811
X3.9578Y-5.0193
X3.9585Y-2.2285
X3.9585Y-3.4666
X3.9585Y-4.7047
X3.9632Y-2.6417
X3.9632Y-3.8798
X3.9632Y-5.1179
X3.9735Y-2.4457
X3.9735Y-3.6838
X3.9735Y-4.9219
X3.9874Y-2.7112
X3.9874Y-3.9493
X3.9874Y-5.1874
X3.9905Y-2.478
X3.9905Y-3.7161
X3.9905Y-4.9542
X3.9942Y-2.5842
X3.9942Y-3.8223
X3.9942Y-5.0604
X4.0011Y-2.6774
X4.0011Y-3.9155
X4.0011Y-5.1536
X4.007Y-2.5106
X4.007Y-3.7487
X4.007Y-4.9868
X4.0085Y-2.8378
X4.0085Y-2.9185
X4.0085Y-4.0759
X4.0085Y-4.1566
X4.0085Y-5.314
X4.0085Y-5.3947
X4.0285Y-2.3885
X4.0285Y-3.6266
X4.0285Y-4.8647
X4.0325Y-2.6587
X4.0325Y-3.8968
X4.0325Y-5.135
X4.0514Y-2.574
X4.0514Y-3.8121
X4.0514Y-5.0502
X4.0516Y-2.6105
X4.0516Y-3.8486
X4.0516Y-5.0867
X4.0585Y-2.8385
X4.0585Y-4.0766
X4.0585Y-5.3147
X4.0785Y-2.2385
X4.0785Y-3.4766
X4.0785Y-4.7147
X4.0885Y-2.9285
X4.0885Y-4.1666
X4.0885Y-5.4047
X4.0976Y-2.3294
X4.0976Y-3.5675
X4.0976Y-4.8056
X4.0985Y-2.8285
X4.0985Y-4.0666
X4.0985Y-5.3047
X4.1485Y-2.3285
X4.1485Y-3.5666
X4.1485Y-4.8047
X4.1685Y-2.2185
X4.1685Y-3.4566
X4.1685Y-4.6947
X4.1785Y-2.9185
X4.1785Y-4.1566
X4.1785Y-5.3947
X4.2442Y-2.4932
X4.2442Y-3.7313
X4.2442Y-4.9694
X4.2885Y-2.3385
X4.2885Y-3.5766
X4.2885Y-4.8147
X4.2891Y-2.4382
X4.2891Y-3.6763
X4.2891Y-4.9144
X4.3185Y-2.3085
X4.3185Y-3.5466
X4.3185Y-4.7847
X4.3785Y-2.8385
X4.3785Y-4.0766
X4.3785Y-5.3147
X4.3914Y-2.5114
X4.3914Y-3.7495
X4.3914Y-4.9876
X4.4243Y-2.4867
X4.4243Y-3.7248
X4.4243Y-4.9629
X4.4385Y-2.3485
X4.4385Y-3.5866
X4.4385Y-4.8247
X4.4485Y-2.3085
X4.4485Y-3.5466
X4.4485Y-4.7847
X4.5085Y-2.4285
X4.5085Y-3.6666
X4.5085Y-4.9047
X4.5183Y-2.3689
X4.5183Y-3.607
X4.5183Y-4.8451
X4.5385Y-2.3385
X4.5385Y-3.5766
X4.5385Y-4.8147
X4.5838Y-2.8671
X4.5838Y-4.1052
X4.5838Y-5.3433
X4.6385Y-2.4785
X4.6385Y-2.6685
X4.6385Y-3.7166
X4.6385Y-3.9066
X4.6385Y-4.9547
X4.6385Y-5.1447
X4.7085Y-2.2285
X4.7085Y-3.4666
X4.7085Y-4.7047
X4.7385Y-2.6685
X4.7385Y-3.9066
X4.7385Y-5.1447
X4.7685Y-3.0485
X4.7685Y-4.2866
X4.7685Y-5.5247
X4.7785Y-2.3585
X4.7785Y-3.5966
X4.7785Y-4.8347
X4.8685Y-2.5785
X4.8685Y-3.8166
X4.8685Y-5.0547
X4.8985Y-2.2085
X4.8985Y-3.4466
X4.8985Y-4.6847
X4.9285Y-2.4685
X4.9285Y-3.7066
X4.9285Y-4.9447
X4.9685Y-2.4685
X4.9685Y-2.6385
X4.9685Y-3.7066
X4.9685Y-3.8766
X4.9685Y-4.9447
X4.9685Y-5.1147
X4.9885Y-2.8185
X4.9885Y-4.0566
X4.9885Y-5.2947
X4.9985Y-2.6685
X4.9985Y-3.9066
X4.9985Y-5.1447
X5.0031Y-2.457
X5.0031Y-3.6951
X5.0031Y-4.9332
X5.0385Y-2.2185
X5.0385Y-3.4566
X5.0385Y-4.6947
X5.1085Y-2.5885
X5.1085Y-3.8266
X5.1085Y-5.0647
X5.1885Y-2.5885
X5.1885Y-3.8266
X5.1885Y-5.0647
X5.2085Y-2.9885
X5.2085Y-4.2266
X5.2085Y-5.4647
X5.2185Y-2.2285
X5.2185Y-3.4666
X5.2185Y-4.7047
X5.2285Y-2.8685
X5.2285Y-4.1066
X5.2285Y-5.3447
X5.3085Y-2.6985
X5.3085Y-3.9366
X5.3085Y-5.1747
X5.3285Y-2.3085
X5.3285Y-3.5466
X5.3285Y-4.7847
X5.3499Y-2.4348
X5.3499Y-3.6729
X5.3499Y-4.911
X5.3685Y-2.9085
X5.3685Y-2.9985
X5.3685Y-4.1466
X5.3685Y-4.2366
X5.3685Y-5.3847
X5.3685Y-5.4747
X5.3785Y-2.4885
X5.3785Y-2.5885
X5.3785Y-2.6685
X5.3785Y-3.7266
X5.3785Y-3.8266
X5.3785Y-3.9066
X5.3785Y-4.9647
X5.3785Y-5.0647
X5.3785Y-5.1447
X5.3828Y-2.4506
X5.3828Y-3.6887
X5.3828Y-4.9268
X5.4185Y-2.9085
X5.4185Y-4.1466
X5.4185Y-5.3847
X5.4585Y-2.3585
X5.4585Y-3.5966
X5.4585Y-4.8347
X5.4785Y-2.6185
X5.4785Y-2.8285
X5.4785Y-3.8566
X5.4785Y-4.0666
X5.4785Y-5.0947
X5.4785Y-5.3047
T4
X2.2185Y-4.7554
X2.2185Y-4.8341
X2.2185Y-2.2791
X2.2185Y-2.3579
X2.2185Y-3.5172
X2.2185Y-3.596
T5
X2.0385Y-3.3166
X2.1385Y-3.3166
X2.2385Y-3.3166
X2.3385Y-3.3166
X2.4385Y-3.3166
X2.5385Y-3.3166
X2.6385Y-3.3166
X2.7385Y-3.3166
X2.8385Y-3.3166
X2.9385Y-3.3166
X3.0385Y-3.3166
X3.1385Y-3.3166
X3.2385Y-3.3166
X3.3385Y-3.3166
X3.4385Y-3.3166
X3.5385Y-3.3166
X3.6385Y-3.3166
X3.7385Y-3.3166
X3.8385Y-3.3166
X3.9385Y-3.3166
X4.0385Y-3.3166
X4.1385Y-3.3166
X4.2385Y-3.3166
X4.3385Y-3.3166
X4.4385Y-3.3166
X4.5385Y-3.3166
X4.6385Y-3.3166
X4.7385Y-3.3166
X4.8385Y-3.3166
X4.9385Y-3.3166
X5.0385Y-3.3166
X5.1385Y-3.3166
X2.0385Y-5.4547
X2.1385Y-5.4547
X2.2385Y-5.4547
X2.3385Y-5.4547
X2.4385Y-5.4547
X2.5385Y-5.4547
X2.6385Y-5.4547
X2.7385Y-5.4547
X2.8385Y-5.4547
X2.9385Y-5.4547
X3.0385Y-5.4547
X3.1385Y-5.4547
X3.2385Y-5.4547
X3.3385Y-5.4547
X3.4385Y-5.4547
X3.5385Y-5.4547
X3.6385Y-5.4547
X3.7385Y-5.4547
X3.8385Y-5.4547
X3.9385Y-5.4547
X4.0385Y-5.4547
X4.1385Y-5.4547
X4.2385Y-5.4547
X4.3385Y-5.4547
X4.4385Y-5.4547
X4.5385Y-5.4547
X4.6385Y-5.4547
X4.7385Y-5.4547
X4.8385Y-5.4547
X4.9385Y-5.4547
X5.0385Y-5.4547
X5.1385Y-5.4547
X2.0385Y-4.5547
X2.1385Y-4.5547
X2.2385Y-4.5547
X2.3385Y-4.5547
X2.4385Y-4.5547
X2.5385Y-4.5547
X2.6385Y-4.5547
X2.7385Y-4.5547
X2.8385Y-4.5547
X2.9385Y-4.5547
X3.0385Y-4.5547
X3.1385Y-4.5547
X3.2385Y-4.5547
X3.3385Y-4.5547
X3.4385Y-4.5547
X3.5385Y-4.5547
X3.6385Y-4.5547
X3.7385Y-4.5547
X3.8385Y-4.5547
X3.9385Y-4.5547
X4.0385Y-4.5547
X4.1385Y-4.5547
X4.2385Y-4.5547
X4.3385Y-4.5547
X4.4385Y-4.5547
X4.5385Y-4.5547
X4.6385Y-4.5547
X4.7385Y-4.5547
X4.8385Y-4.5547
X4.9385Y-4.5547
X5.0385Y-4.5547
X5.1385Y-4.5547
X2.0385Y-4.2166
X2.1385Y-4.2166
X2.2385Y-4.2166
X2.3385Y-4.2166
X2.4385Y-4.2166
X2.5385Y-4.2166
X2.6385Y-4.2166
X2.7385Y-4.2166
X2.8385Y-4.2166
X2.9385Y-4.2166
X3.0385Y-4.2166
X3.1385Y-4.2166
X3.2385Y-4.2166
X3.3385Y-4.2166
X3.4385Y-4.2166
X3.5385Y-4.2166
X3.6385Y-4.2166
X3.7385Y-4.2166
X3.8385Y-4.2166
X3.9385Y-4.2166
X4.0385Y-4.2166
X4.1385Y-4.2166
X4.2385Y-4.2166
X4.3385Y-4.2166
X4.4385Y-4.2166
X4.5385Y-4.2166
X4.6385Y-4.2166
X4.7385Y-4.2166
X4.8385Y-4.2166
X4.9385Y-4.2166
X5.0385Y-4.2166
X5.1385Y-4.2166
X2.0385Y-2.0785
X2.1385Y-2.0785
X2.2385Y-2.0785
X2.3385Y-2.0785
X2.4385Y-2.0785
X2.5385Y-2.0785
X2.6385Y-2.0785
X2.7385Y-2.0785
X2.8385Y-2.0785
X2.9385Y-2.0785
X3.0385Y-2.0785
X3.1385Y-2.0785
X3.2385Y-2.0785
X3.3385Y-2.0785
X3.4385Y-2.0785
X3.5385Y-2.0785
X3.6385Y-2.0785
X3.7385Y-2.0785
X3.8385Y-2.0785
X3.9385Y-2.0785
X4.0385Y-2.0785
X4.1385Y-2.0785
X4.2385Y-2.0785
X4.3385Y-2.0785
X4.4385Y-2.0785
X4.5385Y-2.0785
X4.6385Y-2.0785
X4.7385Y-2.0785
X4.8385Y-2.0785
X4.9385Y-2.0785
X5.0385Y-2.0785
X5.1385Y-2.0785
X2.0385Y-2.9785
X2.1385Y-2.9785
X2.2385Y-2.9785
X2.3385Y-2.9785
X2.4385Y-2.9785
X2.5385Y-2.9785
X2.6385Y-2.9785
X2.7385Y-2.9785
X2.8385Y-2.9785
X2.9385Y-2.9785
X3.0385Y-2.9785
X3.1385Y-2.9785
X3.2385Y-2.9785
X3.3385Y-2.9785
X3.4385Y-2.9785
X3.5385Y-2.9785
X3.6385Y-2.9785
X3.7385Y-2.9785
X3.8385Y-2.9785
X3.9385Y-2.9785
X4.0385Y-2.9785
X4.1385Y-2.9785
X4.2385Y-2.9785
X4.3385Y-2.9785
X4.4385Y-2.9785
X4.5385Y-2.9785
X4.6385Y-2.9785
X4.7385Y-2.9785
X4.8385Y-2.9785
X4.9385Y-2.9785
X5.0385Y-2.9785
X5.1385Y-2.9785
T0
M30
