G04 #@! TF.GenerationSoftware,KiCad,Pcbnew,5.1.5+dfsg1-2build2*
G04 #@! TF.CreationDate,2021-03-22T12:15:19+01:00*
G04 #@! TF.ProjectId,ATSAME51J18A-devboard-panel,41545341-4d45-4353-914a-3138412d6465,rev?*
G04 #@! TF.SameCoordinates,Original*
G04 #@! TF.FileFunction,Profile,NP*
%FSLAX46Y46*%
G04 Gerber Fmt 4.6, Leading zero omitted, Abs format (unit mm)*
G04 Created by KiCad (PCBNEW 5.1.5+dfsg1-2build2) date 2021-03-22 12:15:19*
%MOMM*%
%LPD*%
G04 APERTURE LIST*
%ADD10C,0.100000*%
G04 APERTURE END LIST*
D10*
X47010000Y-129370100D02*
X47010000Y-124869900D01*
X47014800Y-129467400D02*
X47010000Y-129370100D01*
X47029000Y-129563500D02*
X47014800Y-129467400D01*
X47052600Y-129657700D02*
X47029000Y-129563500D01*
X47085400Y-129749200D02*
X47052600Y-129657700D01*
X47126900Y-129837000D02*
X47085400Y-129749200D01*
X47176900Y-129920400D02*
X47126900Y-129837000D01*
X47234700Y-129998400D02*
X47176900Y-129920400D01*
X47300000Y-130070400D02*
X47234700Y-129998400D01*
X47372000Y-130135600D02*
X47300000Y-130070400D01*
X47450000Y-130193500D02*
X47372000Y-130135600D01*
X47533300Y-130243400D02*
X47450000Y-130193500D01*
X47621100Y-130285000D02*
X47533300Y-130243400D01*
X47712600Y-130317700D02*
X47621100Y-130285000D01*
X47806900Y-130341300D02*
X47712600Y-130317700D01*
X47903000Y-130355600D02*
X47806900Y-130341300D01*
X48000200Y-130360400D02*
X47903000Y-130355600D01*
X49008800Y-130360400D02*
X48000200Y-130360400D01*
X49106000Y-130355600D02*
X49008800Y-130360400D01*
X49202100Y-130341300D02*
X49106000Y-130355600D01*
X49296400Y-130317700D02*
X49202100Y-130341300D01*
X49387900Y-130285000D02*
X49296400Y-130317700D01*
X49475700Y-130243400D02*
X49387900Y-130285000D01*
X49559000Y-130193500D02*
X49475700Y-130243400D01*
X49637000Y-130135600D02*
X49559000Y-130193500D01*
X49709000Y-130070400D02*
X49637000Y-130135600D01*
X49774300Y-129998400D02*
X49709000Y-130070400D01*
X49832100Y-129920400D02*
X49774300Y-129998400D01*
X49882100Y-129837000D02*
X49832100Y-129920400D01*
X49923600Y-129749200D02*
X49882100Y-129837000D01*
X49956400Y-129657700D02*
X49923600Y-129749200D01*
X49980000Y-129563500D02*
X49956400Y-129657700D01*
X49994200Y-129467400D02*
X49980000Y-129563500D01*
X49999000Y-129370100D02*
X49994200Y-129467400D01*
X49999000Y-124869900D02*
X49999000Y-129370100D01*
X49994200Y-124772700D02*
X49999000Y-124869900D01*
X49980000Y-124676500D02*
X49994200Y-124772700D01*
X49956400Y-124582300D02*
X49980000Y-124676500D01*
X49923600Y-124490800D02*
X49956400Y-124582300D01*
X49882100Y-124403000D02*
X49923600Y-124490800D01*
X49832100Y-124319700D02*
X49882100Y-124403000D01*
X49774300Y-124241600D02*
X49832100Y-124319700D01*
X49709000Y-124169700D02*
X49774300Y-124241600D01*
X49637000Y-124104400D02*
X49709000Y-124169700D01*
X49559000Y-124046500D02*
X49637000Y-124104400D01*
X49475700Y-123996600D02*
X49559000Y-124046500D01*
X49387900Y-123955100D02*
X49475700Y-123996600D01*
X49296400Y-123922300D02*
X49387900Y-123955100D01*
X49202100Y-123898700D02*
X49296400Y-123922300D01*
X49106000Y-123884500D02*
X49202100Y-123898700D01*
X49008800Y-123879700D02*
X49106000Y-123884500D01*
X48000200Y-123879700D02*
X49008800Y-123879700D01*
X47903000Y-123884500D02*
X48000200Y-123879700D01*
X47806900Y-123898700D02*
X47903000Y-123884500D01*
X47712600Y-123922300D02*
X47806900Y-123898700D01*
X47621100Y-123955100D02*
X47712600Y-123922300D01*
X47533300Y-123996600D02*
X47621100Y-123955100D01*
X47450000Y-124046500D02*
X47533300Y-123996600D01*
X47372000Y-124104400D02*
X47450000Y-124046500D01*
X47300000Y-124169700D02*
X47372000Y-124104400D01*
X47234700Y-124241600D02*
X47300000Y-124169700D01*
X47176900Y-124319700D02*
X47234700Y-124241600D01*
X47126900Y-124403000D02*
X47176900Y-124319700D01*
X47085400Y-124490800D02*
X47126900Y-124403000D01*
X47052600Y-124582300D02*
X47085400Y-124490800D01*
X47029000Y-124676500D02*
X47052600Y-124582300D01*
X47014800Y-124772700D02*
X47029000Y-124676500D01*
X47010000Y-124869900D02*
X47014800Y-124772700D01*
X47010000Y-97922100D02*
X47010000Y-93421900D01*
X47014800Y-98019400D02*
X47010000Y-97922100D01*
X47029000Y-98115500D02*
X47014800Y-98019400D01*
X47052600Y-98209700D02*
X47029000Y-98115500D01*
X47085400Y-98301200D02*
X47052600Y-98209700D01*
X47126900Y-98389000D02*
X47085400Y-98301200D01*
X47176900Y-98472400D02*
X47126900Y-98389000D01*
X47234700Y-98550400D02*
X47176900Y-98472400D01*
X47300000Y-98622400D02*
X47234700Y-98550400D01*
X47372000Y-98687600D02*
X47300000Y-98622400D01*
X47450000Y-98745500D02*
X47372000Y-98687600D01*
X47533300Y-98795400D02*
X47450000Y-98745500D01*
X47621100Y-98837000D02*
X47533300Y-98795400D01*
X47712600Y-98869700D02*
X47621100Y-98837000D01*
X47806900Y-98893300D02*
X47712600Y-98869700D01*
X47903000Y-98907600D02*
X47806900Y-98893300D01*
X48000200Y-98912300D02*
X47903000Y-98907600D01*
X49008800Y-98912300D02*
X48000200Y-98912300D01*
X49106000Y-98907600D02*
X49008800Y-98912300D01*
X49202100Y-98893300D02*
X49106000Y-98907600D01*
X49296400Y-98869700D02*
X49202100Y-98893300D01*
X49387900Y-98837000D02*
X49296400Y-98869700D01*
X49475700Y-98795400D02*
X49387900Y-98837000D01*
X49559000Y-98745500D02*
X49475700Y-98795400D01*
X49637000Y-98687600D02*
X49559000Y-98745500D01*
X49709000Y-98622400D02*
X49637000Y-98687600D01*
X49774300Y-98550400D02*
X49709000Y-98622400D01*
X49832100Y-98472400D02*
X49774300Y-98550400D01*
X49882100Y-98389000D02*
X49832100Y-98472400D01*
X49923600Y-98301200D02*
X49882100Y-98389000D01*
X49956400Y-98209700D02*
X49923600Y-98301200D01*
X49980000Y-98115500D02*
X49956400Y-98209700D01*
X49994200Y-98019400D02*
X49980000Y-98115500D01*
X49999000Y-97922100D02*
X49994200Y-98019400D01*
X49999000Y-93421900D02*
X49999000Y-97922100D01*
X49994200Y-93324600D02*
X49999000Y-93421900D01*
X49980000Y-93228500D02*
X49994200Y-93324600D01*
X49956400Y-93134300D02*
X49980000Y-93228500D01*
X49923600Y-93042800D02*
X49956400Y-93134300D01*
X49882100Y-92955000D02*
X49923600Y-93042800D01*
X49832100Y-92871700D02*
X49882100Y-92955000D01*
X49774300Y-92793600D02*
X49832100Y-92871700D01*
X49709000Y-92721700D02*
X49774300Y-92793600D01*
X49637000Y-92656400D02*
X49709000Y-92721700D01*
X49559000Y-92598500D02*
X49637000Y-92656400D01*
X49475700Y-92548600D02*
X49559000Y-92598500D01*
X49387900Y-92507000D02*
X49475700Y-92548600D01*
X49296400Y-92474300D02*
X49387900Y-92507000D01*
X49202100Y-92450700D02*
X49296400Y-92474300D01*
X49106000Y-92436500D02*
X49202100Y-92450700D01*
X49008800Y-92431700D02*
X49106000Y-92436500D01*
X48000200Y-92431700D02*
X49008800Y-92431700D01*
X47903000Y-92436500D02*
X48000200Y-92431700D01*
X47806900Y-92450700D02*
X47903000Y-92436500D01*
X47712600Y-92474300D02*
X47806900Y-92450700D01*
X47621100Y-92507000D02*
X47712600Y-92474300D01*
X47533300Y-92548600D02*
X47621100Y-92507000D01*
X47450000Y-92598500D02*
X47533300Y-92548600D01*
X47372000Y-92656400D02*
X47450000Y-92598500D01*
X47300000Y-92721700D02*
X47372000Y-92656400D01*
X47234700Y-92793600D02*
X47300000Y-92721700D01*
X47176900Y-92871700D02*
X47234700Y-92793600D01*
X47126900Y-92955000D02*
X47176900Y-92871700D01*
X47085400Y-93042800D02*
X47126900Y-92955000D01*
X47052600Y-93134300D02*
X47085400Y-93042800D01*
X47029000Y-93228500D02*
X47052600Y-93134300D01*
X47014800Y-93324600D02*
X47029000Y-93228500D01*
X47010000Y-93421900D02*
X47014800Y-93324600D01*
X47010000Y-66474100D02*
X47010000Y-61973900D01*
X47014800Y-66571400D02*
X47010000Y-66474100D01*
X47029000Y-66667500D02*
X47014800Y-66571400D01*
X47052600Y-66761700D02*
X47029000Y-66667500D01*
X47085400Y-66853200D02*
X47052600Y-66761700D01*
X47126900Y-66941000D02*
X47085400Y-66853200D01*
X47176900Y-67024300D02*
X47126900Y-66941000D01*
X47234700Y-67102400D02*
X47176900Y-67024300D01*
X47300000Y-67174400D02*
X47234700Y-67102400D01*
X47372000Y-67239600D02*
X47300000Y-67174400D01*
X47450000Y-67297500D02*
X47372000Y-67239600D01*
X47533300Y-67347400D02*
X47450000Y-67297500D01*
X47621100Y-67389000D02*
X47533300Y-67347400D01*
X47712600Y-67421700D02*
X47621100Y-67389000D01*
X47806900Y-67445300D02*
X47712600Y-67421700D01*
X47903000Y-67459600D02*
X47806900Y-67445300D01*
X48000200Y-67464300D02*
X47903000Y-67459600D01*
X49008800Y-67464300D02*
X48000200Y-67464300D01*
X49106000Y-67459600D02*
X49008800Y-67464300D01*
X49202100Y-67445300D02*
X49106000Y-67459600D01*
X49296400Y-67421700D02*
X49202100Y-67445300D01*
X49387900Y-67389000D02*
X49296400Y-67421700D01*
X49475700Y-67347400D02*
X49387900Y-67389000D01*
X49559000Y-67297500D02*
X49475700Y-67347400D01*
X49637000Y-67239600D02*
X49559000Y-67297500D01*
X49709000Y-67174400D02*
X49637000Y-67239600D01*
X49774300Y-67102400D02*
X49709000Y-67174400D01*
X49832100Y-67024300D02*
X49774300Y-67102400D01*
X49882100Y-66941000D02*
X49832100Y-67024300D01*
X49923600Y-66853200D02*
X49882100Y-66941000D01*
X49956400Y-66761700D02*
X49923600Y-66853200D01*
X49980000Y-66667500D02*
X49956400Y-66761700D01*
X49994200Y-66571400D02*
X49980000Y-66667500D01*
X49999000Y-66474100D02*
X49994200Y-66571400D01*
X49999000Y-61973900D02*
X49999000Y-66474100D01*
X49994200Y-61876600D02*
X49999000Y-61973900D01*
X49980000Y-61780500D02*
X49994200Y-61876600D01*
X49956400Y-61686300D02*
X49980000Y-61780500D01*
X49923600Y-61594800D02*
X49956400Y-61686300D01*
X49882100Y-61507000D02*
X49923600Y-61594800D01*
X49832100Y-61423700D02*
X49882100Y-61507000D01*
X49774300Y-61345600D02*
X49832100Y-61423700D01*
X49709000Y-61273600D02*
X49774300Y-61345600D01*
X49637000Y-61208400D02*
X49709000Y-61273600D01*
X49559000Y-61150500D02*
X49637000Y-61208400D01*
X49475700Y-61100600D02*
X49559000Y-61150500D01*
X49387900Y-61059000D02*
X49475700Y-61100600D01*
X49296400Y-61026300D02*
X49387900Y-61059000D01*
X49202100Y-61002700D02*
X49296400Y-61026300D01*
X49106000Y-60988400D02*
X49202100Y-61002700D01*
X49008800Y-60983700D02*
X49106000Y-60988400D01*
X48000200Y-60983700D02*
X49008800Y-60983700D01*
X47903000Y-60988400D02*
X48000200Y-60983700D01*
X47806900Y-61002700D02*
X47903000Y-60988400D01*
X47712600Y-61026300D02*
X47806900Y-61002700D01*
X47621100Y-61059000D02*
X47712600Y-61026300D01*
X47533300Y-61100600D02*
X47621100Y-61059000D01*
X47450000Y-61150500D02*
X47533300Y-61100600D01*
X47372000Y-61208400D02*
X47450000Y-61150500D01*
X47300000Y-61273600D02*
X47372000Y-61208400D01*
X47234700Y-61345600D02*
X47300000Y-61273600D01*
X47176900Y-61423700D02*
X47234700Y-61345600D01*
X47126900Y-61507000D02*
X47176900Y-61423700D01*
X47085400Y-61594800D02*
X47126900Y-61507000D01*
X47052600Y-61686300D02*
X47085400Y-61594800D01*
X47029000Y-61780500D02*
X47052600Y-61686300D01*
X47014800Y-61876600D02*
X47029000Y-61780500D01*
X47010000Y-61973900D02*
X47014800Y-61876600D01*
X47010000Y-88439400D02*
X47010000Y-71456600D01*
X47014800Y-88536700D02*
X47010000Y-88439400D01*
X47029000Y-88632800D02*
X47014800Y-88536700D01*
X47052600Y-88727100D02*
X47029000Y-88632800D01*
X47085400Y-88818500D02*
X47052600Y-88727100D01*
X47126900Y-88906400D02*
X47085400Y-88818500D01*
X47176900Y-88989700D02*
X47126900Y-88906400D01*
X47234700Y-89067700D02*
X47176900Y-88989700D01*
X47300000Y-89139700D02*
X47234700Y-89067700D01*
X47372000Y-89204900D02*
X47300000Y-89139700D01*
X47450000Y-89262800D02*
X47372000Y-89204900D01*
X47533300Y-89312800D02*
X47450000Y-89262800D01*
X47621100Y-89354300D02*
X47533300Y-89312800D01*
X47712600Y-89387000D02*
X47621100Y-89354300D01*
X47806900Y-89410600D02*
X47712600Y-89387000D01*
X47903000Y-89424900D02*
X47806900Y-89410600D01*
X48000200Y-89429700D02*
X47903000Y-89424900D01*
X49008800Y-89429700D02*
X48000200Y-89429700D01*
X49106000Y-89424900D02*
X49008800Y-89429700D01*
X49202100Y-89410600D02*
X49106000Y-89424900D01*
X49296400Y-89387000D02*
X49202100Y-89410600D01*
X49387900Y-89354300D02*
X49296400Y-89387000D01*
X49475700Y-89312800D02*
X49387900Y-89354300D01*
X49559000Y-89262800D02*
X49475700Y-89312800D01*
X49637000Y-89204900D02*
X49559000Y-89262800D01*
X49709000Y-89139700D02*
X49637000Y-89204900D01*
X49774300Y-89067700D02*
X49709000Y-89139700D01*
X49832100Y-88989700D02*
X49774300Y-89067700D01*
X49882100Y-88906400D02*
X49832100Y-88989700D01*
X49923600Y-88818500D02*
X49882100Y-88906400D01*
X49956400Y-88727100D02*
X49923600Y-88818500D01*
X49980000Y-88632800D02*
X49956400Y-88727100D01*
X49994200Y-88536700D02*
X49980000Y-88632800D01*
X49999000Y-88439400D02*
X49994200Y-88536700D01*
X49999000Y-82470600D02*
X49999000Y-88439400D01*
X50004900Y-82357500D02*
X49999000Y-82470600D01*
X50021500Y-82252900D02*
X50004900Y-82357500D01*
X50045400Y-82162500D02*
X50021500Y-82252900D01*
X50053500Y-82137500D02*
X50045400Y-82162500D01*
X50087100Y-82050700D02*
X50053500Y-82137500D01*
X50129300Y-81967200D02*
X50087100Y-82050700D01*
X50142400Y-81944500D02*
X50129300Y-81967200D01*
X50193400Y-81866600D02*
X50142400Y-81944500D01*
X50251900Y-81793700D02*
X50193400Y-81866600D01*
X50269500Y-81774200D02*
X50251900Y-81793700D01*
X50335600Y-81708600D02*
X50269500Y-81774200D01*
X50408000Y-81649500D02*
X50335600Y-81708600D01*
X50429200Y-81634100D02*
X50408000Y-81649500D01*
X50507500Y-81583700D02*
X50429200Y-81634100D01*
X50590600Y-81540900D02*
X50507500Y-81583700D01*
X50614600Y-81530200D02*
X50590600Y-81540900D01*
X50689400Y-81501500D02*
X50614600Y-81530200D01*
X50714400Y-81493400D02*
X50689400Y-81501500D01*
X50804400Y-81469600D02*
X50714400Y-81493400D01*
X50896700Y-81454600D02*
X50804400Y-81469600D01*
X50922800Y-81451900D02*
X50896700Y-81454600D01*
X51022600Y-81447000D02*
X50922800Y-81451900D01*
X77565400Y-81447000D02*
X51022600Y-81447000D01*
X77662700Y-81442200D02*
X77565400Y-81447000D01*
X77758800Y-81428000D02*
X77662700Y-81442200D01*
X77853000Y-81404400D02*
X77758800Y-81428000D01*
X77944500Y-81371600D02*
X77853000Y-81404400D01*
X78032300Y-81330100D02*
X77944500Y-81371600D01*
X78115700Y-81280100D02*
X78032300Y-81330100D01*
X78193700Y-81222300D02*
X78115700Y-81280100D01*
X78265700Y-81157000D02*
X78193700Y-81222300D01*
X78330900Y-81085000D02*
X78265700Y-81157000D01*
X78388800Y-81007000D02*
X78330900Y-81085000D01*
X78438800Y-80923700D02*
X78388800Y-81007000D01*
X78480300Y-80835900D02*
X78438800Y-80923700D01*
X78513000Y-80744400D02*
X78480300Y-80835900D01*
X78536600Y-80650100D02*
X78513000Y-80744400D01*
X78550900Y-80554000D02*
X78536600Y-80650100D01*
X78555700Y-80456800D02*
X78550900Y-80554000D01*
X78555700Y-79439200D02*
X78555700Y-80456800D01*
X78550900Y-79342000D02*
X78555700Y-79439200D01*
X78536600Y-79245900D02*
X78550900Y-79342000D01*
X78513000Y-79151600D02*
X78536600Y-79245900D01*
X78480300Y-79060100D02*
X78513000Y-79151600D01*
X78438800Y-78972300D02*
X78480300Y-79060100D01*
X78388800Y-78889000D02*
X78438800Y-78972300D01*
X78330900Y-78811000D02*
X78388800Y-78889000D01*
X78265700Y-78739000D02*
X78330900Y-78811000D01*
X78193700Y-78673700D02*
X78265700Y-78739000D01*
X78115700Y-78615900D02*
X78193700Y-78673700D01*
X78032300Y-78565900D02*
X78115700Y-78615900D01*
X77944500Y-78524400D02*
X78032300Y-78565900D01*
X77853000Y-78491600D02*
X77944500Y-78524400D01*
X77758800Y-78468000D02*
X77853000Y-78491600D01*
X77662700Y-78453800D02*
X77758800Y-78468000D01*
X77565400Y-78449000D02*
X77662700Y-78453800D01*
X51022600Y-78449000D02*
X77565400Y-78449000D01*
X50922800Y-78444100D02*
X51022600Y-78449000D01*
X50896700Y-78441400D02*
X50922800Y-78444100D01*
X50804300Y-78426400D02*
X50896700Y-78441400D01*
X50714200Y-78402600D02*
X50804300Y-78426400D01*
X50689500Y-78394500D02*
X50714200Y-78402600D01*
X50614600Y-78365800D02*
X50689500Y-78394500D01*
X50590600Y-78355100D02*
X50614600Y-78365800D01*
X50507900Y-78312600D02*
X50590600Y-78355100D01*
X50429300Y-78261900D02*
X50507900Y-78312600D01*
X50408000Y-78246500D02*
X50429300Y-78261900D01*
X50335900Y-78187700D02*
X50408000Y-78246500D01*
X50269500Y-78121800D02*
X50335900Y-78187700D01*
X50252000Y-78102300D02*
X50269500Y-78121800D01*
X50193600Y-78029800D02*
X50252000Y-78102300D01*
X50142400Y-77951500D02*
X50193600Y-78029800D01*
X50129300Y-77928800D02*
X50142400Y-77951500D01*
X50087100Y-77845200D02*
X50129300Y-77928800D01*
X50049200Y-77746400D02*
X50087100Y-77845200D01*
X50024600Y-77656200D02*
X50049200Y-77746400D01*
X50019200Y-77630500D02*
X50024600Y-77656200D01*
X50004900Y-77538500D02*
X50019200Y-77630500D01*
X49999000Y-77425500D02*
X50004900Y-77538500D01*
X49999000Y-71456600D02*
X49999000Y-77425500D01*
X49994200Y-71359300D02*
X49999000Y-71456600D01*
X49980000Y-71263200D02*
X49994200Y-71359300D01*
X49956400Y-71169000D02*
X49980000Y-71263200D01*
X49923600Y-71077500D02*
X49956400Y-71169000D01*
X49882100Y-70989700D02*
X49923600Y-71077500D01*
X49832100Y-70906300D02*
X49882100Y-70989700D01*
X49774300Y-70828300D02*
X49832100Y-70906300D01*
X49709000Y-70756300D02*
X49774300Y-70828300D01*
X49637000Y-70691100D02*
X49709000Y-70756300D01*
X49559000Y-70633200D02*
X49637000Y-70691100D01*
X49475700Y-70583200D02*
X49559000Y-70633200D01*
X49387900Y-70541700D02*
X49475700Y-70583200D01*
X49296400Y-70509000D02*
X49387900Y-70541700D01*
X49202100Y-70485400D02*
X49296400Y-70509000D01*
X49106000Y-70471100D02*
X49202100Y-70485400D01*
X49008800Y-70466300D02*
X49106000Y-70471100D01*
X48000200Y-70466300D02*
X49008800Y-70466300D01*
X47903000Y-70471100D02*
X48000200Y-70466300D01*
X47806900Y-70485400D02*
X47903000Y-70471100D01*
X47712600Y-70509000D02*
X47806900Y-70485400D01*
X47621100Y-70541700D02*
X47712600Y-70509000D01*
X47533300Y-70583200D02*
X47621100Y-70541700D01*
X47450000Y-70633200D02*
X47533300Y-70583200D01*
X47372000Y-70691100D02*
X47450000Y-70633200D01*
X47300000Y-70756300D02*
X47372000Y-70691100D01*
X47234700Y-70828300D02*
X47300000Y-70756300D01*
X47176900Y-70906300D02*
X47234700Y-70828300D01*
X47126900Y-70989700D02*
X47176900Y-70906300D01*
X47085400Y-71077500D02*
X47126900Y-70989700D01*
X47052600Y-71169000D02*
X47085400Y-71077500D01*
X47029000Y-71263200D02*
X47052600Y-71169000D01*
X47014800Y-71359300D02*
X47029000Y-71263200D01*
X47010000Y-71456600D02*
X47014800Y-71359300D01*
X47010000Y-119887400D02*
X47010000Y-102904600D01*
X47014800Y-119984700D02*
X47010000Y-119887400D01*
X47029000Y-120080800D02*
X47014800Y-119984700D01*
X47052600Y-120175100D02*
X47029000Y-120080800D01*
X47085400Y-120266500D02*
X47052600Y-120175100D01*
X47126900Y-120354400D02*
X47085400Y-120266500D01*
X47176900Y-120437700D02*
X47126900Y-120354400D01*
X47234700Y-120515700D02*
X47176900Y-120437700D01*
X47300000Y-120587700D02*
X47234700Y-120515700D01*
X47372000Y-120653000D02*
X47300000Y-120587700D01*
X47450000Y-120710800D02*
X47372000Y-120653000D01*
X47533300Y-120760800D02*
X47450000Y-120710800D01*
X47621100Y-120802300D02*
X47533300Y-120760800D01*
X47712600Y-120835000D02*
X47621100Y-120802300D01*
X47806900Y-120858700D02*
X47712600Y-120835000D01*
X47903000Y-120872900D02*
X47806900Y-120858700D01*
X48000200Y-120877700D02*
X47903000Y-120872900D01*
X49008800Y-120877700D02*
X48000200Y-120877700D01*
X49106000Y-120872900D02*
X49008800Y-120877700D01*
X49202100Y-120858700D02*
X49106000Y-120872900D01*
X49296400Y-120835000D02*
X49202100Y-120858700D01*
X49387900Y-120802300D02*
X49296400Y-120835000D01*
X49475700Y-120760800D02*
X49387900Y-120802300D01*
X49559000Y-120710800D02*
X49475700Y-120760800D01*
X49637000Y-120653000D02*
X49559000Y-120710800D01*
X49709000Y-120587700D02*
X49637000Y-120653000D01*
X49774300Y-120515700D02*
X49709000Y-120587700D01*
X49832100Y-120437700D02*
X49774300Y-120515700D01*
X49882100Y-120354400D02*
X49832100Y-120437700D01*
X49923600Y-120266500D02*
X49882100Y-120354400D01*
X49956400Y-120175100D02*
X49923600Y-120266500D01*
X49980000Y-120080800D02*
X49956400Y-120175100D01*
X49994200Y-119984700D02*
X49980000Y-120080800D01*
X49999000Y-119887400D02*
X49994200Y-119984700D01*
X49999000Y-113918600D02*
X49999000Y-119887400D01*
X50004900Y-113805500D02*
X49999000Y-113918600D01*
X50021500Y-113700900D02*
X50004900Y-113805500D01*
X50045400Y-113610500D02*
X50021500Y-113700900D01*
X50053500Y-113585500D02*
X50045400Y-113610500D01*
X50087100Y-113498700D02*
X50053500Y-113585500D01*
X50129300Y-113415300D02*
X50087100Y-113498700D01*
X50142400Y-113392500D02*
X50129300Y-113415300D01*
X50193400Y-113314600D02*
X50142400Y-113392500D01*
X50251900Y-113241700D02*
X50193400Y-113314600D01*
X50269500Y-113222200D02*
X50251900Y-113241700D01*
X50335600Y-113156700D02*
X50269500Y-113222200D01*
X50408000Y-113097500D02*
X50335600Y-113156700D01*
X50429200Y-113082100D02*
X50408000Y-113097500D01*
X50507500Y-113031700D02*
X50429200Y-113082100D01*
X50590600Y-112988900D02*
X50507500Y-113031700D01*
X50614600Y-112978200D02*
X50590600Y-112988900D01*
X50689400Y-112949500D02*
X50614600Y-112978200D01*
X50714400Y-112941400D02*
X50689400Y-112949500D01*
X50804400Y-112917600D02*
X50714400Y-112941400D01*
X50896700Y-112902600D02*
X50804400Y-112917600D01*
X50922800Y-112899900D02*
X50896700Y-112902600D01*
X51022600Y-112895000D02*
X50922800Y-112899900D01*
X77565400Y-112895000D02*
X51022600Y-112895000D01*
X77662700Y-112890200D02*
X77565400Y-112895000D01*
X77758800Y-112876000D02*
X77662700Y-112890200D01*
X77853000Y-112852400D02*
X77758800Y-112876000D01*
X77944500Y-112819600D02*
X77853000Y-112852400D01*
X78032300Y-112778100D02*
X77944500Y-112819600D01*
X78115700Y-112728200D02*
X78032300Y-112778100D01*
X78193700Y-112670300D02*
X78115700Y-112728200D01*
X78265700Y-112605000D02*
X78193700Y-112670300D01*
X78330900Y-112533000D02*
X78265700Y-112605000D01*
X78388800Y-112455000D02*
X78330900Y-112533000D01*
X78438800Y-112371700D02*
X78388800Y-112455000D01*
X78480300Y-112283900D02*
X78438800Y-112371700D01*
X78513000Y-112192400D02*
X78480300Y-112283900D01*
X78536600Y-112098100D02*
X78513000Y-112192400D01*
X78550900Y-112002000D02*
X78536600Y-112098100D01*
X78555700Y-111904800D02*
X78550900Y-112002000D01*
X78555700Y-110887300D02*
X78555700Y-111904800D01*
X78550900Y-110790000D02*
X78555700Y-110887300D01*
X78536600Y-110693900D02*
X78550900Y-110790000D01*
X78513000Y-110599600D02*
X78536600Y-110693900D01*
X78480300Y-110508200D02*
X78513000Y-110599600D01*
X78438800Y-110420300D02*
X78480300Y-110508200D01*
X78388800Y-110337000D02*
X78438800Y-110420300D01*
X78330900Y-110259000D02*
X78388800Y-110337000D01*
X78265700Y-110187000D02*
X78330900Y-110259000D01*
X78193700Y-110121700D02*
X78265700Y-110187000D01*
X78115700Y-110063900D02*
X78193700Y-110121700D01*
X78032300Y-110013900D02*
X78115700Y-110063900D01*
X77944500Y-109972400D02*
X78032300Y-110013900D01*
X77853000Y-109939600D02*
X77944500Y-109972400D01*
X77758800Y-109916000D02*
X77853000Y-109939600D01*
X77662700Y-109901800D02*
X77758800Y-109916000D01*
X77565400Y-109897000D02*
X77662700Y-109901800D01*
X51022600Y-109897000D02*
X77565400Y-109897000D01*
X50922800Y-109892100D02*
X51022600Y-109897000D01*
X50896700Y-109889400D02*
X50922800Y-109892100D01*
X50804300Y-109874400D02*
X50896700Y-109889400D01*
X50714200Y-109850600D02*
X50804300Y-109874400D01*
X50689500Y-109842500D02*
X50714200Y-109850600D01*
X50614600Y-109813800D02*
X50689500Y-109842500D01*
X50590600Y-109803100D02*
X50614600Y-109813800D01*
X50507900Y-109760600D02*
X50590600Y-109803100D01*
X50429300Y-109710000D02*
X50507900Y-109760600D01*
X50408000Y-109694500D02*
X50429300Y-109710000D01*
X50335900Y-109635700D02*
X50408000Y-109694500D01*
X50269500Y-109569800D02*
X50335900Y-109635700D01*
X50252000Y-109550300D02*
X50269500Y-109569800D01*
X50193600Y-109477800D02*
X50252000Y-109550300D01*
X50142400Y-109399600D02*
X50193600Y-109477800D01*
X50129300Y-109376800D02*
X50142400Y-109399600D01*
X50087100Y-109293300D02*
X50129300Y-109376800D01*
X50049200Y-109194400D02*
X50087100Y-109293300D01*
X50024600Y-109104200D02*
X50049200Y-109194400D01*
X50019200Y-109078500D02*
X50024600Y-109104200D01*
X50004900Y-108986500D02*
X50019200Y-109078500D01*
X49999000Y-108873500D02*
X50004900Y-108986500D01*
X49999000Y-102904600D02*
X49999000Y-108873500D01*
X49994200Y-102807300D02*
X49999000Y-102904600D01*
X49980000Y-102711200D02*
X49994200Y-102807300D01*
X49956400Y-102617000D02*
X49980000Y-102711200D01*
X49923600Y-102525500D02*
X49956400Y-102617000D01*
X49882100Y-102437700D02*
X49923600Y-102525500D01*
X49832100Y-102354300D02*
X49882100Y-102437700D01*
X49774300Y-102276300D02*
X49832100Y-102354300D01*
X49709000Y-102204300D02*
X49774300Y-102276300D01*
X49637000Y-102139100D02*
X49709000Y-102204300D01*
X49559000Y-102081200D02*
X49637000Y-102139100D01*
X49475700Y-102031300D02*
X49559000Y-102081200D01*
X49387900Y-101989700D02*
X49475700Y-102031300D01*
X49296400Y-101957000D02*
X49387900Y-101989700D01*
X49202100Y-101933400D02*
X49296400Y-101957000D01*
X49106000Y-101919100D02*
X49202100Y-101933400D01*
X49008800Y-101914300D02*
X49106000Y-101919100D01*
X48000200Y-101914300D02*
X49008800Y-101914300D01*
X47903000Y-101919100D02*
X48000200Y-101914300D01*
X47806900Y-101933400D02*
X47903000Y-101919100D01*
X47712600Y-101957000D02*
X47806900Y-101933400D01*
X47621100Y-101989700D02*
X47712600Y-101957000D01*
X47533300Y-102031300D02*
X47621100Y-101989700D01*
X47450000Y-102081200D02*
X47533300Y-102031300D01*
X47372000Y-102139100D02*
X47450000Y-102081200D01*
X47300000Y-102204300D02*
X47372000Y-102139100D01*
X47234700Y-102276300D02*
X47300000Y-102204300D01*
X47176900Y-102354300D02*
X47234700Y-102276300D01*
X47126900Y-102437700D02*
X47176900Y-102354300D01*
X47085400Y-102525500D02*
X47126900Y-102437700D01*
X47052600Y-102617000D02*
X47085400Y-102525500D01*
X47029000Y-102711200D02*
X47052600Y-102617000D01*
X47014800Y-102807300D02*
X47029000Y-102711200D01*
X47010000Y-102904600D02*
X47014800Y-102807300D01*
X47010000Y-143343800D02*
X47010000Y-134352600D01*
X47014800Y-143441100D02*
X47010000Y-143343800D01*
X47029000Y-143537200D02*
X47014800Y-143441100D01*
X47052600Y-143631400D02*
X47029000Y-143537200D01*
X47085400Y-143722900D02*
X47052600Y-143631400D01*
X47126900Y-143810700D02*
X47085400Y-143722900D01*
X47176900Y-143894000D02*
X47126900Y-143810700D01*
X47234700Y-143972100D02*
X47176900Y-143894000D01*
X47300000Y-144044100D02*
X47234700Y-143972100D01*
X47372000Y-144109300D02*
X47300000Y-144044100D01*
X47450000Y-144167200D02*
X47372000Y-144109300D01*
X47533300Y-144217100D02*
X47450000Y-144167200D01*
X47621100Y-144258700D02*
X47533300Y-144217100D01*
X47712600Y-144291400D02*
X47621100Y-144258700D01*
X47806900Y-144315000D02*
X47712600Y-144291400D01*
X47903000Y-144329200D02*
X47806900Y-144315000D01*
X48000200Y-144334000D02*
X47903000Y-144329200D01*
X77565400Y-144334000D02*
X48000200Y-144334000D01*
X77662700Y-144329200D02*
X77565400Y-144334000D01*
X77758800Y-144315000D02*
X77662700Y-144329200D01*
X77853000Y-144291400D02*
X77758800Y-144315000D01*
X77944500Y-144258700D02*
X77853000Y-144291400D01*
X78032300Y-144217100D02*
X77944500Y-144258700D01*
X78115700Y-144167200D02*
X78032300Y-144217100D01*
X78193700Y-144109300D02*
X78115700Y-144167200D01*
X78265700Y-144044100D02*
X78193700Y-144109300D01*
X78330900Y-143972100D02*
X78265700Y-144044100D01*
X78388800Y-143894000D02*
X78330900Y-143972100D01*
X78438800Y-143810700D02*
X78388800Y-143894000D01*
X78480300Y-143722900D02*
X78438800Y-143810700D01*
X78513000Y-143631400D02*
X78480300Y-143722900D01*
X78536600Y-143537200D02*
X78513000Y-143631400D01*
X78550900Y-143441100D02*
X78536600Y-143537200D01*
X78555700Y-143343800D02*
X78550900Y-143441100D01*
X78555700Y-142335300D02*
X78555700Y-143343800D01*
X78550900Y-142238000D02*
X78555700Y-142335300D01*
X78536600Y-142141900D02*
X78550900Y-142238000D01*
X78513000Y-142047600D02*
X78536600Y-142141900D01*
X78480300Y-141956200D02*
X78513000Y-142047600D01*
X78438800Y-141868300D02*
X78480300Y-141956200D01*
X78388800Y-141785000D02*
X78438800Y-141868300D01*
X78330900Y-141707000D02*
X78388800Y-141785000D01*
X78265700Y-141635000D02*
X78330900Y-141707000D01*
X78193700Y-141569700D02*
X78265700Y-141635000D01*
X78115700Y-141511900D02*
X78193700Y-141569700D01*
X78032300Y-141461900D02*
X78115700Y-141511900D01*
X77944500Y-141420400D02*
X78032300Y-141461900D01*
X77853000Y-141387700D02*
X77944500Y-141420400D01*
X77758800Y-141364000D02*
X77853000Y-141387700D01*
X77662700Y-141349800D02*
X77758800Y-141364000D01*
X77565400Y-141345000D02*
X77662700Y-141349800D01*
X51022600Y-141345000D02*
X77565400Y-141345000D01*
X50922800Y-141340100D02*
X51022600Y-141345000D01*
X50896700Y-141337400D02*
X50922800Y-141340100D01*
X50804300Y-141322400D02*
X50896700Y-141337400D01*
X50714200Y-141298600D02*
X50804300Y-141322400D01*
X50689500Y-141290500D02*
X50714200Y-141298600D01*
X50614600Y-141261800D02*
X50689500Y-141290500D01*
X50590600Y-141251100D02*
X50614600Y-141261800D01*
X50507900Y-141208600D02*
X50590600Y-141251100D01*
X50429300Y-141158000D02*
X50507900Y-141208600D01*
X50408000Y-141142500D02*
X50429300Y-141158000D01*
X50335900Y-141083700D02*
X50408000Y-141142500D01*
X50269500Y-141017800D02*
X50335900Y-141083700D01*
X50252000Y-140998300D02*
X50269500Y-141017800D01*
X50193600Y-140925800D02*
X50252000Y-140998300D01*
X50142400Y-140847600D02*
X50193600Y-140925800D01*
X50129300Y-140824800D02*
X50142400Y-140847600D01*
X50087100Y-140741300D02*
X50129300Y-140824800D01*
X50049200Y-140642400D02*
X50087100Y-140741300D01*
X50024600Y-140552200D02*
X50049200Y-140642400D01*
X50019200Y-140526500D02*
X50024600Y-140552200D01*
X50004900Y-140434500D02*
X50019200Y-140526500D01*
X49999000Y-140321500D02*
X50004900Y-140434500D01*
X49999000Y-134352600D02*
X49999000Y-140321500D01*
X49994200Y-134255300D02*
X49999000Y-134352600D01*
X49980000Y-134159200D02*
X49994200Y-134255300D01*
X49956400Y-134065000D02*
X49980000Y-134159200D01*
X49923600Y-133973500D02*
X49956400Y-134065000D01*
X49882100Y-133885700D02*
X49923600Y-133973500D01*
X49832100Y-133802300D02*
X49882100Y-133885700D01*
X49774300Y-133724300D02*
X49832100Y-133802300D01*
X49709000Y-133652300D02*
X49774300Y-133724300D01*
X49637000Y-133587100D02*
X49709000Y-133652300D01*
X49559000Y-133529200D02*
X49637000Y-133587100D01*
X49475700Y-133479300D02*
X49559000Y-133529200D01*
X49387900Y-133437700D02*
X49475700Y-133479300D01*
X49296400Y-133405000D02*
X49387900Y-133437700D01*
X49202100Y-133381400D02*
X49296400Y-133405000D01*
X49106000Y-133367100D02*
X49202100Y-133381400D01*
X49008800Y-133362400D02*
X49106000Y-133367100D01*
X48000200Y-133362400D02*
X49008800Y-133362400D01*
X47903000Y-133367100D02*
X48000200Y-133362400D01*
X47806900Y-133381400D02*
X47903000Y-133367100D01*
X47712600Y-133405000D02*
X47806900Y-133381400D01*
X47621100Y-133437700D02*
X47712600Y-133405000D01*
X47533300Y-133479300D02*
X47621100Y-133437700D01*
X47450000Y-133529200D02*
X47533300Y-133479300D01*
X47372000Y-133587100D02*
X47450000Y-133529200D01*
X47300000Y-133652300D02*
X47372000Y-133587100D01*
X47234700Y-133724300D02*
X47300000Y-133652300D01*
X47176900Y-133802300D02*
X47234700Y-133724300D01*
X47126900Y-133885700D02*
X47176900Y-133802300D01*
X47085400Y-133973500D02*
X47126900Y-133885700D01*
X47052600Y-134065000D02*
X47085400Y-133973500D01*
X47029000Y-134159200D02*
X47052600Y-134065000D01*
X47014800Y-134255300D02*
X47029000Y-134159200D01*
X47010000Y-134352600D02*
X47014800Y-134255300D01*
X48000200Y-47010000D02*
X77565400Y-47010000D01*
X47903000Y-47014800D02*
X48000200Y-47010000D01*
X47806900Y-47029000D02*
X47903000Y-47014800D01*
X47712600Y-47052600D02*
X47806900Y-47029000D01*
X47621100Y-47085400D02*
X47712600Y-47052600D01*
X47533300Y-47126900D02*
X47621100Y-47085400D01*
X47450000Y-47176900D02*
X47533300Y-47126900D01*
X47372000Y-47234700D02*
X47450000Y-47176900D01*
X47300000Y-47300000D02*
X47372000Y-47234700D01*
X47234700Y-47372000D02*
X47300000Y-47300000D01*
X47176900Y-47450000D02*
X47234700Y-47372000D01*
X47126900Y-47533300D02*
X47176900Y-47450000D01*
X47085400Y-47621100D02*
X47126900Y-47533300D01*
X47052600Y-47712600D02*
X47085400Y-47621100D01*
X47029000Y-47806900D02*
X47052600Y-47712600D01*
X47014800Y-47903000D02*
X47029000Y-47806900D01*
X47010000Y-48000200D02*
X47014800Y-47903000D01*
X47010000Y-56991400D02*
X47010000Y-48000200D01*
X47014800Y-57088700D02*
X47010000Y-56991400D01*
X47029000Y-57184800D02*
X47014800Y-57088700D01*
X47052600Y-57279000D02*
X47029000Y-57184800D01*
X47085400Y-57370500D02*
X47052600Y-57279000D01*
X47126900Y-57458300D02*
X47085400Y-57370500D01*
X47176900Y-57541700D02*
X47126900Y-57458300D01*
X47234700Y-57619700D02*
X47176900Y-57541700D01*
X47300000Y-57691700D02*
X47234700Y-57619700D01*
X47372000Y-57756900D02*
X47300000Y-57691700D01*
X47450000Y-57814800D02*
X47372000Y-57756900D01*
X47533300Y-57864800D02*
X47450000Y-57814800D01*
X47621100Y-57906300D02*
X47533300Y-57864800D01*
X47712600Y-57939000D02*
X47621100Y-57906300D01*
X47806900Y-57962600D02*
X47712600Y-57939000D01*
X47903000Y-57976900D02*
X47806900Y-57962600D01*
X48000200Y-57981700D02*
X47903000Y-57976900D01*
X49008800Y-57981700D02*
X48000200Y-57981700D01*
X49106000Y-57976900D02*
X49008800Y-57981700D01*
X49202100Y-57962600D02*
X49106000Y-57976900D01*
X49296400Y-57939000D02*
X49202100Y-57962600D01*
X49387900Y-57906300D02*
X49296400Y-57939000D01*
X49475700Y-57864800D02*
X49387900Y-57906300D01*
X49559000Y-57814800D02*
X49475700Y-57864800D01*
X49637000Y-57756900D02*
X49559000Y-57814800D01*
X49709000Y-57691700D02*
X49637000Y-57756900D01*
X49774300Y-57619700D02*
X49709000Y-57691700D01*
X49832100Y-57541700D02*
X49774300Y-57619700D01*
X49882100Y-57458300D02*
X49832100Y-57541700D01*
X49923600Y-57370500D02*
X49882100Y-57458300D01*
X49956400Y-57279000D02*
X49923600Y-57370500D01*
X49980000Y-57184800D02*
X49956400Y-57279000D01*
X49994200Y-57088700D02*
X49980000Y-57184800D01*
X49999000Y-56991400D02*
X49994200Y-57088700D01*
X49999000Y-51022600D02*
X49999000Y-56991400D01*
X50004900Y-50909400D02*
X49999000Y-51022600D01*
X50021500Y-50804900D02*
X50004900Y-50909400D01*
X50045400Y-50714500D02*
X50021500Y-50804900D01*
X50053500Y-50689500D02*
X50045400Y-50714500D01*
X50087100Y-50602700D02*
X50053500Y-50689500D01*
X50129300Y-50519200D02*
X50087100Y-50602700D01*
X50142400Y-50496500D02*
X50129300Y-50519200D01*
X50193400Y-50418600D02*
X50142400Y-50496500D01*
X50251900Y-50345700D02*
X50193400Y-50418600D01*
X50269500Y-50326200D02*
X50251900Y-50345700D01*
X50335600Y-50260600D02*
X50269500Y-50326200D01*
X50408000Y-50201500D02*
X50335600Y-50260600D01*
X50429200Y-50186100D02*
X50408000Y-50201500D01*
X50507500Y-50135700D02*
X50429200Y-50186100D01*
X50590600Y-50092900D02*
X50507500Y-50135700D01*
X50614600Y-50082200D02*
X50590600Y-50092900D01*
X50701600Y-50049200D02*
X50614600Y-50082200D01*
X50804400Y-50021600D02*
X50701600Y-50049200D01*
X50896700Y-50006600D02*
X50804400Y-50021600D01*
X50922800Y-50003900D02*
X50896700Y-50006600D01*
X51022500Y-49999000D02*
X50922800Y-50003900D01*
X77565400Y-49999000D02*
X51022500Y-49999000D01*
X77662700Y-49994200D02*
X77565400Y-49999000D01*
X77758800Y-49980000D02*
X77662700Y-49994200D01*
X77853000Y-49956400D02*
X77758800Y-49980000D01*
X77944500Y-49923600D02*
X77853000Y-49956400D01*
X78032300Y-49882100D02*
X77944500Y-49923600D01*
X78115700Y-49832100D02*
X78032300Y-49882100D01*
X78193700Y-49774300D02*
X78115700Y-49832100D01*
X78265700Y-49709000D02*
X78193700Y-49774300D01*
X78330900Y-49637000D02*
X78265700Y-49709000D01*
X78388800Y-49559000D02*
X78330900Y-49637000D01*
X78438800Y-49475700D02*
X78388800Y-49559000D01*
X78480300Y-49387900D02*
X78438800Y-49475700D01*
X78513000Y-49296400D02*
X78480300Y-49387900D01*
X78536600Y-49202100D02*
X78513000Y-49296400D01*
X78550900Y-49106000D02*
X78536600Y-49202100D01*
X78555700Y-49008800D02*
X78550900Y-49106000D01*
X78555700Y-48000200D02*
X78555700Y-49008800D01*
X78550900Y-47903000D02*
X78555700Y-48000200D01*
X78536600Y-47806900D02*
X78550900Y-47903000D01*
X78513000Y-47712600D02*
X78536600Y-47806900D01*
X78480300Y-47621100D02*
X78513000Y-47712600D01*
X78438800Y-47533300D02*
X78480300Y-47621100D01*
X78388800Y-47450000D02*
X78438800Y-47533300D01*
X78330900Y-47372000D02*
X78388800Y-47450000D01*
X78265700Y-47300000D02*
X78330900Y-47372000D01*
X78193700Y-47234700D02*
X78265700Y-47300000D01*
X78115700Y-47176900D02*
X78193700Y-47234700D01*
X78032300Y-47126900D02*
X78115700Y-47176900D01*
X77944500Y-47085400D02*
X78032300Y-47126900D01*
X77853000Y-47052600D02*
X77944500Y-47085400D01*
X77758800Y-47029000D02*
X77853000Y-47052600D01*
X77662700Y-47014800D02*
X77758800Y-47029000D01*
X77565400Y-47010000D02*
X77662700Y-47014800D01*
X81557700Y-111904800D02*
X81557700Y-110887300D01*
X81562400Y-112002000D02*
X81557700Y-111904800D01*
X81576700Y-112098100D02*
X81562400Y-112002000D01*
X81600300Y-112192400D02*
X81576700Y-112098100D01*
X81633000Y-112283900D02*
X81600300Y-112192400D01*
X81674600Y-112371700D02*
X81633000Y-112283900D01*
X81724500Y-112455000D02*
X81674600Y-112371700D01*
X81782400Y-112533000D02*
X81724500Y-112455000D01*
X81847600Y-112605000D02*
X81782400Y-112533000D01*
X81919600Y-112670300D02*
X81847600Y-112605000D01*
X81997700Y-112728200D02*
X81919600Y-112670300D01*
X82081000Y-112778100D02*
X81997700Y-112728200D01*
X82168800Y-112819600D02*
X82081000Y-112778100D01*
X82260300Y-112852400D02*
X82168800Y-112819600D01*
X82354500Y-112876000D02*
X82260300Y-112852400D01*
X82450600Y-112890200D02*
X82354500Y-112876000D01*
X82547900Y-112895000D02*
X82450600Y-112890200D01*
X107622100Y-112895000D02*
X82547900Y-112895000D01*
X107719400Y-112890200D02*
X107622100Y-112895000D01*
X107815500Y-112876000D02*
X107719400Y-112890200D01*
X107909700Y-112852400D02*
X107815500Y-112876000D01*
X108001200Y-112819600D02*
X107909700Y-112852400D01*
X108089000Y-112778100D02*
X108001200Y-112819600D01*
X108172300Y-112728200D02*
X108089000Y-112778100D01*
X108250400Y-112670300D02*
X108172300Y-112728200D01*
X108322400Y-112605000D02*
X108250400Y-112670300D01*
X108387600Y-112533100D02*
X108322400Y-112605000D01*
X108445500Y-112455000D02*
X108387600Y-112533100D01*
X108495400Y-112371700D02*
X108445500Y-112455000D01*
X108537000Y-112283900D02*
X108495400Y-112371700D01*
X108569700Y-112192400D02*
X108537000Y-112283900D01*
X108593300Y-112098100D02*
X108569700Y-112192400D01*
X108607600Y-112002000D02*
X108593300Y-112098100D01*
X108612300Y-111904800D02*
X108607600Y-112002000D01*
X108612300Y-110887200D02*
X108612300Y-111904800D01*
X108607600Y-110790000D02*
X108612300Y-110887200D01*
X108593300Y-110693900D02*
X108607600Y-110790000D01*
X108569700Y-110599600D02*
X108593300Y-110693900D01*
X108537000Y-110508200D02*
X108569700Y-110599600D01*
X108495400Y-110420300D02*
X108537000Y-110508200D01*
X108445500Y-110337000D02*
X108495400Y-110420300D01*
X108387600Y-110259000D02*
X108445500Y-110337000D01*
X108322400Y-110187000D02*
X108387600Y-110259000D01*
X108250400Y-110121700D02*
X108322400Y-110187000D01*
X108172300Y-110063900D02*
X108250400Y-110121700D01*
X108089000Y-110013900D02*
X108172300Y-110063900D01*
X108001200Y-109972400D02*
X108089000Y-110013900D01*
X107909700Y-109939600D02*
X108001200Y-109972400D01*
X107815500Y-109916000D02*
X107909700Y-109939600D01*
X107719400Y-109901800D02*
X107815500Y-109916000D01*
X107622100Y-109897000D02*
X107719400Y-109901800D01*
X82547900Y-109897000D02*
X107622100Y-109897000D01*
X82450600Y-109901800D02*
X82547900Y-109897000D01*
X82354500Y-109916000D02*
X82450600Y-109901800D01*
X82260300Y-109939600D02*
X82354500Y-109916000D01*
X82168800Y-109972400D02*
X82260300Y-109939600D01*
X82081000Y-110013900D02*
X82168800Y-109972400D01*
X81997700Y-110063900D02*
X82081000Y-110013900D01*
X81919600Y-110121700D02*
X81997700Y-110063900D01*
X81847600Y-110187000D02*
X81919600Y-110121700D01*
X81782400Y-110259000D02*
X81847600Y-110187000D01*
X81724500Y-110337000D02*
X81782400Y-110259000D01*
X81674600Y-110420300D02*
X81724500Y-110337000D01*
X81633000Y-110508200D02*
X81674600Y-110420300D01*
X81600300Y-110599600D02*
X81633000Y-110508200D01*
X81576700Y-110693900D02*
X81600300Y-110599600D01*
X81562400Y-110790000D02*
X81576700Y-110693900D01*
X81557700Y-110887300D02*
X81562400Y-110790000D01*
X107622100Y-144334000D02*
X82547900Y-144334000D01*
X107719400Y-144329200D02*
X107622100Y-144334000D01*
X107815500Y-144315000D02*
X107719400Y-144329200D01*
X107909700Y-144291400D02*
X107815500Y-144315000D01*
X108001200Y-144258700D02*
X107909700Y-144291400D01*
X108089000Y-144217100D02*
X108001200Y-144258700D01*
X108172300Y-144167200D02*
X108089000Y-144217100D01*
X108250400Y-144109300D02*
X108172300Y-144167200D01*
X108322400Y-144044100D02*
X108250400Y-144109300D01*
X108387600Y-143972100D02*
X108322400Y-144044100D01*
X108445500Y-143894000D02*
X108387600Y-143972100D01*
X108495400Y-143810700D02*
X108445500Y-143894000D01*
X108537000Y-143722900D02*
X108495400Y-143810700D01*
X108569700Y-143631400D02*
X108537000Y-143722900D01*
X108593300Y-143537200D02*
X108569700Y-143631400D01*
X108607600Y-143441100D02*
X108593300Y-143537200D01*
X108612300Y-143343800D02*
X108607600Y-143441100D01*
X108612300Y-142335300D02*
X108612300Y-143343800D01*
X108607600Y-142238000D02*
X108612300Y-142335300D01*
X108593300Y-142141900D02*
X108607600Y-142238000D01*
X108569700Y-142047600D02*
X108593300Y-142141900D01*
X108537000Y-141956200D02*
X108569700Y-142047600D01*
X108495400Y-141868300D02*
X108537000Y-141956200D01*
X108445500Y-141785000D02*
X108495400Y-141868300D01*
X108387600Y-141707000D02*
X108445500Y-141785000D01*
X108322400Y-141635000D02*
X108387600Y-141707000D01*
X108250400Y-141569700D02*
X108322400Y-141635000D01*
X108172300Y-141511900D02*
X108250400Y-141569700D01*
X108089000Y-141461900D02*
X108172300Y-141511900D01*
X108001200Y-141420400D02*
X108089000Y-141461900D01*
X107909700Y-141387600D02*
X108001200Y-141420400D01*
X107815500Y-141364000D02*
X107909700Y-141387600D01*
X107719400Y-141349800D02*
X107815500Y-141364000D01*
X107622100Y-141345000D02*
X107719400Y-141349800D01*
X82547900Y-141345000D02*
X107622100Y-141345000D01*
X82450600Y-141349800D02*
X82547900Y-141345000D01*
X82354500Y-141364000D02*
X82450600Y-141349800D01*
X82260300Y-141387700D02*
X82354500Y-141364000D01*
X82168800Y-141420400D02*
X82260300Y-141387700D01*
X82081000Y-141461900D02*
X82168800Y-141420400D01*
X81997700Y-141511900D02*
X82081000Y-141461900D01*
X81919600Y-141569700D02*
X81997700Y-141511900D01*
X81847600Y-141635000D02*
X81919600Y-141569700D01*
X81782400Y-141707000D02*
X81847600Y-141635000D01*
X81724500Y-141785000D02*
X81782400Y-141707000D01*
X81674600Y-141868300D02*
X81724500Y-141785000D01*
X81633000Y-141956200D02*
X81674600Y-141868300D01*
X81600300Y-142047600D02*
X81633000Y-141956200D01*
X81576700Y-142141900D02*
X81600300Y-142047600D01*
X81562400Y-142238000D02*
X81576700Y-142141900D01*
X81557700Y-142335300D02*
X81562400Y-142238000D01*
X81557700Y-143343800D02*
X81557700Y-142335300D01*
X81562400Y-143441100D02*
X81557700Y-143343800D01*
X81576700Y-143537200D02*
X81562400Y-143441100D01*
X81600300Y-143631400D02*
X81576700Y-143537200D01*
X81633000Y-143722900D02*
X81600300Y-143631400D01*
X81674600Y-143810700D02*
X81633000Y-143722900D01*
X81724500Y-143894000D02*
X81674600Y-143810700D01*
X81782400Y-143972100D02*
X81724500Y-143894000D01*
X81847600Y-144044100D02*
X81782400Y-143972100D01*
X81919600Y-144109300D02*
X81847600Y-144044100D01*
X81997700Y-144167200D02*
X81919600Y-144109300D01*
X82081000Y-144217100D02*
X81997700Y-144167200D01*
X82168800Y-144258700D02*
X82081000Y-144217100D01*
X82260300Y-144291400D02*
X82168800Y-144258700D01*
X82354500Y-144315000D02*
X82260300Y-144291400D01*
X82450600Y-144329200D02*
X82354500Y-144315000D01*
X82547900Y-144334000D02*
X82450600Y-144329200D01*
X82547900Y-47010000D02*
X107622100Y-47010000D01*
X82450600Y-47014800D02*
X82547900Y-47010000D01*
X82354500Y-47029000D02*
X82450600Y-47014800D01*
X82260300Y-47052600D02*
X82354500Y-47029000D01*
X82168800Y-47085400D02*
X82260300Y-47052600D01*
X82081000Y-47126900D02*
X82168800Y-47085400D01*
X81997700Y-47176900D02*
X82081000Y-47126900D01*
X81919600Y-47234700D02*
X81997700Y-47176900D01*
X81847600Y-47300000D02*
X81919600Y-47234700D01*
X81782400Y-47372000D02*
X81847600Y-47300000D01*
X81724500Y-47450000D02*
X81782400Y-47372000D01*
X81674600Y-47533300D02*
X81724500Y-47450000D01*
X81633000Y-47621100D02*
X81674600Y-47533300D01*
X81600300Y-47712600D02*
X81633000Y-47621100D01*
X81576700Y-47806900D02*
X81600300Y-47712600D01*
X81562400Y-47903000D02*
X81576700Y-47806900D01*
X81557700Y-48000200D02*
X81562400Y-47903000D01*
X81557700Y-49008800D02*
X81557700Y-48000200D01*
X81562400Y-49106000D02*
X81557700Y-49008800D01*
X81576700Y-49202100D02*
X81562400Y-49106000D01*
X81600300Y-49296400D02*
X81576700Y-49202100D01*
X81633000Y-49387900D02*
X81600300Y-49296400D01*
X81674600Y-49475700D02*
X81633000Y-49387900D01*
X81724500Y-49559000D02*
X81674600Y-49475700D01*
X81782400Y-49637000D02*
X81724500Y-49559000D01*
X81847600Y-49709000D02*
X81782400Y-49637000D01*
X81919600Y-49774300D02*
X81847600Y-49709000D01*
X81997700Y-49832100D02*
X81919600Y-49774300D01*
X82081000Y-49882100D02*
X81997700Y-49832100D01*
X82168800Y-49923600D02*
X82081000Y-49882100D01*
X82260300Y-49956400D02*
X82168800Y-49923600D01*
X82354500Y-49980000D02*
X82260300Y-49956400D01*
X82450600Y-49994200D02*
X82354500Y-49980000D01*
X82547900Y-49999000D02*
X82450600Y-49994200D01*
X107622100Y-49999000D02*
X82547900Y-49999000D01*
X107719400Y-49994200D02*
X107622100Y-49999000D01*
X107815500Y-49980000D02*
X107719400Y-49994200D01*
X107909700Y-49956400D02*
X107815500Y-49980000D01*
X108001200Y-49923600D02*
X107909700Y-49956400D01*
X108089000Y-49882100D02*
X108001200Y-49923600D01*
X108172300Y-49832100D02*
X108089000Y-49882100D01*
X108250400Y-49774300D02*
X108172300Y-49832100D01*
X108322400Y-49709000D02*
X108250400Y-49774300D01*
X108387600Y-49637000D02*
X108322400Y-49709000D01*
X108445500Y-49559000D02*
X108387600Y-49637000D01*
X108495400Y-49475700D02*
X108445500Y-49559000D01*
X108537000Y-49387900D02*
X108495400Y-49475700D01*
X108569700Y-49296400D02*
X108537000Y-49387900D01*
X108593300Y-49202100D02*
X108569700Y-49296400D01*
X108607600Y-49106000D02*
X108593300Y-49202100D01*
X108612300Y-49008800D02*
X108607600Y-49106000D01*
X108612300Y-48000200D02*
X108612300Y-49008800D01*
X108607600Y-47903000D02*
X108612300Y-48000200D01*
X108593300Y-47806900D02*
X108607600Y-47903000D01*
X108569700Y-47712600D02*
X108593300Y-47806900D01*
X108537000Y-47621100D02*
X108569700Y-47712600D01*
X108495400Y-47533300D02*
X108537000Y-47621100D01*
X108445500Y-47450000D02*
X108495400Y-47533300D01*
X108387600Y-47372000D02*
X108445500Y-47450000D01*
X108322400Y-47300000D02*
X108387600Y-47372000D01*
X108250400Y-47234700D02*
X108322400Y-47300000D01*
X108172300Y-47176900D02*
X108250400Y-47234700D01*
X108089000Y-47126900D02*
X108172300Y-47176900D01*
X108001200Y-47085400D02*
X108089000Y-47126900D01*
X107909700Y-47052600D02*
X108001200Y-47085400D01*
X107815500Y-47029000D02*
X107909700Y-47052600D01*
X107719400Y-47014800D02*
X107815500Y-47029000D01*
X107622100Y-47010000D02*
X107719400Y-47014800D01*
X107622100Y-81447000D02*
X82547900Y-81447000D01*
X107719400Y-81442200D02*
X107622100Y-81447000D01*
X107815500Y-81428000D02*
X107719400Y-81442200D01*
X107909700Y-81404400D02*
X107815500Y-81428000D01*
X108001200Y-81371600D02*
X107909700Y-81404400D01*
X108089000Y-81330100D02*
X108001200Y-81371600D01*
X108172300Y-81280200D02*
X108089000Y-81330100D01*
X108250400Y-81222300D02*
X108172300Y-81280200D01*
X108322400Y-81157000D02*
X108250400Y-81222300D01*
X108387600Y-81085000D02*
X108322400Y-81157000D01*
X108445500Y-81007000D02*
X108387600Y-81085000D01*
X108495400Y-80923700D02*
X108445500Y-81007000D01*
X108537000Y-80835900D02*
X108495400Y-80923700D01*
X108569700Y-80744400D02*
X108537000Y-80835900D01*
X108593300Y-80650100D02*
X108569700Y-80744400D01*
X108607600Y-80554000D02*
X108593300Y-80650100D01*
X108612300Y-80456800D02*
X108607600Y-80554000D01*
X108612300Y-79439200D02*
X108612300Y-80456800D01*
X108607600Y-79342000D02*
X108612300Y-79439200D01*
X108593300Y-79245900D02*
X108607600Y-79342000D01*
X108569700Y-79151600D02*
X108593300Y-79245900D01*
X108537000Y-79060100D02*
X108569700Y-79151600D01*
X108495400Y-78972300D02*
X108537000Y-79060100D01*
X108445500Y-78889000D02*
X108495400Y-78972300D01*
X108387600Y-78811000D02*
X108445500Y-78889000D01*
X108322400Y-78739000D02*
X108387600Y-78811000D01*
X108250400Y-78673700D02*
X108322400Y-78739000D01*
X108172300Y-78615900D02*
X108250400Y-78673700D01*
X108089000Y-78565900D02*
X108172300Y-78615900D01*
X108001200Y-78524400D02*
X108089000Y-78565900D01*
X107909700Y-78491600D02*
X108001200Y-78524400D01*
X107815500Y-78468000D02*
X107909700Y-78491600D01*
X107719400Y-78453800D02*
X107815500Y-78468000D01*
X107622100Y-78449000D02*
X107719400Y-78453800D01*
X82547900Y-78449000D02*
X107622100Y-78449000D01*
X82450600Y-78453800D02*
X82547900Y-78449000D01*
X82354500Y-78468000D02*
X82450600Y-78453800D01*
X82260300Y-78491600D02*
X82354500Y-78468000D01*
X82168800Y-78524400D02*
X82260300Y-78491600D01*
X82081000Y-78565900D02*
X82168800Y-78524400D01*
X81997700Y-78615900D02*
X82081000Y-78565900D01*
X81919600Y-78673700D02*
X81997700Y-78615900D01*
X81847600Y-78739000D02*
X81919600Y-78673700D01*
X81782400Y-78811000D02*
X81847600Y-78739000D01*
X81724500Y-78889000D02*
X81782400Y-78811000D01*
X81674600Y-78972300D02*
X81724500Y-78889000D01*
X81633000Y-79060100D02*
X81674600Y-78972300D01*
X81600300Y-79151600D02*
X81633000Y-79060100D01*
X81576700Y-79245900D02*
X81600300Y-79151600D01*
X81562400Y-79342000D02*
X81576700Y-79245900D01*
X81557700Y-79439200D02*
X81562400Y-79342000D01*
X81557700Y-80456800D02*
X81557700Y-79439200D01*
X81562400Y-80554000D02*
X81557700Y-80456800D01*
X81576700Y-80650100D02*
X81562400Y-80554000D01*
X81600300Y-80744400D02*
X81576700Y-80650100D01*
X81633000Y-80835900D02*
X81600300Y-80744400D01*
X81674600Y-80923700D02*
X81633000Y-80835900D01*
X81724500Y-81007000D02*
X81674600Y-80923700D01*
X81782400Y-81085000D02*
X81724500Y-81007000D01*
X81847600Y-81157000D02*
X81782400Y-81085000D01*
X81919600Y-81222300D02*
X81847600Y-81157000D01*
X81997700Y-81280100D02*
X81919600Y-81222300D01*
X82081000Y-81330100D02*
X81997700Y-81280100D01*
X82168800Y-81371600D02*
X82081000Y-81330100D01*
X82260300Y-81404400D02*
X82168800Y-81371600D01*
X82354500Y-81428000D02*
X82260300Y-81404400D01*
X82450600Y-81442200D02*
X82354500Y-81428000D01*
X82547900Y-81447000D02*
X82450600Y-81442200D01*
X142169800Y-144334000D02*
X112604600Y-144334000D01*
X142267000Y-144329200D02*
X142169800Y-144334000D01*
X142363100Y-144315000D02*
X142267000Y-144329200D01*
X142457400Y-144291400D02*
X142363100Y-144315000D01*
X142548900Y-144258700D02*
X142457400Y-144291400D01*
X142636700Y-144217100D02*
X142548900Y-144258700D01*
X142720000Y-144167200D02*
X142636700Y-144217100D01*
X142798000Y-144109300D02*
X142720000Y-144167200D01*
X142870000Y-144044100D02*
X142798000Y-144109300D01*
X142935300Y-143972100D02*
X142870000Y-144044100D01*
X142993200Y-143894000D02*
X142935300Y-143972100D01*
X143043100Y-143810700D02*
X142993200Y-143894000D01*
X143084600Y-143722900D02*
X143043100Y-143810700D01*
X143117400Y-143631400D02*
X143084600Y-143722900D01*
X143141000Y-143537200D02*
X143117400Y-143631400D01*
X143155200Y-143441100D02*
X143141000Y-143537200D01*
X143160000Y-143343800D02*
X143155200Y-143441100D01*
X143160000Y-134352600D02*
X143160000Y-143343800D01*
X143155200Y-134255300D02*
X143160000Y-134352600D01*
X143141000Y-134159200D02*
X143155200Y-134255300D01*
X143117400Y-134065000D02*
X143141000Y-134159200D01*
X143084600Y-133973500D02*
X143117400Y-134065000D01*
X143043100Y-133885700D02*
X143084600Y-133973500D01*
X142993200Y-133802300D02*
X143043100Y-133885700D01*
X142935300Y-133724300D02*
X142993200Y-133802300D01*
X142870000Y-133652300D02*
X142935300Y-133724300D01*
X142798000Y-133587100D02*
X142870000Y-133652300D01*
X142720000Y-133529200D02*
X142798000Y-133587100D01*
X142636700Y-133479300D02*
X142720000Y-133529200D01*
X142548900Y-133437700D02*
X142636700Y-133479300D01*
X142457400Y-133405000D02*
X142548900Y-133437700D01*
X142363100Y-133381400D02*
X142457400Y-133405000D01*
X142267000Y-133367100D02*
X142363100Y-133381400D01*
X142169800Y-133362400D02*
X142267000Y-133367100D01*
X141161200Y-133362400D02*
X142169800Y-133362400D01*
X141064000Y-133367100D02*
X141161200Y-133362400D01*
X140967900Y-133381400D02*
X141064000Y-133367100D01*
X140873600Y-133405000D02*
X140967900Y-133381400D01*
X140782100Y-133437700D02*
X140873600Y-133405000D01*
X140694300Y-133479300D02*
X140782100Y-133437700D01*
X140611000Y-133529200D02*
X140694300Y-133479300D01*
X140533000Y-133587100D02*
X140611000Y-133529200D01*
X140461000Y-133652300D02*
X140533000Y-133587100D01*
X140395700Y-133724300D02*
X140461000Y-133652300D01*
X140337900Y-133802300D02*
X140395700Y-133724300D01*
X140287900Y-133885700D02*
X140337900Y-133802300D01*
X140246400Y-133973500D02*
X140287900Y-133885700D01*
X140213600Y-134065000D02*
X140246400Y-133973500D01*
X140190000Y-134159200D02*
X140213600Y-134065000D01*
X140175800Y-134255300D02*
X140190000Y-134159200D01*
X140171000Y-134352600D02*
X140175800Y-134255300D01*
X140171000Y-140575500D02*
X140171000Y-134352600D01*
X140166500Y-140661500D02*
X140171000Y-140575500D01*
X140156400Y-140727600D02*
X140166500Y-140661500D01*
X140150900Y-140753400D02*
X140156400Y-140727600D01*
X140133400Y-140817500D02*
X140150900Y-140753400D01*
X140109800Y-140880100D02*
X140133400Y-140817500D01*
X140099100Y-140904100D02*
X140109800Y-140880100D01*
X140068600Y-140963100D02*
X140099100Y-140904100D01*
X140032500Y-141019500D02*
X140068600Y-140963100D01*
X140017000Y-141040700D02*
X140032500Y-141019500D01*
X139974900Y-141092200D02*
X140017000Y-141040700D01*
X139927900Y-141139700D02*
X139974900Y-141092200D01*
X139908300Y-141157300D02*
X139927900Y-141139700D01*
X139856000Y-141199200D02*
X139908300Y-141157300D01*
X139789500Y-141242400D02*
X139856000Y-141199200D01*
X139730100Y-141273100D02*
X139789500Y-141242400D01*
X139706100Y-141283800D02*
X139730100Y-141273100D01*
X139643900Y-141307300D02*
X139706100Y-141283800D01*
X139566800Y-141328000D02*
X139643900Y-141307300D01*
X139500800Y-141338800D02*
X139566800Y-141328000D01*
X139474600Y-141341500D02*
X139500800Y-141338800D01*
X139401500Y-141345000D02*
X139474600Y-141341500D01*
X112604600Y-141345000D02*
X139401500Y-141345000D01*
X112507300Y-141349800D02*
X112604600Y-141345000D01*
X112411200Y-141364000D02*
X112507300Y-141349800D01*
X112317000Y-141387600D02*
X112411200Y-141364000D01*
X112225500Y-141420400D02*
X112317000Y-141387600D01*
X112137700Y-141461900D02*
X112225500Y-141420400D01*
X112054300Y-141511900D02*
X112137700Y-141461900D01*
X111976300Y-141569700D02*
X112054300Y-141511900D01*
X111904300Y-141635000D02*
X111976300Y-141569700D01*
X111839100Y-141707000D02*
X111904300Y-141635000D01*
X111781200Y-141785000D02*
X111839100Y-141707000D01*
X111731200Y-141868300D02*
X111781200Y-141785000D01*
X111689700Y-141956200D02*
X111731200Y-141868300D01*
X111657000Y-142047600D02*
X111689700Y-141956200D01*
X111633400Y-142141900D02*
X111657000Y-142047600D01*
X111619100Y-142238000D02*
X111633400Y-142141900D01*
X111614300Y-142335300D02*
X111619100Y-142238000D01*
X111614300Y-143343800D02*
X111614300Y-142335300D01*
X111619100Y-143441100D02*
X111614300Y-143343800D01*
X111633400Y-143537200D02*
X111619100Y-143441100D01*
X111657000Y-143631400D02*
X111633400Y-143537200D01*
X111689700Y-143722900D02*
X111657000Y-143631400D01*
X111731200Y-143810700D02*
X111689700Y-143722900D01*
X111781200Y-143894000D02*
X111731200Y-143810700D01*
X111839100Y-143972100D02*
X111781200Y-143894000D01*
X111904300Y-144044100D02*
X111839100Y-143972100D01*
X111976300Y-144109300D02*
X111904300Y-144044100D01*
X112054300Y-144167200D02*
X111976300Y-144109300D01*
X112137700Y-144217100D02*
X112054300Y-144167200D01*
X112225500Y-144258700D02*
X112137700Y-144217100D01*
X112317000Y-144291400D02*
X112225500Y-144258700D01*
X112411200Y-144315000D02*
X112317000Y-144291400D01*
X112507300Y-144329200D02*
X112411200Y-144315000D01*
X112604600Y-144334000D02*
X112507300Y-144329200D01*
X143160000Y-48000200D02*
X143160000Y-56991400D01*
X143155200Y-47903000D02*
X143160000Y-48000200D01*
X143141000Y-47806900D02*
X143155200Y-47903000D01*
X143117400Y-47712600D02*
X143141000Y-47806900D01*
X143084600Y-47621100D02*
X143117400Y-47712600D01*
X143043100Y-47533300D02*
X143084600Y-47621100D01*
X142993200Y-47450000D02*
X143043100Y-47533300D01*
X142935300Y-47372000D02*
X142993200Y-47450000D01*
X142870000Y-47300000D02*
X142935300Y-47372000D01*
X142798000Y-47234700D02*
X142870000Y-47300000D01*
X142720000Y-47176900D02*
X142798000Y-47234700D01*
X142636700Y-47126900D02*
X142720000Y-47176900D01*
X142548900Y-47085400D02*
X142636700Y-47126900D01*
X142457400Y-47052600D02*
X142548900Y-47085400D01*
X142363100Y-47029000D02*
X142457400Y-47052600D01*
X142267000Y-47014800D02*
X142363100Y-47029000D01*
X142169800Y-47010000D02*
X142267000Y-47014800D01*
X112604600Y-47010000D02*
X142169800Y-47010000D01*
X112507300Y-47014800D02*
X112604600Y-47010000D01*
X112411200Y-47029000D02*
X112507300Y-47014800D01*
X112317000Y-47052600D02*
X112411200Y-47029000D01*
X112225500Y-47085400D02*
X112317000Y-47052600D01*
X112137700Y-47126900D02*
X112225500Y-47085400D01*
X112054300Y-47176900D02*
X112137700Y-47126900D01*
X111976300Y-47234700D02*
X112054300Y-47176900D01*
X111904300Y-47300000D02*
X111976300Y-47234700D01*
X111839100Y-47372000D02*
X111904300Y-47300000D01*
X111781200Y-47450000D02*
X111839100Y-47372000D01*
X111731200Y-47533300D02*
X111781200Y-47450000D01*
X111689700Y-47621100D02*
X111731200Y-47533300D01*
X111657000Y-47712600D02*
X111689700Y-47621100D01*
X111633400Y-47806900D02*
X111657000Y-47712600D01*
X111619100Y-47903000D02*
X111633400Y-47806900D01*
X111614300Y-48000200D02*
X111619100Y-47903000D01*
X111614300Y-49008800D02*
X111614300Y-48000200D01*
X111619100Y-49106000D02*
X111614300Y-49008800D01*
X111633400Y-49202100D02*
X111619100Y-49106000D01*
X111657000Y-49296400D02*
X111633400Y-49202100D01*
X111689700Y-49387900D02*
X111657000Y-49296400D01*
X111731200Y-49475700D02*
X111689700Y-49387900D01*
X111781200Y-49559000D02*
X111731200Y-49475700D01*
X111839100Y-49637000D02*
X111781200Y-49559000D01*
X111904300Y-49709000D02*
X111839100Y-49637000D01*
X111976300Y-49774300D02*
X111904300Y-49709000D01*
X112054300Y-49832100D02*
X111976300Y-49774300D01*
X112137700Y-49882100D02*
X112054300Y-49832100D01*
X112225500Y-49923600D02*
X112137700Y-49882100D01*
X112317000Y-49956400D02*
X112225500Y-49923600D01*
X112411200Y-49980000D02*
X112317000Y-49956400D01*
X112507300Y-49994200D02*
X112411200Y-49980000D01*
X112604600Y-49999000D02*
X112507300Y-49994200D01*
X139401400Y-49999000D02*
X112604600Y-49999000D01*
X139474600Y-50002500D02*
X139401400Y-49999000D01*
X139500700Y-50005200D02*
X139474600Y-50002500D01*
X139566800Y-50016100D02*
X139500700Y-50005200D01*
X139631300Y-50033000D02*
X139566800Y-50016100D01*
X139656100Y-50041100D02*
X139631300Y-50033000D01*
X139729800Y-50070800D02*
X139656100Y-50041100D01*
X139789100Y-50101400D02*
X139729800Y-50070800D01*
X139845400Y-50137500D02*
X139789100Y-50101400D01*
X139866700Y-50153000D02*
X139845400Y-50137500D01*
X139918100Y-50195100D02*
X139866700Y-50153000D01*
X139965700Y-50242100D02*
X139918100Y-50195100D01*
X139983300Y-50261700D02*
X139965700Y-50242100D01*
X140024900Y-50313500D02*
X139983300Y-50261700D01*
X140061600Y-50369500D02*
X140024900Y-50313500D01*
X140074700Y-50392200D02*
X140061600Y-50369500D01*
X140104800Y-50452100D02*
X140074700Y-50392200D01*
X140133300Y-50526100D02*
X140104800Y-50452100D01*
X140150900Y-50590600D02*
X140133300Y-50526100D01*
X140156400Y-50616300D02*
X140150900Y-50590600D01*
X140166500Y-50682600D02*
X140156400Y-50616300D01*
X140171000Y-50768500D02*
X140166500Y-50682600D01*
X140171000Y-56991400D02*
X140171000Y-50768500D01*
X140175800Y-57088700D02*
X140171000Y-56991400D01*
X140190000Y-57184800D02*
X140175800Y-57088700D01*
X140213600Y-57279000D02*
X140190000Y-57184800D01*
X140246400Y-57370500D02*
X140213600Y-57279000D01*
X140287900Y-57458300D02*
X140246400Y-57370500D01*
X140337900Y-57541700D02*
X140287900Y-57458300D01*
X140395700Y-57619700D02*
X140337900Y-57541700D01*
X140461000Y-57691700D02*
X140395700Y-57619700D01*
X140533000Y-57756900D02*
X140461000Y-57691700D01*
X140611000Y-57814800D02*
X140533000Y-57756900D01*
X140694300Y-57864800D02*
X140611000Y-57814800D01*
X140782100Y-57906300D02*
X140694300Y-57864800D01*
X140873600Y-57939000D02*
X140782100Y-57906300D01*
X140967900Y-57962600D02*
X140873600Y-57939000D01*
X141064000Y-57976900D02*
X140967900Y-57962600D01*
X141161200Y-57981700D02*
X141064000Y-57976900D01*
X142169800Y-57981700D02*
X141161200Y-57981700D01*
X142267000Y-57976900D02*
X142169800Y-57981700D01*
X142363100Y-57962600D02*
X142267000Y-57976900D01*
X142457400Y-57939000D02*
X142363100Y-57962600D01*
X142548900Y-57906300D02*
X142457400Y-57939000D01*
X142636700Y-57864800D02*
X142548900Y-57906300D01*
X142720000Y-57814800D02*
X142636700Y-57864800D01*
X142798000Y-57756900D02*
X142720000Y-57814800D01*
X142870000Y-57691700D02*
X142798000Y-57756900D01*
X142935300Y-57619700D02*
X142870000Y-57691700D01*
X142993200Y-57541700D02*
X142935300Y-57619700D01*
X143043100Y-57458300D02*
X142993200Y-57541700D01*
X143084600Y-57370500D02*
X143043100Y-57458300D01*
X143117400Y-57279000D02*
X143084600Y-57370500D01*
X143141000Y-57184800D02*
X143117400Y-57279000D01*
X143155200Y-57088700D02*
X143141000Y-57184800D01*
X143160000Y-56991400D02*
X143155200Y-57088700D01*
X143160000Y-61973900D02*
X143160000Y-66474100D01*
X143155200Y-61876600D02*
X143160000Y-61973900D01*
X143141000Y-61780500D02*
X143155200Y-61876600D01*
X143117400Y-61686300D02*
X143141000Y-61780500D01*
X143084600Y-61594800D02*
X143117400Y-61686300D01*
X143043100Y-61507000D02*
X143084600Y-61594800D01*
X142993200Y-61423700D02*
X143043100Y-61507000D01*
X142935300Y-61345600D02*
X142993200Y-61423700D01*
X142870000Y-61273600D02*
X142935300Y-61345600D01*
X142798000Y-61208400D02*
X142870000Y-61273600D01*
X142720000Y-61150500D02*
X142798000Y-61208400D01*
X142636700Y-61100600D02*
X142720000Y-61150500D01*
X142548900Y-61059000D02*
X142636700Y-61100600D01*
X142457400Y-61026300D02*
X142548900Y-61059000D01*
X142363100Y-61002700D02*
X142457400Y-61026300D01*
X142267000Y-60988400D02*
X142363100Y-61002700D01*
X142169800Y-60983700D02*
X142267000Y-60988400D01*
X141161200Y-60983700D02*
X142169800Y-60983700D01*
X141064000Y-60988400D02*
X141161200Y-60983700D01*
X140967900Y-61002700D02*
X141064000Y-60988400D01*
X140873600Y-61026300D02*
X140967900Y-61002700D01*
X140782100Y-61059000D02*
X140873600Y-61026300D01*
X140694300Y-61100600D02*
X140782100Y-61059000D01*
X140611000Y-61150500D02*
X140694300Y-61100600D01*
X140533000Y-61208400D02*
X140611000Y-61150500D01*
X140461000Y-61273600D02*
X140533000Y-61208400D01*
X140395700Y-61345600D02*
X140461000Y-61273600D01*
X140337900Y-61423700D02*
X140395700Y-61345600D01*
X140287900Y-61507000D02*
X140337900Y-61423700D01*
X140246400Y-61594800D02*
X140287900Y-61507000D01*
X140213600Y-61686300D02*
X140246400Y-61594800D01*
X140190000Y-61780500D02*
X140213600Y-61686300D01*
X140175800Y-61876600D02*
X140190000Y-61780500D01*
X140171000Y-61973900D02*
X140175800Y-61876600D01*
X140171000Y-66474100D02*
X140171000Y-61973900D01*
X140175800Y-66571400D02*
X140171000Y-66474100D01*
X140190000Y-66667500D02*
X140175800Y-66571400D01*
X140213600Y-66761700D02*
X140190000Y-66667500D01*
X140246400Y-66853200D02*
X140213600Y-66761700D01*
X140287900Y-66941000D02*
X140246400Y-66853200D01*
X140337900Y-67024300D02*
X140287900Y-66941000D01*
X140395700Y-67102400D02*
X140337900Y-67024300D01*
X140461000Y-67174400D02*
X140395700Y-67102400D01*
X140533000Y-67239600D02*
X140461000Y-67174400D01*
X140611000Y-67297500D02*
X140533000Y-67239600D01*
X140694300Y-67347400D02*
X140611000Y-67297500D01*
X140782100Y-67389000D02*
X140694300Y-67347400D01*
X140873600Y-67421700D02*
X140782100Y-67389000D01*
X140967900Y-67445300D02*
X140873600Y-67421700D01*
X141064000Y-67459600D02*
X140967900Y-67445300D01*
X141161200Y-67464300D02*
X141064000Y-67459600D01*
X142169800Y-67464300D02*
X141161200Y-67464300D01*
X142267000Y-67459600D02*
X142169800Y-67464300D01*
X142363100Y-67445300D02*
X142267000Y-67459600D01*
X142457400Y-67421700D02*
X142363100Y-67445300D01*
X142548900Y-67389000D02*
X142457400Y-67421700D01*
X142636700Y-67347400D02*
X142548900Y-67389000D01*
X142720000Y-67297500D02*
X142636700Y-67347400D01*
X142798000Y-67239600D02*
X142720000Y-67297500D01*
X142870000Y-67174400D02*
X142798000Y-67239600D01*
X142935300Y-67102400D02*
X142870000Y-67174400D01*
X142993200Y-67024300D02*
X142935300Y-67102400D01*
X143043100Y-66941000D02*
X142993200Y-67024300D01*
X143084600Y-66853200D02*
X143043100Y-66941000D01*
X143117400Y-66761700D02*
X143084600Y-66853200D01*
X143141000Y-66667500D02*
X143117400Y-66761700D01*
X143155200Y-66571400D02*
X143141000Y-66667500D01*
X143160000Y-66474100D02*
X143155200Y-66571400D01*
X143160000Y-71456600D02*
X143160000Y-88439400D01*
X143155200Y-71359300D02*
X143160000Y-71456600D01*
X143141000Y-71263200D02*
X143155200Y-71359300D01*
X143117400Y-71169000D02*
X143141000Y-71263200D01*
X143084600Y-71077500D02*
X143117400Y-71169000D01*
X143043100Y-70989700D02*
X143084600Y-71077500D01*
X142993200Y-70906300D02*
X143043100Y-70989700D01*
X142935300Y-70828300D02*
X142993200Y-70906300D01*
X142870000Y-70756300D02*
X142935300Y-70828300D01*
X142798000Y-70691100D02*
X142870000Y-70756300D01*
X142720000Y-70633200D02*
X142798000Y-70691100D01*
X142636700Y-70583200D02*
X142720000Y-70633200D01*
X142548900Y-70541700D02*
X142636700Y-70583200D01*
X142457400Y-70509000D02*
X142548900Y-70541700D01*
X142363100Y-70485400D02*
X142457400Y-70509000D01*
X142267000Y-70471100D02*
X142363100Y-70485400D01*
X142169800Y-70466300D02*
X142267000Y-70471100D01*
X141161200Y-70466300D02*
X142169800Y-70466300D01*
X141064000Y-70471100D02*
X141161200Y-70466300D01*
X140967900Y-70485400D02*
X141064000Y-70471100D01*
X140873600Y-70509000D02*
X140967900Y-70485400D01*
X140782100Y-70541700D02*
X140873600Y-70509000D01*
X140694300Y-70583200D02*
X140782100Y-70541700D01*
X140611000Y-70633200D02*
X140694300Y-70583200D01*
X140533000Y-70691100D02*
X140611000Y-70633200D01*
X140461000Y-70756300D02*
X140533000Y-70691100D01*
X140395700Y-70828300D02*
X140461000Y-70756300D01*
X140337900Y-70906300D02*
X140395700Y-70828300D01*
X140287900Y-70989700D02*
X140337900Y-70906300D01*
X140246400Y-71077500D02*
X140287900Y-70989700D01*
X140213600Y-71169000D02*
X140246400Y-71077500D01*
X140190000Y-71263200D02*
X140213600Y-71169000D01*
X140175800Y-71359300D02*
X140190000Y-71263200D01*
X140171000Y-71456600D02*
X140175800Y-71359300D01*
X140171000Y-77679400D02*
X140171000Y-71456600D01*
X140166500Y-77765500D02*
X140171000Y-77679400D01*
X140156400Y-77831600D02*
X140166500Y-77765500D01*
X140150900Y-77857300D02*
X140156400Y-77831600D01*
X140133200Y-77921900D02*
X140150900Y-77857300D01*
X140104800Y-77996000D02*
X140133200Y-77921900D01*
X140074800Y-78055800D02*
X140104800Y-77996000D01*
X140061600Y-78078500D02*
X140074800Y-78055800D01*
X140025100Y-78134100D02*
X140061600Y-78078500D01*
X139983300Y-78186300D02*
X140025100Y-78134100D01*
X139965700Y-78205800D02*
X139983300Y-78186300D01*
X139918500Y-78252600D02*
X139965700Y-78205800D01*
X139866700Y-78295000D02*
X139918500Y-78252600D01*
X139845500Y-78310400D02*
X139866700Y-78295000D01*
X139789100Y-78346600D02*
X139845500Y-78310400D01*
X139729800Y-78377200D02*
X139789100Y-78346600D01*
X139656100Y-78406900D02*
X139729800Y-78377200D01*
X139631100Y-78415100D02*
X139656100Y-78406900D01*
X139566800Y-78431900D02*
X139631100Y-78415100D01*
X139500800Y-78442800D02*
X139566800Y-78431900D01*
X139474600Y-78445500D02*
X139500800Y-78442800D01*
X139401500Y-78449000D02*
X139474600Y-78445500D01*
X112604600Y-78449000D02*
X139401500Y-78449000D01*
X112507300Y-78453800D02*
X112604600Y-78449000D01*
X112411200Y-78468000D02*
X112507300Y-78453800D01*
X112317000Y-78491600D02*
X112411200Y-78468000D01*
X112225500Y-78524400D02*
X112317000Y-78491600D01*
X112137700Y-78565900D02*
X112225500Y-78524400D01*
X112054300Y-78615900D02*
X112137700Y-78565900D01*
X111976300Y-78673700D02*
X112054300Y-78615900D01*
X111904300Y-78739000D02*
X111976300Y-78673700D01*
X111839100Y-78811000D02*
X111904300Y-78739000D01*
X111781200Y-78889000D02*
X111839100Y-78811000D01*
X111731200Y-78972300D02*
X111781200Y-78889000D01*
X111689700Y-79060100D02*
X111731200Y-78972300D01*
X111657000Y-79151600D02*
X111689700Y-79060100D01*
X111633400Y-79245900D02*
X111657000Y-79151600D01*
X111619100Y-79342000D02*
X111633400Y-79245900D01*
X111614300Y-79439200D02*
X111619100Y-79342000D01*
X111614300Y-80456800D02*
X111614300Y-79439200D01*
X111619100Y-80554000D02*
X111614300Y-80456800D01*
X111633400Y-80650100D02*
X111619100Y-80554000D01*
X111657000Y-80744400D02*
X111633400Y-80650100D01*
X111689700Y-80835900D02*
X111657000Y-80744400D01*
X111731200Y-80923700D02*
X111689700Y-80835900D01*
X111781200Y-81007000D02*
X111731200Y-80923700D01*
X111839100Y-81085000D02*
X111781200Y-81007000D01*
X111904300Y-81157000D02*
X111839100Y-81085000D01*
X111976300Y-81222300D02*
X111904300Y-81157000D01*
X112054300Y-81280200D02*
X111976300Y-81222300D01*
X112137700Y-81330100D02*
X112054300Y-81280200D01*
X112225500Y-81371600D02*
X112137700Y-81330100D01*
X112317000Y-81404400D02*
X112225500Y-81371600D01*
X112411200Y-81428000D02*
X112317000Y-81404400D01*
X112507300Y-81442200D02*
X112411200Y-81428000D01*
X112604600Y-81447000D02*
X112507300Y-81442200D01*
X139401400Y-81447000D02*
X112604600Y-81447000D01*
X139474600Y-81450500D02*
X139401400Y-81447000D01*
X139500700Y-81453200D02*
X139474600Y-81450500D01*
X139566800Y-81464100D02*
X139500700Y-81453200D01*
X139631300Y-81481000D02*
X139566800Y-81464100D01*
X139656100Y-81489100D02*
X139631300Y-81481000D01*
X139729800Y-81518800D02*
X139656100Y-81489100D01*
X139789100Y-81549400D02*
X139729800Y-81518800D01*
X139845400Y-81585600D02*
X139789100Y-81549400D01*
X139866700Y-81601000D02*
X139845400Y-81585600D01*
X139918100Y-81643100D02*
X139866700Y-81601000D01*
X139965700Y-81690200D02*
X139918100Y-81643100D01*
X139983300Y-81709700D02*
X139965700Y-81690200D01*
X140024900Y-81761500D02*
X139983300Y-81709700D01*
X140061600Y-81817500D02*
X140024900Y-81761500D01*
X140074700Y-81840200D02*
X140061600Y-81817500D01*
X140104800Y-81900100D02*
X140074700Y-81840200D01*
X140133300Y-81974100D02*
X140104800Y-81900100D01*
X140150900Y-82038700D02*
X140133300Y-81974100D01*
X140156400Y-82064400D02*
X140150900Y-82038700D01*
X140166500Y-82130600D02*
X140156400Y-82064400D01*
X140171000Y-82216500D02*
X140166500Y-82130600D01*
X140171000Y-88439400D02*
X140171000Y-82216500D01*
X140175800Y-88536700D02*
X140171000Y-88439400D01*
X140190000Y-88632800D02*
X140175800Y-88536700D01*
X140213600Y-88727100D02*
X140190000Y-88632800D01*
X140246400Y-88818500D02*
X140213600Y-88727100D01*
X140287900Y-88906400D02*
X140246400Y-88818500D01*
X140337900Y-88989700D02*
X140287900Y-88906400D01*
X140395700Y-89067700D02*
X140337900Y-88989700D01*
X140461000Y-89139700D02*
X140395700Y-89067700D01*
X140533000Y-89204900D02*
X140461000Y-89139700D01*
X140611000Y-89262800D02*
X140533000Y-89204900D01*
X140694300Y-89312800D02*
X140611000Y-89262800D01*
X140782100Y-89354300D02*
X140694300Y-89312800D01*
X140873600Y-89387000D02*
X140782100Y-89354300D01*
X140967900Y-89410600D02*
X140873600Y-89387000D01*
X141064000Y-89424900D02*
X140967900Y-89410600D01*
X141161200Y-89429700D02*
X141064000Y-89424900D01*
X142169800Y-89429700D02*
X141161200Y-89429700D01*
X142267000Y-89424900D02*
X142169800Y-89429700D01*
X142363100Y-89410600D02*
X142267000Y-89424900D01*
X142457400Y-89387000D02*
X142363100Y-89410600D01*
X142548900Y-89354300D02*
X142457400Y-89387000D01*
X142636700Y-89312800D02*
X142548900Y-89354300D01*
X142720000Y-89262800D02*
X142636700Y-89312800D01*
X142798000Y-89204900D02*
X142720000Y-89262800D01*
X142870000Y-89139700D02*
X142798000Y-89204900D01*
X142935300Y-89067700D02*
X142870000Y-89139700D01*
X142993200Y-88989700D02*
X142935300Y-89067700D01*
X143043100Y-88906400D02*
X142993200Y-88989700D01*
X143084600Y-88818500D02*
X143043100Y-88906400D01*
X143117400Y-88727100D02*
X143084600Y-88818500D01*
X143141000Y-88632800D02*
X143117400Y-88727100D01*
X143155200Y-88536700D02*
X143141000Y-88632800D01*
X143160000Y-88439400D02*
X143155200Y-88536700D01*
X143160000Y-93421900D02*
X143160000Y-97922100D01*
X143155200Y-93324600D02*
X143160000Y-93421900D01*
X143141000Y-93228500D02*
X143155200Y-93324600D01*
X143117400Y-93134300D02*
X143141000Y-93228500D01*
X143084600Y-93042800D02*
X143117400Y-93134300D01*
X143043100Y-92955000D02*
X143084600Y-93042800D01*
X142993200Y-92871700D02*
X143043100Y-92955000D01*
X142935300Y-92793600D02*
X142993200Y-92871700D01*
X142870000Y-92721700D02*
X142935300Y-92793600D01*
X142798000Y-92656400D02*
X142870000Y-92721700D01*
X142720000Y-92598500D02*
X142798000Y-92656400D01*
X142636700Y-92548600D02*
X142720000Y-92598500D01*
X142548900Y-92507000D02*
X142636700Y-92548600D01*
X142457400Y-92474300D02*
X142548900Y-92507000D01*
X142363100Y-92450700D02*
X142457400Y-92474300D01*
X142267000Y-92436500D02*
X142363100Y-92450700D01*
X142169800Y-92431700D02*
X142267000Y-92436500D01*
X141161200Y-92431700D02*
X142169800Y-92431700D01*
X141064000Y-92436500D02*
X141161200Y-92431700D01*
X140967900Y-92450700D02*
X141064000Y-92436500D01*
X140873600Y-92474300D02*
X140967900Y-92450700D01*
X140782100Y-92507000D02*
X140873600Y-92474300D01*
X140694300Y-92548600D02*
X140782100Y-92507000D01*
X140611000Y-92598500D02*
X140694300Y-92548600D01*
X140533000Y-92656400D02*
X140611000Y-92598500D01*
X140461000Y-92721700D02*
X140533000Y-92656400D01*
X140395700Y-92793600D02*
X140461000Y-92721700D01*
X140337900Y-92871700D02*
X140395700Y-92793600D01*
X140287900Y-92955000D02*
X140337900Y-92871700D01*
X140246400Y-93042800D02*
X140287900Y-92955000D01*
X140213600Y-93134300D02*
X140246400Y-93042800D01*
X140190000Y-93228500D02*
X140213600Y-93134300D01*
X140175800Y-93324600D02*
X140190000Y-93228500D01*
X140171000Y-93421900D02*
X140175800Y-93324600D01*
X140171000Y-97922100D02*
X140171000Y-93421900D01*
X140175800Y-98019400D02*
X140171000Y-97922100D01*
X140190000Y-98115500D02*
X140175800Y-98019400D01*
X140213600Y-98209700D02*
X140190000Y-98115500D01*
X140246400Y-98301200D02*
X140213600Y-98209700D01*
X140287900Y-98389000D02*
X140246400Y-98301200D01*
X140337900Y-98472400D02*
X140287900Y-98389000D01*
X140395700Y-98550400D02*
X140337900Y-98472400D01*
X140461000Y-98622400D02*
X140395700Y-98550400D01*
X140533000Y-98687600D02*
X140461000Y-98622400D01*
X140611000Y-98745500D02*
X140533000Y-98687600D01*
X140694300Y-98795400D02*
X140611000Y-98745500D01*
X140782100Y-98837000D02*
X140694300Y-98795400D01*
X140873600Y-98869700D02*
X140782100Y-98837000D01*
X140967900Y-98893300D02*
X140873600Y-98869700D01*
X141064000Y-98907600D02*
X140967900Y-98893300D01*
X141161200Y-98912300D02*
X141064000Y-98907600D01*
X142169800Y-98912300D02*
X141161200Y-98912300D01*
X142267000Y-98907600D02*
X142169800Y-98912300D01*
X142363100Y-98893300D02*
X142267000Y-98907600D01*
X142457400Y-98869700D02*
X142363100Y-98893300D01*
X142548900Y-98837000D02*
X142457400Y-98869700D01*
X142636700Y-98795400D02*
X142548900Y-98837000D01*
X142720000Y-98745500D02*
X142636700Y-98795400D01*
X142798000Y-98687600D02*
X142720000Y-98745500D01*
X142870000Y-98622400D02*
X142798000Y-98687600D01*
X142935300Y-98550400D02*
X142870000Y-98622400D01*
X142993200Y-98472400D02*
X142935300Y-98550400D01*
X143043100Y-98389000D02*
X142993200Y-98472400D01*
X143084600Y-98301200D02*
X143043100Y-98389000D01*
X143117400Y-98209700D02*
X143084600Y-98301200D01*
X143141000Y-98115500D02*
X143117400Y-98209700D01*
X143155200Y-98019400D02*
X143141000Y-98115500D01*
X143160000Y-97922100D02*
X143155200Y-98019400D01*
X143160000Y-102904600D02*
X143160000Y-119887400D01*
X143155200Y-102807300D02*
X143160000Y-102904600D01*
X143141000Y-102711200D02*
X143155200Y-102807300D01*
X143117400Y-102617000D02*
X143141000Y-102711200D01*
X143084600Y-102525500D02*
X143117400Y-102617000D01*
X143043100Y-102437700D02*
X143084600Y-102525500D01*
X142993200Y-102354300D02*
X143043100Y-102437700D01*
X142935300Y-102276300D02*
X142993200Y-102354300D01*
X142870000Y-102204300D02*
X142935300Y-102276300D01*
X142798000Y-102139100D02*
X142870000Y-102204300D01*
X142720000Y-102081200D02*
X142798000Y-102139100D01*
X142636700Y-102031300D02*
X142720000Y-102081200D01*
X142548900Y-101989700D02*
X142636700Y-102031300D01*
X142457400Y-101957000D02*
X142548900Y-101989700D01*
X142363100Y-101933400D02*
X142457400Y-101957000D01*
X142267000Y-101919100D02*
X142363100Y-101933400D01*
X142169800Y-101914300D02*
X142267000Y-101919100D01*
X141161200Y-101914300D02*
X142169800Y-101914300D01*
X141064000Y-101919100D02*
X141161200Y-101914300D01*
X140967900Y-101933400D02*
X141064000Y-101919100D01*
X140873600Y-101957000D02*
X140967900Y-101933400D01*
X140782100Y-101989700D02*
X140873600Y-101957000D01*
X140694300Y-102031300D02*
X140782100Y-101989700D01*
X140611000Y-102081200D02*
X140694300Y-102031300D01*
X140533000Y-102139100D02*
X140611000Y-102081200D01*
X140461000Y-102204300D02*
X140533000Y-102139100D01*
X140395700Y-102276300D02*
X140461000Y-102204300D01*
X140337900Y-102354300D02*
X140395700Y-102276300D01*
X140287900Y-102437700D02*
X140337900Y-102354300D01*
X140246400Y-102525500D02*
X140287900Y-102437700D01*
X140213600Y-102617000D02*
X140246400Y-102525500D01*
X140190000Y-102711200D02*
X140213600Y-102617000D01*
X140175800Y-102807300D02*
X140190000Y-102711200D01*
X140171000Y-102904600D02*
X140175800Y-102807300D01*
X140171000Y-109127500D02*
X140171000Y-102904600D01*
X140166500Y-109213500D02*
X140171000Y-109127500D01*
X140156400Y-109279600D02*
X140166500Y-109213500D01*
X140150900Y-109305300D02*
X140156400Y-109279600D01*
X140133200Y-109370000D02*
X140150900Y-109305300D01*
X140104800Y-109444000D02*
X140133200Y-109370000D01*
X140074800Y-109503800D02*
X140104800Y-109444000D01*
X140061600Y-109526500D02*
X140074800Y-109503800D01*
X140025100Y-109582100D02*
X140061600Y-109526500D01*
X139983300Y-109634300D02*
X140025100Y-109582100D01*
X139965700Y-109653900D02*
X139983300Y-109634300D01*
X139918500Y-109700600D02*
X139965700Y-109653900D01*
X139866700Y-109743000D02*
X139918500Y-109700600D01*
X139845500Y-109758400D02*
X139866700Y-109743000D01*
X139789100Y-109794600D02*
X139845500Y-109758400D01*
X139729800Y-109825200D02*
X139789100Y-109794600D01*
X139656100Y-109854900D02*
X139729800Y-109825200D01*
X139631100Y-109863100D02*
X139656100Y-109854900D01*
X139566800Y-109879900D02*
X139631100Y-109863100D01*
X139500800Y-109890800D02*
X139566800Y-109879900D01*
X139474600Y-109893500D02*
X139500800Y-109890800D01*
X139401500Y-109897000D02*
X139474600Y-109893500D01*
X112604600Y-109897000D02*
X139401500Y-109897000D01*
X112507300Y-109901800D02*
X112604600Y-109897000D01*
X112411200Y-109916000D02*
X112507300Y-109901800D01*
X112317000Y-109939600D02*
X112411200Y-109916000D01*
X112225500Y-109972400D02*
X112317000Y-109939600D01*
X112137700Y-110013900D02*
X112225500Y-109972400D01*
X112054300Y-110063900D02*
X112137700Y-110013900D01*
X111976300Y-110121700D02*
X112054300Y-110063900D01*
X111904300Y-110187000D02*
X111976300Y-110121700D01*
X111839100Y-110259000D02*
X111904300Y-110187000D01*
X111781200Y-110337000D02*
X111839100Y-110259000D01*
X111731200Y-110420300D02*
X111781200Y-110337000D01*
X111689700Y-110508200D02*
X111731200Y-110420300D01*
X111657000Y-110599600D02*
X111689700Y-110508200D01*
X111633400Y-110693900D02*
X111657000Y-110599600D01*
X111619100Y-110790000D02*
X111633400Y-110693900D01*
X111614300Y-110887200D02*
X111619100Y-110790000D01*
X111614300Y-111904800D02*
X111614300Y-110887200D01*
X111619100Y-112002000D02*
X111614300Y-111904800D01*
X111633400Y-112098200D02*
X111619100Y-112002000D01*
X111657000Y-112192400D02*
X111633400Y-112098200D01*
X111689700Y-112283900D02*
X111657000Y-112192400D01*
X111731200Y-112371700D02*
X111689700Y-112283900D01*
X111781200Y-112455000D02*
X111731200Y-112371700D01*
X111839100Y-112533100D02*
X111781200Y-112455000D01*
X111904300Y-112605000D02*
X111839100Y-112533100D01*
X111976300Y-112670300D02*
X111904300Y-112605000D01*
X112054300Y-112728200D02*
X111976300Y-112670300D01*
X112137700Y-112778100D02*
X112054300Y-112728200D01*
X112225500Y-112819600D02*
X112137700Y-112778100D01*
X112317000Y-112852400D02*
X112225500Y-112819600D01*
X112411200Y-112876000D02*
X112317000Y-112852400D01*
X112507300Y-112890200D02*
X112411200Y-112876000D01*
X112604600Y-112895000D02*
X112507300Y-112890200D01*
X139401400Y-112895000D02*
X112604600Y-112895000D01*
X139474600Y-112898500D02*
X139401400Y-112895000D01*
X139500700Y-112901300D02*
X139474600Y-112898500D01*
X139566800Y-112912100D02*
X139500700Y-112901300D01*
X139631300Y-112929000D02*
X139566800Y-112912100D01*
X139656100Y-112937100D02*
X139631300Y-112929000D01*
X139729800Y-112966800D02*
X139656100Y-112937100D01*
X139789100Y-112997400D02*
X139729800Y-112966800D01*
X139845400Y-113033600D02*
X139789100Y-112997400D01*
X139866700Y-113049000D02*
X139845400Y-113033600D01*
X139918100Y-113091100D02*
X139866700Y-113049000D01*
X139965700Y-113138200D02*
X139918100Y-113091100D01*
X139983300Y-113157700D02*
X139965700Y-113138200D01*
X140024900Y-113209600D02*
X139983300Y-113157700D01*
X140061600Y-113265500D02*
X140024900Y-113209600D01*
X140074700Y-113288200D02*
X140061600Y-113265500D01*
X140104800Y-113348100D02*
X140074700Y-113288200D01*
X140133300Y-113422100D02*
X140104800Y-113348100D01*
X140150900Y-113486700D02*
X140133300Y-113422100D01*
X140156400Y-113512400D02*
X140150900Y-113486700D01*
X140166500Y-113578600D02*
X140156400Y-113512400D01*
X140171000Y-113664500D02*
X140166500Y-113578600D01*
X140171000Y-119887400D02*
X140171000Y-113664500D01*
X140175800Y-119984700D02*
X140171000Y-119887400D01*
X140190000Y-120080800D02*
X140175800Y-119984700D01*
X140213600Y-120175100D02*
X140190000Y-120080800D01*
X140246400Y-120266500D02*
X140213600Y-120175100D01*
X140287900Y-120354400D02*
X140246400Y-120266500D01*
X140337900Y-120437700D02*
X140287900Y-120354400D01*
X140395700Y-120515700D02*
X140337900Y-120437700D01*
X140461000Y-120587700D02*
X140395700Y-120515700D01*
X140533000Y-120653000D02*
X140461000Y-120587700D01*
X140611000Y-120710800D02*
X140533000Y-120653000D01*
X140694300Y-120760800D02*
X140611000Y-120710800D01*
X140782100Y-120802300D02*
X140694300Y-120760800D01*
X140873600Y-120835000D02*
X140782100Y-120802300D01*
X140967900Y-120858700D02*
X140873600Y-120835000D01*
X141064000Y-120872900D02*
X140967900Y-120858700D01*
X141161200Y-120877700D02*
X141064000Y-120872900D01*
X142169800Y-120877700D02*
X141161200Y-120877700D01*
X142267000Y-120872900D02*
X142169800Y-120877700D01*
X142363100Y-120858700D02*
X142267000Y-120872900D01*
X142457400Y-120835000D02*
X142363100Y-120858700D01*
X142548900Y-120802300D02*
X142457400Y-120835000D01*
X142636700Y-120760800D02*
X142548900Y-120802300D01*
X142720000Y-120710800D02*
X142636700Y-120760800D01*
X142798000Y-120653000D02*
X142720000Y-120710800D01*
X142870000Y-120587700D02*
X142798000Y-120653000D01*
X142935300Y-120515700D02*
X142870000Y-120587700D01*
X142993200Y-120437700D02*
X142935300Y-120515700D01*
X143043100Y-120354400D02*
X142993200Y-120437700D01*
X143084600Y-120266500D02*
X143043100Y-120354400D01*
X143117400Y-120175100D02*
X143084600Y-120266500D01*
X143141000Y-120080800D02*
X143117400Y-120175100D01*
X143155200Y-119984700D02*
X143141000Y-120080800D01*
X143160000Y-119887400D02*
X143155200Y-119984700D01*
X143160000Y-124869900D02*
X143160000Y-129370100D01*
X143155200Y-124772700D02*
X143160000Y-124869900D01*
X143141000Y-124676500D02*
X143155200Y-124772700D01*
X143117400Y-124582300D02*
X143141000Y-124676500D01*
X143084600Y-124490800D02*
X143117400Y-124582300D01*
X143043100Y-124403000D02*
X143084600Y-124490800D01*
X142993200Y-124319700D02*
X143043100Y-124403000D01*
X142935300Y-124241600D02*
X142993200Y-124319700D01*
X142870000Y-124169700D02*
X142935300Y-124241600D01*
X142798000Y-124104400D02*
X142870000Y-124169700D01*
X142720000Y-124046500D02*
X142798000Y-124104400D01*
X142636700Y-123996600D02*
X142720000Y-124046500D01*
X142548900Y-123955100D02*
X142636700Y-123996600D01*
X142457400Y-123922300D02*
X142548900Y-123955100D01*
X142363100Y-123898700D02*
X142457400Y-123922300D01*
X142267000Y-123884500D02*
X142363100Y-123898700D01*
X142169800Y-123879700D02*
X142267000Y-123884500D01*
X141161200Y-123879700D02*
X142169800Y-123879700D01*
X141064000Y-123884500D02*
X141161200Y-123879700D01*
X140967900Y-123898700D02*
X141064000Y-123884500D01*
X140873600Y-123922300D02*
X140967900Y-123898700D01*
X140782100Y-123955100D02*
X140873600Y-123922300D01*
X140694300Y-123996600D02*
X140782100Y-123955100D01*
X140611000Y-124046500D02*
X140694300Y-123996600D01*
X140533000Y-124104400D02*
X140611000Y-124046500D01*
X140461000Y-124169700D02*
X140533000Y-124104400D01*
X140395700Y-124241600D02*
X140461000Y-124169700D01*
X140337900Y-124319700D02*
X140395700Y-124241600D01*
X140287900Y-124403000D02*
X140337900Y-124319700D01*
X140246400Y-124490800D02*
X140287900Y-124403000D01*
X140213600Y-124582300D02*
X140246400Y-124490800D01*
X140190000Y-124676500D02*
X140213600Y-124582300D01*
X140175800Y-124772700D02*
X140190000Y-124676500D01*
X140171000Y-124869900D02*
X140175800Y-124772700D01*
X140171000Y-129370100D02*
X140171000Y-124869900D01*
X140175800Y-129467400D02*
X140171000Y-129370100D01*
X140190000Y-129563500D02*
X140175800Y-129467400D01*
X140213600Y-129657700D02*
X140190000Y-129563500D01*
X140246400Y-129749200D02*
X140213600Y-129657700D01*
X140287900Y-129837000D02*
X140246400Y-129749200D01*
X140337900Y-129920400D02*
X140287900Y-129837000D01*
X140395700Y-129998400D02*
X140337900Y-129920400D01*
X140461000Y-130070400D02*
X140395700Y-129998400D01*
X140533000Y-130135600D02*
X140461000Y-130070400D01*
X140611000Y-130193500D02*
X140533000Y-130135600D01*
X140694300Y-130243400D02*
X140611000Y-130193500D01*
X140782100Y-130285000D02*
X140694300Y-130243400D01*
X140873600Y-130317700D02*
X140782100Y-130285000D01*
X140967900Y-130341300D02*
X140873600Y-130317700D01*
X141064000Y-130355600D02*
X140967900Y-130341300D01*
X141161200Y-130360400D02*
X141064000Y-130355600D01*
X142169800Y-130360400D02*
X141161200Y-130360400D01*
X142267000Y-130355600D02*
X142169800Y-130360400D01*
X142363100Y-130341300D02*
X142267000Y-130355600D01*
X142457400Y-130317700D02*
X142363100Y-130341300D01*
X142548900Y-130285000D02*
X142457400Y-130317700D01*
X142636700Y-130243400D02*
X142548900Y-130285000D01*
X142720000Y-130193500D02*
X142636700Y-130243400D01*
X142798000Y-130135600D02*
X142720000Y-130193500D01*
X142870000Y-130070400D02*
X142798000Y-130135600D01*
X142935300Y-129998400D02*
X142870000Y-130070400D01*
X142993200Y-129920400D02*
X142935300Y-129998400D01*
X143043100Y-129837000D02*
X142993200Y-129920400D01*
X143084600Y-129749200D02*
X143043100Y-129837000D01*
X143117400Y-129657700D02*
X143084600Y-129749200D01*
X143141000Y-129563500D02*
X143117400Y-129657700D01*
X143155200Y-129467400D02*
X143141000Y-129563500D01*
X143160000Y-129370100D02*
X143155200Y-129467400D01*
X45085800Y-45681200D02*
X45085000Y-45696100D01*
X45089000Y-45675300D02*
X45085800Y-45681200D01*
X45094200Y-45672800D02*
X45089000Y-45675300D01*
X45109600Y-45672000D02*
X45094200Y-45672800D01*
X145060500Y-45672000D02*
X45109600Y-45672000D01*
X145075800Y-45672800D02*
X145060500Y-45672000D01*
X145081000Y-45675300D02*
X145075800Y-45672800D01*
X145084200Y-45681200D02*
X145081000Y-45675300D01*
X145085000Y-45696600D02*
X145084200Y-45681200D01*
X145085000Y-145647500D02*
X145085000Y-45696600D01*
X145084200Y-145662800D02*
X145085000Y-145647500D01*
X145081700Y-145668000D02*
X145084200Y-145662800D01*
X145075800Y-145671200D02*
X145081700Y-145668000D01*
X145060500Y-145672000D02*
X145075800Y-145671200D01*
X45109600Y-145672000D02*
X145060500Y-145672000D01*
X45094200Y-145671200D02*
X45109600Y-145672000D01*
X45089000Y-145668700D02*
X45094200Y-145671200D01*
X45085800Y-145662800D02*
X45089000Y-145668700D01*
X45085000Y-145647500D02*
X45085800Y-145662800D01*
X45085000Y-45696100D02*
X45085000Y-145647500D01*
M02*
