M48
; DRILL file {KiCad 5.1.5+dfsg1-2build2} date sob, 20 mar 2021, 12:24:39
; FORMAT={-:-/ absolute / inch / decimal}
; #@! TF.CreationDate,2021-03-20T12:24:39+01:00
; #@! TF.GenerationSoftware,Kicad,Pcbnew,5.1.5+dfsg1-2build2
; #@! TF.FileFunction,Plated,1,2,PTH
FMAT,2
INCH
T1C0.0010
T2C0.0118
T3C0.0157
T4C0.0315
T5C0.0394
%
G90
G05
T1
X2.28Y-5.2973
X2.0374Y-2.4817
X2.0374Y-2.8353
X2.0374Y-3.7198
X2.0374Y-4.0734
X2.28Y-3.734
X2.28Y-4.0592
X2.0374Y-4.958
X2.0374Y-5.3115
X2.28Y-4.9721
X2.28Y-2.4959
X2.28Y-2.8211
T2
X2.7838Y-2.4181
X2.7838Y-2.4535
X2.7838Y-2.4889
X2.8232Y-2.4181
X2.8232Y-2.4535
X2.8232Y-2.4889
X4.0735Y-3.8222
X4.0735Y-3.8616
X4.0735Y-3.901
X4.0735Y-5.0604
X4.0735Y-5.0997
X4.0735Y-5.1391
X4.0735Y-2.5841
X4.0735Y-2.6235
X4.0735Y-2.6629
X2.7838Y-4.8943
X2.7838Y-4.9297
X2.7838Y-4.9652
X2.8232Y-4.8943
X2.8232Y-4.9297
X2.8232Y-4.9652
X2.7838Y-3.6562
X2.7838Y-3.6916
X2.7838Y-3.727
X2.8232Y-3.6562
X2.8232Y-3.6916
X2.8232Y-3.727
T3
X2.0185Y-2.1885
X2.0185Y-3.4266
X2.0185Y-4.6647
X2.0485Y-2.3785
X2.0485Y-3.6166
X2.0485Y-4.8547
X2.0585Y-2.6385
X2.0585Y-2.7785
X2.0585Y-3.8766
X2.0585Y-4.0166
X2.0585Y-5.1147
X2.0585Y-5.2547
X2.0985Y-2.0085
X2.0985Y-3.2466
X2.0985Y-4.4847
X2.1078Y-2.8985
X2.1078Y-4.1366
X2.1078Y-5.3747
X2.1285Y-2.5685
X2.1285Y-3.8066
X2.1285Y-5.0447
X2.1385Y-2.2585
X2.1385Y-2.4685
X2.1385Y-2.7585
X2.1385Y-3.4966
X2.1385Y-3.7066
X2.1385Y-3.9966
X2.1385Y-4.7347
X2.1385Y-4.9447
X2.1385Y-5.2347
X2.1492Y-2.8985
X2.1492Y-4.1366
X2.1492Y-5.3747
X2.1685Y-2.6585
X2.1685Y-3.8966
X2.1685Y-5.1347
X2.1785Y-2.1585
X2.1785Y-3.3966
X2.1785Y-4.6347
X2.2085Y-2.8678
X2.2085Y-2.9092
X2.2085Y-4.1059
X2.2085Y-4.1473
X2.2085Y-5.3441
X2.2085Y-5.3854
X2.2385Y-2.7285
X2.2385Y-3.9666
X2.2385Y-5.2047
X2.2485Y-2.0085
X2.2485Y-3.2466
X2.2485Y-4.4847
X2.2785Y-2.7685
X2.2785Y-4.0066
X2.2785Y-5.2447
X2.3585Y-2.1885
X2.3585Y-3.4266
X2.3585Y-4.6647
X2.3685Y-2.2985
X2.3685Y-3.5366
X2.3685Y-4.7747
X2.378Y-3.0156
X2.378Y-4.2538
X2.378Y-5.4919
X2.4585Y-2.4385
X2.4585Y-3.6766
X2.4585Y-4.9147
X2.4685Y-2.1885
X2.4685Y-3.4266
X2.4685Y-4.6647
X2.4708Y-2.3408
X2.4708Y-3.5789
X2.4708Y-4.817
X2.4985Y-2.4985
X2.4985Y-3.7366
X2.4985Y-4.9747
X2.5085Y-2.8785
X2.5085Y-4.1166
X2.5085Y-5.3547
X2.5285Y-2.5585
X2.5285Y-2.7685
X2.5285Y-3.7966
X2.5285Y-4.0066
X2.5285Y-5.0347
X2.5285Y-5.2447
X2.5385Y-2.3985
X2.5385Y-3.6366
X2.5385Y-4.8747
X2.5471Y-2.3344
X2.5471Y-3.5725
X2.5471Y-4.8106
X2.5785Y-2.0185
X2.5785Y-3.2566
X2.5785Y-4.4947
X2.5885Y-2.6985
X2.5885Y-3.9366
X2.5885Y-5.1747
X2.6185Y-2.3885
X2.6185Y-3.6266
X2.6185Y-4.8647
X2.6285Y-2.4885
X2.6285Y-2.7785
X2.6285Y-2.9085
X2.6285Y-3.7266
X2.6285Y-4.0166
X2.6285Y-4.1466
X2.6285Y-4.9647
X2.6285Y-5.2547
X2.6285Y-5.3847
X2.6287Y-2.1583
X2.6287Y-3.3964
X2.6287Y-4.6345
X2.673Y-2.5726
X2.673Y-3.8107
X2.673Y-5.0488
X2.6785Y-2.6185
X2.6785Y-3.8566
X2.6785Y-5.0947
X2.6985Y-2.3185
X2.6985Y-2.8485
X2.6985Y-3.5566
X2.6985Y-4.0866
X2.6985Y-4.7947
X2.6985Y-5.3247
X2.7185Y-2.6785
X2.7185Y-3.9166
X2.7185Y-5.1547
X2.7433Y-2.352
X2.7433Y-3.5901
X2.7433Y-4.8282
X2.7485Y-2.1785
X2.7485Y-3.4166
X2.7485Y-4.6547
X2.7685Y-2.0085
X2.7685Y-3.2466
X2.7685Y-4.4847
X2.7885Y-3.0185
X2.7885Y-4.2566
X2.7885Y-5.4947
X2.7985Y-2.6585
X2.7985Y-3.8966
X2.7985Y-5.1347
X2.8085Y-2.8985
X2.8085Y-4.1366
X2.8085Y-5.3747
X2.8171Y-2.774
X2.8171Y-2.8145
X2.8171Y-4.0121
X2.8171Y-4.0526
X2.8171Y-5.2503
X2.8171Y-5.2907
X2.8185Y-2.3085
X2.8185Y-3.5466
X2.8185Y-4.7847
X2.8385Y-2.6585
X2.8385Y-3.8966
X2.8385Y-5.1347
X2.8535Y-2.5816
X2.8535Y-3.8197
X2.8535Y-5.0578
X2.8665Y-2.7821
X2.8665Y-4.0202
X2.8665Y-5.2584
X2.8885Y-2.4485
X2.8885Y-3.6866
X2.8885Y-4.9247
X2.8985Y-2.5185
X2.8985Y-3.7566
X2.8985Y-4.9947
X2.9185Y-2.2285
X2.9185Y-3.4666
X2.9185Y-4.7047
X2.9232Y-2.5985
X2.9232Y-3.8366
X2.9232Y-5.0747
X2.9385Y-1.9985
X2.9385Y-2.8585
X2.9385Y-3.2366
X2.9385Y-4.0966
X2.9385Y-4.4747
X2.9385Y-5.3347
X2.9722Y-2.4562
X2.9722Y-3.6943
X2.9722Y-4.9324
X2.9785Y-2.6385
X2.9785Y-3.8766
X2.9785Y-5.1147
X2.9885Y-2.2785
X2.9885Y-2.7485
X2.9885Y-3.5166
X2.9885Y-3.9866
X2.9885Y-4.7547
X2.9885Y-5.2247
X2.9985Y-2.0085
X2.9985Y-3.2466
X2.9985Y-4.4847
X3.0085Y-2.1485
X3.0085Y-2.5085
X3.0085Y-3.3866
X3.0085Y-3.7466
X3.0085Y-4.6247
X3.0085Y-4.9847
X3.0385Y-2.9085
X3.0385Y-4.1466
X3.0385Y-5.3847
X3.0456Y-2.351
X3.0456Y-3.5891
X3.0456Y-4.8272
X3.0485Y-2.2038
X3.0485Y-3.4419
X3.0485Y-4.68
X3.0676Y-2.5376
X3.0676Y-3.7757
X3.0676Y-5.0138
X3.0685Y-2.6685
X3.0685Y-3.9066
X3.0685Y-5.1447
X3.0758Y-2.3812
X3.0758Y-3.6193
X3.0758Y-4.8574
X3.0885Y-2.8185
X3.0885Y-4.0566
X3.0885Y-5.2947
X3.1085Y-2.1885
X3.1085Y-3.4266
X3.1085Y-4.6647
X3.1385Y-2.6085
X3.1385Y-3.8466
X3.1385Y-5.0847
X3.1461Y-2.4414
X3.1461Y-3.6795
X3.1461Y-4.9176
X3.1485Y-2.1785
X3.1485Y-3.4166
X3.1485Y-4.6547
X3.1855Y-2.1808
X3.1855Y-3.4189
X3.1855Y-4.657
X3.1985Y-2.9185
X3.1985Y-4.1566
X3.1985Y-5.3947
X3.2021Y-2.2472
X3.2021Y-3.4853
X3.2021Y-4.7234
X3.2094Y-2.2104
X3.2094Y-3.4485
X3.2094Y-4.6866
X3.2234Y-2.5385
X3.2234Y-2.5803
X3.2234Y-3.7766
X3.2234Y-3.8184
X3.2234Y-5.0147
X3.2234Y-5.0566
X3.2414Y-2.2793
X3.2414Y-3.5174
X3.2414Y-4.7555
X3.2421Y-2.1717
X3.2421Y-3.4098
X3.2421Y-4.6479
X3.2635Y-2.2082
X3.2635Y-3.4463
X3.2635Y-4.6844
X3.2685Y-2.0289
X3.2685Y-3.267
X3.2685Y-4.5051
X3.2694Y-2.3185
X3.2694Y-3.5566
X3.2694Y-4.7947
X3.2915Y-2.1759
X3.2915Y-3.414
X3.2915Y-4.6522
X3.3065Y-2.6406
X3.3065Y-3.8787
X3.3065Y-5.1168
X3.313Y-2.493
X3.313Y-3.7311
X3.313Y-4.9693
X3.3148Y-2.2374
X3.3148Y-3.4755
X3.3148Y-4.7136
X3.3182Y-2.3669
X3.3182Y-3.605
X3.3182Y-4.8431
X3.3267Y-2.1854
X3.3267Y-3.4236
X3.3267Y-4.6617
X3.347Y-2.5729
X3.347Y-3.811
X3.347Y-5.0491
X3.3476Y-2.338
X3.3476Y-3.5761
X3.3476Y-4.8142
X3.3583Y-2.2095
X3.3583Y-3.4476
X3.3583Y-4.6857
X3.3585Y-2.4885
X3.3585Y-3.7266
X3.3585Y-4.9647
X3.371Y-2.2445
X3.371Y-3.4826
X3.371Y-4.7207
X3.38Y-2.5928
X3.38Y-3.8309
X3.38Y-5.069
X3.3835Y-2.5434
X3.3835Y-3.7816
X3.3835Y-5.0197
X3.3928Y-2.6422
X3.3928Y-3.8803
X3.3928Y-5.1184
X3.3981Y-2.3805
X3.3981Y-3.6186
X3.3981Y-4.8567
X3.4047Y-2.3446
X3.4047Y-3.5827
X3.4047Y-4.8208
X3.4066Y-2.8195
X3.4066Y-4.0576
X3.4066Y-5.2957
X3.4179Y-2.8701
X3.4179Y-4.1083
X3.4179Y-5.3464
X3.4185Y-2.2985
X3.4185Y-2.6985
X3.4185Y-3.5366
X3.4185Y-3.9366
X3.4185Y-4.7747
X3.4185Y-5.1747
X3.4509Y-2.8195
X3.4509Y-4.0576
X3.4509Y-5.2957
X3.4585Y-2.9185
X3.4585Y-4.1566
X3.4585Y-5.3947
X3.465Y-2.332
X3.465Y-3.5701
X3.465Y-4.8082
X3.465Y-2.2208
X3.465Y-3.4589
X3.465Y-4.697
X3.4735Y-2.8665
X3.4735Y-4.1046
X3.4735Y-5.3427
X3.4785Y-3.0253
X3.4785Y-4.2634
X3.4785Y-5.5015
X3.4985Y-2.3085
X3.4985Y-3.5466
X3.4985Y-4.7847
X3.5085Y-2.4585
X3.5085Y-3.6966
X3.5085Y-4.9347
X3.5167Y-2.5987
X3.5167Y-3.8368
X3.5167Y-5.0749
X3.5239Y-2.3539
X3.5239Y-3.592
X3.5239Y-4.8301
X3.533Y-2.2227
X3.533Y-3.4608
X3.533Y-4.6989
X3.5474Y-2.578
X3.5474Y-3.8161
X3.5474Y-5.0542
X3.5491Y-2.9253
X3.5491Y-4.1635
X3.5491Y-5.4016
X3.5509Y-2.3786
X3.5509Y-3.6167
X3.5509Y-4.8549
X3.5685Y-2.8585
X3.5685Y-4.0966
X3.5685Y-5.3347
X3.5813Y-2.8958
X3.5813Y-4.1339
X3.5813Y-5.372
X3.5824Y-2.234
X3.5824Y-3.4721
X3.5824Y-4.7102
X3.584Y-2.5729
X3.584Y-3.811
X3.584Y-5.0491
X3.5844Y-2.4512
X3.5844Y-3.6893
X3.5844Y-4.9274
X3.5852Y-2.7813
X3.5852Y-4.0194
X3.5852Y-5.2575
X3.5876Y-3.0253
X3.5876Y-4.2634
X3.5876Y-5.5015
X3.5903Y-2.6609
X3.5903Y-3.899
X3.5903Y-5.1371
X3.618Y-2.8885
X3.618Y-4.1266
X3.618Y-5.3647
X3.6185Y-2.4885
X3.6185Y-3.7266
X3.6185Y-4.9647
X3.6191Y-2.234
X3.6191Y-3.4721
X3.6191Y-4.7102
X3.6537Y-2.4237
X3.6537Y-3.6618
X3.6537Y-4.8999
X3.6585Y-2.4859
X3.6585Y-2.7885
X3.6585Y-3.7241
X3.6585Y-4.0266
X3.6585Y-4.9622
X3.6585Y-5.2647
X3.6608Y-2.3851
X3.6608Y-3.6232
X3.6608Y-4.8613
X3.6629Y-2.6536
X3.6629Y-3.8917
X3.6629Y-5.1298
X3.6655Y-2.1892
X3.6655Y-3.4273
X3.6655Y-4.6654
X3.6685Y-2.2386
X3.6685Y-3.4767
X3.6685Y-4.7148
X3.6686Y-2.6175
X3.6686Y-3.8556
X3.6686Y-5.0938
X3.6695Y-2.8379
X3.6695Y-4.076
X3.6695Y-5.3141
X3.6805Y-3.0181
X3.6805Y-4.2563
X3.6805Y-5.4944
X3.6869Y-2.908
X3.6869Y-4.1461
X3.6869Y-5.3842
X3.6885Y-2.5785
X3.6885Y-3.8166
X3.6885Y-5.0547
X3.6963Y-2.4206
X3.6963Y-3.6587
X3.6963Y-4.8969
X3.701Y-2.786
X3.701Y-4.0242
X3.701Y-5.2623
X3.7188Y-2.8466
X3.7188Y-4.0847
X3.7188Y-5.3228
X3.7276Y-2.1694
X3.7276Y-3.4075
X3.7276Y-4.6456
X3.7307Y-2.2232
X3.7307Y-3.4613
X3.7307Y-4.6994
X3.7332Y-2.3783
X3.7332Y-3.6164
X3.7332Y-4.8545
X3.736Y-2.8794
X3.736Y-4.1175
X3.736Y-5.3556
X3.7385Y-2.4185
X3.7385Y-3.6566
X3.7385Y-4.8947
X3.7503Y-2.7991
X3.7503Y-4.0372
X3.7503Y-5.2753
X3.7503Y-2.6085
X3.7503Y-3.8466
X3.7503Y-5.0847
X3.7598Y-2.5099
X3.7598Y-3.748
X3.7598Y-4.9861
X3.765Y-2.2357
X3.765Y-3.4739
X3.765Y-4.712
X3.768Y-2.199
X3.768Y-3.4371
X3.768Y-4.6752
X3.776Y-2.429
X3.776Y-3.6671
X3.776Y-4.9052
X3.78Y-2.374
X3.78Y-3.6121
X3.78Y-4.8502
X3.7885Y-2.1485
X3.7885Y-3.3866
X3.7885Y-4.6247
X3.7914Y-2.6799
X3.7914Y-3.9181
X3.7914Y-5.1562
X3.794Y-2.4972
X3.794Y-3.7353
X3.794Y-4.9734
X3.7941Y-2.5375
X3.7941Y-3.7756
X3.7941Y-5.0137
X3.807Y-2.4483
X3.807Y-3.6864
X3.807Y-4.9245
X3.8185Y-2.2285
X3.8185Y-2.2285
X3.8185Y-3.4666
X3.8185Y-3.4666
X3.8185Y-4.7047
X3.8185Y-4.7047
X3.8285Y-2.1585
X3.8285Y-3.3966
X3.8285Y-4.6347
X3.8319Y-2.8785
X3.8319Y-4.1166
X3.8319Y-5.3547
X3.8398Y-2.4047
X3.8398Y-3.6428
X3.8398Y-4.8809
X3.8485Y-2.5885
X3.8485Y-3.8266
X3.8485Y-5.0647
X3.857Y-2.7785
X3.857Y-4.0166
X3.857Y-5.2547
X3.8664Y-2.9315
X3.8664Y-4.1696
X3.8664Y-5.4077
X3.8685Y-2.279
X3.8685Y-3.5171
X3.8685Y-4.7552
X3.9024Y-2.8967
X3.9024Y-4.1348
X3.9024Y-5.3729
X3.9285Y-2.7585
X3.9285Y-3.9966
X3.9285Y-5.2347
X3.9585Y-2.5585
X3.9585Y-3.7966
X3.9585Y-5.0347
X3.9653Y-2.8799
X3.9653Y-4.118
X3.9653Y-5.3561
X3.9685Y-2.1285
X3.9685Y-2.4885
X3.9685Y-3.3666
X3.9685Y-3.7266
X3.9685Y-4.6047
X3.9685Y-4.9647
X3.9696Y-2.4149
X3.9696Y-3.653
X3.9696Y-4.8911
X3.9779Y-2.8098
X3.9779Y-4.0479
X3.9779Y-5.286
X3.9837Y-2.6877
X3.9837Y-3.9258
X3.9837Y-5.1639
X4.0085Y-2.4285
X4.0085Y-3.6666
X4.0085Y-4.9047
X4.0305Y-2.2402
X4.0305Y-3.4783
X4.0305Y-4.7164
X4.0365Y-2.9243
X4.0365Y-4.1624
X4.0365Y-5.4005
X4.0485Y-2.4385
X4.0485Y-3.6766
X4.0485Y-4.9147
X4.0585Y-2.7485
X4.0585Y-3.9866
X4.0585Y-5.2247
X4.0824Y-2.8446
X4.0824Y-4.0827
X4.0824Y-5.3208
X4.0839Y-2.1755
X4.0839Y-3.4137
X4.0839Y-4.6518
X4.0885Y-2.3385
X4.0885Y-3.5766
X4.0885Y-4.8147
X4.0885Y-2.1262
X4.0885Y-3.3643
X4.0885Y-4.6024
X4.0985Y-2.2785
X4.0985Y-3.5166
X4.0985Y-4.7547
X4.1085Y-2.7985
X4.1085Y-4.0366
X4.1085Y-5.2747
X4.1485Y-2.8585
X4.1485Y-4.0966
X4.1485Y-5.3347
X4.1531Y-2.38
X4.1531Y-3.6182
X4.1531Y-4.8563
X4.1578Y-2.4608
X4.1578Y-3.6989
X4.1578Y-4.937
X4.1585Y-2.7985
X4.1585Y-4.0366
X4.1585Y-5.2747
X4.1591Y-2.1296
X4.1591Y-3.3678
X4.1591Y-4.6059
X4.1679Y-2.7177
X4.1679Y-3.9558
X4.1679Y-5.1939
X4.2085Y-2.2185
X4.2085Y-3.4566
X4.2085Y-4.6947
X4.2285Y-2.8585
X4.2285Y-4.0966
X4.2285Y-5.3347
X4.2385Y-2.7485
X4.2385Y-2.7985
X4.2385Y-3.9866
X4.2385Y-4.0366
X4.2385Y-5.2247
X4.2385Y-5.2747
X4.246Y-2.6851
X4.246Y-3.9232
X4.246Y-5.1613
X4.2551Y-2.3491
X4.2551Y-3.5872
X4.2551Y-4.8254
X4.2885Y-2.7985
X4.2885Y-4.0366
X4.2885Y-5.2747
X4.2985Y-2.4785
X4.2985Y-2.6985
X4.2985Y-3.7166
X4.2985Y-3.9366
X4.2985Y-4.9547
X4.2985Y-5.1747
X4.3185Y-2.8585
X4.3185Y-4.0966
X4.3185Y-5.3347
X4.3285Y-2.2785
X4.3285Y-3.5166
X4.3285Y-4.7547
X4.3448Y-2.239
X4.3448Y-3.4771
X4.3448Y-4.7152
X4.3684Y-2.1897
X4.3684Y-3.4278
X4.3684Y-4.6659
X4.4316Y-2.2051
X4.4316Y-3.4432
X4.4316Y-4.6813
X4.4375Y-2.1327
X4.4375Y-3.3708
X4.4375Y-4.6089
X4.4485Y-2.6785
X4.4485Y-2.7385
X4.4485Y-3.9166
X4.4485Y-3.9766
X4.4485Y-5.1547
X4.4485Y-5.2147
X4.4765Y-2.1604
X4.4765Y-3.3985
X4.4765Y-4.6366
X4.4785Y-2.7985
X4.4785Y-4.0366
X4.4785Y-5.2747
X4.4945Y-2.5268
X4.4945Y-3.7649
X4.4945Y-5.003
X4.5076Y-2.328
X4.5076Y-3.5661
X4.5076Y-4.8042
X4.5248Y-2.6558
X4.5248Y-3.894
X4.5248Y-5.1321
X4.525Y-2.2699
X4.525Y-3.508
X4.525Y-4.7461
X4.5279Y-2.5415
X4.5279Y-3.7796
X4.5279Y-5.0177
X4.5485Y-2.1885
X4.5485Y-3.4266
X4.5485Y-4.6647
X4.5585Y-2.8485
X4.5585Y-4.0866
X4.5585Y-5.3247
X4.5613Y-2.6552
X4.5613Y-3.8934
X4.5613Y-5.1315
X4.5685Y-2.7385
X4.5685Y-3.9766
X4.5685Y-5.2147
X4.5785Y-2.3885
X4.5785Y-3.6266
X4.5785Y-4.8647
X4.5885Y-2.4585
X4.5885Y-3.6966
X4.5885Y-4.9347
X4.5984Y-2.6557
X4.5984Y-3.8938
X4.5984Y-5.1319
X4.6285Y-2.3185
X4.6285Y-3.5566
X4.6285Y-4.7947
X4.6287Y-2.3878
X4.6287Y-3.626
X4.6287Y-4.8641
X4.6332Y-2.6448
X4.6332Y-3.8829
X4.6332Y-5.121
X4.6485Y-2.4785
X4.6485Y-3.7166
X4.6485Y-4.9547
X4.666Y-2.301
X4.666Y-3.5392
X4.666Y-4.7773
X4.6685Y-2.7585
X4.6685Y-3.9966
X4.6685Y-5.2347
X4.6781Y-2.6267
X4.6781Y-3.8648
X4.6781Y-5.1029
X4.6885Y-3.0668
X4.6885Y-4.3049
X4.6885Y-5.543
X4.693Y-2.465
X4.693Y-3.7031
X4.693Y-4.9412
X4.7485Y-2.2285
X4.7485Y-2.3985
X4.7485Y-3.4666
X4.7485Y-3.6366
X4.7485Y-4.7047
X4.7485Y-4.8747
X4.806Y-2.541
X4.806Y-3.7791
X4.806Y-5.0172
X4.8253Y-2.3357
X4.8253Y-3.5738
X4.8253Y-4.812
X4.8385Y-2.8185
X4.8385Y-4.0566
X4.8385Y-5.2947
X4.8685Y-2.3885
X4.8685Y-3.6266
X4.8685Y-4.8647
X4.9685Y-2.2885
X4.9685Y-3.5266
X4.9685Y-4.7647
X4.9885Y-2.8585
X4.9885Y-4.0966
X4.9885Y-5.3347
X5.0085Y-2.6085
X5.0085Y-3.8466
X5.0085Y-5.0847
X5.0233Y-2.4701
X5.0233Y-3.7082
X5.0233Y-4.9463
X5.0338Y-2.5361
X5.0338Y-3.7742
X5.0338Y-5.0123
X5.0785Y-2.1785
X5.0785Y-3.4166
X5.0785Y-4.6547
X5.1946Y-2.3722
X5.1946Y-3.6103
X5.1946Y-4.8484
X5.2085Y-2.8285
X5.2085Y-4.0666
X5.2085Y-5.3047
X5.2285Y-2.5985
X5.2285Y-3.8366
X5.2285Y-5.0747
X5.2385Y-2.4985
X5.2385Y-3.7366
X5.2385Y-4.9747
T4
X2.2185Y-4.7354
X2.2185Y-4.8141
X2.2185Y-2.2591
X2.2185Y-2.3379
X2.2185Y-3.4972
X2.2185Y-3.576
T5
X2.0385Y-4.2166
X2.1385Y-4.2166
X2.2385Y-4.2166
X2.3385Y-4.2166
X2.4385Y-4.2166
X2.5385Y-4.2166
X2.6385Y-4.2166
X2.7385Y-4.2166
X2.8385Y-4.2166
X2.9385Y-4.2166
X3.0385Y-4.2166
X3.1385Y-4.2166
X3.2385Y-4.2166
X3.3385Y-4.2166
X3.4385Y-4.2166
X3.5385Y-4.2166
X3.6385Y-4.2166
X3.7385Y-4.2166
X3.8385Y-4.2166
X3.9385Y-4.2166
X4.0385Y-4.2166
X4.1385Y-4.2166
X4.2385Y-4.2166
X4.3385Y-4.2166
X4.4385Y-4.2166
X4.5385Y-4.2166
X4.6385Y-4.2166
X4.7385Y-4.2166
X4.8385Y-4.2166
X4.9385Y-4.2166
X5.0385Y-4.2166
X5.1385Y-4.2166
X2.0385Y-4.5547
X2.1385Y-4.5547
X2.2385Y-4.5547
X2.3385Y-4.5547
X2.4385Y-4.5547
X2.5385Y-4.5547
X2.6385Y-4.5547
X2.7385Y-4.5547
X2.8385Y-4.5547
X2.9385Y-4.5547
X3.0385Y-4.5547
X3.1385Y-4.5547
X3.2385Y-4.5547
X3.3385Y-4.5547
X3.4385Y-4.5547
X3.5385Y-4.5547
X3.6385Y-4.5547
X3.7385Y-4.5547
X3.8385Y-4.5547
X3.9385Y-4.5547
X4.0385Y-4.5547
X4.1385Y-4.5547
X4.2385Y-4.5547
X4.3385Y-4.5547
X4.4385Y-4.5547
X4.5385Y-4.5547
X4.6385Y-4.5547
X4.7385Y-4.5547
X4.8385Y-4.5547
X4.9385Y-4.5547
X5.0385Y-4.5547
X5.1385Y-4.5547
X2.0385Y-2.0785
X2.1385Y-2.0785
X2.2385Y-2.0785
X2.3385Y-2.0785
X2.4385Y-2.0785
X2.5385Y-2.0785
X2.6385Y-2.0785
X2.7385Y-2.0785
X2.8385Y-2.0785
X2.9385Y-2.0785
X3.0385Y-2.0785
X3.1385Y-2.0785
X3.2385Y-2.0785
X3.3385Y-2.0785
X3.4385Y-2.0785
X3.5385Y-2.0785
X3.6385Y-2.0785
X3.7385Y-2.0785
X3.8385Y-2.0785
X3.9385Y-2.0785
X4.0385Y-2.0785
X4.1385Y-2.0785
X4.2385Y-2.0785
X4.3385Y-2.0785
X4.4385Y-2.0785
X4.5385Y-2.0785
X4.6385Y-2.0785
X4.7385Y-2.0785
X4.8385Y-2.0785
X4.9385Y-2.0785
X5.0385Y-2.0785
X5.1385Y-2.0785
X2.0385Y-3.3166
X2.1385Y-3.3166
X2.2385Y-3.3166
X2.3385Y-3.3166
X2.4385Y-3.3166
X2.5385Y-3.3166
X2.6385Y-3.3166
X2.7385Y-3.3166
X2.8385Y-3.3166
X2.9385Y-3.3166
X3.0385Y-3.3166
X3.1385Y-3.3166
X3.2385Y-3.3166
X3.3385Y-3.3166
X3.4385Y-3.3166
X3.5385Y-3.3166
X3.6385Y-3.3166
X3.7385Y-3.3166
X3.8385Y-3.3166
X3.9385Y-3.3166
X4.0385Y-3.3166
X4.1385Y-3.3166
X4.2385Y-3.3166
X4.3385Y-3.3166
X4.4385Y-3.3166
X4.5385Y-3.3166
X4.6385Y-3.3166
X4.7385Y-3.3166
X4.8385Y-3.3166
X4.9385Y-3.3166
X5.0385Y-3.3166
X5.1385Y-3.3166
X2.0385Y-2.9785
X2.1385Y-2.9785
X2.2385Y-2.9785
X2.3385Y-2.9785
X2.4385Y-2.9785
X2.5385Y-2.9785
X2.6385Y-2.9785
X2.7385Y-2.9785
X2.8385Y-2.9785
X2.9385Y-2.9785
X3.0385Y-2.9785
X3.1385Y-2.9785
X3.2385Y-2.9785
X3.3385Y-2.9785
X3.4385Y-2.9785
X3.5385Y-2.9785
X3.6385Y-2.9785
X3.7385Y-2.9785
X3.8385Y-2.9785
X3.9385Y-2.9785
X4.0385Y-2.9785
X4.1385Y-2.9785
X4.2385Y-2.9785
X4.3385Y-2.9785
X4.4385Y-2.9785
X4.5385Y-2.9785
X4.6385Y-2.9785
X4.7385Y-2.9785
X4.8385Y-2.9785
X4.9385Y-2.9785
X5.0385Y-2.9785
X5.1385Y-2.9785
X2.0385Y-5.4547
X2.1385Y-5.4547
X2.2385Y-5.4547
X2.3385Y-5.4547
X2.4385Y-5.4547
X2.5385Y-5.4547
X2.6385Y-5.4547
X2.7385Y-5.4547
X2.8385Y-5.4547
X2.9385Y-5.4547
X3.0385Y-5.4547
X3.1385Y-5.4547
X3.2385Y-5.4547
X3.3385Y-5.4547
X3.4385Y-5.4547
X3.5385Y-5.4547
X3.6385Y-5.4547
X3.7385Y-5.4547
X3.8385Y-5.4547
X3.9385Y-5.4547
X4.0385Y-5.4547
X4.1385Y-5.4547
X4.2385Y-5.4547
X4.3385Y-5.4547
X4.4385Y-5.4547
X4.5385Y-5.4547
X4.6385Y-5.4547
X4.7385Y-5.4547
X4.8385Y-5.4547
X4.9385Y-5.4547
X5.0385Y-5.4547
X5.1385Y-5.4547
T0
M30
