M48
; DRILL file {KiCad 5.1.5+dfsg1-2build2} date pon, 22 mar 2021, 12:15:29
; FORMAT={-:-/ absolute / inch / decimal}
; #@! TF.CreationDate,2021-03-22T12:15:29+01:00
; #@! TF.GenerationSoftware,Kicad,Pcbnew,5.1.5+dfsg1-2build2
; #@! TF.FileFunction,NonPlated,1,2,NPTH
FMAT,2
INCH
T1C0.0197
T2C0.0200
T3C0.0270
%
G90
G05
T1
X4.3549Y-3.183
X1.9448Y-3.9336
X3.0928Y-3.1122
X4.3155Y-3.183
X3.1715Y-3.1122
X3.1322Y-3.1122
X4.3942Y-4.3503
X4.3942Y-3.1122
X4.2761Y-5.5884
X1.9448Y-2.6955
X5.5422Y-2.6955
X3.2109Y-3.183
X3.2109Y-4.3503
X5.5422Y-2.7349
X3.1322Y-4.3503
X4.3549Y-5.5884
X4.3549Y-4.3503
X5.5422Y-3.5209
X5.5422Y-2.7742
X5.5422Y-5.2504
X3.0928Y-3.183
X4.3942Y-1.9448
X1.9448Y-4.8771
X3.1715Y-4.4211
X4.2761Y-3.1122
X4.3942Y-4.4211
X4.3155Y-3.1122
X1.9448Y-5.2111
X1.9448Y-3.639
X1.9448Y-2.7742
X4.3942Y-3.183
X1.9448Y-2.2828
X1.9448Y-5.2504
X1.9448Y-2.6561
X1.9448Y-2.3615
X4.2761Y-1.9448
X4.2761Y-4.3503
X5.5422Y-3.9336
X1.9448Y-4.759
X4.3155Y-1.9448
X3.0928Y-5.5884
X5.5422Y-4.8377
X1.9448Y-4.7984
X1.9448Y-5.1323
X4.3549Y-4.4211
X3.0928Y-4.4211
X5.5422Y-5.2111
X5.5422Y-5.1717
X1.9448Y-3.8942
X4.3155Y-4.3503
X5.5422Y-3.8942
X5.5422Y-2.3615
X5.5422Y-2.2828
X1.9448Y-4.0123
X5.5422Y-3.973
X5.5422Y-4.759
X3.0928Y-1.9448
X3.1715Y-4.3503
X5.5422Y-3.5996
X3.2109Y-3.1122
X4.2761Y-4.4211
X3.1715Y-1.9448
X3.1322Y-1.9448
X3.1322Y-3.183
X5.5422Y-2.6561
X1.9448Y-3.5996
X3.1715Y-5.5884
X1.9448Y-3.5603
X5.5422Y-5.1323
X5.5422Y-2.3222
X1.9448Y-2.3222
X4.2761Y-3.183
X1.9448Y-3.973
X3.2109Y-4.4211
X1.9448Y-2.4009
X4.3155Y-5.5884
X1.9448Y-2.7349
X3.1322Y-5.5884
X4.3549Y-1.9448
X3.1715Y-3.183
X4.3942Y-5.5884
X1.9448Y-5.1717
X3.1322Y-4.4211
X5.5422Y-2.4009
X5.5422Y-4.8771
X3.2109Y-5.5884
X3.0928Y-4.3503
X5.5422Y-3.639
X4.3155Y-4.4211
X5.5422Y-4.7984
X4.3549Y-3.1122
X5.5422Y-3.5603
X3.2109Y-1.9448
X5.5422Y-4.0123
X1.9448Y-3.5209
X1.9448Y-4.8377
T2
X2.0259Y-2.5017
X2.0259Y-2.8553
X2.0489Y-2.5017
X2.0489Y-2.8553
X2.2685Y-2.5159
X2.2685Y-2.8411
X2.2915Y-2.5159
X2.2915Y-2.8411
X2.0259Y-4.978
X2.0259Y-5.3315
X2.0489Y-4.978
X2.0489Y-5.3315
X2.2685Y-4.9921
X2.2685Y-5.3173
X2.2915Y-4.9921
X2.2915Y-5.3173
X2.0259Y-3.7398
X2.0259Y-4.0934
X2.0489Y-3.7398
X2.0489Y-4.0934
X2.2685Y-3.754
X2.2685Y-4.0792
X2.2915Y-3.754
X2.2915Y-4.0792
T3
X2.3292Y-2.5368
X2.3292Y-2.8152
X2.3292Y-2.8252
X2.3292Y-5.013
X2.3292Y-5.2915
X2.3292Y-5.3015
X2.3292Y-3.7749
X2.3292Y-4.0533
X2.3292Y-4.0633
T0
M30
