G04 #@! TF.GenerationSoftware,KiCad,Pcbnew,5.1.5+dfsg1-2build2*
G04 #@! TF.CreationDate,2021-03-20T12:23:53+01:00*
G04 #@! TF.ProjectId,ATSAME51J18A-devboard-panel,41545341-4d45-4353-914a-3138412d6465,rev?*
G04 #@! TF.SameCoordinates,Original*
G04 #@! TF.FileFunction,Legend,Bot*
G04 #@! TF.FilePolarity,Positive*
%FSLAX46Y46*%
G04 Gerber Fmt 4.6, Leading zero omitted, Abs format (unit mm)*
G04 Created by KiCad (PCBNEW 5.1.5+dfsg1-2build2) date 2021-03-20 12:23:53*
%MOMM*%
%LPD*%
G04 APERTURE LIST*
%ADD10C,0.150000*%
%ADD11C,0.100000*%
%ADD12C,0.152400*%
%ADD13C,0.120000*%
%ADD14C,0.127000*%
%ADD15C,0.300000*%
%ADD16C,0.200000*%
%ADD17C,0.125000*%
%ADD18C,0.015000*%
%ADD19C,0.254000*%
G04 APERTURE END LIST*
D10*
X116543334Y-123180685D02*
X116476667Y-123214019D01*
X116410001Y-123280685D01*
X116310001Y-123380685D01*
X116243334Y-123414019D01*
X116176667Y-123414019D01*
X116210001Y-123247352D02*
X116143334Y-123280685D01*
X116076667Y-123347352D01*
X116043334Y-123480685D01*
X116043334Y-123714019D01*
X116076667Y-123847352D01*
X116143334Y-123914019D01*
X116210001Y-123947352D01*
X116343334Y-123947352D01*
X116410001Y-123914019D01*
X116476667Y-123847352D01*
X116510001Y-123714019D01*
X116510001Y-123480685D01*
X116476667Y-123347352D01*
X116410001Y-123280685D01*
X116343334Y-123247352D01*
X116210001Y-123247352D01*
X116776667Y-123280685D02*
X116876667Y-123247352D01*
X117043334Y-123247352D01*
X117110001Y-123280685D01*
X117143334Y-123314019D01*
X117176667Y-123380685D01*
X117176667Y-123447352D01*
X117143334Y-123514019D01*
X117110001Y-123547352D01*
X117043334Y-123580685D01*
X116910001Y-123614019D01*
X116843334Y-123647352D01*
X116810001Y-123680685D01*
X116776667Y-123747352D01*
X116776667Y-123814019D01*
X116810001Y-123880685D01*
X116843334Y-123914019D01*
X116910001Y-123947352D01*
X117076667Y-123947352D01*
X117176667Y-123914019D01*
X117876667Y-123314019D02*
X117843334Y-123280685D01*
X117743334Y-123247352D01*
X117676667Y-123247352D01*
X117576667Y-123280685D01*
X117510001Y-123347352D01*
X117476667Y-123414019D01*
X117443334Y-123547352D01*
X117443334Y-123647352D01*
X117476667Y-123780685D01*
X117510001Y-123847352D01*
X117576667Y-123914019D01*
X117676667Y-123947352D01*
X117743334Y-123947352D01*
X117843334Y-123914019D01*
X117876667Y-123880685D01*
X118176667Y-123247352D02*
X118176667Y-123947352D01*
X118576667Y-123247352D02*
X118276667Y-123647352D01*
X118576667Y-123947352D02*
X118176667Y-123547352D01*
X113629334Y-126957352D02*
X113596001Y-126890685D01*
X113529334Y-126824019D01*
X113429334Y-126724019D01*
X113396001Y-126657352D01*
X113396001Y-126590685D01*
X113562667Y-126624019D02*
X113529334Y-126557352D01*
X113462667Y-126490685D01*
X113329334Y-126457352D01*
X113096001Y-126457352D01*
X112962667Y-126490685D01*
X112896001Y-126557352D01*
X112862667Y-126624019D01*
X112862667Y-126757352D01*
X112896001Y-126824019D01*
X112962667Y-126890685D01*
X113096001Y-126924019D01*
X113329334Y-126924019D01*
X113462667Y-126890685D01*
X113529334Y-126824019D01*
X113562667Y-126757352D01*
X113562667Y-126624019D01*
X113496001Y-127624019D02*
X113529334Y-127590685D01*
X113562667Y-127490685D01*
X113562667Y-127424019D01*
X113529334Y-127324019D01*
X113462667Y-127257352D01*
X113396001Y-127224019D01*
X113262667Y-127190685D01*
X113162667Y-127190685D01*
X113029334Y-127224019D01*
X112962667Y-127257352D01*
X112896001Y-127324019D01*
X112862667Y-127424019D01*
X112862667Y-127490685D01*
X112896001Y-127590685D01*
X112929334Y-127624019D01*
X113529334Y-127890685D02*
X113562667Y-127990685D01*
X113562667Y-128157352D01*
X113529334Y-128224019D01*
X113496001Y-128257352D01*
X113429334Y-128290685D01*
X113362667Y-128290685D01*
X113296001Y-128257352D01*
X113262667Y-128224019D01*
X113229334Y-128157352D01*
X113196001Y-128024019D01*
X113162667Y-127957352D01*
X113129334Y-127924019D01*
X113062667Y-127890685D01*
X112996001Y-127890685D01*
X112929334Y-127924019D01*
X112896001Y-127957352D01*
X112862667Y-128024019D01*
X112862667Y-128190685D01*
X112896001Y-128290685D01*
X113629334Y-129497352D02*
X113596001Y-129430685D01*
X113529334Y-129364019D01*
X113429334Y-129264019D01*
X113396001Y-129197352D01*
X113396001Y-129130685D01*
X113562667Y-129164019D02*
X113529334Y-129097352D01*
X113462667Y-129030685D01*
X113329334Y-128997352D01*
X113096001Y-128997352D01*
X112962667Y-129030685D01*
X112896001Y-129097352D01*
X112862667Y-129164019D01*
X112862667Y-129297352D01*
X112896001Y-129364019D01*
X112962667Y-129430685D01*
X113096001Y-129464019D01*
X113329334Y-129464019D01*
X113462667Y-129430685D01*
X113529334Y-129364019D01*
X113562667Y-129297352D01*
X113562667Y-129164019D01*
X113562667Y-129764019D02*
X112862667Y-129764019D01*
X112862667Y-129930685D01*
X112896001Y-130030685D01*
X112962667Y-130097352D01*
X113029334Y-130130685D01*
X113162667Y-130164019D01*
X113262667Y-130164019D01*
X113396001Y-130130685D01*
X113462667Y-130097352D01*
X113529334Y-130030685D01*
X113562667Y-129930685D01*
X113562667Y-129764019D01*
X112862667Y-130397352D02*
X112862667Y-130830685D01*
X113129334Y-130597352D01*
X113129334Y-130697352D01*
X113162667Y-130764019D01*
X113196001Y-130797352D01*
X113262667Y-130830685D01*
X113429334Y-130830685D01*
X113496001Y-130797352D01*
X113529334Y-130764019D01*
X113562667Y-130697352D01*
X113562667Y-130497352D01*
X113529334Y-130430685D01*
X113496001Y-130397352D01*
X118671334Y-119624685D02*
X118604667Y-119658019D01*
X118538001Y-119724685D01*
X118438001Y-119824685D01*
X118371334Y-119858019D01*
X118304667Y-119858019D01*
X118338001Y-119691352D02*
X118271334Y-119724685D01*
X118204667Y-119791352D01*
X118171334Y-119924685D01*
X118171334Y-120158019D01*
X118204667Y-120291352D01*
X118271334Y-120358019D01*
X118338001Y-120391352D01*
X118471334Y-120391352D01*
X118538001Y-120358019D01*
X118604667Y-120291352D01*
X118638001Y-120158019D01*
X118638001Y-119924685D01*
X118604667Y-119791352D01*
X118538001Y-119724685D01*
X118471334Y-119691352D01*
X118338001Y-119691352D01*
X118938001Y-119691352D02*
X118938001Y-120391352D01*
X119104667Y-120391352D01*
X119204667Y-120358019D01*
X119271334Y-120291352D01*
X119304667Y-120224685D01*
X119338001Y-120091352D01*
X119338001Y-119991352D01*
X119304667Y-119858019D01*
X119271334Y-119791352D01*
X119204667Y-119724685D01*
X119104667Y-119691352D01*
X118938001Y-119691352D01*
X119604667Y-120324685D02*
X119638001Y-120358019D01*
X119704667Y-120391352D01*
X119871334Y-120391352D01*
X119938001Y-120358019D01*
X119971334Y-120324685D01*
X120004667Y-120258019D01*
X120004667Y-120191352D01*
X119971334Y-120091352D01*
X119571334Y-119691352D01*
X120004667Y-119691352D01*
X121211334Y-119624685D02*
X121144667Y-119658019D01*
X121078001Y-119724685D01*
X120978001Y-119824685D01*
X120911334Y-119858019D01*
X120844667Y-119858019D01*
X120878001Y-119691352D02*
X120811334Y-119724685D01*
X120744667Y-119791352D01*
X120711334Y-119924685D01*
X120711334Y-120158019D01*
X120744667Y-120291352D01*
X120811334Y-120358019D01*
X120878001Y-120391352D01*
X121011334Y-120391352D01*
X121078001Y-120358019D01*
X121144667Y-120291352D01*
X121178001Y-120158019D01*
X121178001Y-119924685D01*
X121144667Y-119791352D01*
X121078001Y-119724685D01*
X121011334Y-119691352D01*
X120878001Y-119691352D01*
X121478001Y-119691352D02*
X121478001Y-120391352D01*
X121644667Y-120391352D01*
X121744667Y-120358019D01*
X121811334Y-120291352D01*
X121844667Y-120224685D01*
X121878001Y-120091352D01*
X121878001Y-119991352D01*
X121844667Y-119858019D01*
X121811334Y-119791352D01*
X121744667Y-119724685D01*
X121644667Y-119691352D01*
X121478001Y-119691352D01*
X122544667Y-119691352D02*
X122144667Y-119691352D01*
X122344667Y-119691352D02*
X122344667Y-120391352D01*
X122278001Y-120291352D01*
X122211334Y-120224685D01*
X122144667Y-120191352D01*
X123751334Y-119624685D02*
X123684667Y-119658019D01*
X123618001Y-119724685D01*
X123518001Y-119824685D01*
X123451334Y-119858019D01*
X123384667Y-119858019D01*
X123418001Y-119691352D02*
X123351334Y-119724685D01*
X123284667Y-119791352D01*
X123251334Y-119924685D01*
X123251334Y-120158019D01*
X123284667Y-120291352D01*
X123351334Y-120358019D01*
X123418001Y-120391352D01*
X123551334Y-120391352D01*
X123618001Y-120358019D01*
X123684667Y-120291352D01*
X123718001Y-120158019D01*
X123718001Y-119924685D01*
X123684667Y-119791352D01*
X123618001Y-119724685D01*
X123551334Y-119691352D01*
X123418001Y-119691352D01*
X124018001Y-119691352D02*
X124018001Y-120391352D01*
X124184667Y-120391352D01*
X124284667Y-120358019D01*
X124351334Y-120291352D01*
X124384667Y-120224685D01*
X124418001Y-120091352D01*
X124418001Y-119991352D01*
X124384667Y-119858019D01*
X124351334Y-119791352D01*
X124284667Y-119724685D01*
X124184667Y-119691352D01*
X124018001Y-119691352D01*
X124851334Y-120391352D02*
X124918001Y-120391352D01*
X124984667Y-120358019D01*
X125018001Y-120324685D01*
X125051334Y-120258019D01*
X125084667Y-120124685D01*
X125084667Y-119958019D01*
X125051334Y-119824685D01*
X125018001Y-119758019D01*
X124984667Y-119724685D01*
X124918001Y-119691352D01*
X124851334Y-119691352D01*
X124784667Y-119724685D01*
X124751334Y-119758019D01*
X124718001Y-119824685D01*
X124684667Y-119958019D01*
X124684667Y-120124685D01*
X124718001Y-120258019D01*
X124751334Y-120324685D01*
X124784667Y-120358019D01*
X124851334Y-120391352D01*
X116543334Y-91732676D02*
X116476667Y-91766010D01*
X116410001Y-91832676D01*
X116310001Y-91932676D01*
X116243334Y-91966010D01*
X116176667Y-91966010D01*
X116210001Y-91799343D02*
X116143334Y-91832676D01*
X116076667Y-91899343D01*
X116043334Y-92032676D01*
X116043334Y-92266010D01*
X116076667Y-92399343D01*
X116143334Y-92466010D01*
X116210001Y-92499343D01*
X116343334Y-92499343D01*
X116410001Y-92466010D01*
X116476667Y-92399343D01*
X116510001Y-92266010D01*
X116510001Y-92032676D01*
X116476667Y-91899343D01*
X116410001Y-91832676D01*
X116343334Y-91799343D01*
X116210001Y-91799343D01*
X116776667Y-91832676D02*
X116876667Y-91799343D01*
X117043334Y-91799343D01*
X117110001Y-91832676D01*
X117143334Y-91866010D01*
X117176667Y-91932676D01*
X117176667Y-91999343D01*
X117143334Y-92066010D01*
X117110001Y-92099343D01*
X117043334Y-92132676D01*
X116910001Y-92166010D01*
X116843334Y-92199343D01*
X116810001Y-92232676D01*
X116776667Y-92299343D01*
X116776667Y-92366010D01*
X116810001Y-92432676D01*
X116843334Y-92466010D01*
X116910001Y-92499343D01*
X117076667Y-92499343D01*
X117176667Y-92466010D01*
X117876667Y-91866010D02*
X117843334Y-91832676D01*
X117743334Y-91799343D01*
X117676667Y-91799343D01*
X117576667Y-91832676D01*
X117510001Y-91899343D01*
X117476667Y-91966010D01*
X117443334Y-92099343D01*
X117443334Y-92199343D01*
X117476667Y-92332676D01*
X117510001Y-92399343D01*
X117576667Y-92466010D01*
X117676667Y-92499343D01*
X117743334Y-92499343D01*
X117843334Y-92466010D01*
X117876667Y-92432676D01*
X118176667Y-91799343D02*
X118176667Y-92499343D01*
X118576667Y-91799343D02*
X118276667Y-92199343D01*
X118576667Y-92499343D02*
X118176667Y-92099343D01*
X113629334Y-95509343D02*
X113596001Y-95442676D01*
X113529334Y-95376010D01*
X113429334Y-95276010D01*
X113396001Y-95209343D01*
X113396001Y-95142676D01*
X113562667Y-95176010D02*
X113529334Y-95109343D01*
X113462667Y-95042676D01*
X113329334Y-95009343D01*
X113096001Y-95009343D01*
X112962667Y-95042676D01*
X112896001Y-95109343D01*
X112862667Y-95176010D01*
X112862667Y-95309343D01*
X112896001Y-95376010D01*
X112962667Y-95442676D01*
X113096001Y-95476010D01*
X113329334Y-95476010D01*
X113462667Y-95442676D01*
X113529334Y-95376010D01*
X113562667Y-95309343D01*
X113562667Y-95176010D01*
X113496001Y-96176010D02*
X113529334Y-96142676D01*
X113562667Y-96042676D01*
X113562667Y-95976010D01*
X113529334Y-95876010D01*
X113462667Y-95809343D01*
X113396001Y-95776010D01*
X113262667Y-95742676D01*
X113162667Y-95742676D01*
X113029334Y-95776010D01*
X112962667Y-95809343D01*
X112896001Y-95876010D01*
X112862667Y-95976010D01*
X112862667Y-96042676D01*
X112896001Y-96142676D01*
X112929334Y-96176010D01*
X113529334Y-96442676D02*
X113562667Y-96542676D01*
X113562667Y-96709343D01*
X113529334Y-96776010D01*
X113496001Y-96809343D01*
X113429334Y-96842676D01*
X113362667Y-96842676D01*
X113296001Y-96809343D01*
X113262667Y-96776010D01*
X113229334Y-96709343D01*
X113196001Y-96576010D01*
X113162667Y-96509343D01*
X113129334Y-96476010D01*
X113062667Y-96442676D01*
X112996001Y-96442676D01*
X112929334Y-96476010D01*
X112896001Y-96509343D01*
X112862667Y-96576010D01*
X112862667Y-96742676D01*
X112896001Y-96842676D01*
X113629334Y-98049343D02*
X113596001Y-97982676D01*
X113529334Y-97916010D01*
X113429334Y-97816010D01*
X113396001Y-97749343D01*
X113396001Y-97682676D01*
X113562667Y-97716010D02*
X113529334Y-97649343D01*
X113462667Y-97582676D01*
X113329334Y-97549343D01*
X113096001Y-97549343D01*
X112962667Y-97582676D01*
X112896001Y-97649343D01*
X112862667Y-97716010D01*
X112862667Y-97849343D01*
X112896001Y-97916010D01*
X112962667Y-97982676D01*
X113096001Y-98016010D01*
X113329334Y-98016010D01*
X113462667Y-97982676D01*
X113529334Y-97916010D01*
X113562667Y-97849343D01*
X113562667Y-97716010D01*
X113562667Y-98316010D02*
X112862667Y-98316010D01*
X112862667Y-98482676D01*
X112896001Y-98582676D01*
X112962667Y-98649343D01*
X113029334Y-98682676D01*
X113162667Y-98716010D01*
X113262667Y-98716010D01*
X113396001Y-98682676D01*
X113462667Y-98649343D01*
X113529334Y-98582676D01*
X113562667Y-98482676D01*
X113562667Y-98316010D01*
X112862667Y-98949343D02*
X112862667Y-99382676D01*
X113129334Y-99149343D01*
X113129334Y-99249343D01*
X113162667Y-99316010D01*
X113196001Y-99349343D01*
X113262667Y-99382676D01*
X113429334Y-99382676D01*
X113496001Y-99349343D01*
X113529334Y-99316010D01*
X113562667Y-99249343D01*
X113562667Y-99049343D01*
X113529334Y-98982676D01*
X113496001Y-98949343D01*
X118671334Y-88176676D02*
X118604667Y-88210010D01*
X118538001Y-88276676D01*
X118438001Y-88376676D01*
X118371334Y-88410010D01*
X118304667Y-88410010D01*
X118338001Y-88243343D02*
X118271334Y-88276676D01*
X118204667Y-88343343D01*
X118171334Y-88476676D01*
X118171334Y-88710010D01*
X118204667Y-88843343D01*
X118271334Y-88910010D01*
X118338001Y-88943343D01*
X118471334Y-88943343D01*
X118538001Y-88910010D01*
X118604667Y-88843343D01*
X118638001Y-88710010D01*
X118638001Y-88476676D01*
X118604667Y-88343343D01*
X118538001Y-88276676D01*
X118471334Y-88243343D01*
X118338001Y-88243343D01*
X118938001Y-88243343D02*
X118938001Y-88943343D01*
X119104667Y-88943343D01*
X119204667Y-88910010D01*
X119271334Y-88843343D01*
X119304667Y-88776676D01*
X119338001Y-88643343D01*
X119338001Y-88543343D01*
X119304667Y-88410010D01*
X119271334Y-88343343D01*
X119204667Y-88276676D01*
X119104667Y-88243343D01*
X118938001Y-88243343D01*
X119604667Y-88876676D02*
X119638001Y-88910010D01*
X119704667Y-88943343D01*
X119871334Y-88943343D01*
X119938001Y-88910010D01*
X119971334Y-88876676D01*
X120004667Y-88810010D01*
X120004667Y-88743343D01*
X119971334Y-88643343D01*
X119571334Y-88243343D01*
X120004667Y-88243343D01*
X121211334Y-88176676D02*
X121144667Y-88210010D01*
X121078001Y-88276676D01*
X120978001Y-88376676D01*
X120911334Y-88410010D01*
X120844667Y-88410010D01*
X120878001Y-88243343D02*
X120811334Y-88276676D01*
X120744667Y-88343343D01*
X120711334Y-88476676D01*
X120711334Y-88710010D01*
X120744667Y-88843343D01*
X120811334Y-88910010D01*
X120878001Y-88943343D01*
X121011334Y-88943343D01*
X121078001Y-88910010D01*
X121144667Y-88843343D01*
X121178001Y-88710010D01*
X121178001Y-88476676D01*
X121144667Y-88343343D01*
X121078001Y-88276676D01*
X121011334Y-88243343D01*
X120878001Y-88243343D01*
X121478001Y-88243343D02*
X121478001Y-88943343D01*
X121644667Y-88943343D01*
X121744667Y-88910010D01*
X121811334Y-88843343D01*
X121844667Y-88776676D01*
X121878001Y-88643343D01*
X121878001Y-88543343D01*
X121844667Y-88410010D01*
X121811334Y-88343343D01*
X121744667Y-88276676D01*
X121644667Y-88243343D01*
X121478001Y-88243343D01*
X122544667Y-88243343D02*
X122144667Y-88243343D01*
X122344667Y-88243343D02*
X122344667Y-88943343D01*
X122278001Y-88843343D01*
X122211334Y-88776676D01*
X122144667Y-88743343D01*
X123751334Y-88176676D02*
X123684667Y-88210010D01*
X123618001Y-88276676D01*
X123518001Y-88376676D01*
X123451334Y-88410010D01*
X123384667Y-88410010D01*
X123418001Y-88243343D02*
X123351334Y-88276676D01*
X123284667Y-88343343D01*
X123251334Y-88476676D01*
X123251334Y-88710010D01*
X123284667Y-88843343D01*
X123351334Y-88910010D01*
X123418001Y-88943343D01*
X123551334Y-88943343D01*
X123618001Y-88910010D01*
X123684667Y-88843343D01*
X123718001Y-88710010D01*
X123718001Y-88476676D01*
X123684667Y-88343343D01*
X123618001Y-88276676D01*
X123551334Y-88243343D01*
X123418001Y-88243343D01*
X124018001Y-88243343D02*
X124018001Y-88943343D01*
X124184667Y-88943343D01*
X124284667Y-88910010D01*
X124351334Y-88843343D01*
X124384667Y-88776676D01*
X124418001Y-88643343D01*
X124418001Y-88543343D01*
X124384667Y-88410010D01*
X124351334Y-88343343D01*
X124284667Y-88276676D01*
X124184667Y-88243343D01*
X124018001Y-88243343D01*
X124851334Y-88943343D02*
X124918001Y-88943343D01*
X124984667Y-88910010D01*
X125018001Y-88876676D01*
X125051334Y-88810010D01*
X125084667Y-88676676D01*
X125084667Y-88510010D01*
X125051334Y-88376676D01*
X125018001Y-88310010D01*
X124984667Y-88276676D01*
X124918001Y-88243343D01*
X124851334Y-88243343D01*
X124784667Y-88276676D01*
X124751334Y-88310010D01*
X124718001Y-88376676D01*
X124684667Y-88510010D01*
X124684667Y-88676676D01*
X124718001Y-88810010D01*
X124751334Y-88876676D01*
X124784667Y-88910010D01*
X124851334Y-88943343D01*
X116543334Y-60284667D02*
X116476667Y-60318001D01*
X116410001Y-60384667D01*
X116310001Y-60484667D01*
X116243334Y-60518001D01*
X116176667Y-60518001D01*
X116210001Y-60351334D02*
X116143334Y-60384667D01*
X116076667Y-60451334D01*
X116043334Y-60584667D01*
X116043334Y-60818001D01*
X116076667Y-60951334D01*
X116143334Y-61018001D01*
X116210001Y-61051334D01*
X116343334Y-61051334D01*
X116410001Y-61018001D01*
X116476667Y-60951334D01*
X116510001Y-60818001D01*
X116510001Y-60584667D01*
X116476667Y-60451334D01*
X116410001Y-60384667D01*
X116343334Y-60351334D01*
X116210001Y-60351334D01*
X116776667Y-60384667D02*
X116876667Y-60351334D01*
X117043334Y-60351334D01*
X117110001Y-60384667D01*
X117143334Y-60418001D01*
X117176667Y-60484667D01*
X117176667Y-60551334D01*
X117143334Y-60618001D01*
X117110001Y-60651334D01*
X117043334Y-60684667D01*
X116910001Y-60718001D01*
X116843334Y-60751334D01*
X116810001Y-60784667D01*
X116776667Y-60851334D01*
X116776667Y-60918001D01*
X116810001Y-60984667D01*
X116843334Y-61018001D01*
X116910001Y-61051334D01*
X117076667Y-61051334D01*
X117176667Y-61018001D01*
X117876667Y-60418001D02*
X117843334Y-60384667D01*
X117743334Y-60351334D01*
X117676667Y-60351334D01*
X117576667Y-60384667D01*
X117510001Y-60451334D01*
X117476667Y-60518001D01*
X117443334Y-60651334D01*
X117443334Y-60751334D01*
X117476667Y-60884667D01*
X117510001Y-60951334D01*
X117576667Y-61018001D01*
X117676667Y-61051334D01*
X117743334Y-61051334D01*
X117843334Y-61018001D01*
X117876667Y-60984667D01*
X118176667Y-60351334D02*
X118176667Y-61051334D01*
X118576667Y-60351334D02*
X118276667Y-60751334D01*
X118576667Y-61051334D02*
X118176667Y-60651334D01*
X113629334Y-64061334D02*
X113596001Y-63994667D01*
X113529334Y-63928001D01*
X113429334Y-63828001D01*
X113396001Y-63761334D01*
X113396001Y-63694667D01*
X113562667Y-63728001D02*
X113529334Y-63661334D01*
X113462667Y-63594667D01*
X113329334Y-63561334D01*
X113096001Y-63561334D01*
X112962667Y-63594667D01*
X112896001Y-63661334D01*
X112862667Y-63728001D01*
X112862667Y-63861334D01*
X112896001Y-63928001D01*
X112962667Y-63994667D01*
X113096001Y-64028001D01*
X113329334Y-64028001D01*
X113462667Y-63994667D01*
X113529334Y-63928001D01*
X113562667Y-63861334D01*
X113562667Y-63728001D01*
X113496001Y-64728001D02*
X113529334Y-64694667D01*
X113562667Y-64594667D01*
X113562667Y-64528001D01*
X113529334Y-64428001D01*
X113462667Y-64361334D01*
X113396001Y-64328001D01*
X113262667Y-64294667D01*
X113162667Y-64294667D01*
X113029334Y-64328001D01*
X112962667Y-64361334D01*
X112896001Y-64428001D01*
X112862667Y-64528001D01*
X112862667Y-64594667D01*
X112896001Y-64694667D01*
X112929334Y-64728001D01*
X113529334Y-64994667D02*
X113562667Y-65094667D01*
X113562667Y-65261334D01*
X113529334Y-65328001D01*
X113496001Y-65361334D01*
X113429334Y-65394667D01*
X113362667Y-65394667D01*
X113296001Y-65361334D01*
X113262667Y-65328001D01*
X113229334Y-65261334D01*
X113196001Y-65128001D01*
X113162667Y-65061334D01*
X113129334Y-65028001D01*
X113062667Y-64994667D01*
X112996001Y-64994667D01*
X112929334Y-65028001D01*
X112896001Y-65061334D01*
X112862667Y-65128001D01*
X112862667Y-65294667D01*
X112896001Y-65394667D01*
X113629334Y-66601334D02*
X113596001Y-66534667D01*
X113529334Y-66468001D01*
X113429334Y-66368001D01*
X113396001Y-66301334D01*
X113396001Y-66234667D01*
X113562667Y-66268001D02*
X113529334Y-66201334D01*
X113462667Y-66134667D01*
X113329334Y-66101334D01*
X113096001Y-66101334D01*
X112962667Y-66134667D01*
X112896001Y-66201334D01*
X112862667Y-66268001D01*
X112862667Y-66401334D01*
X112896001Y-66468001D01*
X112962667Y-66534667D01*
X113096001Y-66568001D01*
X113329334Y-66568001D01*
X113462667Y-66534667D01*
X113529334Y-66468001D01*
X113562667Y-66401334D01*
X113562667Y-66268001D01*
X113562667Y-66868001D02*
X112862667Y-66868001D01*
X112862667Y-67034667D01*
X112896001Y-67134667D01*
X112962667Y-67201334D01*
X113029334Y-67234667D01*
X113162667Y-67268001D01*
X113262667Y-67268001D01*
X113396001Y-67234667D01*
X113462667Y-67201334D01*
X113529334Y-67134667D01*
X113562667Y-67034667D01*
X113562667Y-66868001D01*
X112862667Y-67501334D02*
X112862667Y-67934667D01*
X113129334Y-67701334D01*
X113129334Y-67801334D01*
X113162667Y-67868001D01*
X113196001Y-67901334D01*
X113262667Y-67934667D01*
X113429334Y-67934667D01*
X113496001Y-67901334D01*
X113529334Y-67868001D01*
X113562667Y-67801334D01*
X113562667Y-67601334D01*
X113529334Y-67534667D01*
X113496001Y-67501334D01*
X118671334Y-56728667D02*
X118604667Y-56762001D01*
X118538001Y-56828667D01*
X118438001Y-56928667D01*
X118371334Y-56962001D01*
X118304667Y-56962001D01*
X118338001Y-56795334D02*
X118271334Y-56828667D01*
X118204667Y-56895334D01*
X118171334Y-57028667D01*
X118171334Y-57262001D01*
X118204667Y-57395334D01*
X118271334Y-57462001D01*
X118338001Y-57495334D01*
X118471334Y-57495334D01*
X118538001Y-57462001D01*
X118604667Y-57395334D01*
X118638001Y-57262001D01*
X118638001Y-57028667D01*
X118604667Y-56895334D01*
X118538001Y-56828667D01*
X118471334Y-56795334D01*
X118338001Y-56795334D01*
X118938001Y-56795334D02*
X118938001Y-57495334D01*
X119104667Y-57495334D01*
X119204667Y-57462001D01*
X119271334Y-57395334D01*
X119304667Y-57328667D01*
X119338001Y-57195334D01*
X119338001Y-57095334D01*
X119304667Y-56962001D01*
X119271334Y-56895334D01*
X119204667Y-56828667D01*
X119104667Y-56795334D01*
X118938001Y-56795334D01*
X119604667Y-57428667D02*
X119638001Y-57462001D01*
X119704667Y-57495334D01*
X119871334Y-57495334D01*
X119938001Y-57462001D01*
X119971334Y-57428667D01*
X120004667Y-57362001D01*
X120004667Y-57295334D01*
X119971334Y-57195334D01*
X119571334Y-56795334D01*
X120004667Y-56795334D01*
X121211334Y-56728667D02*
X121144667Y-56762001D01*
X121078001Y-56828667D01*
X120978001Y-56928667D01*
X120911334Y-56962001D01*
X120844667Y-56962001D01*
X120878001Y-56795334D02*
X120811334Y-56828667D01*
X120744667Y-56895334D01*
X120711334Y-57028667D01*
X120711334Y-57262001D01*
X120744667Y-57395334D01*
X120811334Y-57462001D01*
X120878001Y-57495334D01*
X121011334Y-57495334D01*
X121078001Y-57462001D01*
X121144667Y-57395334D01*
X121178001Y-57262001D01*
X121178001Y-57028667D01*
X121144667Y-56895334D01*
X121078001Y-56828667D01*
X121011334Y-56795334D01*
X120878001Y-56795334D01*
X121478001Y-56795334D02*
X121478001Y-57495334D01*
X121644667Y-57495334D01*
X121744667Y-57462001D01*
X121811334Y-57395334D01*
X121844667Y-57328667D01*
X121878001Y-57195334D01*
X121878001Y-57095334D01*
X121844667Y-56962001D01*
X121811334Y-56895334D01*
X121744667Y-56828667D01*
X121644667Y-56795334D01*
X121478001Y-56795334D01*
X122544667Y-56795334D02*
X122144667Y-56795334D01*
X122344667Y-56795334D02*
X122344667Y-57495334D01*
X122278001Y-57395334D01*
X122211334Y-57328667D01*
X122144667Y-57295334D01*
X123751334Y-56728667D02*
X123684667Y-56762001D01*
X123618001Y-56828667D01*
X123518001Y-56928667D01*
X123451334Y-56962001D01*
X123384667Y-56962001D01*
X123418001Y-56795334D02*
X123351334Y-56828667D01*
X123284667Y-56895334D01*
X123251334Y-57028667D01*
X123251334Y-57262001D01*
X123284667Y-57395334D01*
X123351334Y-57462001D01*
X123418001Y-57495334D01*
X123551334Y-57495334D01*
X123618001Y-57462001D01*
X123684667Y-57395334D01*
X123718001Y-57262001D01*
X123718001Y-57028667D01*
X123684667Y-56895334D01*
X123618001Y-56828667D01*
X123551334Y-56795334D01*
X123418001Y-56795334D01*
X124018001Y-56795334D02*
X124018001Y-57495334D01*
X124184667Y-57495334D01*
X124284667Y-57462001D01*
X124351334Y-57395334D01*
X124384667Y-57328667D01*
X124418001Y-57195334D01*
X124418001Y-57095334D01*
X124384667Y-56962001D01*
X124351334Y-56895334D01*
X124284667Y-56828667D01*
X124184667Y-56795334D01*
X124018001Y-56795334D01*
X124851334Y-57495334D02*
X124918001Y-57495334D01*
X124984667Y-57462001D01*
X125018001Y-57428667D01*
X125051334Y-57362001D01*
X125084667Y-57228667D01*
X125084667Y-57062001D01*
X125051334Y-56928667D01*
X125018001Y-56862001D01*
X124984667Y-56828667D01*
X124918001Y-56795334D01*
X124851334Y-56795334D01*
X124784667Y-56828667D01*
X124751334Y-56862001D01*
X124718001Y-56928667D01*
X124684667Y-57062001D01*
X124684667Y-57228667D01*
X124718001Y-57362001D01*
X124751334Y-57428667D01*
X124784667Y-57462001D01*
X124851334Y-57495334D01*
D11*
X69915001Y-132327020D02*
G75*
G03X69915001Y-132327020I-50000J0D01*
G01*
X101432001Y-133978019D02*
G75*
G03X101432001Y-133978019I-50000J0D01*
G01*
X68084001Y-132274019D02*
G75*
G03X68084001Y-132274019I-50000J0D01*
G01*
D12*
X118491101Y-130256919D02*
X118491101Y-126015119D01*
X123748901Y-126015119D02*
X123748901Y-130256919D01*
D13*
X81455001Y-129914019D02*
X81455001Y-132839019D01*
X81455001Y-129914019D02*
X81455001Y-128414019D01*
X78235001Y-129914019D02*
X78235001Y-131414019D01*
X78235001Y-129914019D02*
X78235001Y-128414019D01*
X102217001Y-131153019D02*
X104587001Y-131153019D01*
X103967001Y-127913019D02*
X102967001Y-127913019D01*
X101767001Y-131533019D02*
X102967001Y-131533019D01*
X101767001Y-130033019D02*
X101767001Y-131533019D01*
X64773001Y-125223019D02*
X64773001Y-124748019D01*
X67993001Y-127968019D02*
X67518001Y-127968019D01*
X67993001Y-127493019D02*
X67993001Y-127968019D01*
X67993001Y-124748019D02*
X67518001Y-124748019D01*
X67993001Y-125223019D02*
X67993001Y-124748019D01*
X64773001Y-127968019D02*
X65248001Y-127968019D01*
X64773001Y-127493019D02*
X64773001Y-127968019D01*
X72609001Y-123115019D02*
X72459001Y-123115019D01*
X69809001Y-127315019D02*
X69959001Y-127315019D01*
X69809001Y-126715019D02*
X69809001Y-127315019D01*
X72609001Y-124515019D02*
X72609001Y-125915019D01*
X69809001Y-124515019D02*
X69809001Y-125915019D01*
X72609001Y-123715019D02*
X72609001Y-123115019D01*
X69809001Y-123115019D02*
X69809001Y-123715019D01*
X72606394Y-126715720D02*
X72606394Y-127615720D01*
X69809001Y-123115019D02*
X69959001Y-123115019D01*
D14*
X131791001Y-121510019D02*
X131791001Y-125110019D01*
X127541001Y-126310019D02*
X129816001Y-126310019D01*
X127541001Y-125510019D02*
X127541001Y-126310019D01*
X127541001Y-120310019D02*
X129816001Y-120310019D01*
X127541001Y-121110019D02*
X127541001Y-120310019D01*
D15*
X126931001Y-120860019D02*
G75*
G03X126931001Y-120860019I-100000J0D01*
G01*
D14*
X131791001Y-129130019D02*
X131791001Y-132730019D01*
X127541001Y-133930019D02*
X129816001Y-133930019D01*
X127541001Y-133130019D02*
X127541001Y-133930019D01*
X127541001Y-127930019D02*
X129816001Y-127930019D01*
X127541001Y-128730019D02*
X127541001Y-127930019D01*
D15*
X126931001Y-128480019D02*
G75*
G03X126931001Y-128480019I-100000J0D01*
G01*
D16*
X113172001Y-125463019D02*
X113172001Y-124713019D01*
X113172001Y-124713019D02*
X110272001Y-124713019D01*
X110272001Y-124713019D02*
X110272001Y-125463019D01*
X110272001Y-125463019D02*
X113172001Y-125463019D01*
X113322001Y-126963019D02*
X113322001Y-125813019D01*
D10*
X105015001Y-119603019D02*
X105015001Y-119828019D01*
X101665001Y-119603019D02*
X101665001Y-119903019D01*
X101665001Y-122953019D02*
X101665001Y-122653019D01*
X105015001Y-122953019D02*
X105015001Y-122653019D01*
X105015001Y-119603019D02*
X101665001Y-119603019D01*
X105015001Y-122953019D02*
X101665001Y-122953019D01*
X105015001Y-119828019D02*
X106240001Y-119828019D01*
D11*
X69915001Y-100879011D02*
G75*
G03X69915001Y-100879011I-50000J0D01*
G01*
X101432001Y-102530010D02*
G75*
G03X101432001Y-102530010I-50000J0D01*
G01*
X68084001Y-100826010D02*
G75*
G03X68084001Y-100826010I-50000J0D01*
G01*
D12*
X118491101Y-98808910D02*
X118491101Y-94567110D01*
X123748901Y-94567110D02*
X123748901Y-98808910D01*
D13*
X81455001Y-98466010D02*
X81455001Y-101391010D01*
X81455001Y-98466010D02*
X81455001Y-96966010D01*
X78235001Y-98466010D02*
X78235001Y-99966010D01*
X78235001Y-98466010D02*
X78235001Y-96966010D01*
X102217001Y-99705010D02*
X104587001Y-99705010D01*
X103967001Y-96465010D02*
X102967001Y-96465010D01*
X101767001Y-100085010D02*
X102967001Y-100085010D01*
X101767001Y-98585010D02*
X101767001Y-100085010D01*
X64773001Y-93775010D02*
X64773001Y-93300010D01*
X67993001Y-96520010D02*
X67518001Y-96520010D01*
X67993001Y-96045010D02*
X67993001Y-96520010D01*
X67993001Y-93300010D02*
X67518001Y-93300010D01*
X67993001Y-93775010D02*
X67993001Y-93300010D01*
X64773001Y-96520010D02*
X65248001Y-96520010D01*
X64773001Y-96045010D02*
X64773001Y-96520010D01*
X72609001Y-91667010D02*
X72459001Y-91667010D01*
X69809001Y-95867010D02*
X69959001Y-95867010D01*
X69809001Y-95267010D02*
X69809001Y-95867010D01*
X72609001Y-93067010D02*
X72609001Y-94467010D01*
X69809001Y-93067010D02*
X69809001Y-94467010D01*
X72609001Y-92267010D02*
X72609001Y-91667010D01*
X69809001Y-91667010D02*
X69809001Y-92267010D01*
X72606394Y-95267711D02*
X72606394Y-96167711D01*
X69809001Y-91667010D02*
X69959001Y-91667010D01*
D14*
X131791001Y-90062010D02*
X131791001Y-93662010D01*
X127541001Y-94862010D02*
X129816001Y-94862010D01*
X127541001Y-94062010D02*
X127541001Y-94862010D01*
X127541001Y-88862010D02*
X129816001Y-88862010D01*
X127541001Y-89662010D02*
X127541001Y-88862010D01*
D15*
X126931001Y-89412010D02*
G75*
G03X126931001Y-89412010I-100000J0D01*
G01*
D14*
X131791001Y-97682010D02*
X131791001Y-101282010D01*
X127541001Y-102482010D02*
X129816001Y-102482010D01*
X127541001Y-101682010D02*
X127541001Y-102482010D01*
X127541001Y-96482010D02*
X129816001Y-96482010D01*
X127541001Y-97282010D02*
X127541001Y-96482010D01*
D15*
X126931001Y-97032010D02*
G75*
G03X126931001Y-97032010I-100000J0D01*
G01*
D16*
X113172001Y-94015010D02*
X113172001Y-93265010D01*
X113172001Y-93265010D02*
X110272001Y-93265010D01*
X110272001Y-93265010D02*
X110272001Y-94015010D01*
X110272001Y-94015010D02*
X113172001Y-94015010D01*
X113322001Y-95515010D02*
X113322001Y-94365010D01*
D10*
X105015001Y-88155010D02*
X105015001Y-88380010D01*
X101665001Y-88155010D02*
X101665001Y-88455010D01*
X101665001Y-91505010D02*
X101665001Y-91205010D01*
X105015001Y-91505010D02*
X105015001Y-91205010D01*
X105015001Y-88155010D02*
X101665001Y-88155010D01*
X105015001Y-91505010D02*
X101665001Y-91505010D01*
X105015001Y-88380010D02*
X106240001Y-88380010D01*
D11*
X69915001Y-69431002D02*
G75*
G03X69915001Y-69431002I-50000J0D01*
G01*
X101432001Y-71082001D02*
G75*
G03X101432001Y-71082001I-50000J0D01*
G01*
X68084001Y-69378001D02*
G75*
G03X68084001Y-69378001I-50000J0D01*
G01*
D12*
X118491101Y-67360901D02*
X118491101Y-63119101D01*
X123748901Y-63119101D02*
X123748901Y-67360901D01*
D13*
X81455001Y-67018001D02*
X81455001Y-69943001D01*
X81455001Y-67018001D02*
X81455001Y-65518001D01*
X78235001Y-67018001D02*
X78235001Y-68518001D01*
X78235001Y-67018001D02*
X78235001Y-65518001D01*
X102217001Y-68257001D02*
X104587001Y-68257001D01*
X103967001Y-65017001D02*
X102967001Y-65017001D01*
X101767001Y-68637001D02*
X102967001Y-68637001D01*
X101767001Y-67137001D02*
X101767001Y-68637001D01*
X64773001Y-62327001D02*
X64773001Y-61852001D01*
X67993001Y-65072001D02*
X67518001Y-65072001D01*
X67993001Y-64597001D02*
X67993001Y-65072001D01*
X67993001Y-61852001D02*
X67518001Y-61852001D01*
X67993001Y-62327001D02*
X67993001Y-61852001D01*
X64773001Y-65072001D02*
X65248001Y-65072001D01*
X64773001Y-64597001D02*
X64773001Y-65072001D01*
X72609001Y-60219001D02*
X72459001Y-60219001D01*
X69809001Y-64419001D02*
X69959001Y-64419001D01*
X69809001Y-63819001D02*
X69809001Y-64419001D01*
X72609001Y-61619001D02*
X72609001Y-63019001D01*
X69809001Y-61619001D02*
X69809001Y-63019001D01*
X72609001Y-60819001D02*
X72609001Y-60219001D01*
X69809001Y-60219001D02*
X69809001Y-60819001D01*
X72606394Y-63819702D02*
X72606394Y-64719702D01*
X69809001Y-60219001D02*
X69959001Y-60219001D01*
D14*
X131791001Y-58614001D02*
X131791001Y-62214001D01*
X127541001Y-63414001D02*
X129816001Y-63414001D01*
X127541001Y-62614001D02*
X127541001Y-63414001D01*
X127541001Y-57414001D02*
X129816001Y-57414001D01*
X127541001Y-58214001D02*
X127541001Y-57414001D01*
D15*
X126931001Y-57964001D02*
G75*
G03X126931001Y-57964001I-100000J0D01*
G01*
D14*
X131791001Y-66234001D02*
X131791001Y-69834001D01*
X127541001Y-71034001D02*
X129816001Y-71034001D01*
X127541001Y-70234001D02*
X127541001Y-71034001D01*
X127541001Y-65034001D02*
X129816001Y-65034001D01*
X127541001Y-65834001D02*
X127541001Y-65034001D01*
D15*
X126931001Y-65584001D02*
G75*
G03X126931001Y-65584001I-100000J0D01*
G01*
D16*
X113172001Y-62567001D02*
X113172001Y-61817001D01*
X113172001Y-61817001D02*
X110272001Y-61817001D01*
X110272001Y-61817001D02*
X110272001Y-62567001D01*
X110272001Y-62567001D02*
X113172001Y-62567001D01*
X113322001Y-64067001D02*
X113322001Y-62917001D01*
D10*
X105015001Y-56707001D02*
X105015001Y-56932001D01*
X101665001Y-56707001D02*
X101665001Y-57007001D01*
X101665001Y-60057001D02*
X101665001Y-59757001D01*
X105015001Y-60057001D02*
X105015001Y-59757001D01*
X105015001Y-56707001D02*
X101665001Y-56707001D01*
X105015001Y-60057001D02*
X101665001Y-60057001D01*
X105015001Y-56932001D02*
X106240001Y-56932001D01*
X122493143Y-133303352D02*
X122540762Y-133255733D01*
X122588381Y-133112876D01*
X122588381Y-133017638D01*
X122540762Y-132874780D01*
X122445524Y-132779542D01*
X122350286Y-132731923D01*
X122159810Y-132684304D01*
X122016953Y-132684304D01*
X121826477Y-132731923D01*
X121731239Y-132779542D01*
X121636001Y-132874780D01*
X121588381Y-133017638D01*
X121588381Y-133112876D01*
X121636001Y-133255733D01*
X121683620Y-133303352D01*
X122588381Y-134255733D02*
X122588381Y-133684304D01*
X122588381Y-133970019D02*
X121588381Y-133970019D01*
X121731239Y-133874780D01*
X121826477Y-133779542D01*
X121874096Y-133684304D01*
X121069143Y-123143352D02*
X121116762Y-123095733D01*
X121164381Y-122952876D01*
X121164381Y-122857638D01*
X121116762Y-122714780D01*
X121021524Y-122619542D01*
X120926286Y-122571923D01*
X120735810Y-122524304D01*
X120592953Y-122524304D01*
X120402477Y-122571923D01*
X120307239Y-122619542D01*
X120212001Y-122714780D01*
X120164381Y-122857638D01*
X120164381Y-122952876D01*
X120212001Y-123095733D01*
X120259620Y-123143352D01*
X120259620Y-123524304D02*
X120212001Y-123571923D01*
X120164381Y-123667161D01*
X120164381Y-123905257D01*
X120212001Y-124000495D01*
X120259620Y-124048114D01*
X120354858Y-124095733D01*
X120450096Y-124095733D01*
X120592953Y-124048114D01*
X121164381Y-123476685D01*
X121164381Y-124095733D01*
X77090667Y-131641161D02*
X77138286Y-131688780D01*
X77281143Y-131736399D01*
X77376381Y-131736399D01*
X77519239Y-131688780D01*
X77614477Y-131593542D01*
X77662096Y-131498304D01*
X77709715Y-131307828D01*
X77709715Y-131164971D01*
X77662096Y-130974495D01*
X77614477Y-130879257D01*
X77519239Y-130784019D01*
X77376381Y-130736399D01*
X77281143Y-130736399D01*
X77138286Y-130784019D01*
X77090667Y-130831638D01*
X76519239Y-131164971D02*
X76614477Y-131117352D01*
X76662096Y-131069733D01*
X76709715Y-130974495D01*
X76709715Y-130926876D01*
X76662096Y-130831638D01*
X76614477Y-130784019D01*
X76519239Y-130736399D01*
X76328762Y-130736399D01*
X76233524Y-130784019D01*
X76185905Y-130831638D01*
X76138286Y-130926876D01*
X76138286Y-130974495D01*
X76185905Y-131069733D01*
X76233524Y-131117352D01*
X76328762Y-131164971D01*
X76519239Y-131164971D01*
X76614477Y-131212590D01*
X76662096Y-131260209D01*
X76709715Y-131355447D01*
X76709715Y-131545923D01*
X76662096Y-131641161D01*
X76614477Y-131688780D01*
X76519239Y-131736399D01*
X76328762Y-131736399D01*
X76233524Y-131688780D01*
X76185905Y-131641161D01*
X76138286Y-131545923D01*
X76138286Y-131355447D01*
X76185905Y-131260209D01*
X76233524Y-131212590D01*
X76328762Y-131164971D01*
X108296143Y-129366352D02*
X108343762Y-129318733D01*
X108391381Y-129175876D01*
X108391381Y-129080638D01*
X108343762Y-128937780D01*
X108248524Y-128842542D01*
X108153286Y-128794923D01*
X107962810Y-128747304D01*
X107819953Y-128747304D01*
X107629477Y-128794923D01*
X107534239Y-128842542D01*
X107439001Y-128937780D01*
X107391381Y-129080638D01*
X107391381Y-129175876D01*
X107439001Y-129318733D01*
X107486620Y-129366352D01*
X108391381Y-129842542D02*
X108391381Y-130033019D01*
X108343762Y-130128257D01*
X108296143Y-130175876D01*
X108153286Y-130271114D01*
X107962810Y-130318733D01*
X107581858Y-130318733D01*
X107486620Y-130271114D01*
X107439001Y-130223495D01*
X107391381Y-130128257D01*
X107391381Y-129937780D01*
X107439001Y-129842542D01*
X107486620Y-129794923D01*
X107581858Y-129747304D01*
X107819953Y-129747304D01*
X107915191Y-129794923D01*
X107962810Y-129842542D01*
X108010429Y-129937780D01*
X108010429Y-130128257D01*
X107962810Y-130223495D01*
X107915191Y-130271114D01*
X107819953Y-130318733D01*
X113349142Y-119111161D02*
X113396761Y-119063542D01*
X113444380Y-118920685D01*
X113444380Y-118825447D01*
X113396761Y-118682590D01*
X113301523Y-118587352D01*
X113206285Y-118539733D01*
X113015809Y-118492114D01*
X112872952Y-118492114D01*
X112682476Y-118539733D01*
X112587238Y-118587352D01*
X112492000Y-118682590D01*
X112444380Y-118825447D01*
X112444380Y-118920685D01*
X112492000Y-119063542D01*
X112539619Y-119111161D01*
X113444380Y-120063542D02*
X113444380Y-119492114D01*
X113444380Y-119777828D02*
X112444380Y-119777828D01*
X112587238Y-119682590D01*
X112682476Y-119587352D01*
X112730095Y-119492114D01*
X112444380Y-120682590D02*
X112444380Y-120777828D01*
X112492000Y-120873066D01*
X112539619Y-120920685D01*
X112634857Y-120968304D01*
X112825333Y-121015923D01*
X113063428Y-121015923D01*
X113253904Y-120968304D01*
X113349142Y-120920685D01*
X113396761Y-120873066D01*
X113444380Y-120777828D01*
X113444380Y-120682590D01*
X113396761Y-120587352D01*
X113349142Y-120539733D01*
X113253904Y-120492114D01*
X113063428Y-120444495D01*
X112825333Y-120444495D01*
X112634857Y-120492114D01*
X112539619Y-120539733D01*
X112492000Y-120587352D01*
X112444380Y-120682590D01*
X100426858Y-131695161D02*
X100474477Y-131742780D01*
X100617334Y-131790399D01*
X100712572Y-131790399D01*
X100855429Y-131742780D01*
X100950667Y-131647542D01*
X100998286Y-131552304D01*
X101045905Y-131361828D01*
X101045905Y-131218971D01*
X100998286Y-131028495D01*
X100950667Y-130933257D01*
X100855429Y-130838019D01*
X100712572Y-130790399D01*
X100617334Y-130790399D01*
X100474477Y-130838019D01*
X100426858Y-130885638D01*
X99474477Y-131790399D02*
X100045905Y-131790399D01*
X99760191Y-131790399D02*
X99760191Y-130790399D01*
X99855429Y-130933257D01*
X99950667Y-131028495D01*
X100045905Y-131076114D01*
X98522096Y-131790399D02*
X99093524Y-131790399D01*
X98807810Y-131790399D02*
X98807810Y-130790399D01*
X98903048Y-130933257D01*
X98998286Y-131028495D01*
X99093524Y-131076114D01*
X78651143Y-133843161D02*
X78698762Y-133795542D01*
X78746381Y-133652685D01*
X78746381Y-133557447D01*
X78698762Y-133414590D01*
X78603524Y-133319352D01*
X78508286Y-133271733D01*
X78317810Y-133224114D01*
X78174953Y-133224114D01*
X77984477Y-133271733D01*
X77889239Y-133319352D01*
X77794001Y-133414590D01*
X77746381Y-133557447D01*
X77746381Y-133652685D01*
X77794001Y-133795542D01*
X77841620Y-133843161D01*
X78746381Y-134795542D02*
X78746381Y-134224114D01*
X78746381Y-134509828D02*
X77746381Y-134509828D01*
X77889239Y-134414590D01*
X77984477Y-134319352D01*
X78032096Y-134224114D01*
X77841620Y-135176495D02*
X77794001Y-135224114D01*
X77746381Y-135319352D01*
X77746381Y-135557447D01*
X77794001Y-135652685D01*
X77841620Y-135700304D01*
X77936858Y-135747923D01*
X78032096Y-135747923D01*
X78174953Y-135700304D01*
X78746381Y-135128876D01*
X78746381Y-135747923D01*
X98394858Y-129255161D02*
X98442477Y-129302780D01*
X98585334Y-129350399D01*
X98680572Y-129350399D01*
X98823429Y-129302780D01*
X98918667Y-129207542D01*
X98966286Y-129112304D01*
X99013905Y-128921828D01*
X99013905Y-128778971D01*
X98966286Y-128588495D01*
X98918667Y-128493257D01*
X98823429Y-128398019D01*
X98680572Y-128350399D01*
X98585334Y-128350399D01*
X98442477Y-128398019D01*
X98394858Y-128445638D01*
X97442477Y-129350399D02*
X98013905Y-129350399D01*
X97728191Y-129350399D02*
X97728191Y-128350399D01*
X97823429Y-128493257D01*
X97918667Y-128588495D01*
X98013905Y-128636114D01*
X97109143Y-128350399D02*
X96490096Y-128350399D01*
X96823429Y-128731352D01*
X96680572Y-128731352D01*
X96585334Y-128778971D01*
X96537715Y-128826590D01*
X96490096Y-128921828D01*
X96490096Y-129159923D01*
X96537715Y-129255161D01*
X96585334Y-129302780D01*
X96680572Y-129350399D01*
X96966286Y-129350399D01*
X97061524Y-129302780D01*
X97109143Y-129255161D01*
X108777143Y-123429161D02*
X108824762Y-123381542D01*
X108872381Y-123238685D01*
X108872381Y-123143447D01*
X108824762Y-123000590D01*
X108729524Y-122905352D01*
X108634286Y-122857733D01*
X108443810Y-122810114D01*
X108300953Y-122810114D01*
X108110477Y-122857733D01*
X108015239Y-122905352D01*
X107920001Y-123000590D01*
X107872381Y-123143447D01*
X107872381Y-123238685D01*
X107920001Y-123381542D01*
X107967620Y-123429161D01*
X108872381Y-124381542D02*
X108872381Y-123810114D01*
X108872381Y-124095828D02*
X107872381Y-124095828D01*
X108015239Y-124000590D01*
X108110477Y-123905352D01*
X108158096Y-123810114D01*
X108205715Y-125238685D02*
X108872381Y-125238685D01*
X107824762Y-125000590D02*
X108539048Y-124762495D01*
X108539048Y-125381542D01*
X109439143Y-130795161D02*
X109486762Y-130747542D01*
X109534381Y-130604685D01*
X109534381Y-130509447D01*
X109486762Y-130366590D01*
X109391524Y-130271352D01*
X109296286Y-130223733D01*
X109105810Y-130176114D01*
X108962953Y-130176114D01*
X108772477Y-130223733D01*
X108677239Y-130271352D01*
X108582001Y-130366590D01*
X108534381Y-130509447D01*
X108534381Y-130604685D01*
X108582001Y-130747542D01*
X108629620Y-130795161D01*
X109534381Y-131747542D02*
X109534381Y-131176114D01*
X109534381Y-131461828D02*
X108534381Y-131461828D01*
X108677239Y-131366590D01*
X108772477Y-131271352D01*
X108820096Y-131176114D01*
X108534381Y-132652304D02*
X108534381Y-132176114D01*
X109010572Y-132128495D01*
X108962953Y-132176114D01*
X108915334Y-132271352D01*
X108915334Y-132509447D01*
X108962953Y-132604685D01*
X109010572Y-132652304D01*
X109105810Y-132699923D01*
X109343905Y-132699923D01*
X109439143Y-132652304D01*
X109486762Y-132604685D01*
X109534381Y-132509447D01*
X109534381Y-132271352D01*
X109486762Y-132176114D01*
X109439143Y-132128495D01*
X104744858Y-123794161D02*
X104792477Y-123841780D01*
X104935334Y-123889399D01*
X105030572Y-123889399D01*
X105173429Y-123841780D01*
X105268667Y-123746542D01*
X105316286Y-123651304D01*
X105363905Y-123460828D01*
X105363905Y-123317971D01*
X105316286Y-123127495D01*
X105268667Y-123032257D01*
X105173429Y-122937019D01*
X105030572Y-122889399D01*
X104935334Y-122889399D01*
X104792477Y-122937019D01*
X104744858Y-122984638D01*
X103792477Y-123889399D02*
X104363905Y-123889399D01*
X104078191Y-123889399D02*
X104078191Y-122889399D01*
X104173429Y-123032257D01*
X104268667Y-123127495D01*
X104363905Y-123175114D01*
X102935334Y-122889399D02*
X103125810Y-122889399D01*
X103221048Y-122937019D01*
X103268667Y-122984638D01*
X103363905Y-123127495D01*
X103411524Y-123317971D01*
X103411524Y-123698923D01*
X103363905Y-123794161D01*
X103316286Y-123841780D01*
X103221048Y-123889399D01*
X103030572Y-123889399D01*
X102935334Y-123841780D01*
X102887715Y-123794161D01*
X102840096Y-123698923D01*
X102840096Y-123460828D01*
X102887715Y-123365590D01*
X102935334Y-123317971D01*
X103030572Y-123270352D01*
X103221048Y-123270352D01*
X103316286Y-123317971D01*
X103363905Y-123365590D01*
X103411524Y-123460828D01*
X98871143Y-120889161D02*
X98918762Y-120841542D01*
X98966381Y-120698685D01*
X98966381Y-120603447D01*
X98918762Y-120460590D01*
X98823524Y-120365352D01*
X98728286Y-120317733D01*
X98537810Y-120270114D01*
X98394953Y-120270114D01*
X98204477Y-120317733D01*
X98109239Y-120365352D01*
X98014001Y-120460590D01*
X97966381Y-120603447D01*
X97966381Y-120698685D01*
X98014001Y-120841542D01*
X98061620Y-120889161D01*
X98966381Y-121841542D02*
X98966381Y-121270114D01*
X98966381Y-121555828D02*
X97966381Y-121555828D01*
X98109239Y-121460590D01*
X98204477Y-121365352D01*
X98252096Y-121270114D01*
X97966381Y-122174876D02*
X97966381Y-122841542D01*
X98966381Y-122412971D01*
X111825143Y-128001161D02*
X111872762Y-127953542D01*
X111920381Y-127810685D01*
X111920381Y-127715447D01*
X111872762Y-127572590D01*
X111777524Y-127477352D01*
X111682286Y-127429733D01*
X111491810Y-127382114D01*
X111348953Y-127382114D01*
X111158477Y-127429733D01*
X111063239Y-127477352D01*
X110968001Y-127572590D01*
X110920381Y-127715447D01*
X110920381Y-127810685D01*
X110968001Y-127953542D01*
X111015620Y-128001161D01*
X111920381Y-128953542D02*
X111920381Y-128382114D01*
X111920381Y-128667828D02*
X110920381Y-128667828D01*
X111063239Y-128572590D01*
X111158477Y-128477352D01*
X111206096Y-128382114D01*
X111348953Y-129524971D02*
X111301334Y-129429733D01*
X111253715Y-129382114D01*
X111158477Y-129334495D01*
X111110858Y-129334495D01*
X111015620Y-129382114D01*
X110968001Y-129429733D01*
X110920381Y-129524971D01*
X110920381Y-129715447D01*
X110968001Y-129810685D01*
X111015620Y-129858304D01*
X111110858Y-129905923D01*
X111158477Y-129905923D01*
X111253715Y-129858304D01*
X111301334Y-129810685D01*
X111348953Y-129715447D01*
X111348953Y-129524971D01*
X111396572Y-129429733D01*
X111444191Y-129382114D01*
X111539429Y-129334495D01*
X111729905Y-129334495D01*
X111825143Y-129382114D01*
X111872762Y-129429733D01*
X111920381Y-129524971D01*
X111920381Y-129715447D01*
X111872762Y-129810685D01*
X111825143Y-129858304D01*
X111729905Y-129905923D01*
X111539429Y-129905923D01*
X111444191Y-129858304D01*
X111396572Y-129810685D01*
X111348953Y-129715447D01*
X106491143Y-123175161D02*
X106538762Y-123127542D01*
X106586381Y-122984685D01*
X106586381Y-122889447D01*
X106538762Y-122746590D01*
X106443524Y-122651352D01*
X106348286Y-122603733D01*
X106157810Y-122556114D01*
X106014953Y-122556114D01*
X105824477Y-122603733D01*
X105729239Y-122651352D01*
X105634001Y-122746590D01*
X105586381Y-122889447D01*
X105586381Y-122984685D01*
X105634001Y-123127542D01*
X105681620Y-123175161D01*
X106586381Y-124127542D02*
X106586381Y-123556114D01*
X106586381Y-123841828D02*
X105586381Y-123841828D01*
X105729239Y-123746590D01*
X105824477Y-123651352D01*
X105872096Y-123556114D01*
X106586381Y-124603733D02*
X106586381Y-124794209D01*
X106538762Y-124889447D01*
X106491143Y-124937066D01*
X106348286Y-125032304D01*
X106157810Y-125079923D01*
X105776858Y-125079923D01*
X105681620Y-125032304D01*
X105634001Y-124984685D01*
X105586381Y-124889447D01*
X105586381Y-124698971D01*
X105634001Y-124603733D01*
X105681620Y-124556114D01*
X105776858Y-124508495D01*
X106014953Y-124508495D01*
X106110191Y-124556114D01*
X106157810Y-124603733D01*
X106205429Y-124698971D01*
X106205429Y-124889447D01*
X106157810Y-124984685D01*
X106110191Y-125032304D01*
X106014953Y-125079923D01*
X104236858Y-118179161D02*
X104284477Y-118226780D01*
X104427334Y-118274399D01*
X104522572Y-118274399D01*
X104665429Y-118226780D01*
X104760667Y-118131542D01*
X104808286Y-118036304D01*
X104855905Y-117845828D01*
X104855905Y-117702971D01*
X104808286Y-117512495D01*
X104760667Y-117417257D01*
X104665429Y-117322019D01*
X104522572Y-117274399D01*
X104427334Y-117274399D01*
X104284477Y-117322019D01*
X104236858Y-117369638D01*
X103855905Y-117369638D02*
X103808286Y-117322019D01*
X103713048Y-117274399D01*
X103474953Y-117274399D01*
X103379715Y-117322019D01*
X103332096Y-117369638D01*
X103284477Y-117464876D01*
X103284477Y-117560114D01*
X103332096Y-117702971D01*
X103903524Y-118274399D01*
X103284477Y-118274399D01*
X102665429Y-117274399D02*
X102570191Y-117274399D01*
X102474953Y-117322019D01*
X102427334Y-117369638D01*
X102379715Y-117464876D01*
X102332096Y-117655352D01*
X102332096Y-117893447D01*
X102379715Y-118083923D01*
X102427334Y-118179161D01*
X102474953Y-118226780D01*
X102570191Y-118274399D01*
X102665429Y-118274399D01*
X102760667Y-118226780D01*
X102808286Y-118179161D01*
X102855905Y-118083923D01*
X102903524Y-117893447D01*
X102903524Y-117655352D01*
X102855905Y-117464876D01*
X102808286Y-117369638D01*
X102760667Y-117322019D01*
X102665429Y-117274399D01*
X108677143Y-120381161D02*
X108724762Y-120333542D01*
X108772381Y-120190685D01*
X108772381Y-120095447D01*
X108724762Y-119952590D01*
X108629524Y-119857352D01*
X108534286Y-119809733D01*
X108343810Y-119762114D01*
X108200953Y-119762114D01*
X108010477Y-119809733D01*
X107915239Y-119857352D01*
X107820001Y-119952590D01*
X107772381Y-120095447D01*
X107772381Y-120190685D01*
X107820001Y-120333542D01*
X107867620Y-120381161D01*
X107867620Y-120762114D02*
X107820001Y-120809733D01*
X107772381Y-120904971D01*
X107772381Y-121143066D01*
X107820001Y-121238304D01*
X107867620Y-121285923D01*
X107962858Y-121333542D01*
X108058096Y-121333542D01*
X108200953Y-121285923D01*
X108772381Y-120714495D01*
X108772381Y-121333542D01*
X108772381Y-122285923D02*
X108772381Y-121714495D01*
X108772381Y-122000209D02*
X107772381Y-122000209D01*
X107915239Y-121904971D01*
X108010477Y-121809733D01*
X108058096Y-121714495D01*
X67375143Y-132446161D02*
X67422762Y-132398542D01*
X67470381Y-132255685D01*
X67470381Y-132160447D01*
X67422762Y-132017590D01*
X67327524Y-131922352D01*
X67232286Y-131874733D01*
X67041810Y-131827114D01*
X66898953Y-131827114D01*
X66708477Y-131874733D01*
X66613239Y-131922352D01*
X66518001Y-132017590D01*
X66470381Y-132160447D01*
X66470381Y-132255685D01*
X66518001Y-132398542D01*
X66565620Y-132446161D01*
X66565620Y-132827114D02*
X66518001Y-132874733D01*
X66470381Y-132969971D01*
X66470381Y-133208066D01*
X66518001Y-133303304D01*
X66565620Y-133350923D01*
X66660858Y-133398542D01*
X66756096Y-133398542D01*
X66898953Y-133350923D01*
X67470381Y-132779495D01*
X67470381Y-133398542D01*
X66565620Y-133779495D02*
X66518001Y-133827114D01*
X66470381Y-133922352D01*
X66470381Y-134160447D01*
X66518001Y-134255685D01*
X66565620Y-134303304D01*
X66660858Y-134350923D01*
X66756096Y-134350923D01*
X66898953Y-134303304D01*
X67470381Y-133731876D01*
X67470381Y-134350923D01*
X65343143Y-121905161D02*
X65390762Y-121857542D01*
X65438381Y-121714685D01*
X65438381Y-121619447D01*
X65390762Y-121476590D01*
X65295524Y-121381352D01*
X65200286Y-121333733D01*
X65009810Y-121286114D01*
X64866953Y-121286114D01*
X64676477Y-121333733D01*
X64581239Y-121381352D01*
X64486001Y-121476590D01*
X64438381Y-121619447D01*
X64438381Y-121714685D01*
X64486001Y-121857542D01*
X64533620Y-121905161D01*
X64533620Y-122286114D02*
X64486001Y-122333733D01*
X64438381Y-122428971D01*
X64438381Y-122667066D01*
X64486001Y-122762304D01*
X64533620Y-122809923D01*
X64628858Y-122857542D01*
X64724096Y-122857542D01*
X64866953Y-122809923D01*
X65438381Y-122238495D01*
X65438381Y-122857542D01*
X64438381Y-123190876D02*
X64438381Y-123809923D01*
X64819334Y-123476590D01*
X64819334Y-123619447D01*
X64866953Y-123714685D01*
X64914572Y-123762304D01*
X65009810Y-123809923D01*
X65247905Y-123809923D01*
X65343143Y-123762304D01*
X65390762Y-123714685D01*
X65438381Y-123619447D01*
X65438381Y-123333733D01*
X65390762Y-123238495D01*
X65343143Y-123190876D01*
X75112082Y-132163176D02*
X75112082Y-132230520D01*
X75179426Y-132365207D01*
X75246769Y-132432550D01*
X75381456Y-132499894D01*
X75516143Y-132499894D01*
X75617158Y-132466222D01*
X75785517Y-132365207D01*
X75886532Y-132264192D01*
X75987548Y-132095833D01*
X76021219Y-131994818D01*
X76021219Y-131860131D01*
X75953876Y-131725444D01*
X75886532Y-131658100D01*
X75751845Y-131590757D01*
X75684502Y-131590757D01*
X75415128Y-131321382D02*
X75415128Y-131254039D01*
X75381456Y-131153024D01*
X75213097Y-130984665D01*
X75112082Y-130950993D01*
X75044739Y-130950993D01*
X74943723Y-130984665D01*
X74876380Y-131052008D01*
X74809036Y-131186695D01*
X74809036Y-131994818D01*
X74371303Y-131557085D01*
X74236616Y-130479589D02*
X73765212Y-130950993D01*
X74674349Y-130378573D02*
X74337632Y-131052008D01*
X73899899Y-130614276D01*
X73598096Y-132779400D02*
X73598096Y-131779400D01*
X73360001Y-131779400D01*
X73217143Y-131827020D01*
X73121905Y-131922258D01*
X73074286Y-132017496D01*
X73026667Y-132207972D01*
X73026667Y-132350829D01*
X73074286Y-132541305D01*
X73121905Y-132636543D01*
X73217143Y-132731781D01*
X73360001Y-132779400D01*
X73598096Y-132779400D01*
X72693334Y-131779400D02*
X72074286Y-131779400D01*
X72407620Y-132160353D01*
X72264762Y-132160353D01*
X72169524Y-132207972D01*
X72121905Y-132255591D01*
X72074286Y-132350829D01*
X72074286Y-132588924D01*
X72121905Y-132684162D01*
X72169524Y-132731781D01*
X72264762Y-132779400D01*
X72550477Y-132779400D01*
X72645715Y-132731781D01*
X72693334Y-132684162D01*
X101030096Y-135700399D02*
X101030096Y-134700399D01*
X100792001Y-134700399D01*
X100649143Y-134748019D01*
X100553905Y-134843257D01*
X100506286Y-134938495D01*
X100458667Y-135128971D01*
X100458667Y-135271828D01*
X100506286Y-135462304D01*
X100553905Y-135557542D01*
X100649143Y-135652780D01*
X100792001Y-135700399D01*
X101030096Y-135700399D01*
X99553905Y-134700399D02*
X100030096Y-134700399D01*
X100077715Y-135176590D01*
X100030096Y-135128971D01*
X99934858Y-135081352D01*
X99696762Y-135081352D01*
X99601524Y-135128971D01*
X99553905Y-135176590D01*
X99506286Y-135271828D01*
X99506286Y-135509923D01*
X99553905Y-135605161D01*
X99601524Y-135652780D01*
X99696762Y-135700399D01*
X99934858Y-135700399D01*
X100030096Y-135652780D01*
X100077715Y-135605161D01*
X68486381Y-132477923D02*
X67486381Y-132477923D01*
X67486381Y-132716019D01*
X67534001Y-132858876D01*
X67629239Y-132954114D01*
X67724477Y-133001733D01*
X67914953Y-133049352D01*
X68057810Y-133049352D01*
X68248286Y-133001733D01*
X68343524Y-132954114D01*
X68438762Y-132858876D01*
X68486381Y-132716019D01*
X68486381Y-132477923D01*
X67486381Y-133906495D02*
X67486381Y-133716019D01*
X67534001Y-133620780D01*
X67581620Y-133573161D01*
X67724477Y-133477923D01*
X67914953Y-133430304D01*
X68295905Y-133430304D01*
X68391143Y-133477923D01*
X68438762Y-133525542D01*
X68486381Y-133620780D01*
X68486381Y-133811257D01*
X68438762Y-133906495D01*
X68391143Y-133954114D01*
X68295905Y-134001733D01*
X68057810Y-134001733D01*
X67962572Y-133954114D01*
X67914953Y-133906495D01*
X67867334Y-133811257D01*
X67867334Y-133620780D01*
X67914953Y-133525542D01*
X67962572Y-133477923D01*
X68057810Y-133430304D01*
X54230667Y-131890399D02*
X54564001Y-131414209D01*
X54802096Y-131890399D02*
X54802096Y-130890399D01*
X54421143Y-130890399D01*
X54325905Y-130938019D01*
X54278286Y-130985638D01*
X54230667Y-131080876D01*
X54230667Y-131223733D01*
X54278286Y-131318971D01*
X54325905Y-131366590D01*
X54421143Y-131414209D01*
X54802096Y-131414209D01*
X53849715Y-130985638D02*
X53802096Y-130938019D01*
X53706858Y-130890399D01*
X53468762Y-130890399D01*
X53373524Y-130938019D01*
X53325905Y-130985638D01*
X53278286Y-131080876D01*
X53278286Y-131176114D01*
X53325905Y-131318971D01*
X53897334Y-131890399D01*
X53278286Y-131890399D01*
X77598667Y-123862399D02*
X77932001Y-123386209D01*
X78170096Y-123862399D02*
X78170096Y-122862399D01*
X77789143Y-122862399D01*
X77693905Y-122910019D01*
X77646286Y-122957638D01*
X77598667Y-123052876D01*
X77598667Y-123195733D01*
X77646286Y-123290971D01*
X77693905Y-123338590D01*
X77789143Y-123386209D01*
X78170096Y-123386209D01*
X76741524Y-123195733D02*
X76741524Y-123862399D01*
X76979620Y-122814780D02*
X77217715Y-123529066D01*
X76598667Y-123529066D01*
X99823667Y-133160399D02*
X100157001Y-132684209D01*
X100395096Y-133160399D02*
X100395096Y-132160399D01*
X100014143Y-132160399D01*
X99918905Y-132208019D01*
X99871286Y-132255638D01*
X99823667Y-132350876D01*
X99823667Y-132493733D01*
X99871286Y-132588971D01*
X99918905Y-132636590D01*
X100014143Y-132684209D01*
X100395096Y-132684209D01*
X98966524Y-132160399D02*
X99157001Y-132160399D01*
X99252239Y-132208019D01*
X99299858Y-132255638D01*
X99395096Y-132398495D01*
X99442715Y-132588971D01*
X99442715Y-132969923D01*
X99395096Y-133065161D01*
X99347477Y-133112780D01*
X99252239Y-133160399D01*
X99061762Y-133160399D01*
X98966524Y-133112780D01*
X98918905Y-133065161D01*
X98871286Y-132969923D01*
X98871286Y-132731828D01*
X98918905Y-132636590D01*
X98966524Y-132588971D01*
X99061762Y-132541352D01*
X99252239Y-132541352D01*
X99347477Y-132588971D01*
X99395096Y-132636590D01*
X99442715Y-132731828D01*
X108491381Y-131271352D02*
X108015191Y-130938019D01*
X108491381Y-130699923D02*
X107491381Y-130699923D01*
X107491381Y-131080876D01*
X107539001Y-131176114D01*
X107586620Y-131223733D01*
X107681858Y-131271352D01*
X107824715Y-131271352D01*
X107919953Y-131223733D01*
X107967572Y-131176114D01*
X108015191Y-131080876D01*
X108015191Y-130699923D01*
X107491381Y-131604685D02*
X107491381Y-132271352D01*
X108491381Y-131842780D01*
X106173667Y-125794399D02*
X106507001Y-125318209D01*
X106745096Y-125794399D02*
X106745096Y-124794399D01*
X106364143Y-124794399D01*
X106268905Y-124842019D01*
X106221286Y-124889638D01*
X106173667Y-124984876D01*
X106173667Y-125127733D01*
X106221286Y-125222971D01*
X106268905Y-125270590D01*
X106364143Y-125318209D01*
X106745096Y-125318209D01*
X105602239Y-125222971D02*
X105697477Y-125175352D01*
X105745096Y-125127733D01*
X105792715Y-125032495D01*
X105792715Y-124984876D01*
X105745096Y-124889638D01*
X105697477Y-124842019D01*
X105602239Y-124794399D01*
X105411762Y-124794399D01*
X105316524Y-124842019D01*
X105268905Y-124889638D01*
X105221286Y-124984876D01*
X105221286Y-125032495D01*
X105268905Y-125127733D01*
X105316524Y-125175352D01*
X105411762Y-125222971D01*
X105602239Y-125222971D01*
X105697477Y-125270590D01*
X105745096Y-125318209D01*
X105792715Y-125413447D01*
X105792715Y-125603923D01*
X105745096Y-125699161D01*
X105697477Y-125746780D01*
X105602239Y-125794399D01*
X105411762Y-125794399D01*
X105316524Y-125746780D01*
X105268905Y-125699161D01*
X105221286Y-125603923D01*
X105221286Y-125413447D01*
X105268905Y-125318209D01*
X105316524Y-125270590D01*
X105411762Y-125222971D01*
X108491381Y-133176352D02*
X108015191Y-132843019D01*
X108491381Y-132604923D02*
X107491381Y-132604923D01*
X107491381Y-132985876D01*
X107539001Y-133081114D01*
X107586620Y-133128733D01*
X107681858Y-133176352D01*
X107824715Y-133176352D01*
X107919953Y-133128733D01*
X107967572Y-133081114D01*
X108015191Y-132985876D01*
X108015191Y-132604923D01*
X108491381Y-133652542D02*
X108491381Y-133843019D01*
X108443762Y-133938257D01*
X108396143Y-133985876D01*
X108253286Y-134081114D01*
X108062810Y-134128733D01*
X107681858Y-134128733D01*
X107586620Y-134081114D01*
X107539001Y-134033495D01*
X107491381Y-133938257D01*
X107491381Y-133747780D01*
X107539001Y-133652542D01*
X107586620Y-133604923D01*
X107681858Y-133557304D01*
X107919953Y-133557304D01*
X108015191Y-133604923D01*
X108062810Y-133652542D01*
X108110429Y-133747780D01*
X108110429Y-133938257D01*
X108062810Y-134033495D01*
X108015191Y-134081114D01*
X107919953Y-134128733D01*
X109824858Y-128080399D02*
X110158191Y-127604209D01*
X110396286Y-128080399D02*
X110396286Y-127080399D01*
X110015334Y-127080399D01*
X109920096Y-127128019D01*
X109872477Y-127175638D01*
X109824858Y-127270876D01*
X109824858Y-127413733D01*
X109872477Y-127508971D01*
X109920096Y-127556590D01*
X110015334Y-127604209D01*
X110396286Y-127604209D01*
X108872477Y-128080399D02*
X109443905Y-128080399D01*
X109158191Y-128080399D02*
X109158191Y-127080399D01*
X109253429Y-127223257D01*
X109348667Y-127318495D01*
X109443905Y-127366114D01*
X108253429Y-127080399D02*
X108158191Y-127080399D01*
X108062953Y-127128019D01*
X108015334Y-127175638D01*
X107967715Y-127270876D01*
X107920096Y-127461352D01*
X107920096Y-127699447D01*
X107967715Y-127889923D01*
X108015334Y-127985161D01*
X108062953Y-128032780D01*
X108158191Y-128080399D01*
X108253429Y-128080399D01*
X108348667Y-128032780D01*
X108396286Y-127985161D01*
X108443905Y-127889923D01*
X108491524Y-127699447D01*
X108491524Y-127461352D01*
X108443905Y-127270876D01*
X108396286Y-127175638D01*
X108348667Y-127128019D01*
X108253429Y-127080399D01*
X66200381Y-132446162D02*
X65724191Y-132112829D01*
X66200381Y-131874734D02*
X65200381Y-131874734D01*
X65200381Y-132255686D01*
X65248001Y-132350924D01*
X65295620Y-132398543D01*
X65390858Y-132446162D01*
X65533715Y-132446162D01*
X65628953Y-132398543D01*
X65676572Y-132350924D01*
X65724191Y-132255686D01*
X65724191Y-131874734D01*
X66200381Y-133398543D02*
X66200381Y-132827115D01*
X66200381Y-133112829D02*
X65200381Y-133112829D01*
X65343239Y-133017591D01*
X65438477Y-132922353D01*
X65486096Y-132827115D01*
X65295620Y-133779496D02*
X65248001Y-133827115D01*
X65200381Y-133922353D01*
X65200381Y-134160448D01*
X65248001Y-134255686D01*
X65295620Y-134303305D01*
X65390858Y-134350924D01*
X65486096Y-134350924D01*
X65628953Y-134303305D01*
X66200381Y-133731877D01*
X66200381Y-134350924D01*
X63220451Y-122413331D02*
X63119436Y-121840912D01*
X63624512Y-122009270D02*
X62917405Y-121302164D01*
X62648031Y-121571538D01*
X62614359Y-121672553D01*
X62614359Y-121739896D01*
X62648031Y-121840912D01*
X62749046Y-121941927D01*
X62850062Y-121975599D01*
X62917405Y-121975599D01*
X63018420Y-121941927D01*
X63287794Y-121672553D01*
X62547016Y-123086767D02*
X62951077Y-122682706D01*
X62749046Y-122884736D02*
X62041939Y-122177629D01*
X62210298Y-122211301D01*
X62344985Y-122211301D01*
X62446001Y-122177629D01*
X61604207Y-122615362D02*
X61166474Y-123053095D01*
X61671550Y-123086767D01*
X61570535Y-123187782D01*
X61536863Y-123288797D01*
X61536863Y-123356141D01*
X61570535Y-123457156D01*
X61738894Y-123625515D01*
X61839909Y-123659186D01*
X61907252Y-123659186D01*
X62008268Y-123625515D01*
X62210298Y-123423484D01*
X62243970Y-123322469D01*
X62243970Y-123255125D01*
X77947858Y-126810399D02*
X78281191Y-126334209D01*
X78519286Y-126810399D02*
X78519286Y-125810399D01*
X78138334Y-125810399D01*
X78043096Y-125858019D01*
X77995477Y-125905638D01*
X77947858Y-126000876D01*
X77947858Y-126143733D01*
X77995477Y-126238971D01*
X78043096Y-126286590D01*
X78138334Y-126334209D01*
X78519286Y-126334209D01*
X76995477Y-126810399D02*
X77566905Y-126810399D01*
X77281191Y-126810399D02*
X77281191Y-125810399D01*
X77376429Y-125953257D01*
X77471667Y-126048495D01*
X77566905Y-126096114D01*
X76138334Y-126143733D02*
X76138334Y-126810399D01*
X76376429Y-125762780D02*
X76614524Y-126477066D01*
X75995477Y-126477066D01*
X77947857Y-128334399D02*
X78281190Y-127858209D01*
X78519285Y-128334399D02*
X78519285Y-127334399D01*
X78138333Y-127334399D01*
X78043095Y-127382019D01*
X77995476Y-127429638D01*
X77947857Y-127524876D01*
X77947857Y-127667733D01*
X77995476Y-127762971D01*
X78043095Y-127810590D01*
X78138333Y-127858209D01*
X78519285Y-127858209D01*
X76995476Y-128334399D02*
X77566904Y-128334399D01*
X77281190Y-128334399D02*
X77281190Y-127334399D01*
X77376428Y-127477257D01*
X77471666Y-127572495D01*
X77566904Y-127620114D01*
X76090714Y-127334399D02*
X76566904Y-127334399D01*
X76614523Y-127810590D01*
X76566904Y-127762971D01*
X76471666Y-127715352D01*
X76233571Y-127715352D01*
X76138333Y-127762971D01*
X76090714Y-127810590D01*
X76043095Y-127905828D01*
X76043095Y-128143923D01*
X76090714Y-128239161D01*
X76138333Y-128286780D01*
X76233571Y-128334399D01*
X76471666Y-128334399D01*
X76566904Y-128286780D01*
X76614523Y-128239161D01*
X70708858Y-120968399D02*
X71042191Y-120492209D01*
X71280286Y-120968399D02*
X71280286Y-119968399D01*
X70899334Y-119968399D01*
X70804096Y-120016019D01*
X70756477Y-120063638D01*
X70708858Y-120158876D01*
X70708858Y-120301733D01*
X70756477Y-120396971D01*
X70804096Y-120444590D01*
X70899334Y-120492209D01*
X71280286Y-120492209D01*
X69756477Y-120968399D02*
X70327905Y-120968399D01*
X70042191Y-120968399D02*
X70042191Y-119968399D01*
X70137429Y-120111257D01*
X70232667Y-120206495D01*
X70327905Y-120254114D01*
X68899334Y-119968399D02*
X69089810Y-119968399D01*
X69185048Y-120016019D01*
X69232667Y-120063638D01*
X69327905Y-120206495D01*
X69375524Y-120396971D01*
X69375524Y-120777923D01*
X69327905Y-120873161D01*
X69280286Y-120920780D01*
X69185048Y-120968399D01*
X68994572Y-120968399D01*
X68899334Y-120920780D01*
X68851715Y-120873161D01*
X68804096Y-120777923D01*
X68804096Y-120539828D01*
X68851715Y-120444590D01*
X68899334Y-120396971D01*
X68994572Y-120349352D01*
X69185048Y-120349352D01*
X69280286Y-120396971D01*
X69327905Y-120444590D01*
X69375524Y-120539828D01*
X77884381Y-121143161D02*
X77408191Y-120809828D01*
X77884381Y-120571733D02*
X76884381Y-120571733D01*
X76884381Y-120952685D01*
X76932001Y-121047923D01*
X76979620Y-121095542D01*
X77074858Y-121143161D01*
X77217715Y-121143161D01*
X77312953Y-121095542D01*
X77360572Y-121047923D01*
X77408191Y-120952685D01*
X77408191Y-120571733D01*
X77884381Y-122095542D02*
X77884381Y-121524114D01*
X77884381Y-121809828D02*
X76884381Y-121809828D01*
X77027239Y-121714590D01*
X77122477Y-121619352D01*
X77170096Y-121524114D01*
X76884381Y-122428876D02*
X76884381Y-123095542D01*
X77884381Y-122666971D01*
X75534858Y-124678399D02*
X75868191Y-124202209D01*
X76106286Y-124678399D02*
X76106286Y-123678399D01*
X75725334Y-123678399D01*
X75630096Y-123726019D01*
X75582477Y-123773638D01*
X75534858Y-123868876D01*
X75534858Y-124011733D01*
X75582477Y-124106971D01*
X75630096Y-124154590D01*
X75725334Y-124202209D01*
X76106286Y-124202209D01*
X74582477Y-124678399D02*
X75153905Y-124678399D01*
X74868191Y-124678399D02*
X74868191Y-123678399D01*
X74963429Y-123821257D01*
X75058667Y-123916495D01*
X75153905Y-123964114D01*
X74011048Y-124106971D02*
X74106286Y-124059352D01*
X74153905Y-124011733D01*
X74201524Y-123916495D01*
X74201524Y-123868876D01*
X74153905Y-123773638D01*
X74106286Y-123726019D01*
X74011048Y-123678399D01*
X73820572Y-123678399D01*
X73725334Y-123726019D01*
X73677715Y-123773638D01*
X73630096Y-123868876D01*
X73630096Y-123916495D01*
X73677715Y-124011733D01*
X73725334Y-124059352D01*
X73820572Y-124106971D01*
X74011048Y-124106971D01*
X74106286Y-124154590D01*
X74153905Y-124202209D01*
X74201524Y-124297447D01*
X74201524Y-124487923D01*
X74153905Y-124583161D01*
X74106286Y-124630780D01*
X74011048Y-124678399D01*
X73820572Y-124678399D01*
X73725334Y-124630780D01*
X73677715Y-124583161D01*
X73630096Y-124487923D01*
X73630096Y-124297447D01*
X73677715Y-124202209D01*
X73725334Y-124154590D01*
X73820572Y-124106971D01*
X120572381Y-127374114D02*
X121381905Y-127374114D01*
X121477143Y-127421733D01*
X121524762Y-127469352D01*
X121572381Y-127564590D01*
X121572381Y-127755066D01*
X121524762Y-127850304D01*
X121477143Y-127897923D01*
X121381905Y-127945542D01*
X120572381Y-127945542D01*
X121572381Y-128945542D02*
X121572381Y-128374114D01*
X121572381Y-128659828D02*
X120572381Y-128659828D01*
X120715239Y-128564590D01*
X120810477Y-128469352D01*
X120858096Y-128374114D01*
D17*
X124148191Y-123326304D02*
X124148191Y-123612019D01*
X124648191Y-123469161D02*
X124148191Y-123469161D01*
X124600572Y-124064399D02*
X124624381Y-124040590D01*
X124648191Y-123969161D01*
X124648191Y-123921542D01*
X124624381Y-123850114D01*
X124576762Y-123802495D01*
X124529143Y-123778685D01*
X124433905Y-123754876D01*
X124362477Y-123754876D01*
X124267239Y-123778685D01*
X124219620Y-123802495D01*
X124172001Y-123850114D01*
X124148191Y-123921542D01*
X124148191Y-123969161D01*
X124172001Y-124040590D01*
X124195810Y-124064399D01*
X124505334Y-124254876D02*
X124505334Y-124492971D01*
X124648191Y-124207257D02*
X124148191Y-124373923D01*
X124648191Y-124540590D01*
X124648191Y-124707257D02*
X124148191Y-124707257D01*
X124648191Y-124992971D01*
X124148191Y-124992971D01*
X124648191Y-125492971D02*
X124648191Y-125207257D01*
X124648191Y-125350114D02*
X124148191Y-125350114D01*
X124219620Y-125302495D01*
X124267239Y-125254876D01*
X124291048Y-125207257D01*
X124148191Y-125802495D02*
X124148191Y-125850114D01*
X124172001Y-125897733D01*
X124195810Y-125921542D01*
X124243429Y-125945352D01*
X124338667Y-125969161D01*
X124457715Y-125969161D01*
X124552953Y-125945352D01*
X124600572Y-125921542D01*
X124624381Y-125897733D01*
X124648191Y-125850114D01*
X124648191Y-125802495D01*
X124624381Y-125754876D01*
X124600572Y-125731066D01*
X124552953Y-125707257D01*
X124457715Y-125683447D01*
X124338667Y-125683447D01*
X124243429Y-125707257D01*
X124195810Y-125731066D01*
X124172001Y-125754876D01*
X124148191Y-125802495D01*
X124148191Y-126421542D02*
X124148191Y-126183447D01*
X124386286Y-126159638D01*
X124362477Y-126183447D01*
X124338667Y-126231066D01*
X124338667Y-126350114D01*
X124362477Y-126397733D01*
X124386286Y-126421542D01*
X124433905Y-126445352D01*
X124552953Y-126445352D01*
X124600572Y-126421542D01*
X124624381Y-126397733D01*
X124648191Y-126350114D01*
X124648191Y-126231066D01*
X124624381Y-126183447D01*
X124600572Y-126159638D01*
X124648191Y-126921542D02*
X124648191Y-126635828D01*
X124648191Y-126778685D02*
X124148191Y-126778685D01*
X124219620Y-126731066D01*
X124267239Y-126683447D01*
X124291048Y-126635828D01*
X124172001Y-127397733D02*
X124148191Y-127350114D01*
X124148191Y-127278685D01*
X124172001Y-127207257D01*
X124219620Y-127159638D01*
X124267239Y-127135828D01*
X124362477Y-127112019D01*
X124433905Y-127112019D01*
X124529143Y-127135828D01*
X124576762Y-127159638D01*
X124624381Y-127207257D01*
X124648191Y-127278685D01*
X124648191Y-127326304D01*
X124624381Y-127397733D01*
X124600572Y-127421542D01*
X124433905Y-127421542D01*
X124433905Y-127326304D01*
X124148191Y-127564399D02*
X124648191Y-127731066D01*
X124148191Y-127897733D01*
X124648191Y-128064399D02*
X124148191Y-128064399D01*
X124148191Y-128183447D01*
X124172001Y-128254876D01*
X124219620Y-128302495D01*
X124267239Y-128326304D01*
X124362477Y-128350114D01*
X124433905Y-128350114D01*
X124529143Y-128326304D01*
X124576762Y-128302495D01*
X124624381Y-128254876D01*
X124648191Y-128183447D01*
X124648191Y-128064399D01*
X124648191Y-128850114D02*
X124410096Y-128683447D01*
X124648191Y-128564399D02*
X124148191Y-128564399D01*
X124148191Y-128754876D01*
X124172001Y-128802495D01*
X124195810Y-128826304D01*
X124243429Y-128850114D01*
X124314858Y-128850114D01*
X124362477Y-128826304D01*
X124386286Y-128802495D01*
X124410096Y-128754876D01*
X124410096Y-128564399D01*
X124695810Y-129397733D02*
X124672001Y-129350114D01*
X124624381Y-129302495D01*
X124552953Y-129231066D01*
X124529143Y-129183447D01*
X124529143Y-129135828D01*
X124648191Y-129159638D02*
X124624381Y-129112019D01*
X124576762Y-129064399D01*
X124481524Y-129040590D01*
X124314858Y-129040590D01*
X124219620Y-129064399D01*
X124172001Y-129112019D01*
X124148191Y-129159638D01*
X124148191Y-129254876D01*
X124172001Y-129302495D01*
X124219620Y-129350114D01*
X124314858Y-129373923D01*
X124481524Y-129373923D01*
X124576762Y-129350114D01*
X124624381Y-129302495D01*
X124648191Y-129254876D01*
X124648191Y-129159638D01*
X124648191Y-129850114D02*
X124648191Y-129564399D01*
X124648191Y-129707257D02*
X124148191Y-129707257D01*
X124219620Y-129659638D01*
X124267239Y-129612019D01*
X124291048Y-129564399D01*
D10*
X81747381Y-129152114D02*
X82556905Y-129152114D01*
X82652143Y-129199733D01*
X82699762Y-129247352D01*
X82747381Y-129342590D01*
X82747381Y-129533066D01*
X82699762Y-129628304D01*
X82652143Y-129675923D01*
X82556905Y-129723542D01*
X81747381Y-129723542D01*
X81747381Y-130104495D02*
X81747381Y-130723542D01*
X82128334Y-130390209D01*
X82128334Y-130533066D01*
X82175953Y-130628304D01*
X82223572Y-130675923D01*
X82318810Y-130723542D01*
X82556905Y-130723542D01*
X82652143Y-130675923D01*
X82699762Y-130628304D01*
X82747381Y-130533066D01*
X82747381Y-130247352D01*
X82699762Y-130152114D01*
X82652143Y-130104495D01*
X102958905Y-126445399D02*
X102958905Y-127254923D01*
X102911286Y-127350161D01*
X102863667Y-127397780D01*
X102768429Y-127445399D01*
X102577953Y-127445399D01*
X102482715Y-127397780D01*
X102435096Y-127350161D01*
X102387477Y-127254923D01*
X102387477Y-126445399D01*
X101482715Y-126778733D02*
X101482715Y-127445399D01*
X101720810Y-126397780D02*
X101958905Y-127112066D01*
X101339858Y-127112066D01*
X63015381Y-125596114D02*
X63824905Y-125596114D01*
X63920143Y-125643733D01*
X63967762Y-125691352D01*
X64015381Y-125786590D01*
X64015381Y-125977066D01*
X63967762Y-126072304D01*
X63920143Y-126119923D01*
X63824905Y-126167542D01*
X63015381Y-126167542D01*
X63015381Y-126548495D02*
X63015381Y-127215161D01*
X64015381Y-126786590D01*
X73178774Y-124453815D02*
X73988298Y-124453815D01*
X74083536Y-124501434D01*
X74131155Y-124549053D01*
X74178774Y-124644291D01*
X74178774Y-124834767D01*
X74131155Y-124930005D01*
X74083536Y-124977624D01*
X73988298Y-125025243D01*
X73178774Y-125025243D01*
X73607346Y-125644291D02*
X73559727Y-125549053D01*
X73512108Y-125501434D01*
X73416870Y-125453815D01*
X73369251Y-125453815D01*
X73274013Y-125501434D01*
X73226394Y-125549053D01*
X73178774Y-125644291D01*
X73178774Y-125834767D01*
X73226394Y-125930005D01*
X73274013Y-125977624D01*
X73369251Y-126025243D01*
X73416870Y-126025243D01*
X73512108Y-125977624D01*
X73559727Y-125930005D01*
X73607346Y-125834767D01*
X73607346Y-125644291D01*
X73654965Y-125549053D01*
X73702584Y-125501434D01*
X73797822Y-125453815D01*
X73988298Y-125453815D01*
X74083536Y-125501434D01*
X74131155Y-125549053D01*
X74178774Y-125644291D01*
X74178774Y-125834767D01*
X74131155Y-125930005D01*
X74083536Y-125977624D01*
X73988298Y-126025243D01*
X73797822Y-126025243D01*
X73702584Y-125977624D01*
X73654965Y-125930005D01*
X73607346Y-125834767D01*
X103538381Y-132287352D02*
X103062191Y-131954019D01*
X103538381Y-131715923D02*
X102538381Y-131715923D01*
X102538381Y-132096876D01*
X102586001Y-132192114D01*
X102633620Y-132239733D01*
X102728858Y-132287352D01*
X102871715Y-132287352D01*
X102966953Y-132239733D01*
X103014572Y-132192114D01*
X103062191Y-132096876D01*
X103062191Y-131715923D01*
X102538381Y-133192114D02*
X102538381Y-132715923D01*
X103014572Y-132668304D01*
X102966953Y-132715923D01*
X102919334Y-132811161D01*
X102919334Y-133049257D01*
X102966953Y-133144495D01*
X103014572Y-133192114D01*
X103109810Y-133239733D01*
X103347905Y-133239733D01*
X103443143Y-133192114D01*
X103490762Y-133144495D01*
X103538381Y-133049257D01*
X103538381Y-132811161D01*
X103490762Y-132715923D01*
X103443143Y-132668304D01*
X73502858Y-130874399D02*
X73836191Y-130398209D01*
X74074286Y-130874399D02*
X74074286Y-129874399D01*
X73693334Y-129874399D01*
X73598096Y-129922019D01*
X73550477Y-129969638D01*
X73502858Y-130064876D01*
X73502858Y-130207733D01*
X73550477Y-130302971D01*
X73598096Y-130350590D01*
X73693334Y-130398209D01*
X74074286Y-130398209D01*
X73121905Y-129969638D02*
X73074286Y-129922019D01*
X72979048Y-129874399D01*
X72740953Y-129874399D01*
X72645715Y-129922019D01*
X72598096Y-129969638D01*
X72550477Y-130064876D01*
X72550477Y-130160114D01*
X72598096Y-130302971D01*
X73169524Y-130874399D01*
X72550477Y-130874399D01*
X71931429Y-129874399D02*
X71836191Y-129874399D01*
X71740953Y-129922019D01*
X71693334Y-129969638D01*
X71645715Y-130064876D01*
X71598096Y-130255352D01*
X71598096Y-130493447D01*
X71645715Y-130683923D01*
X71693334Y-130779161D01*
X71740953Y-130826780D01*
X71836191Y-130874399D01*
X71931429Y-130874399D01*
X72026667Y-130826780D01*
X72074286Y-130779161D01*
X72121905Y-130683923D01*
X72169524Y-130493447D01*
X72169524Y-130255352D01*
X72121905Y-130064876D01*
X72074286Y-129969638D01*
X72026667Y-129922019D01*
X71931429Y-129874399D01*
X74137857Y-129604399D02*
X74471190Y-129128209D01*
X74709285Y-129604399D02*
X74709285Y-128604399D01*
X74328333Y-128604399D01*
X74233095Y-128652019D01*
X74185476Y-128699638D01*
X74137857Y-128794876D01*
X74137857Y-128937733D01*
X74185476Y-129032971D01*
X74233095Y-129080590D01*
X74328333Y-129128209D01*
X74709285Y-129128209D01*
X73756904Y-128699638D02*
X73709285Y-128652019D01*
X73614047Y-128604399D01*
X73375952Y-128604399D01*
X73280714Y-128652019D01*
X73233095Y-128699638D01*
X73185476Y-128794876D01*
X73185476Y-128890114D01*
X73233095Y-129032971D01*
X73804523Y-129604399D01*
X73185476Y-129604399D01*
X72233095Y-129604399D02*
X72804523Y-129604399D01*
X72518809Y-129604399D02*
X72518809Y-128604399D01*
X72614047Y-128747257D01*
X72709285Y-128842495D01*
X72804523Y-128890114D01*
X70010381Y-121905161D02*
X69534191Y-121571828D01*
X70010381Y-121333733D02*
X69010381Y-121333733D01*
X69010381Y-121714685D01*
X69058001Y-121809923D01*
X69105620Y-121857542D01*
X69200858Y-121905161D01*
X69343715Y-121905161D01*
X69438953Y-121857542D01*
X69486572Y-121809923D01*
X69534191Y-121714685D01*
X69534191Y-121333733D01*
X69105620Y-122286114D02*
X69058001Y-122333733D01*
X69010381Y-122428971D01*
X69010381Y-122667066D01*
X69058001Y-122762304D01*
X69105620Y-122809923D01*
X69200858Y-122857542D01*
X69296096Y-122857542D01*
X69438953Y-122809923D01*
X70010381Y-122238495D01*
X70010381Y-122857542D01*
X69105620Y-123238495D02*
X69058001Y-123286114D01*
X69010381Y-123381352D01*
X69010381Y-123619447D01*
X69058001Y-123714685D01*
X69105620Y-123762304D01*
X69200858Y-123809923D01*
X69296096Y-123809923D01*
X69438953Y-123762304D01*
X70010381Y-123190876D01*
X70010381Y-123809923D01*
D18*
X124900054Y-121954450D02*
X125615178Y-121954450D01*
X125758202Y-121906775D01*
X125853552Y-121811425D01*
X125901227Y-121668401D01*
X125901227Y-121573051D01*
X125901227Y-122955623D02*
X125901227Y-122383524D01*
X125901227Y-122669574D02*
X124900054Y-122669574D01*
X125043079Y-122574224D01*
X125138429Y-122478874D01*
X125186104Y-122383524D01*
X124900054Y-123575397D02*
X124900054Y-123670747D01*
X124947729Y-123766097D01*
X124995404Y-123813771D01*
X125090754Y-123861446D01*
X125281453Y-123909121D01*
X125519828Y-123909121D01*
X125710527Y-123861446D01*
X125805877Y-123813771D01*
X125853552Y-123766097D01*
X125901227Y-123670747D01*
X125901227Y-123575397D01*
X125853552Y-123480047D01*
X125805877Y-123432372D01*
X125710527Y-123384697D01*
X125519828Y-123337022D01*
X125281453Y-123337022D01*
X125090754Y-123384697D01*
X124995404Y-123432372D01*
X124947729Y-123480047D01*
X124900054Y-123575397D01*
X124900054Y-130051199D02*
X125615178Y-130051199D01*
X125758202Y-130003524D01*
X125853552Y-129908174D01*
X125901227Y-129765150D01*
X125901227Y-129669800D01*
X124900054Y-130432598D02*
X124900054Y-131052372D01*
X125281453Y-130718648D01*
X125281453Y-130861673D01*
X125329128Y-130957022D01*
X125376803Y-131004697D01*
X125472153Y-131052372D01*
X125710527Y-131052372D01*
X125805877Y-131004697D01*
X125853552Y-130957022D01*
X125901227Y-130861673D01*
X125901227Y-130575623D01*
X125853552Y-130480273D01*
X125805877Y-130432598D01*
D19*
X112296524Y-123848257D02*
X111026524Y-123848257D01*
X112175572Y-125178733D02*
X112236048Y-125118257D01*
X112296524Y-124936828D01*
X112296524Y-124815876D01*
X112236048Y-124634447D01*
X112115096Y-124513495D01*
X111994143Y-124453019D01*
X111752239Y-124392542D01*
X111570810Y-124392542D01*
X111328905Y-124453019D01*
X111207953Y-124513495D01*
X111087001Y-124634447D01*
X111026524Y-124815876D01*
X111026524Y-124936828D01*
X111087001Y-125118257D01*
X111147477Y-125178733D01*
X112296524Y-126388257D02*
X112296524Y-125662542D01*
X112296524Y-126025399D02*
X111026524Y-126025399D01*
X111207953Y-125904447D01*
X111328905Y-125783495D01*
X111389381Y-125662542D01*
D10*
X104101905Y-118130399D02*
X104101905Y-118939923D01*
X104054286Y-119035161D01*
X104006667Y-119082780D01*
X103911429Y-119130399D01*
X103720953Y-119130399D01*
X103625715Y-119082780D01*
X103578096Y-119035161D01*
X103530477Y-118939923D01*
X103530477Y-118130399D01*
X102578096Y-118130399D02*
X103054286Y-118130399D01*
X103101905Y-118606590D01*
X103054286Y-118558971D01*
X102959048Y-118511352D01*
X102720953Y-118511352D01*
X102625715Y-118558971D01*
X102578096Y-118606590D01*
X102530477Y-118701828D01*
X102530477Y-118939923D01*
X102578096Y-119035161D01*
X102625715Y-119082780D01*
X102720953Y-119130399D01*
X102959048Y-119130399D01*
X103054286Y-119082780D01*
X103101905Y-119035161D01*
X122493143Y-101855343D02*
X122540762Y-101807724D01*
X122588381Y-101664867D01*
X122588381Y-101569629D01*
X122540762Y-101426771D01*
X122445524Y-101331533D01*
X122350286Y-101283914D01*
X122159810Y-101236295D01*
X122016953Y-101236295D01*
X121826477Y-101283914D01*
X121731239Y-101331533D01*
X121636001Y-101426771D01*
X121588381Y-101569629D01*
X121588381Y-101664867D01*
X121636001Y-101807724D01*
X121683620Y-101855343D01*
X122588381Y-102807724D02*
X122588381Y-102236295D01*
X122588381Y-102522010D02*
X121588381Y-102522010D01*
X121731239Y-102426771D01*
X121826477Y-102331533D01*
X121874096Y-102236295D01*
X121069143Y-91695343D02*
X121116762Y-91647724D01*
X121164381Y-91504867D01*
X121164381Y-91409629D01*
X121116762Y-91266771D01*
X121021524Y-91171533D01*
X120926286Y-91123914D01*
X120735810Y-91076295D01*
X120592953Y-91076295D01*
X120402477Y-91123914D01*
X120307239Y-91171533D01*
X120212001Y-91266771D01*
X120164381Y-91409629D01*
X120164381Y-91504867D01*
X120212001Y-91647724D01*
X120259620Y-91695343D01*
X120259620Y-92076295D02*
X120212001Y-92123914D01*
X120164381Y-92219152D01*
X120164381Y-92457248D01*
X120212001Y-92552486D01*
X120259620Y-92600105D01*
X120354858Y-92647724D01*
X120450096Y-92647724D01*
X120592953Y-92600105D01*
X121164381Y-92028676D01*
X121164381Y-92647724D01*
X77090667Y-100193152D02*
X77138286Y-100240771D01*
X77281143Y-100288390D01*
X77376381Y-100288390D01*
X77519239Y-100240771D01*
X77614477Y-100145533D01*
X77662096Y-100050295D01*
X77709715Y-99859819D01*
X77709715Y-99716962D01*
X77662096Y-99526486D01*
X77614477Y-99431248D01*
X77519239Y-99336010D01*
X77376381Y-99288390D01*
X77281143Y-99288390D01*
X77138286Y-99336010D01*
X77090667Y-99383629D01*
X76519239Y-99716962D02*
X76614477Y-99669343D01*
X76662096Y-99621724D01*
X76709715Y-99526486D01*
X76709715Y-99478867D01*
X76662096Y-99383629D01*
X76614477Y-99336010D01*
X76519239Y-99288390D01*
X76328762Y-99288390D01*
X76233524Y-99336010D01*
X76185905Y-99383629D01*
X76138286Y-99478867D01*
X76138286Y-99526486D01*
X76185905Y-99621724D01*
X76233524Y-99669343D01*
X76328762Y-99716962D01*
X76519239Y-99716962D01*
X76614477Y-99764581D01*
X76662096Y-99812200D01*
X76709715Y-99907438D01*
X76709715Y-100097914D01*
X76662096Y-100193152D01*
X76614477Y-100240771D01*
X76519239Y-100288390D01*
X76328762Y-100288390D01*
X76233524Y-100240771D01*
X76185905Y-100193152D01*
X76138286Y-100097914D01*
X76138286Y-99907438D01*
X76185905Y-99812200D01*
X76233524Y-99764581D01*
X76328762Y-99716962D01*
X108296143Y-97918343D02*
X108343762Y-97870724D01*
X108391381Y-97727867D01*
X108391381Y-97632629D01*
X108343762Y-97489771D01*
X108248524Y-97394533D01*
X108153286Y-97346914D01*
X107962810Y-97299295D01*
X107819953Y-97299295D01*
X107629477Y-97346914D01*
X107534239Y-97394533D01*
X107439001Y-97489771D01*
X107391381Y-97632629D01*
X107391381Y-97727867D01*
X107439001Y-97870724D01*
X107486620Y-97918343D01*
X108391381Y-98394533D02*
X108391381Y-98585010D01*
X108343762Y-98680248D01*
X108296143Y-98727867D01*
X108153286Y-98823105D01*
X107962810Y-98870724D01*
X107581858Y-98870724D01*
X107486620Y-98823105D01*
X107439001Y-98775486D01*
X107391381Y-98680248D01*
X107391381Y-98489771D01*
X107439001Y-98394533D01*
X107486620Y-98346914D01*
X107581858Y-98299295D01*
X107819953Y-98299295D01*
X107915191Y-98346914D01*
X107962810Y-98394533D01*
X108010429Y-98489771D01*
X108010429Y-98680248D01*
X107962810Y-98775486D01*
X107915191Y-98823105D01*
X107819953Y-98870724D01*
X113349142Y-87663152D02*
X113396761Y-87615533D01*
X113444380Y-87472676D01*
X113444380Y-87377438D01*
X113396761Y-87234581D01*
X113301523Y-87139343D01*
X113206285Y-87091724D01*
X113015809Y-87044105D01*
X112872952Y-87044105D01*
X112682476Y-87091724D01*
X112587238Y-87139343D01*
X112492000Y-87234581D01*
X112444380Y-87377438D01*
X112444380Y-87472676D01*
X112492000Y-87615533D01*
X112539619Y-87663152D01*
X113444380Y-88615533D02*
X113444380Y-88044105D01*
X113444380Y-88329819D02*
X112444380Y-88329819D01*
X112587238Y-88234581D01*
X112682476Y-88139343D01*
X112730095Y-88044105D01*
X112444380Y-89234581D02*
X112444380Y-89329819D01*
X112492000Y-89425057D01*
X112539619Y-89472676D01*
X112634857Y-89520295D01*
X112825333Y-89567914D01*
X113063428Y-89567914D01*
X113253904Y-89520295D01*
X113349142Y-89472676D01*
X113396761Y-89425057D01*
X113444380Y-89329819D01*
X113444380Y-89234581D01*
X113396761Y-89139343D01*
X113349142Y-89091724D01*
X113253904Y-89044105D01*
X113063428Y-88996486D01*
X112825333Y-88996486D01*
X112634857Y-89044105D01*
X112539619Y-89091724D01*
X112492000Y-89139343D01*
X112444380Y-89234581D01*
X100426858Y-100247152D02*
X100474477Y-100294771D01*
X100617334Y-100342390D01*
X100712572Y-100342390D01*
X100855429Y-100294771D01*
X100950667Y-100199533D01*
X100998286Y-100104295D01*
X101045905Y-99913819D01*
X101045905Y-99770962D01*
X100998286Y-99580486D01*
X100950667Y-99485248D01*
X100855429Y-99390010D01*
X100712572Y-99342390D01*
X100617334Y-99342390D01*
X100474477Y-99390010D01*
X100426858Y-99437629D01*
X99474477Y-100342390D02*
X100045905Y-100342390D01*
X99760191Y-100342390D02*
X99760191Y-99342390D01*
X99855429Y-99485248D01*
X99950667Y-99580486D01*
X100045905Y-99628105D01*
X98522096Y-100342390D02*
X99093524Y-100342390D01*
X98807810Y-100342390D02*
X98807810Y-99342390D01*
X98903048Y-99485248D01*
X98998286Y-99580486D01*
X99093524Y-99628105D01*
X78651143Y-102395152D02*
X78698762Y-102347533D01*
X78746381Y-102204676D01*
X78746381Y-102109438D01*
X78698762Y-101966581D01*
X78603524Y-101871343D01*
X78508286Y-101823724D01*
X78317810Y-101776105D01*
X78174953Y-101776105D01*
X77984477Y-101823724D01*
X77889239Y-101871343D01*
X77794001Y-101966581D01*
X77746381Y-102109438D01*
X77746381Y-102204676D01*
X77794001Y-102347533D01*
X77841620Y-102395152D01*
X78746381Y-103347533D02*
X78746381Y-102776105D01*
X78746381Y-103061819D02*
X77746381Y-103061819D01*
X77889239Y-102966581D01*
X77984477Y-102871343D01*
X78032096Y-102776105D01*
X77841620Y-103728486D02*
X77794001Y-103776105D01*
X77746381Y-103871343D01*
X77746381Y-104109438D01*
X77794001Y-104204676D01*
X77841620Y-104252295D01*
X77936858Y-104299914D01*
X78032096Y-104299914D01*
X78174953Y-104252295D01*
X78746381Y-103680867D01*
X78746381Y-104299914D01*
X98394858Y-97807152D02*
X98442477Y-97854771D01*
X98585334Y-97902390D01*
X98680572Y-97902390D01*
X98823429Y-97854771D01*
X98918667Y-97759533D01*
X98966286Y-97664295D01*
X99013905Y-97473819D01*
X99013905Y-97330962D01*
X98966286Y-97140486D01*
X98918667Y-97045248D01*
X98823429Y-96950010D01*
X98680572Y-96902390D01*
X98585334Y-96902390D01*
X98442477Y-96950010D01*
X98394858Y-96997629D01*
X97442477Y-97902390D02*
X98013905Y-97902390D01*
X97728191Y-97902390D02*
X97728191Y-96902390D01*
X97823429Y-97045248D01*
X97918667Y-97140486D01*
X98013905Y-97188105D01*
X97109143Y-96902390D02*
X96490096Y-96902390D01*
X96823429Y-97283343D01*
X96680572Y-97283343D01*
X96585334Y-97330962D01*
X96537715Y-97378581D01*
X96490096Y-97473819D01*
X96490096Y-97711914D01*
X96537715Y-97807152D01*
X96585334Y-97854771D01*
X96680572Y-97902390D01*
X96966286Y-97902390D01*
X97061524Y-97854771D01*
X97109143Y-97807152D01*
X108777143Y-91981152D02*
X108824762Y-91933533D01*
X108872381Y-91790676D01*
X108872381Y-91695438D01*
X108824762Y-91552581D01*
X108729524Y-91457343D01*
X108634286Y-91409724D01*
X108443810Y-91362105D01*
X108300953Y-91362105D01*
X108110477Y-91409724D01*
X108015239Y-91457343D01*
X107920001Y-91552581D01*
X107872381Y-91695438D01*
X107872381Y-91790676D01*
X107920001Y-91933533D01*
X107967620Y-91981152D01*
X108872381Y-92933533D02*
X108872381Y-92362105D01*
X108872381Y-92647819D02*
X107872381Y-92647819D01*
X108015239Y-92552581D01*
X108110477Y-92457343D01*
X108158096Y-92362105D01*
X108205715Y-93790676D02*
X108872381Y-93790676D01*
X107824762Y-93552581D02*
X108539048Y-93314486D01*
X108539048Y-93933533D01*
X109439143Y-99347152D02*
X109486762Y-99299533D01*
X109534381Y-99156676D01*
X109534381Y-99061438D01*
X109486762Y-98918581D01*
X109391524Y-98823343D01*
X109296286Y-98775724D01*
X109105810Y-98728105D01*
X108962953Y-98728105D01*
X108772477Y-98775724D01*
X108677239Y-98823343D01*
X108582001Y-98918581D01*
X108534381Y-99061438D01*
X108534381Y-99156676D01*
X108582001Y-99299533D01*
X108629620Y-99347152D01*
X109534381Y-100299533D02*
X109534381Y-99728105D01*
X109534381Y-100013819D02*
X108534381Y-100013819D01*
X108677239Y-99918581D01*
X108772477Y-99823343D01*
X108820096Y-99728105D01*
X108534381Y-101204295D02*
X108534381Y-100728105D01*
X109010572Y-100680486D01*
X108962953Y-100728105D01*
X108915334Y-100823343D01*
X108915334Y-101061438D01*
X108962953Y-101156676D01*
X109010572Y-101204295D01*
X109105810Y-101251914D01*
X109343905Y-101251914D01*
X109439143Y-101204295D01*
X109486762Y-101156676D01*
X109534381Y-101061438D01*
X109534381Y-100823343D01*
X109486762Y-100728105D01*
X109439143Y-100680486D01*
X104744858Y-92346152D02*
X104792477Y-92393771D01*
X104935334Y-92441390D01*
X105030572Y-92441390D01*
X105173429Y-92393771D01*
X105268667Y-92298533D01*
X105316286Y-92203295D01*
X105363905Y-92012819D01*
X105363905Y-91869962D01*
X105316286Y-91679486D01*
X105268667Y-91584248D01*
X105173429Y-91489010D01*
X105030572Y-91441390D01*
X104935334Y-91441390D01*
X104792477Y-91489010D01*
X104744858Y-91536629D01*
X103792477Y-92441390D02*
X104363905Y-92441390D01*
X104078191Y-92441390D02*
X104078191Y-91441390D01*
X104173429Y-91584248D01*
X104268667Y-91679486D01*
X104363905Y-91727105D01*
X102935334Y-91441390D02*
X103125810Y-91441390D01*
X103221048Y-91489010D01*
X103268667Y-91536629D01*
X103363905Y-91679486D01*
X103411524Y-91869962D01*
X103411524Y-92250914D01*
X103363905Y-92346152D01*
X103316286Y-92393771D01*
X103221048Y-92441390D01*
X103030572Y-92441390D01*
X102935334Y-92393771D01*
X102887715Y-92346152D01*
X102840096Y-92250914D01*
X102840096Y-92012819D01*
X102887715Y-91917581D01*
X102935334Y-91869962D01*
X103030572Y-91822343D01*
X103221048Y-91822343D01*
X103316286Y-91869962D01*
X103363905Y-91917581D01*
X103411524Y-92012819D01*
X98871143Y-89441152D02*
X98918762Y-89393533D01*
X98966381Y-89250676D01*
X98966381Y-89155438D01*
X98918762Y-89012581D01*
X98823524Y-88917343D01*
X98728286Y-88869724D01*
X98537810Y-88822105D01*
X98394953Y-88822105D01*
X98204477Y-88869724D01*
X98109239Y-88917343D01*
X98014001Y-89012581D01*
X97966381Y-89155438D01*
X97966381Y-89250676D01*
X98014001Y-89393533D01*
X98061620Y-89441152D01*
X98966381Y-90393533D02*
X98966381Y-89822105D01*
X98966381Y-90107819D02*
X97966381Y-90107819D01*
X98109239Y-90012581D01*
X98204477Y-89917343D01*
X98252096Y-89822105D01*
X97966381Y-90726867D02*
X97966381Y-91393533D01*
X98966381Y-90964962D01*
X111825143Y-96553152D02*
X111872762Y-96505533D01*
X111920381Y-96362676D01*
X111920381Y-96267438D01*
X111872762Y-96124581D01*
X111777524Y-96029343D01*
X111682286Y-95981724D01*
X111491810Y-95934105D01*
X111348953Y-95934105D01*
X111158477Y-95981724D01*
X111063239Y-96029343D01*
X110968001Y-96124581D01*
X110920381Y-96267438D01*
X110920381Y-96362676D01*
X110968001Y-96505533D01*
X111015620Y-96553152D01*
X111920381Y-97505533D02*
X111920381Y-96934105D01*
X111920381Y-97219819D02*
X110920381Y-97219819D01*
X111063239Y-97124581D01*
X111158477Y-97029343D01*
X111206096Y-96934105D01*
X111348953Y-98076962D02*
X111301334Y-97981724D01*
X111253715Y-97934105D01*
X111158477Y-97886486D01*
X111110858Y-97886486D01*
X111015620Y-97934105D01*
X110968001Y-97981724D01*
X110920381Y-98076962D01*
X110920381Y-98267438D01*
X110968001Y-98362676D01*
X111015620Y-98410295D01*
X111110858Y-98457914D01*
X111158477Y-98457914D01*
X111253715Y-98410295D01*
X111301334Y-98362676D01*
X111348953Y-98267438D01*
X111348953Y-98076962D01*
X111396572Y-97981724D01*
X111444191Y-97934105D01*
X111539429Y-97886486D01*
X111729905Y-97886486D01*
X111825143Y-97934105D01*
X111872762Y-97981724D01*
X111920381Y-98076962D01*
X111920381Y-98267438D01*
X111872762Y-98362676D01*
X111825143Y-98410295D01*
X111729905Y-98457914D01*
X111539429Y-98457914D01*
X111444191Y-98410295D01*
X111396572Y-98362676D01*
X111348953Y-98267438D01*
X106491143Y-91727152D02*
X106538762Y-91679533D01*
X106586381Y-91536676D01*
X106586381Y-91441438D01*
X106538762Y-91298581D01*
X106443524Y-91203343D01*
X106348286Y-91155724D01*
X106157810Y-91108105D01*
X106014953Y-91108105D01*
X105824477Y-91155724D01*
X105729239Y-91203343D01*
X105634001Y-91298581D01*
X105586381Y-91441438D01*
X105586381Y-91536676D01*
X105634001Y-91679533D01*
X105681620Y-91727152D01*
X106586381Y-92679533D02*
X106586381Y-92108105D01*
X106586381Y-92393819D02*
X105586381Y-92393819D01*
X105729239Y-92298581D01*
X105824477Y-92203343D01*
X105872096Y-92108105D01*
X106586381Y-93155724D02*
X106586381Y-93346200D01*
X106538762Y-93441438D01*
X106491143Y-93489057D01*
X106348286Y-93584295D01*
X106157810Y-93631914D01*
X105776858Y-93631914D01*
X105681620Y-93584295D01*
X105634001Y-93536676D01*
X105586381Y-93441438D01*
X105586381Y-93250962D01*
X105634001Y-93155724D01*
X105681620Y-93108105D01*
X105776858Y-93060486D01*
X106014953Y-93060486D01*
X106110191Y-93108105D01*
X106157810Y-93155724D01*
X106205429Y-93250962D01*
X106205429Y-93441438D01*
X106157810Y-93536676D01*
X106110191Y-93584295D01*
X106014953Y-93631914D01*
X104236858Y-86731152D02*
X104284477Y-86778771D01*
X104427334Y-86826390D01*
X104522572Y-86826390D01*
X104665429Y-86778771D01*
X104760667Y-86683533D01*
X104808286Y-86588295D01*
X104855905Y-86397819D01*
X104855905Y-86254962D01*
X104808286Y-86064486D01*
X104760667Y-85969248D01*
X104665429Y-85874010D01*
X104522572Y-85826390D01*
X104427334Y-85826390D01*
X104284477Y-85874010D01*
X104236858Y-85921629D01*
X103855905Y-85921629D02*
X103808286Y-85874010D01*
X103713048Y-85826390D01*
X103474953Y-85826390D01*
X103379715Y-85874010D01*
X103332096Y-85921629D01*
X103284477Y-86016867D01*
X103284477Y-86112105D01*
X103332096Y-86254962D01*
X103903524Y-86826390D01*
X103284477Y-86826390D01*
X102665429Y-85826390D02*
X102570191Y-85826390D01*
X102474953Y-85874010D01*
X102427334Y-85921629D01*
X102379715Y-86016867D01*
X102332096Y-86207343D01*
X102332096Y-86445438D01*
X102379715Y-86635914D01*
X102427334Y-86731152D01*
X102474953Y-86778771D01*
X102570191Y-86826390D01*
X102665429Y-86826390D01*
X102760667Y-86778771D01*
X102808286Y-86731152D01*
X102855905Y-86635914D01*
X102903524Y-86445438D01*
X102903524Y-86207343D01*
X102855905Y-86016867D01*
X102808286Y-85921629D01*
X102760667Y-85874010D01*
X102665429Y-85826390D01*
X108677143Y-88933152D02*
X108724762Y-88885533D01*
X108772381Y-88742676D01*
X108772381Y-88647438D01*
X108724762Y-88504581D01*
X108629524Y-88409343D01*
X108534286Y-88361724D01*
X108343810Y-88314105D01*
X108200953Y-88314105D01*
X108010477Y-88361724D01*
X107915239Y-88409343D01*
X107820001Y-88504581D01*
X107772381Y-88647438D01*
X107772381Y-88742676D01*
X107820001Y-88885533D01*
X107867620Y-88933152D01*
X107867620Y-89314105D02*
X107820001Y-89361724D01*
X107772381Y-89456962D01*
X107772381Y-89695057D01*
X107820001Y-89790295D01*
X107867620Y-89837914D01*
X107962858Y-89885533D01*
X108058096Y-89885533D01*
X108200953Y-89837914D01*
X108772381Y-89266486D01*
X108772381Y-89885533D01*
X108772381Y-90837914D02*
X108772381Y-90266486D01*
X108772381Y-90552200D02*
X107772381Y-90552200D01*
X107915239Y-90456962D01*
X108010477Y-90361724D01*
X108058096Y-90266486D01*
X67375143Y-100998152D02*
X67422762Y-100950533D01*
X67470381Y-100807676D01*
X67470381Y-100712438D01*
X67422762Y-100569581D01*
X67327524Y-100474343D01*
X67232286Y-100426724D01*
X67041810Y-100379105D01*
X66898953Y-100379105D01*
X66708477Y-100426724D01*
X66613239Y-100474343D01*
X66518001Y-100569581D01*
X66470381Y-100712438D01*
X66470381Y-100807676D01*
X66518001Y-100950533D01*
X66565620Y-100998152D01*
X66565620Y-101379105D02*
X66518001Y-101426724D01*
X66470381Y-101521962D01*
X66470381Y-101760057D01*
X66518001Y-101855295D01*
X66565620Y-101902914D01*
X66660858Y-101950533D01*
X66756096Y-101950533D01*
X66898953Y-101902914D01*
X67470381Y-101331486D01*
X67470381Y-101950533D01*
X66565620Y-102331486D02*
X66518001Y-102379105D01*
X66470381Y-102474343D01*
X66470381Y-102712438D01*
X66518001Y-102807676D01*
X66565620Y-102855295D01*
X66660858Y-102902914D01*
X66756096Y-102902914D01*
X66898953Y-102855295D01*
X67470381Y-102283867D01*
X67470381Y-102902914D01*
X65343143Y-90457152D02*
X65390762Y-90409533D01*
X65438381Y-90266676D01*
X65438381Y-90171438D01*
X65390762Y-90028581D01*
X65295524Y-89933343D01*
X65200286Y-89885724D01*
X65009810Y-89838105D01*
X64866953Y-89838105D01*
X64676477Y-89885724D01*
X64581239Y-89933343D01*
X64486001Y-90028581D01*
X64438381Y-90171438D01*
X64438381Y-90266676D01*
X64486001Y-90409533D01*
X64533620Y-90457152D01*
X64533620Y-90838105D02*
X64486001Y-90885724D01*
X64438381Y-90980962D01*
X64438381Y-91219057D01*
X64486001Y-91314295D01*
X64533620Y-91361914D01*
X64628858Y-91409533D01*
X64724096Y-91409533D01*
X64866953Y-91361914D01*
X65438381Y-90790486D01*
X65438381Y-91409533D01*
X64438381Y-91742867D02*
X64438381Y-92361914D01*
X64819334Y-92028581D01*
X64819334Y-92171438D01*
X64866953Y-92266676D01*
X64914572Y-92314295D01*
X65009810Y-92361914D01*
X65247905Y-92361914D01*
X65343143Y-92314295D01*
X65390762Y-92266676D01*
X65438381Y-92171438D01*
X65438381Y-91885724D01*
X65390762Y-91790486D01*
X65343143Y-91742867D01*
X75112082Y-100715167D02*
X75112082Y-100782511D01*
X75179426Y-100917198D01*
X75246769Y-100984541D01*
X75381456Y-101051885D01*
X75516143Y-101051885D01*
X75617158Y-101018213D01*
X75785517Y-100917198D01*
X75886532Y-100816183D01*
X75987548Y-100647824D01*
X76021219Y-100546809D01*
X76021219Y-100412122D01*
X75953876Y-100277435D01*
X75886532Y-100210091D01*
X75751845Y-100142748D01*
X75684502Y-100142748D01*
X75415128Y-99873373D02*
X75415128Y-99806030D01*
X75381456Y-99705015D01*
X75213097Y-99536656D01*
X75112082Y-99502984D01*
X75044739Y-99502984D01*
X74943723Y-99536656D01*
X74876380Y-99603999D01*
X74809036Y-99738686D01*
X74809036Y-100546809D01*
X74371303Y-100109076D01*
X74236616Y-99031580D02*
X73765212Y-99502984D01*
X74674349Y-98930564D02*
X74337632Y-99603999D01*
X73899899Y-99166267D01*
X73598096Y-101331391D02*
X73598096Y-100331391D01*
X73360001Y-100331391D01*
X73217143Y-100379011D01*
X73121905Y-100474249D01*
X73074286Y-100569487D01*
X73026667Y-100759963D01*
X73026667Y-100902820D01*
X73074286Y-101093296D01*
X73121905Y-101188534D01*
X73217143Y-101283772D01*
X73360001Y-101331391D01*
X73598096Y-101331391D01*
X72693334Y-100331391D02*
X72074286Y-100331391D01*
X72407620Y-100712344D01*
X72264762Y-100712344D01*
X72169524Y-100759963D01*
X72121905Y-100807582D01*
X72074286Y-100902820D01*
X72074286Y-101140915D01*
X72121905Y-101236153D01*
X72169524Y-101283772D01*
X72264762Y-101331391D01*
X72550477Y-101331391D01*
X72645715Y-101283772D01*
X72693334Y-101236153D01*
X101030096Y-104252390D02*
X101030096Y-103252390D01*
X100792001Y-103252390D01*
X100649143Y-103300010D01*
X100553905Y-103395248D01*
X100506286Y-103490486D01*
X100458667Y-103680962D01*
X100458667Y-103823819D01*
X100506286Y-104014295D01*
X100553905Y-104109533D01*
X100649143Y-104204771D01*
X100792001Y-104252390D01*
X101030096Y-104252390D01*
X99553905Y-103252390D02*
X100030096Y-103252390D01*
X100077715Y-103728581D01*
X100030096Y-103680962D01*
X99934858Y-103633343D01*
X99696762Y-103633343D01*
X99601524Y-103680962D01*
X99553905Y-103728581D01*
X99506286Y-103823819D01*
X99506286Y-104061914D01*
X99553905Y-104157152D01*
X99601524Y-104204771D01*
X99696762Y-104252390D01*
X99934858Y-104252390D01*
X100030096Y-104204771D01*
X100077715Y-104157152D01*
X68486381Y-101029914D02*
X67486381Y-101029914D01*
X67486381Y-101268010D01*
X67534001Y-101410867D01*
X67629239Y-101506105D01*
X67724477Y-101553724D01*
X67914953Y-101601343D01*
X68057810Y-101601343D01*
X68248286Y-101553724D01*
X68343524Y-101506105D01*
X68438762Y-101410867D01*
X68486381Y-101268010D01*
X68486381Y-101029914D01*
X67486381Y-102458486D02*
X67486381Y-102268010D01*
X67534001Y-102172771D01*
X67581620Y-102125152D01*
X67724477Y-102029914D01*
X67914953Y-101982295D01*
X68295905Y-101982295D01*
X68391143Y-102029914D01*
X68438762Y-102077533D01*
X68486381Y-102172771D01*
X68486381Y-102363248D01*
X68438762Y-102458486D01*
X68391143Y-102506105D01*
X68295905Y-102553724D01*
X68057810Y-102553724D01*
X67962572Y-102506105D01*
X67914953Y-102458486D01*
X67867334Y-102363248D01*
X67867334Y-102172771D01*
X67914953Y-102077533D01*
X67962572Y-102029914D01*
X68057810Y-101982295D01*
X54230667Y-100442390D02*
X54564001Y-99966200D01*
X54802096Y-100442390D02*
X54802096Y-99442390D01*
X54421143Y-99442390D01*
X54325905Y-99490010D01*
X54278286Y-99537629D01*
X54230667Y-99632867D01*
X54230667Y-99775724D01*
X54278286Y-99870962D01*
X54325905Y-99918581D01*
X54421143Y-99966200D01*
X54802096Y-99966200D01*
X53849715Y-99537629D02*
X53802096Y-99490010D01*
X53706858Y-99442390D01*
X53468762Y-99442390D01*
X53373524Y-99490010D01*
X53325905Y-99537629D01*
X53278286Y-99632867D01*
X53278286Y-99728105D01*
X53325905Y-99870962D01*
X53897334Y-100442390D01*
X53278286Y-100442390D01*
X77598667Y-92414390D02*
X77932001Y-91938200D01*
X78170096Y-92414390D02*
X78170096Y-91414390D01*
X77789143Y-91414390D01*
X77693905Y-91462010D01*
X77646286Y-91509629D01*
X77598667Y-91604867D01*
X77598667Y-91747724D01*
X77646286Y-91842962D01*
X77693905Y-91890581D01*
X77789143Y-91938200D01*
X78170096Y-91938200D01*
X76741524Y-91747724D02*
X76741524Y-92414390D01*
X76979620Y-91366771D02*
X77217715Y-92081057D01*
X76598667Y-92081057D01*
X99823667Y-101712390D02*
X100157001Y-101236200D01*
X100395096Y-101712390D02*
X100395096Y-100712390D01*
X100014143Y-100712390D01*
X99918905Y-100760010D01*
X99871286Y-100807629D01*
X99823667Y-100902867D01*
X99823667Y-101045724D01*
X99871286Y-101140962D01*
X99918905Y-101188581D01*
X100014143Y-101236200D01*
X100395096Y-101236200D01*
X98966524Y-100712390D02*
X99157001Y-100712390D01*
X99252239Y-100760010D01*
X99299858Y-100807629D01*
X99395096Y-100950486D01*
X99442715Y-101140962D01*
X99442715Y-101521914D01*
X99395096Y-101617152D01*
X99347477Y-101664771D01*
X99252239Y-101712390D01*
X99061762Y-101712390D01*
X98966524Y-101664771D01*
X98918905Y-101617152D01*
X98871286Y-101521914D01*
X98871286Y-101283819D01*
X98918905Y-101188581D01*
X98966524Y-101140962D01*
X99061762Y-101093343D01*
X99252239Y-101093343D01*
X99347477Y-101140962D01*
X99395096Y-101188581D01*
X99442715Y-101283819D01*
X108491381Y-99823343D02*
X108015191Y-99490010D01*
X108491381Y-99251914D02*
X107491381Y-99251914D01*
X107491381Y-99632867D01*
X107539001Y-99728105D01*
X107586620Y-99775724D01*
X107681858Y-99823343D01*
X107824715Y-99823343D01*
X107919953Y-99775724D01*
X107967572Y-99728105D01*
X108015191Y-99632867D01*
X108015191Y-99251914D01*
X107491381Y-100156676D02*
X107491381Y-100823343D01*
X108491381Y-100394771D01*
X106173667Y-94346390D02*
X106507001Y-93870200D01*
X106745096Y-94346390D02*
X106745096Y-93346390D01*
X106364143Y-93346390D01*
X106268905Y-93394010D01*
X106221286Y-93441629D01*
X106173667Y-93536867D01*
X106173667Y-93679724D01*
X106221286Y-93774962D01*
X106268905Y-93822581D01*
X106364143Y-93870200D01*
X106745096Y-93870200D01*
X105602239Y-93774962D02*
X105697477Y-93727343D01*
X105745096Y-93679724D01*
X105792715Y-93584486D01*
X105792715Y-93536867D01*
X105745096Y-93441629D01*
X105697477Y-93394010D01*
X105602239Y-93346390D01*
X105411762Y-93346390D01*
X105316524Y-93394010D01*
X105268905Y-93441629D01*
X105221286Y-93536867D01*
X105221286Y-93584486D01*
X105268905Y-93679724D01*
X105316524Y-93727343D01*
X105411762Y-93774962D01*
X105602239Y-93774962D01*
X105697477Y-93822581D01*
X105745096Y-93870200D01*
X105792715Y-93965438D01*
X105792715Y-94155914D01*
X105745096Y-94251152D01*
X105697477Y-94298771D01*
X105602239Y-94346390D01*
X105411762Y-94346390D01*
X105316524Y-94298771D01*
X105268905Y-94251152D01*
X105221286Y-94155914D01*
X105221286Y-93965438D01*
X105268905Y-93870200D01*
X105316524Y-93822581D01*
X105411762Y-93774962D01*
X108491381Y-101728343D02*
X108015191Y-101395010D01*
X108491381Y-101156914D02*
X107491381Y-101156914D01*
X107491381Y-101537867D01*
X107539001Y-101633105D01*
X107586620Y-101680724D01*
X107681858Y-101728343D01*
X107824715Y-101728343D01*
X107919953Y-101680724D01*
X107967572Y-101633105D01*
X108015191Y-101537867D01*
X108015191Y-101156914D01*
X108491381Y-102204533D02*
X108491381Y-102395010D01*
X108443762Y-102490248D01*
X108396143Y-102537867D01*
X108253286Y-102633105D01*
X108062810Y-102680724D01*
X107681858Y-102680724D01*
X107586620Y-102633105D01*
X107539001Y-102585486D01*
X107491381Y-102490248D01*
X107491381Y-102299771D01*
X107539001Y-102204533D01*
X107586620Y-102156914D01*
X107681858Y-102109295D01*
X107919953Y-102109295D01*
X108015191Y-102156914D01*
X108062810Y-102204533D01*
X108110429Y-102299771D01*
X108110429Y-102490248D01*
X108062810Y-102585486D01*
X108015191Y-102633105D01*
X107919953Y-102680724D01*
X109824858Y-96632390D02*
X110158191Y-96156200D01*
X110396286Y-96632390D02*
X110396286Y-95632390D01*
X110015334Y-95632390D01*
X109920096Y-95680010D01*
X109872477Y-95727629D01*
X109824858Y-95822867D01*
X109824858Y-95965724D01*
X109872477Y-96060962D01*
X109920096Y-96108581D01*
X110015334Y-96156200D01*
X110396286Y-96156200D01*
X108872477Y-96632390D02*
X109443905Y-96632390D01*
X109158191Y-96632390D02*
X109158191Y-95632390D01*
X109253429Y-95775248D01*
X109348667Y-95870486D01*
X109443905Y-95918105D01*
X108253429Y-95632390D02*
X108158191Y-95632390D01*
X108062953Y-95680010D01*
X108015334Y-95727629D01*
X107967715Y-95822867D01*
X107920096Y-96013343D01*
X107920096Y-96251438D01*
X107967715Y-96441914D01*
X108015334Y-96537152D01*
X108062953Y-96584771D01*
X108158191Y-96632390D01*
X108253429Y-96632390D01*
X108348667Y-96584771D01*
X108396286Y-96537152D01*
X108443905Y-96441914D01*
X108491524Y-96251438D01*
X108491524Y-96013343D01*
X108443905Y-95822867D01*
X108396286Y-95727629D01*
X108348667Y-95680010D01*
X108253429Y-95632390D01*
X66200381Y-100998153D02*
X65724191Y-100664820D01*
X66200381Y-100426725D02*
X65200381Y-100426725D01*
X65200381Y-100807677D01*
X65248001Y-100902915D01*
X65295620Y-100950534D01*
X65390858Y-100998153D01*
X65533715Y-100998153D01*
X65628953Y-100950534D01*
X65676572Y-100902915D01*
X65724191Y-100807677D01*
X65724191Y-100426725D01*
X66200381Y-101950534D02*
X66200381Y-101379106D01*
X66200381Y-101664820D02*
X65200381Y-101664820D01*
X65343239Y-101569582D01*
X65438477Y-101474344D01*
X65486096Y-101379106D01*
X65295620Y-102331487D02*
X65248001Y-102379106D01*
X65200381Y-102474344D01*
X65200381Y-102712439D01*
X65248001Y-102807677D01*
X65295620Y-102855296D01*
X65390858Y-102902915D01*
X65486096Y-102902915D01*
X65628953Y-102855296D01*
X66200381Y-102283868D01*
X66200381Y-102902915D01*
X63220451Y-90965322D02*
X63119436Y-90392903D01*
X63624512Y-90561261D02*
X62917405Y-89854155D01*
X62648031Y-90123529D01*
X62614359Y-90224544D01*
X62614359Y-90291887D01*
X62648031Y-90392903D01*
X62749046Y-90493918D01*
X62850062Y-90527590D01*
X62917405Y-90527590D01*
X63018420Y-90493918D01*
X63287794Y-90224544D01*
X62547016Y-91638758D02*
X62951077Y-91234697D01*
X62749046Y-91436727D02*
X62041939Y-90729620D01*
X62210298Y-90763292D01*
X62344985Y-90763292D01*
X62446001Y-90729620D01*
X61604207Y-91167353D02*
X61166474Y-91605086D01*
X61671550Y-91638758D01*
X61570535Y-91739773D01*
X61536863Y-91840788D01*
X61536863Y-91908132D01*
X61570535Y-92009147D01*
X61738894Y-92177506D01*
X61839909Y-92211177D01*
X61907252Y-92211177D01*
X62008268Y-92177506D01*
X62210298Y-91975475D01*
X62243970Y-91874460D01*
X62243970Y-91807116D01*
X77947858Y-95362390D02*
X78281191Y-94886200D01*
X78519286Y-95362390D02*
X78519286Y-94362390D01*
X78138334Y-94362390D01*
X78043096Y-94410010D01*
X77995477Y-94457629D01*
X77947858Y-94552867D01*
X77947858Y-94695724D01*
X77995477Y-94790962D01*
X78043096Y-94838581D01*
X78138334Y-94886200D01*
X78519286Y-94886200D01*
X76995477Y-95362390D02*
X77566905Y-95362390D01*
X77281191Y-95362390D02*
X77281191Y-94362390D01*
X77376429Y-94505248D01*
X77471667Y-94600486D01*
X77566905Y-94648105D01*
X76138334Y-94695724D02*
X76138334Y-95362390D01*
X76376429Y-94314771D02*
X76614524Y-95029057D01*
X75995477Y-95029057D01*
X77947857Y-96886390D02*
X78281190Y-96410200D01*
X78519285Y-96886390D02*
X78519285Y-95886390D01*
X78138333Y-95886390D01*
X78043095Y-95934010D01*
X77995476Y-95981629D01*
X77947857Y-96076867D01*
X77947857Y-96219724D01*
X77995476Y-96314962D01*
X78043095Y-96362581D01*
X78138333Y-96410200D01*
X78519285Y-96410200D01*
X76995476Y-96886390D02*
X77566904Y-96886390D01*
X77281190Y-96886390D02*
X77281190Y-95886390D01*
X77376428Y-96029248D01*
X77471666Y-96124486D01*
X77566904Y-96172105D01*
X76090714Y-95886390D02*
X76566904Y-95886390D01*
X76614523Y-96362581D01*
X76566904Y-96314962D01*
X76471666Y-96267343D01*
X76233571Y-96267343D01*
X76138333Y-96314962D01*
X76090714Y-96362581D01*
X76043095Y-96457819D01*
X76043095Y-96695914D01*
X76090714Y-96791152D01*
X76138333Y-96838771D01*
X76233571Y-96886390D01*
X76471666Y-96886390D01*
X76566904Y-96838771D01*
X76614523Y-96791152D01*
X70708858Y-89520390D02*
X71042191Y-89044200D01*
X71280286Y-89520390D02*
X71280286Y-88520390D01*
X70899334Y-88520390D01*
X70804096Y-88568010D01*
X70756477Y-88615629D01*
X70708858Y-88710867D01*
X70708858Y-88853724D01*
X70756477Y-88948962D01*
X70804096Y-88996581D01*
X70899334Y-89044200D01*
X71280286Y-89044200D01*
X69756477Y-89520390D02*
X70327905Y-89520390D01*
X70042191Y-89520390D02*
X70042191Y-88520390D01*
X70137429Y-88663248D01*
X70232667Y-88758486D01*
X70327905Y-88806105D01*
X68899334Y-88520390D02*
X69089810Y-88520390D01*
X69185048Y-88568010D01*
X69232667Y-88615629D01*
X69327905Y-88758486D01*
X69375524Y-88948962D01*
X69375524Y-89329914D01*
X69327905Y-89425152D01*
X69280286Y-89472771D01*
X69185048Y-89520390D01*
X68994572Y-89520390D01*
X68899334Y-89472771D01*
X68851715Y-89425152D01*
X68804096Y-89329914D01*
X68804096Y-89091819D01*
X68851715Y-88996581D01*
X68899334Y-88948962D01*
X68994572Y-88901343D01*
X69185048Y-88901343D01*
X69280286Y-88948962D01*
X69327905Y-88996581D01*
X69375524Y-89091819D01*
X77884381Y-89695152D02*
X77408191Y-89361819D01*
X77884381Y-89123724D02*
X76884381Y-89123724D01*
X76884381Y-89504676D01*
X76932001Y-89599914D01*
X76979620Y-89647533D01*
X77074858Y-89695152D01*
X77217715Y-89695152D01*
X77312953Y-89647533D01*
X77360572Y-89599914D01*
X77408191Y-89504676D01*
X77408191Y-89123724D01*
X77884381Y-90647533D02*
X77884381Y-90076105D01*
X77884381Y-90361819D02*
X76884381Y-90361819D01*
X77027239Y-90266581D01*
X77122477Y-90171343D01*
X77170096Y-90076105D01*
X76884381Y-90980867D02*
X76884381Y-91647533D01*
X77884381Y-91218962D01*
X75534858Y-93230390D02*
X75868191Y-92754200D01*
X76106286Y-93230390D02*
X76106286Y-92230390D01*
X75725334Y-92230390D01*
X75630096Y-92278010D01*
X75582477Y-92325629D01*
X75534858Y-92420867D01*
X75534858Y-92563724D01*
X75582477Y-92658962D01*
X75630096Y-92706581D01*
X75725334Y-92754200D01*
X76106286Y-92754200D01*
X74582477Y-93230390D02*
X75153905Y-93230390D01*
X74868191Y-93230390D02*
X74868191Y-92230390D01*
X74963429Y-92373248D01*
X75058667Y-92468486D01*
X75153905Y-92516105D01*
X74011048Y-92658962D02*
X74106286Y-92611343D01*
X74153905Y-92563724D01*
X74201524Y-92468486D01*
X74201524Y-92420867D01*
X74153905Y-92325629D01*
X74106286Y-92278010D01*
X74011048Y-92230390D01*
X73820572Y-92230390D01*
X73725334Y-92278010D01*
X73677715Y-92325629D01*
X73630096Y-92420867D01*
X73630096Y-92468486D01*
X73677715Y-92563724D01*
X73725334Y-92611343D01*
X73820572Y-92658962D01*
X74011048Y-92658962D01*
X74106286Y-92706581D01*
X74153905Y-92754200D01*
X74201524Y-92849438D01*
X74201524Y-93039914D01*
X74153905Y-93135152D01*
X74106286Y-93182771D01*
X74011048Y-93230390D01*
X73820572Y-93230390D01*
X73725334Y-93182771D01*
X73677715Y-93135152D01*
X73630096Y-93039914D01*
X73630096Y-92849438D01*
X73677715Y-92754200D01*
X73725334Y-92706581D01*
X73820572Y-92658962D01*
X120572381Y-95926105D02*
X121381905Y-95926105D01*
X121477143Y-95973724D01*
X121524762Y-96021343D01*
X121572381Y-96116581D01*
X121572381Y-96307057D01*
X121524762Y-96402295D01*
X121477143Y-96449914D01*
X121381905Y-96497533D01*
X120572381Y-96497533D01*
X121572381Y-97497533D02*
X121572381Y-96926105D01*
X121572381Y-97211819D02*
X120572381Y-97211819D01*
X120715239Y-97116581D01*
X120810477Y-97021343D01*
X120858096Y-96926105D01*
D17*
X124148191Y-91878295D02*
X124148191Y-92164010D01*
X124648191Y-92021152D02*
X124148191Y-92021152D01*
X124600572Y-92616390D02*
X124624381Y-92592581D01*
X124648191Y-92521152D01*
X124648191Y-92473533D01*
X124624381Y-92402105D01*
X124576762Y-92354486D01*
X124529143Y-92330676D01*
X124433905Y-92306867D01*
X124362477Y-92306867D01*
X124267239Y-92330676D01*
X124219620Y-92354486D01*
X124172001Y-92402105D01*
X124148191Y-92473533D01*
X124148191Y-92521152D01*
X124172001Y-92592581D01*
X124195810Y-92616390D01*
X124505334Y-92806867D02*
X124505334Y-93044962D01*
X124648191Y-92759248D02*
X124148191Y-92925914D01*
X124648191Y-93092581D01*
X124648191Y-93259248D02*
X124148191Y-93259248D01*
X124648191Y-93544962D01*
X124148191Y-93544962D01*
X124648191Y-94044962D02*
X124648191Y-93759248D01*
X124648191Y-93902105D02*
X124148191Y-93902105D01*
X124219620Y-93854486D01*
X124267239Y-93806867D01*
X124291048Y-93759248D01*
X124148191Y-94354486D02*
X124148191Y-94402105D01*
X124172001Y-94449724D01*
X124195810Y-94473533D01*
X124243429Y-94497343D01*
X124338667Y-94521152D01*
X124457715Y-94521152D01*
X124552953Y-94497343D01*
X124600572Y-94473533D01*
X124624381Y-94449724D01*
X124648191Y-94402105D01*
X124648191Y-94354486D01*
X124624381Y-94306867D01*
X124600572Y-94283057D01*
X124552953Y-94259248D01*
X124457715Y-94235438D01*
X124338667Y-94235438D01*
X124243429Y-94259248D01*
X124195810Y-94283057D01*
X124172001Y-94306867D01*
X124148191Y-94354486D01*
X124148191Y-94973533D02*
X124148191Y-94735438D01*
X124386286Y-94711629D01*
X124362477Y-94735438D01*
X124338667Y-94783057D01*
X124338667Y-94902105D01*
X124362477Y-94949724D01*
X124386286Y-94973533D01*
X124433905Y-94997343D01*
X124552953Y-94997343D01*
X124600572Y-94973533D01*
X124624381Y-94949724D01*
X124648191Y-94902105D01*
X124648191Y-94783057D01*
X124624381Y-94735438D01*
X124600572Y-94711629D01*
X124648191Y-95473533D02*
X124648191Y-95187819D01*
X124648191Y-95330676D02*
X124148191Y-95330676D01*
X124219620Y-95283057D01*
X124267239Y-95235438D01*
X124291048Y-95187819D01*
X124172001Y-95949724D02*
X124148191Y-95902105D01*
X124148191Y-95830676D01*
X124172001Y-95759248D01*
X124219620Y-95711629D01*
X124267239Y-95687819D01*
X124362477Y-95664010D01*
X124433905Y-95664010D01*
X124529143Y-95687819D01*
X124576762Y-95711629D01*
X124624381Y-95759248D01*
X124648191Y-95830676D01*
X124648191Y-95878295D01*
X124624381Y-95949724D01*
X124600572Y-95973533D01*
X124433905Y-95973533D01*
X124433905Y-95878295D01*
X124148191Y-96116390D02*
X124648191Y-96283057D01*
X124148191Y-96449724D01*
X124648191Y-96616390D02*
X124148191Y-96616390D01*
X124148191Y-96735438D01*
X124172001Y-96806867D01*
X124219620Y-96854486D01*
X124267239Y-96878295D01*
X124362477Y-96902105D01*
X124433905Y-96902105D01*
X124529143Y-96878295D01*
X124576762Y-96854486D01*
X124624381Y-96806867D01*
X124648191Y-96735438D01*
X124648191Y-96616390D01*
X124648191Y-97402105D02*
X124410096Y-97235438D01*
X124648191Y-97116390D02*
X124148191Y-97116390D01*
X124148191Y-97306867D01*
X124172001Y-97354486D01*
X124195810Y-97378295D01*
X124243429Y-97402105D01*
X124314858Y-97402105D01*
X124362477Y-97378295D01*
X124386286Y-97354486D01*
X124410096Y-97306867D01*
X124410096Y-97116390D01*
X124695810Y-97949724D02*
X124672001Y-97902105D01*
X124624381Y-97854486D01*
X124552953Y-97783057D01*
X124529143Y-97735438D01*
X124529143Y-97687819D01*
X124648191Y-97711629D02*
X124624381Y-97664010D01*
X124576762Y-97616390D01*
X124481524Y-97592581D01*
X124314858Y-97592581D01*
X124219620Y-97616390D01*
X124172001Y-97664010D01*
X124148191Y-97711629D01*
X124148191Y-97806867D01*
X124172001Y-97854486D01*
X124219620Y-97902105D01*
X124314858Y-97925914D01*
X124481524Y-97925914D01*
X124576762Y-97902105D01*
X124624381Y-97854486D01*
X124648191Y-97806867D01*
X124648191Y-97711629D01*
X124648191Y-98402105D02*
X124648191Y-98116390D01*
X124648191Y-98259248D02*
X124148191Y-98259248D01*
X124219620Y-98211629D01*
X124267239Y-98164010D01*
X124291048Y-98116390D01*
D10*
X81747381Y-97704105D02*
X82556905Y-97704105D01*
X82652143Y-97751724D01*
X82699762Y-97799343D01*
X82747381Y-97894581D01*
X82747381Y-98085057D01*
X82699762Y-98180295D01*
X82652143Y-98227914D01*
X82556905Y-98275533D01*
X81747381Y-98275533D01*
X81747381Y-98656486D02*
X81747381Y-99275533D01*
X82128334Y-98942200D01*
X82128334Y-99085057D01*
X82175953Y-99180295D01*
X82223572Y-99227914D01*
X82318810Y-99275533D01*
X82556905Y-99275533D01*
X82652143Y-99227914D01*
X82699762Y-99180295D01*
X82747381Y-99085057D01*
X82747381Y-98799343D01*
X82699762Y-98704105D01*
X82652143Y-98656486D01*
X102958905Y-94997390D02*
X102958905Y-95806914D01*
X102911286Y-95902152D01*
X102863667Y-95949771D01*
X102768429Y-95997390D01*
X102577953Y-95997390D01*
X102482715Y-95949771D01*
X102435096Y-95902152D01*
X102387477Y-95806914D01*
X102387477Y-94997390D01*
X101482715Y-95330724D02*
X101482715Y-95997390D01*
X101720810Y-94949771D02*
X101958905Y-95664057D01*
X101339858Y-95664057D01*
X63015381Y-94148105D02*
X63824905Y-94148105D01*
X63920143Y-94195724D01*
X63967762Y-94243343D01*
X64015381Y-94338581D01*
X64015381Y-94529057D01*
X63967762Y-94624295D01*
X63920143Y-94671914D01*
X63824905Y-94719533D01*
X63015381Y-94719533D01*
X63015381Y-95100486D02*
X63015381Y-95767152D01*
X64015381Y-95338581D01*
X73178774Y-93005806D02*
X73988298Y-93005806D01*
X74083536Y-93053425D01*
X74131155Y-93101044D01*
X74178774Y-93196282D01*
X74178774Y-93386758D01*
X74131155Y-93481996D01*
X74083536Y-93529615D01*
X73988298Y-93577234D01*
X73178774Y-93577234D01*
X73607346Y-94196282D02*
X73559727Y-94101044D01*
X73512108Y-94053425D01*
X73416870Y-94005806D01*
X73369251Y-94005806D01*
X73274013Y-94053425D01*
X73226394Y-94101044D01*
X73178774Y-94196282D01*
X73178774Y-94386758D01*
X73226394Y-94481996D01*
X73274013Y-94529615D01*
X73369251Y-94577234D01*
X73416870Y-94577234D01*
X73512108Y-94529615D01*
X73559727Y-94481996D01*
X73607346Y-94386758D01*
X73607346Y-94196282D01*
X73654965Y-94101044D01*
X73702584Y-94053425D01*
X73797822Y-94005806D01*
X73988298Y-94005806D01*
X74083536Y-94053425D01*
X74131155Y-94101044D01*
X74178774Y-94196282D01*
X74178774Y-94386758D01*
X74131155Y-94481996D01*
X74083536Y-94529615D01*
X73988298Y-94577234D01*
X73797822Y-94577234D01*
X73702584Y-94529615D01*
X73654965Y-94481996D01*
X73607346Y-94386758D01*
X103538381Y-100839343D02*
X103062191Y-100506010D01*
X103538381Y-100267914D02*
X102538381Y-100267914D01*
X102538381Y-100648867D01*
X102586001Y-100744105D01*
X102633620Y-100791724D01*
X102728858Y-100839343D01*
X102871715Y-100839343D01*
X102966953Y-100791724D01*
X103014572Y-100744105D01*
X103062191Y-100648867D01*
X103062191Y-100267914D01*
X102538381Y-101744105D02*
X102538381Y-101267914D01*
X103014572Y-101220295D01*
X102966953Y-101267914D01*
X102919334Y-101363152D01*
X102919334Y-101601248D01*
X102966953Y-101696486D01*
X103014572Y-101744105D01*
X103109810Y-101791724D01*
X103347905Y-101791724D01*
X103443143Y-101744105D01*
X103490762Y-101696486D01*
X103538381Y-101601248D01*
X103538381Y-101363152D01*
X103490762Y-101267914D01*
X103443143Y-101220295D01*
X73502858Y-99426390D02*
X73836191Y-98950200D01*
X74074286Y-99426390D02*
X74074286Y-98426390D01*
X73693334Y-98426390D01*
X73598096Y-98474010D01*
X73550477Y-98521629D01*
X73502858Y-98616867D01*
X73502858Y-98759724D01*
X73550477Y-98854962D01*
X73598096Y-98902581D01*
X73693334Y-98950200D01*
X74074286Y-98950200D01*
X73121905Y-98521629D02*
X73074286Y-98474010D01*
X72979048Y-98426390D01*
X72740953Y-98426390D01*
X72645715Y-98474010D01*
X72598096Y-98521629D01*
X72550477Y-98616867D01*
X72550477Y-98712105D01*
X72598096Y-98854962D01*
X73169524Y-99426390D01*
X72550477Y-99426390D01*
X71931429Y-98426390D02*
X71836191Y-98426390D01*
X71740953Y-98474010D01*
X71693334Y-98521629D01*
X71645715Y-98616867D01*
X71598096Y-98807343D01*
X71598096Y-99045438D01*
X71645715Y-99235914D01*
X71693334Y-99331152D01*
X71740953Y-99378771D01*
X71836191Y-99426390D01*
X71931429Y-99426390D01*
X72026667Y-99378771D01*
X72074286Y-99331152D01*
X72121905Y-99235914D01*
X72169524Y-99045438D01*
X72169524Y-98807343D01*
X72121905Y-98616867D01*
X72074286Y-98521629D01*
X72026667Y-98474010D01*
X71931429Y-98426390D01*
X74137857Y-98156390D02*
X74471190Y-97680200D01*
X74709285Y-98156390D02*
X74709285Y-97156390D01*
X74328333Y-97156390D01*
X74233095Y-97204010D01*
X74185476Y-97251629D01*
X74137857Y-97346867D01*
X74137857Y-97489724D01*
X74185476Y-97584962D01*
X74233095Y-97632581D01*
X74328333Y-97680200D01*
X74709285Y-97680200D01*
X73756904Y-97251629D02*
X73709285Y-97204010D01*
X73614047Y-97156390D01*
X73375952Y-97156390D01*
X73280714Y-97204010D01*
X73233095Y-97251629D01*
X73185476Y-97346867D01*
X73185476Y-97442105D01*
X73233095Y-97584962D01*
X73804523Y-98156390D01*
X73185476Y-98156390D01*
X72233095Y-98156390D02*
X72804523Y-98156390D01*
X72518809Y-98156390D02*
X72518809Y-97156390D01*
X72614047Y-97299248D01*
X72709285Y-97394486D01*
X72804523Y-97442105D01*
X70010381Y-90457152D02*
X69534191Y-90123819D01*
X70010381Y-89885724D02*
X69010381Y-89885724D01*
X69010381Y-90266676D01*
X69058001Y-90361914D01*
X69105620Y-90409533D01*
X69200858Y-90457152D01*
X69343715Y-90457152D01*
X69438953Y-90409533D01*
X69486572Y-90361914D01*
X69534191Y-90266676D01*
X69534191Y-89885724D01*
X69105620Y-90838105D02*
X69058001Y-90885724D01*
X69010381Y-90980962D01*
X69010381Y-91219057D01*
X69058001Y-91314295D01*
X69105620Y-91361914D01*
X69200858Y-91409533D01*
X69296096Y-91409533D01*
X69438953Y-91361914D01*
X70010381Y-90790486D01*
X70010381Y-91409533D01*
X69105620Y-91790486D02*
X69058001Y-91838105D01*
X69010381Y-91933343D01*
X69010381Y-92171438D01*
X69058001Y-92266676D01*
X69105620Y-92314295D01*
X69200858Y-92361914D01*
X69296096Y-92361914D01*
X69438953Y-92314295D01*
X70010381Y-91742867D01*
X70010381Y-92361914D01*
D18*
X124900054Y-90506441D02*
X125615178Y-90506441D01*
X125758202Y-90458766D01*
X125853552Y-90363416D01*
X125901227Y-90220392D01*
X125901227Y-90125042D01*
X125901227Y-91507614D02*
X125901227Y-90935515D01*
X125901227Y-91221565D02*
X124900054Y-91221565D01*
X125043079Y-91126215D01*
X125138429Y-91030865D01*
X125186104Y-90935515D01*
X124900054Y-92127388D02*
X124900054Y-92222738D01*
X124947729Y-92318088D01*
X124995404Y-92365762D01*
X125090754Y-92413437D01*
X125281453Y-92461112D01*
X125519828Y-92461112D01*
X125710527Y-92413437D01*
X125805877Y-92365762D01*
X125853552Y-92318088D01*
X125901227Y-92222738D01*
X125901227Y-92127388D01*
X125853552Y-92032038D01*
X125805877Y-91984363D01*
X125710527Y-91936688D01*
X125519828Y-91889013D01*
X125281453Y-91889013D01*
X125090754Y-91936688D01*
X124995404Y-91984363D01*
X124947729Y-92032038D01*
X124900054Y-92127388D01*
X124900054Y-98603190D02*
X125615178Y-98603190D01*
X125758202Y-98555515D01*
X125853552Y-98460165D01*
X125901227Y-98317141D01*
X125901227Y-98221791D01*
X124900054Y-98984589D02*
X124900054Y-99604363D01*
X125281453Y-99270639D01*
X125281453Y-99413664D01*
X125329128Y-99509013D01*
X125376803Y-99556688D01*
X125472153Y-99604363D01*
X125710527Y-99604363D01*
X125805877Y-99556688D01*
X125853552Y-99509013D01*
X125901227Y-99413664D01*
X125901227Y-99127614D01*
X125853552Y-99032264D01*
X125805877Y-98984589D01*
D19*
X112296524Y-92400248D02*
X111026524Y-92400248D01*
X112175572Y-93730724D02*
X112236048Y-93670248D01*
X112296524Y-93488819D01*
X112296524Y-93367867D01*
X112236048Y-93186438D01*
X112115096Y-93065486D01*
X111994143Y-93005010D01*
X111752239Y-92944533D01*
X111570810Y-92944533D01*
X111328905Y-93005010D01*
X111207953Y-93065486D01*
X111087001Y-93186438D01*
X111026524Y-93367867D01*
X111026524Y-93488819D01*
X111087001Y-93670248D01*
X111147477Y-93730724D01*
X112296524Y-94940248D02*
X112296524Y-94214533D01*
X112296524Y-94577390D02*
X111026524Y-94577390D01*
X111207953Y-94456438D01*
X111328905Y-94335486D01*
X111389381Y-94214533D01*
D10*
X104101905Y-86682390D02*
X104101905Y-87491914D01*
X104054286Y-87587152D01*
X104006667Y-87634771D01*
X103911429Y-87682390D01*
X103720953Y-87682390D01*
X103625715Y-87634771D01*
X103578096Y-87587152D01*
X103530477Y-87491914D01*
X103530477Y-86682390D01*
X102578096Y-86682390D02*
X103054286Y-86682390D01*
X103101905Y-87158581D01*
X103054286Y-87110962D01*
X102959048Y-87063343D01*
X102720953Y-87063343D01*
X102625715Y-87110962D01*
X102578096Y-87158581D01*
X102530477Y-87253819D01*
X102530477Y-87491914D01*
X102578096Y-87587152D01*
X102625715Y-87634771D01*
X102720953Y-87682390D01*
X102959048Y-87682390D01*
X103054286Y-87634771D01*
X103101905Y-87587152D01*
X122493143Y-70407334D02*
X122540762Y-70359715D01*
X122588381Y-70216858D01*
X122588381Y-70121620D01*
X122540762Y-69978762D01*
X122445524Y-69883524D01*
X122350286Y-69835905D01*
X122159810Y-69788286D01*
X122016953Y-69788286D01*
X121826477Y-69835905D01*
X121731239Y-69883524D01*
X121636001Y-69978762D01*
X121588381Y-70121620D01*
X121588381Y-70216858D01*
X121636001Y-70359715D01*
X121683620Y-70407334D01*
X122588381Y-71359715D02*
X122588381Y-70788286D01*
X122588381Y-71074001D02*
X121588381Y-71074001D01*
X121731239Y-70978762D01*
X121826477Y-70883524D01*
X121874096Y-70788286D01*
X121069143Y-60247334D02*
X121116762Y-60199715D01*
X121164381Y-60056858D01*
X121164381Y-59961620D01*
X121116762Y-59818762D01*
X121021524Y-59723524D01*
X120926286Y-59675905D01*
X120735810Y-59628286D01*
X120592953Y-59628286D01*
X120402477Y-59675905D01*
X120307239Y-59723524D01*
X120212001Y-59818762D01*
X120164381Y-59961620D01*
X120164381Y-60056858D01*
X120212001Y-60199715D01*
X120259620Y-60247334D01*
X120259620Y-60628286D02*
X120212001Y-60675905D01*
X120164381Y-60771143D01*
X120164381Y-61009239D01*
X120212001Y-61104477D01*
X120259620Y-61152096D01*
X120354858Y-61199715D01*
X120450096Y-61199715D01*
X120592953Y-61152096D01*
X121164381Y-60580667D01*
X121164381Y-61199715D01*
X77090667Y-68745143D02*
X77138286Y-68792762D01*
X77281143Y-68840381D01*
X77376381Y-68840381D01*
X77519239Y-68792762D01*
X77614477Y-68697524D01*
X77662096Y-68602286D01*
X77709715Y-68411810D01*
X77709715Y-68268953D01*
X77662096Y-68078477D01*
X77614477Y-67983239D01*
X77519239Y-67888001D01*
X77376381Y-67840381D01*
X77281143Y-67840381D01*
X77138286Y-67888001D01*
X77090667Y-67935620D01*
X76519239Y-68268953D02*
X76614477Y-68221334D01*
X76662096Y-68173715D01*
X76709715Y-68078477D01*
X76709715Y-68030858D01*
X76662096Y-67935620D01*
X76614477Y-67888001D01*
X76519239Y-67840381D01*
X76328762Y-67840381D01*
X76233524Y-67888001D01*
X76185905Y-67935620D01*
X76138286Y-68030858D01*
X76138286Y-68078477D01*
X76185905Y-68173715D01*
X76233524Y-68221334D01*
X76328762Y-68268953D01*
X76519239Y-68268953D01*
X76614477Y-68316572D01*
X76662096Y-68364191D01*
X76709715Y-68459429D01*
X76709715Y-68649905D01*
X76662096Y-68745143D01*
X76614477Y-68792762D01*
X76519239Y-68840381D01*
X76328762Y-68840381D01*
X76233524Y-68792762D01*
X76185905Y-68745143D01*
X76138286Y-68649905D01*
X76138286Y-68459429D01*
X76185905Y-68364191D01*
X76233524Y-68316572D01*
X76328762Y-68268953D01*
X108296143Y-66470334D02*
X108343762Y-66422715D01*
X108391381Y-66279858D01*
X108391381Y-66184620D01*
X108343762Y-66041762D01*
X108248524Y-65946524D01*
X108153286Y-65898905D01*
X107962810Y-65851286D01*
X107819953Y-65851286D01*
X107629477Y-65898905D01*
X107534239Y-65946524D01*
X107439001Y-66041762D01*
X107391381Y-66184620D01*
X107391381Y-66279858D01*
X107439001Y-66422715D01*
X107486620Y-66470334D01*
X108391381Y-66946524D02*
X108391381Y-67137001D01*
X108343762Y-67232239D01*
X108296143Y-67279858D01*
X108153286Y-67375096D01*
X107962810Y-67422715D01*
X107581858Y-67422715D01*
X107486620Y-67375096D01*
X107439001Y-67327477D01*
X107391381Y-67232239D01*
X107391381Y-67041762D01*
X107439001Y-66946524D01*
X107486620Y-66898905D01*
X107581858Y-66851286D01*
X107819953Y-66851286D01*
X107915191Y-66898905D01*
X107962810Y-66946524D01*
X108010429Y-67041762D01*
X108010429Y-67232239D01*
X107962810Y-67327477D01*
X107915191Y-67375096D01*
X107819953Y-67422715D01*
X113349142Y-56215143D02*
X113396761Y-56167524D01*
X113444380Y-56024667D01*
X113444380Y-55929429D01*
X113396761Y-55786572D01*
X113301523Y-55691334D01*
X113206285Y-55643715D01*
X113015809Y-55596096D01*
X112872952Y-55596096D01*
X112682476Y-55643715D01*
X112587238Y-55691334D01*
X112492000Y-55786572D01*
X112444380Y-55929429D01*
X112444380Y-56024667D01*
X112492000Y-56167524D01*
X112539619Y-56215143D01*
X113444380Y-57167524D02*
X113444380Y-56596096D01*
X113444380Y-56881810D02*
X112444380Y-56881810D01*
X112587238Y-56786572D01*
X112682476Y-56691334D01*
X112730095Y-56596096D01*
X112444380Y-57786572D02*
X112444380Y-57881810D01*
X112492000Y-57977048D01*
X112539619Y-58024667D01*
X112634857Y-58072286D01*
X112825333Y-58119905D01*
X113063428Y-58119905D01*
X113253904Y-58072286D01*
X113349142Y-58024667D01*
X113396761Y-57977048D01*
X113444380Y-57881810D01*
X113444380Y-57786572D01*
X113396761Y-57691334D01*
X113349142Y-57643715D01*
X113253904Y-57596096D01*
X113063428Y-57548477D01*
X112825333Y-57548477D01*
X112634857Y-57596096D01*
X112539619Y-57643715D01*
X112492000Y-57691334D01*
X112444380Y-57786572D01*
X100426858Y-68799143D02*
X100474477Y-68846762D01*
X100617334Y-68894381D01*
X100712572Y-68894381D01*
X100855429Y-68846762D01*
X100950667Y-68751524D01*
X100998286Y-68656286D01*
X101045905Y-68465810D01*
X101045905Y-68322953D01*
X100998286Y-68132477D01*
X100950667Y-68037239D01*
X100855429Y-67942001D01*
X100712572Y-67894381D01*
X100617334Y-67894381D01*
X100474477Y-67942001D01*
X100426858Y-67989620D01*
X99474477Y-68894381D02*
X100045905Y-68894381D01*
X99760191Y-68894381D02*
X99760191Y-67894381D01*
X99855429Y-68037239D01*
X99950667Y-68132477D01*
X100045905Y-68180096D01*
X98522096Y-68894381D02*
X99093524Y-68894381D01*
X98807810Y-68894381D02*
X98807810Y-67894381D01*
X98903048Y-68037239D01*
X98998286Y-68132477D01*
X99093524Y-68180096D01*
X78651143Y-70947143D02*
X78698762Y-70899524D01*
X78746381Y-70756667D01*
X78746381Y-70661429D01*
X78698762Y-70518572D01*
X78603524Y-70423334D01*
X78508286Y-70375715D01*
X78317810Y-70328096D01*
X78174953Y-70328096D01*
X77984477Y-70375715D01*
X77889239Y-70423334D01*
X77794001Y-70518572D01*
X77746381Y-70661429D01*
X77746381Y-70756667D01*
X77794001Y-70899524D01*
X77841620Y-70947143D01*
X78746381Y-71899524D02*
X78746381Y-71328096D01*
X78746381Y-71613810D02*
X77746381Y-71613810D01*
X77889239Y-71518572D01*
X77984477Y-71423334D01*
X78032096Y-71328096D01*
X77841620Y-72280477D02*
X77794001Y-72328096D01*
X77746381Y-72423334D01*
X77746381Y-72661429D01*
X77794001Y-72756667D01*
X77841620Y-72804286D01*
X77936858Y-72851905D01*
X78032096Y-72851905D01*
X78174953Y-72804286D01*
X78746381Y-72232858D01*
X78746381Y-72851905D01*
X98394858Y-66359143D02*
X98442477Y-66406762D01*
X98585334Y-66454381D01*
X98680572Y-66454381D01*
X98823429Y-66406762D01*
X98918667Y-66311524D01*
X98966286Y-66216286D01*
X99013905Y-66025810D01*
X99013905Y-65882953D01*
X98966286Y-65692477D01*
X98918667Y-65597239D01*
X98823429Y-65502001D01*
X98680572Y-65454381D01*
X98585334Y-65454381D01*
X98442477Y-65502001D01*
X98394858Y-65549620D01*
X97442477Y-66454381D02*
X98013905Y-66454381D01*
X97728191Y-66454381D02*
X97728191Y-65454381D01*
X97823429Y-65597239D01*
X97918667Y-65692477D01*
X98013905Y-65740096D01*
X97109143Y-65454381D02*
X96490096Y-65454381D01*
X96823429Y-65835334D01*
X96680572Y-65835334D01*
X96585334Y-65882953D01*
X96537715Y-65930572D01*
X96490096Y-66025810D01*
X96490096Y-66263905D01*
X96537715Y-66359143D01*
X96585334Y-66406762D01*
X96680572Y-66454381D01*
X96966286Y-66454381D01*
X97061524Y-66406762D01*
X97109143Y-66359143D01*
X108777143Y-60533143D02*
X108824762Y-60485524D01*
X108872381Y-60342667D01*
X108872381Y-60247429D01*
X108824762Y-60104572D01*
X108729524Y-60009334D01*
X108634286Y-59961715D01*
X108443810Y-59914096D01*
X108300953Y-59914096D01*
X108110477Y-59961715D01*
X108015239Y-60009334D01*
X107920001Y-60104572D01*
X107872381Y-60247429D01*
X107872381Y-60342667D01*
X107920001Y-60485524D01*
X107967620Y-60533143D01*
X108872381Y-61485524D02*
X108872381Y-60914096D01*
X108872381Y-61199810D02*
X107872381Y-61199810D01*
X108015239Y-61104572D01*
X108110477Y-61009334D01*
X108158096Y-60914096D01*
X108205715Y-62342667D02*
X108872381Y-62342667D01*
X107824762Y-62104572D02*
X108539048Y-61866477D01*
X108539048Y-62485524D01*
X109439143Y-67899143D02*
X109486762Y-67851524D01*
X109534381Y-67708667D01*
X109534381Y-67613429D01*
X109486762Y-67470572D01*
X109391524Y-67375334D01*
X109296286Y-67327715D01*
X109105810Y-67280096D01*
X108962953Y-67280096D01*
X108772477Y-67327715D01*
X108677239Y-67375334D01*
X108582001Y-67470572D01*
X108534381Y-67613429D01*
X108534381Y-67708667D01*
X108582001Y-67851524D01*
X108629620Y-67899143D01*
X109534381Y-68851524D02*
X109534381Y-68280096D01*
X109534381Y-68565810D02*
X108534381Y-68565810D01*
X108677239Y-68470572D01*
X108772477Y-68375334D01*
X108820096Y-68280096D01*
X108534381Y-69756286D02*
X108534381Y-69280096D01*
X109010572Y-69232477D01*
X108962953Y-69280096D01*
X108915334Y-69375334D01*
X108915334Y-69613429D01*
X108962953Y-69708667D01*
X109010572Y-69756286D01*
X109105810Y-69803905D01*
X109343905Y-69803905D01*
X109439143Y-69756286D01*
X109486762Y-69708667D01*
X109534381Y-69613429D01*
X109534381Y-69375334D01*
X109486762Y-69280096D01*
X109439143Y-69232477D01*
X104744858Y-60898143D02*
X104792477Y-60945762D01*
X104935334Y-60993381D01*
X105030572Y-60993381D01*
X105173429Y-60945762D01*
X105268667Y-60850524D01*
X105316286Y-60755286D01*
X105363905Y-60564810D01*
X105363905Y-60421953D01*
X105316286Y-60231477D01*
X105268667Y-60136239D01*
X105173429Y-60041001D01*
X105030572Y-59993381D01*
X104935334Y-59993381D01*
X104792477Y-60041001D01*
X104744858Y-60088620D01*
X103792477Y-60993381D02*
X104363905Y-60993381D01*
X104078191Y-60993381D02*
X104078191Y-59993381D01*
X104173429Y-60136239D01*
X104268667Y-60231477D01*
X104363905Y-60279096D01*
X102935334Y-59993381D02*
X103125810Y-59993381D01*
X103221048Y-60041001D01*
X103268667Y-60088620D01*
X103363905Y-60231477D01*
X103411524Y-60421953D01*
X103411524Y-60802905D01*
X103363905Y-60898143D01*
X103316286Y-60945762D01*
X103221048Y-60993381D01*
X103030572Y-60993381D01*
X102935334Y-60945762D01*
X102887715Y-60898143D01*
X102840096Y-60802905D01*
X102840096Y-60564810D01*
X102887715Y-60469572D01*
X102935334Y-60421953D01*
X103030572Y-60374334D01*
X103221048Y-60374334D01*
X103316286Y-60421953D01*
X103363905Y-60469572D01*
X103411524Y-60564810D01*
X98871143Y-57993143D02*
X98918762Y-57945524D01*
X98966381Y-57802667D01*
X98966381Y-57707429D01*
X98918762Y-57564572D01*
X98823524Y-57469334D01*
X98728286Y-57421715D01*
X98537810Y-57374096D01*
X98394953Y-57374096D01*
X98204477Y-57421715D01*
X98109239Y-57469334D01*
X98014001Y-57564572D01*
X97966381Y-57707429D01*
X97966381Y-57802667D01*
X98014001Y-57945524D01*
X98061620Y-57993143D01*
X98966381Y-58945524D02*
X98966381Y-58374096D01*
X98966381Y-58659810D02*
X97966381Y-58659810D01*
X98109239Y-58564572D01*
X98204477Y-58469334D01*
X98252096Y-58374096D01*
X97966381Y-59278858D02*
X97966381Y-59945524D01*
X98966381Y-59516953D01*
X111825143Y-65105143D02*
X111872762Y-65057524D01*
X111920381Y-64914667D01*
X111920381Y-64819429D01*
X111872762Y-64676572D01*
X111777524Y-64581334D01*
X111682286Y-64533715D01*
X111491810Y-64486096D01*
X111348953Y-64486096D01*
X111158477Y-64533715D01*
X111063239Y-64581334D01*
X110968001Y-64676572D01*
X110920381Y-64819429D01*
X110920381Y-64914667D01*
X110968001Y-65057524D01*
X111015620Y-65105143D01*
X111920381Y-66057524D02*
X111920381Y-65486096D01*
X111920381Y-65771810D02*
X110920381Y-65771810D01*
X111063239Y-65676572D01*
X111158477Y-65581334D01*
X111206096Y-65486096D01*
X111348953Y-66628953D02*
X111301334Y-66533715D01*
X111253715Y-66486096D01*
X111158477Y-66438477D01*
X111110858Y-66438477D01*
X111015620Y-66486096D01*
X110968001Y-66533715D01*
X110920381Y-66628953D01*
X110920381Y-66819429D01*
X110968001Y-66914667D01*
X111015620Y-66962286D01*
X111110858Y-67009905D01*
X111158477Y-67009905D01*
X111253715Y-66962286D01*
X111301334Y-66914667D01*
X111348953Y-66819429D01*
X111348953Y-66628953D01*
X111396572Y-66533715D01*
X111444191Y-66486096D01*
X111539429Y-66438477D01*
X111729905Y-66438477D01*
X111825143Y-66486096D01*
X111872762Y-66533715D01*
X111920381Y-66628953D01*
X111920381Y-66819429D01*
X111872762Y-66914667D01*
X111825143Y-66962286D01*
X111729905Y-67009905D01*
X111539429Y-67009905D01*
X111444191Y-66962286D01*
X111396572Y-66914667D01*
X111348953Y-66819429D01*
X106491143Y-60279143D02*
X106538762Y-60231524D01*
X106586381Y-60088667D01*
X106586381Y-59993429D01*
X106538762Y-59850572D01*
X106443524Y-59755334D01*
X106348286Y-59707715D01*
X106157810Y-59660096D01*
X106014953Y-59660096D01*
X105824477Y-59707715D01*
X105729239Y-59755334D01*
X105634001Y-59850572D01*
X105586381Y-59993429D01*
X105586381Y-60088667D01*
X105634001Y-60231524D01*
X105681620Y-60279143D01*
X106586381Y-61231524D02*
X106586381Y-60660096D01*
X106586381Y-60945810D02*
X105586381Y-60945810D01*
X105729239Y-60850572D01*
X105824477Y-60755334D01*
X105872096Y-60660096D01*
X106586381Y-61707715D02*
X106586381Y-61898191D01*
X106538762Y-61993429D01*
X106491143Y-62041048D01*
X106348286Y-62136286D01*
X106157810Y-62183905D01*
X105776858Y-62183905D01*
X105681620Y-62136286D01*
X105634001Y-62088667D01*
X105586381Y-61993429D01*
X105586381Y-61802953D01*
X105634001Y-61707715D01*
X105681620Y-61660096D01*
X105776858Y-61612477D01*
X106014953Y-61612477D01*
X106110191Y-61660096D01*
X106157810Y-61707715D01*
X106205429Y-61802953D01*
X106205429Y-61993429D01*
X106157810Y-62088667D01*
X106110191Y-62136286D01*
X106014953Y-62183905D01*
X104236858Y-55283143D02*
X104284477Y-55330762D01*
X104427334Y-55378381D01*
X104522572Y-55378381D01*
X104665429Y-55330762D01*
X104760667Y-55235524D01*
X104808286Y-55140286D01*
X104855905Y-54949810D01*
X104855905Y-54806953D01*
X104808286Y-54616477D01*
X104760667Y-54521239D01*
X104665429Y-54426001D01*
X104522572Y-54378381D01*
X104427334Y-54378381D01*
X104284477Y-54426001D01*
X104236858Y-54473620D01*
X103855905Y-54473620D02*
X103808286Y-54426001D01*
X103713048Y-54378381D01*
X103474953Y-54378381D01*
X103379715Y-54426001D01*
X103332096Y-54473620D01*
X103284477Y-54568858D01*
X103284477Y-54664096D01*
X103332096Y-54806953D01*
X103903524Y-55378381D01*
X103284477Y-55378381D01*
X102665429Y-54378381D02*
X102570191Y-54378381D01*
X102474953Y-54426001D01*
X102427334Y-54473620D01*
X102379715Y-54568858D01*
X102332096Y-54759334D01*
X102332096Y-54997429D01*
X102379715Y-55187905D01*
X102427334Y-55283143D01*
X102474953Y-55330762D01*
X102570191Y-55378381D01*
X102665429Y-55378381D01*
X102760667Y-55330762D01*
X102808286Y-55283143D01*
X102855905Y-55187905D01*
X102903524Y-54997429D01*
X102903524Y-54759334D01*
X102855905Y-54568858D01*
X102808286Y-54473620D01*
X102760667Y-54426001D01*
X102665429Y-54378381D01*
X108677143Y-57485143D02*
X108724762Y-57437524D01*
X108772381Y-57294667D01*
X108772381Y-57199429D01*
X108724762Y-57056572D01*
X108629524Y-56961334D01*
X108534286Y-56913715D01*
X108343810Y-56866096D01*
X108200953Y-56866096D01*
X108010477Y-56913715D01*
X107915239Y-56961334D01*
X107820001Y-57056572D01*
X107772381Y-57199429D01*
X107772381Y-57294667D01*
X107820001Y-57437524D01*
X107867620Y-57485143D01*
X107867620Y-57866096D02*
X107820001Y-57913715D01*
X107772381Y-58008953D01*
X107772381Y-58247048D01*
X107820001Y-58342286D01*
X107867620Y-58389905D01*
X107962858Y-58437524D01*
X108058096Y-58437524D01*
X108200953Y-58389905D01*
X108772381Y-57818477D01*
X108772381Y-58437524D01*
X108772381Y-59389905D02*
X108772381Y-58818477D01*
X108772381Y-59104191D02*
X107772381Y-59104191D01*
X107915239Y-59008953D01*
X108010477Y-58913715D01*
X108058096Y-58818477D01*
X67375143Y-69550143D02*
X67422762Y-69502524D01*
X67470381Y-69359667D01*
X67470381Y-69264429D01*
X67422762Y-69121572D01*
X67327524Y-69026334D01*
X67232286Y-68978715D01*
X67041810Y-68931096D01*
X66898953Y-68931096D01*
X66708477Y-68978715D01*
X66613239Y-69026334D01*
X66518001Y-69121572D01*
X66470381Y-69264429D01*
X66470381Y-69359667D01*
X66518001Y-69502524D01*
X66565620Y-69550143D01*
X66565620Y-69931096D02*
X66518001Y-69978715D01*
X66470381Y-70073953D01*
X66470381Y-70312048D01*
X66518001Y-70407286D01*
X66565620Y-70454905D01*
X66660858Y-70502524D01*
X66756096Y-70502524D01*
X66898953Y-70454905D01*
X67470381Y-69883477D01*
X67470381Y-70502524D01*
X66565620Y-70883477D02*
X66518001Y-70931096D01*
X66470381Y-71026334D01*
X66470381Y-71264429D01*
X66518001Y-71359667D01*
X66565620Y-71407286D01*
X66660858Y-71454905D01*
X66756096Y-71454905D01*
X66898953Y-71407286D01*
X67470381Y-70835858D01*
X67470381Y-71454905D01*
X65343143Y-59009143D02*
X65390762Y-58961524D01*
X65438381Y-58818667D01*
X65438381Y-58723429D01*
X65390762Y-58580572D01*
X65295524Y-58485334D01*
X65200286Y-58437715D01*
X65009810Y-58390096D01*
X64866953Y-58390096D01*
X64676477Y-58437715D01*
X64581239Y-58485334D01*
X64486001Y-58580572D01*
X64438381Y-58723429D01*
X64438381Y-58818667D01*
X64486001Y-58961524D01*
X64533620Y-59009143D01*
X64533620Y-59390096D02*
X64486001Y-59437715D01*
X64438381Y-59532953D01*
X64438381Y-59771048D01*
X64486001Y-59866286D01*
X64533620Y-59913905D01*
X64628858Y-59961524D01*
X64724096Y-59961524D01*
X64866953Y-59913905D01*
X65438381Y-59342477D01*
X65438381Y-59961524D01*
X64438381Y-60294858D02*
X64438381Y-60913905D01*
X64819334Y-60580572D01*
X64819334Y-60723429D01*
X64866953Y-60818667D01*
X64914572Y-60866286D01*
X65009810Y-60913905D01*
X65247905Y-60913905D01*
X65343143Y-60866286D01*
X65390762Y-60818667D01*
X65438381Y-60723429D01*
X65438381Y-60437715D01*
X65390762Y-60342477D01*
X65343143Y-60294858D01*
X75112082Y-69267158D02*
X75112082Y-69334502D01*
X75179426Y-69469189D01*
X75246769Y-69536532D01*
X75381456Y-69603876D01*
X75516143Y-69603876D01*
X75617158Y-69570204D01*
X75785517Y-69469189D01*
X75886532Y-69368174D01*
X75987548Y-69199815D01*
X76021219Y-69098800D01*
X76021219Y-68964113D01*
X75953876Y-68829426D01*
X75886532Y-68762082D01*
X75751845Y-68694739D01*
X75684502Y-68694739D01*
X75415128Y-68425364D02*
X75415128Y-68358021D01*
X75381456Y-68257006D01*
X75213097Y-68088647D01*
X75112082Y-68054975D01*
X75044739Y-68054975D01*
X74943723Y-68088647D01*
X74876380Y-68155990D01*
X74809036Y-68290677D01*
X74809036Y-69098800D01*
X74371303Y-68661067D01*
X74236616Y-67583571D02*
X73765212Y-68054975D01*
X74674349Y-67482555D02*
X74337632Y-68155990D01*
X73899899Y-67718258D01*
X73598096Y-69883382D02*
X73598096Y-68883382D01*
X73360001Y-68883382D01*
X73217143Y-68931002D01*
X73121905Y-69026240D01*
X73074286Y-69121478D01*
X73026667Y-69311954D01*
X73026667Y-69454811D01*
X73074286Y-69645287D01*
X73121905Y-69740525D01*
X73217143Y-69835763D01*
X73360001Y-69883382D01*
X73598096Y-69883382D01*
X72693334Y-68883382D02*
X72074286Y-68883382D01*
X72407620Y-69264335D01*
X72264762Y-69264335D01*
X72169524Y-69311954D01*
X72121905Y-69359573D01*
X72074286Y-69454811D01*
X72074286Y-69692906D01*
X72121905Y-69788144D01*
X72169524Y-69835763D01*
X72264762Y-69883382D01*
X72550477Y-69883382D01*
X72645715Y-69835763D01*
X72693334Y-69788144D01*
X101030096Y-72804381D02*
X101030096Y-71804381D01*
X100792001Y-71804381D01*
X100649143Y-71852001D01*
X100553905Y-71947239D01*
X100506286Y-72042477D01*
X100458667Y-72232953D01*
X100458667Y-72375810D01*
X100506286Y-72566286D01*
X100553905Y-72661524D01*
X100649143Y-72756762D01*
X100792001Y-72804381D01*
X101030096Y-72804381D01*
X99553905Y-71804381D02*
X100030096Y-71804381D01*
X100077715Y-72280572D01*
X100030096Y-72232953D01*
X99934858Y-72185334D01*
X99696762Y-72185334D01*
X99601524Y-72232953D01*
X99553905Y-72280572D01*
X99506286Y-72375810D01*
X99506286Y-72613905D01*
X99553905Y-72709143D01*
X99601524Y-72756762D01*
X99696762Y-72804381D01*
X99934858Y-72804381D01*
X100030096Y-72756762D01*
X100077715Y-72709143D01*
X68486381Y-69581905D02*
X67486381Y-69581905D01*
X67486381Y-69820001D01*
X67534001Y-69962858D01*
X67629239Y-70058096D01*
X67724477Y-70105715D01*
X67914953Y-70153334D01*
X68057810Y-70153334D01*
X68248286Y-70105715D01*
X68343524Y-70058096D01*
X68438762Y-69962858D01*
X68486381Y-69820001D01*
X68486381Y-69581905D01*
X67486381Y-71010477D02*
X67486381Y-70820001D01*
X67534001Y-70724762D01*
X67581620Y-70677143D01*
X67724477Y-70581905D01*
X67914953Y-70534286D01*
X68295905Y-70534286D01*
X68391143Y-70581905D01*
X68438762Y-70629524D01*
X68486381Y-70724762D01*
X68486381Y-70915239D01*
X68438762Y-71010477D01*
X68391143Y-71058096D01*
X68295905Y-71105715D01*
X68057810Y-71105715D01*
X67962572Y-71058096D01*
X67914953Y-71010477D01*
X67867334Y-70915239D01*
X67867334Y-70724762D01*
X67914953Y-70629524D01*
X67962572Y-70581905D01*
X68057810Y-70534286D01*
X54230667Y-68994381D02*
X54564001Y-68518191D01*
X54802096Y-68994381D02*
X54802096Y-67994381D01*
X54421143Y-67994381D01*
X54325905Y-68042001D01*
X54278286Y-68089620D01*
X54230667Y-68184858D01*
X54230667Y-68327715D01*
X54278286Y-68422953D01*
X54325905Y-68470572D01*
X54421143Y-68518191D01*
X54802096Y-68518191D01*
X53849715Y-68089620D02*
X53802096Y-68042001D01*
X53706858Y-67994381D01*
X53468762Y-67994381D01*
X53373524Y-68042001D01*
X53325905Y-68089620D01*
X53278286Y-68184858D01*
X53278286Y-68280096D01*
X53325905Y-68422953D01*
X53897334Y-68994381D01*
X53278286Y-68994381D01*
X77598667Y-60966381D02*
X77932001Y-60490191D01*
X78170096Y-60966381D02*
X78170096Y-59966381D01*
X77789143Y-59966381D01*
X77693905Y-60014001D01*
X77646286Y-60061620D01*
X77598667Y-60156858D01*
X77598667Y-60299715D01*
X77646286Y-60394953D01*
X77693905Y-60442572D01*
X77789143Y-60490191D01*
X78170096Y-60490191D01*
X76741524Y-60299715D02*
X76741524Y-60966381D01*
X76979620Y-59918762D02*
X77217715Y-60633048D01*
X76598667Y-60633048D01*
X99823667Y-70264381D02*
X100157001Y-69788191D01*
X100395096Y-70264381D02*
X100395096Y-69264381D01*
X100014143Y-69264381D01*
X99918905Y-69312001D01*
X99871286Y-69359620D01*
X99823667Y-69454858D01*
X99823667Y-69597715D01*
X99871286Y-69692953D01*
X99918905Y-69740572D01*
X100014143Y-69788191D01*
X100395096Y-69788191D01*
X98966524Y-69264381D02*
X99157001Y-69264381D01*
X99252239Y-69312001D01*
X99299858Y-69359620D01*
X99395096Y-69502477D01*
X99442715Y-69692953D01*
X99442715Y-70073905D01*
X99395096Y-70169143D01*
X99347477Y-70216762D01*
X99252239Y-70264381D01*
X99061762Y-70264381D01*
X98966524Y-70216762D01*
X98918905Y-70169143D01*
X98871286Y-70073905D01*
X98871286Y-69835810D01*
X98918905Y-69740572D01*
X98966524Y-69692953D01*
X99061762Y-69645334D01*
X99252239Y-69645334D01*
X99347477Y-69692953D01*
X99395096Y-69740572D01*
X99442715Y-69835810D01*
X108491381Y-68375334D02*
X108015191Y-68042001D01*
X108491381Y-67803905D02*
X107491381Y-67803905D01*
X107491381Y-68184858D01*
X107539001Y-68280096D01*
X107586620Y-68327715D01*
X107681858Y-68375334D01*
X107824715Y-68375334D01*
X107919953Y-68327715D01*
X107967572Y-68280096D01*
X108015191Y-68184858D01*
X108015191Y-67803905D01*
X107491381Y-68708667D02*
X107491381Y-69375334D01*
X108491381Y-68946762D01*
X106173667Y-62898381D02*
X106507001Y-62422191D01*
X106745096Y-62898381D02*
X106745096Y-61898381D01*
X106364143Y-61898381D01*
X106268905Y-61946001D01*
X106221286Y-61993620D01*
X106173667Y-62088858D01*
X106173667Y-62231715D01*
X106221286Y-62326953D01*
X106268905Y-62374572D01*
X106364143Y-62422191D01*
X106745096Y-62422191D01*
X105602239Y-62326953D02*
X105697477Y-62279334D01*
X105745096Y-62231715D01*
X105792715Y-62136477D01*
X105792715Y-62088858D01*
X105745096Y-61993620D01*
X105697477Y-61946001D01*
X105602239Y-61898381D01*
X105411762Y-61898381D01*
X105316524Y-61946001D01*
X105268905Y-61993620D01*
X105221286Y-62088858D01*
X105221286Y-62136477D01*
X105268905Y-62231715D01*
X105316524Y-62279334D01*
X105411762Y-62326953D01*
X105602239Y-62326953D01*
X105697477Y-62374572D01*
X105745096Y-62422191D01*
X105792715Y-62517429D01*
X105792715Y-62707905D01*
X105745096Y-62803143D01*
X105697477Y-62850762D01*
X105602239Y-62898381D01*
X105411762Y-62898381D01*
X105316524Y-62850762D01*
X105268905Y-62803143D01*
X105221286Y-62707905D01*
X105221286Y-62517429D01*
X105268905Y-62422191D01*
X105316524Y-62374572D01*
X105411762Y-62326953D01*
X108491381Y-70280334D02*
X108015191Y-69947001D01*
X108491381Y-69708905D02*
X107491381Y-69708905D01*
X107491381Y-70089858D01*
X107539001Y-70185096D01*
X107586620Y-70232715D01*
X107681858Y-70280334D01*
X107824715Y-70280334D01*
X107919953Y-70232715D01*
X107967572Y-70185096D01*
X108015191Y-70089858D01*
X108015191Y-69708905D01*
X108491381Y-70756524D02*
X108491381Y-70947001D01*
X108443762Y-71042239D01*
X108396143Y-71089858D01*
X108253286Y-71185096D01*
X108062810Y-71232715D01*
X107681858Y-71232715D01*
X107586620Y-71185096D01*
X107539001Y-71137477D01*
X107491381Y-71042239D01*
X107491381Y-70851762D01*
X107539001Y-70756524D01*
X107586620Y-70708905D01*
X107681858Y-70661286D01*
X107919953Y-70661286D01*
X108015191Y-70708905D01*
X108062810Y-70756524D01*
X108110429Y-70851762D01*
X108110429Y-71042239D01*
X108062810Y-71137477D01*
X108015191Y-71185096D01*
X107919953Y-71232715D01*
X109824858Y-65184381D02*
X110158191Y-64708191D01*
X110396286Y-65184381D02*
X110396286Y-64184381D01*
X110015334Y-64184381D01*
X109920096Y-64232001D01*
X109872477Y-64279620D01*
X109824858Y-64374858D01*
X109824858Y-64517715D01*
X109872477Y-64612953D01*
X109920096Y-64660572D01*
X110015334Y-64708191D01*
X110396286Y-64708191D01*
X108872477Y-65184381D02*
X109443905Y-65184381D01*
X109158191Y-65184381D02*
X109158191Y-64184381D01*
X109253429Y-64327239D01*
X109348667Y-64422477D01*
X109443905Y-64470096D01*
X108253429Y-64184381D02*
X108158191Y-64184381D01*
X108062953Y-64232001D01*
X108015334Y-64279620D01*
X107967715Y-64374858D01*
X107920096Y-64565334D01*
X107920096Y-64803429D01*
X107967715Y-64993905D01*
X108015334Y-65089143D01*
X108062953Y-65136762D01*
X108158191Y-65184381D01*
X108253429Y-65184381D01*
X108348667Y-65136762D01*
X108396286Y-65089143D01*
X108443905Y-64993905D01*
X108491524Y-64803429D01*
X108491524Y-64565334D01*
X108443905Y-64374858D01*
X108396286Y-64279620D01*
X108348667Y-64232001D01*
X108253429Y-64184381D01*
X66200381Y-69550144D02*
X65724191Y-69216811D01*
X66200381Y-68978716D02*
X65200381Y-68978716D01*
X65200381Y-69359668D01*
X65248001Y-69454906D01*
X65295620Y-69502525D01*
X65390858Y-69550144D01*
X65533715Y-69550144D01*
X65628953Y-69502525D01*
X65676572Y-69454906D01*
X65724191Y-69359668D01*
X65724191Y-68978716D01*
X66200381Y-70502525D02*
X66200381Y-69931097D01*
X66200381Y-70216811D02*
X65200381Y-70216811D01*
X65343239Y-70121573D01*
X65438477Y-70026335D01*
X65486096Y-69931097D01*
X65295620Y-70883478D02*
X65248001Y-70931097D01*
X65200381Y-71026335D01*
X65200381Y-71264430D01*
X65248001Y-71359668D01*
X65295620Y-71407287D01*
X65390858Y-71454906D01*
X65486096Y-71454906D01*
X65628953Y-71407287D01*
X66200381Y-70835859D01*
X66200381Y-71454906D01*
X63220451Y-59517313D02*
X63119436Y-58944894D01*
X63624512Y-59113252D02*
X62917405Y-58406146D01*
X62648031Y-58675520D01*
X62614359Y-58776535D01*
X62614359Y-58843878D01*
X62648031Y-58944894D01*
X62749046Y-59045909D01*
X62850062Y-59079581D01*
X62917405Y-59079581D01*
X63018420Y-59045909D01*
X63287794Y-58776535D01*
X62547016Y-60190749D02*
X62951077Y-59786688D01*
X62749046Y-59988718D02*
X62041939Y-59281611D01*
X62210298Y-59315283D01*
X62344985Y-59315283D01*
X62446001Y-59281611D01*
X61604207Y-59719344D02*
X61166474Y-60157077D01*
X61671550Y-60190749D01*
X61570535Y-60291764D01*
X61536863Y-60392779D01*
X61536863Y-60460123D01*
X61570535Y-60561138D01*
X61738894Y-60729497D01*
X61839909Y-60763168D01*
X61907252Y-60763168D01*
X62008268Y-60729497D01*
X62210298Y-60527466D01*
X62243970Y-60426451D01*
X62243970Y-60359107D01*
X77947858Y-63914381D02*
X78281191Y-63438191D01*
X78519286Y-63914381D02*
X78519286Y-62914381D01*
X78138334Y-62914381D01*
X78043096Y-62962001D01*
X77995477Y-63009620D01*
X77947858Y-63104858D01*
X77947858Y-63247715D01*
X77995477Y-63342953D01*
X78043096Y-63390572D01*
X78138334Y-63438191D01*
X78519286Y-63438191D01*
X76995477Y-63914381D02*
X77566905Y-63914381D01*
X77281191Y-63914381D02*
X77281191Y-62914381D01*
X77376429Y-63057239D01*
X77471667Y-63152477D01*
X77566905Y-63200096D01*
X76138334Y-63247715D02*
X76138334Y-63914381D01*
X76376429Y-62866762D02*
X76614524Y-63581048D01*
X75995477Y-63581048D01*
X77947857Y-65438381D02*
X78281190Y-64962191D01*
X78519285Y-65438381D02*
X78519285Y-64438381D01*
X78138333Y-64438381D01*
X78043095Y-64486001D01*
X77995476Y-64533620D01*
X77947857Y-64628858D01*
X77947857Y-64771715D01*
X77995476Y-64866953D01*
X78043095Y-64914572D01*
X78138333Y-64962191D01*
X78519285Y-64962191D01*
X76995476Y-65438381D02*
X77566904Y-65438381D01*
X77281190Y-65438381D02*
X77281190Y-64438381D01*
X77376428Y-64581239D01*
X77471666Y-64676477D01*
X77566904Y-64724096D01*
X76090714Y-64438381D02*
X76566904Y-64438381D01*
X76614523Y-64914572D01*
X76566904Y-64866953D01*
X76471666Y-64819334D01*
X76233571Y-64819334D01*
X76138333Y-64866953D01*
X76090714Y-64914572D01*
X76043095Y-65009810D01*
X76043095Y-65247905D01*
X76090714Y-65343143D01*
X76138333Y-65390762D01*
X76233571Y-65438381D01*
X76471666Y-65438381D01*
X76566904Y-65390762D01*
X76614523Y-65343143D01*
X70708858Y-58072381D02*
X71042191Y-57596191D01*
X71280286Y-58072381D02*
X71280286Y-57072381D01*
X70899334Y-57072381D01*
X70804096Y-57120001D01*
X70756477Y-57167620D01*
X70708858Y-57262858D01*
X70708858Y-57405715D01*
X70756477Y-57500953D01*
X70804096Y-57548572D01*
X70899334Y-57596191D01*
X71280286Y-57596191D01*
X69756477Y-58072381D02*
X70327905Y-58072381D01*
X70042191Y-58072381D02*
X70042191Y-57072381D01*
X70137429Y-57215239D01*
X70232667Y-57310477D01*
X70327905Y-57358096D01*
X68899334Y-57072381D02*
X69089810Y-57072381D01*
X69185048Y-57120001D01*
X69232667Y-57167620D01*
X69327905Y-57310477D01*
X69375524Y-57500953D01*
X69375524Y-57881905D01*
X69327905Y-57977143D01*
X69280286Y-58024762D01*
X69185048Y-58072381D01*
X68994572Y-58072381D01*
X68899334Y-58024762D01*
X68851715Y-57977143D01*
X68804096Y-57881905D01*
X68804096Y-57643810D01*
X68851715Y-57548572D01*
X68899334Y-57500953D01*
X68994572Y-57453334D01*
X69185048Y-57453334D01*
X69280286Y-57500953D01*
X69327905Y-57548572D01*
X69375524Y-57643810D01*
X77884381Y-58247143D02*
X77408191Y-57913810D01*
X77884381Y-57675715D02*
X76884381Y-57675715D01*
X76884381Y-58056667D01*
X76932001Y-58151905D01*
X76979620Y-58199524D01*
X77074858Y-58247143D01*
X77217715Y-58247143D01*
X77312953Y-58199524D01*
X77360572Y-58151905D01*
X77408191Y-58056667D01*
X77408191Y-57675715D01*
X77884381Y-59199524D02*
X77884381Y-58628096D01*
X77884381Y-58913810D02*
X76884381Y-58913810D01*
X77027239Y-58818572D01*
X77122477Y-58723334D01*
X77170096Y-58628096D01*
X76884381Y-59532858D02*
X76884381Y-60199524D01*
X77884381Y-59770953D01*
X75534858Y-61782381D02*
X75868191Y-61306191D01*
X76106286Y-61782381D02*
X76106286Y-60782381D01*
X75725334Y-60782381D01*
X75630096Y-60830001D01*
X75582477Y-60877620D01*
X75534858Y-60972858D01*
X75534858Y-61115715D01*
X75582477Y-61210953D01*
X75630096Y-61258572D01*
X75725334Y-61306191D01*
X76106286Y-61306191D01*
X74582477Y-61782381D02*
X75153905Y-61782381D01*
X74868191Y-61782381D02*
X74868191Y-60782381D01*
X74963429Y-60925239D01*
X75058667Y-61020477D01*
X75153905Y-61068096D01*
X74011048Y-61210953D02*
X74106286Y-61163334D01*
X74153905Y-61115715D01*
X74201524Y-61020477D01*
X74201524Y-60972858D01*
X74153905Y-60877620D01*
X74106286Y-60830001D01*
X74011048Y-60782381D01*
X73820572Y-60782381D01*
X73725334Y-60830001D01*
X73677715Y-60877620D01*
X73630096Y-60972858D01*
X73630096Y-61020477D01*
X73677715Y-61115715D01*
X73725334Y-61163334D01*
X73820572Y-61210953D01*
X74011048Y-61210953D01*
X74106286Y-61258572D01*
X74153905Y-61306191D01*
X74201524Y-61401429D01*
X74201524Y-61591905D01*
X74153905Y-61687143D01*
X74106286Y-61734762D01*
X74011048Y-61782381D01*
X73820572Y-61782381D01*
X73725334Y-61734762D01*
X73677715Y-61687143D01*
X73630096Y-61591905D01*
X73630096Y-61401429D01*
X73677715Y-61306191D01*
X73725334Y-61258572D01*
X73820572Y-61210953D01*
X120572381Y-64478096D02*
X121381905Y-64478096D01*
X121477143Y-64525715D01*
X121524762Y-64573334D01*
X121572381Y-64668572D01*
X121572381Y-64859048D01*
X121524762Y-64954286D01*
X121477143Y-65001905D01*
X121381905Y-65049524D01*
X120572381Y-65049524D01*
X121572381Y-66049524D02*
X121572381Y-65478096D01*
X121572381Y-65763810D02*
X120572381Y-65763810D01*
X120715239Y-65668572D01*
X120810477Y-65573334D01*
X120858096Y-65478096D01*
D17*
X124148191Y-60430286D02*
X124148191Y-60716001D01*
X124648191Y-60573143D02*
X124148191Y-60573143D01*
X124600572Y-61168381D02*
X124624381Y-61144572D01*
X124648191Y-61073143D01*
X124648191Y-61025524D01*
X124624381Y-60954096D01*
X124576762Y-60906477D01*
X124529143Y-60882667D01*
X124433905Y-60858858D01*
X124362477Y-60858858D01*
X124267239Y-60882667D01*
X124219620Y-60906477D01*
X124172001Y-60954096D01*
X124148191Y-61025524D01*
X124148191Y-61073143D01*
X124172001Y-61144572D01*
X124195810Y-61168381D01*
X124505334Y-61358858D02*
X124505334Y-61596953D01*
X124648191Y-61311239D02*
X124148191Y-61477905D01*
X124648191Y-61644572D01*
X124648191Y-61811239D02*
X124148191Y-61811239D01*
X124648191Y-62096953D01*
X124148191Y-62096953D01*
X124648191Y-62596953D02*
X124648191Y-62311239D01*
X124648191Y-62454096D02*
X124148191Y-62454096D01*
X124219620Y-62406477D01*
X124267239Y-62358858D01*
X124291048Y-62311239D01*
X124148191Y-62906477D02*
X124148191Y-62954096D01*
X124172001Y-63001715D01*
X124195810Y-63025524D01*
X124243429Y-63049334D01*
X124338667Y-63073143D01*
X124457715Y-63073143D01*
X124552953Y-63049334D01*
X124600572Y-63025524D01*
X124624381Y-63001715D01*
X124648191Y-62954096D01*
X124648191Y-62906477D01*
X124624381Y-62858858D01*
X124600572Y-62835048D01*
X124552953Y-62811239D01*
X124457715Y-62787429D01*
X124338667Y-62787429D01*
X124243429Y-62811239D01*
X124195810Y-62835048D01*
X124172001Y-62858858D01*
X124148191Y-62906477D01*
X124148191Y-63525524D02*
X124148191Y-63287429D01*
X124386286Y-63263620D01*
X124362477Y-63287429D01*
X124338667Y-63335048D01*
X124338667Y-63454096D01*
X124362477Y-63501715D01*
X124386286Y-63525524D01*
X124433905Y-63549334D01*
X124552953Y-63549334D01*
X124600572Y-63525524D01*
X124624381Y-63501715D01*
X124648191Y-63454096D01*
X124648191Y-63335048D01*
X124624381Y-63287429D01*
X124600572Y-63263620D01*
X124648191Y-64025524D02*
X124648191Y-63739810D01*
X124648191Y-63882667D02*
X124148191Y-63882667D01*
X124219620Y-63835048D01*
X124267239Y-63787429D01*
X124291048Y-63739810D01*
X124172001Y-64501715D02*
X124148191Y-64454096D01*
X124148191Y-64382667D01*
X124172001Y-64311239D01*
X124219620Y-64263620D01*
X124267239Y-64239810D01*
X124362477Y-64216001D01*
X124433905Y-64216001D01*
X124529143Y-64239810D01*
X124576762Y-64263620D01*
X124624381Y-64311239D01*
X124648191Y-64382667D01*
X124648191Y-64430286D01*
X124624381Y-64501715D01*
X124600572Y-64525524D01*
X124433905Y-64525524D01*
X124433905Y-64430286D01*
X124148191Y-64668381D02*
X124648191Y-64835048D01*
X124148191Y-65001715D01*
X124648191Y-65168381D02*
X124148191Y-65168381D01*
X124148191Y-65287429D01*
X124172001Y-65358858D01*
X124219620Y-65406477D01*
X124267239Y-65430286D01*
X124362477Y-65454096D01*
X124433905Y-65454096D01*
X124529143Y-65430286D01*
X124576762Y-65406477D01*
X124624381Y-65358858D01*
X124648191Y-65287429D01*
X124648191Y-65168381D01*
X124648191Y-65954096D02*
X124410096Y-65787429D01*
X124648191Y-65668381D02*
X124148191Y-65668381D01*
X124148191Y-65858858D01*
X124172001Y-65906477D01*
X124195810Y-65930286D01*
X124243429Y-65954096D01*
X124314858Y-65954096D01*
X124362477Y-65930286D01*
X124386286Y-65906477D01*
X124410096Y-65858858D01*
X124410096Y-65668381D01*
X124695810Y-66501715D02*
X124672001Y-66454096D01*
X124624381Y-66406477D01*
X124552953Y-66335048D01*
X124529143Y-66287429D01*
X124529143Y-66239810D01*
X124648191Y-66263620D02*
X124624381Y-66216001D01*
X124576762Y-66168381D01*
X124481524Y-66144572D01*
X124314858Y-66144572D01*
X124219620Y-66168381D01*
X124172001Y-66216001D01*
X124148191Y-66263620D01*
X124148191Y-66358858D01*
X124172001Y-66406477D01*
X124219620Y-66454096D01*
X124314858Y-66477905D01*
X124481524Y-66477905D01*
X124576762Y-66454096D01*
X124624381Y-66406477D01*
X124648191Y-66358858D01*
X124648191Y-66263620D01*
X124648191Y-66954096D02*
X124648191Y-66668381D01*
X124648191Y-66811239D02*
X124148191Y-66811239D01*
X124219620Y-66763620D01*
X124267239Y-66716001D01*
X124291048Y-66668381D01*
D10*
X81747381Y-66256096D02*
X82556905Y-66256096D01*
X82652143Y-66303715D01*
X82699762Y-66351334D01*
X82747381Y-66446572D01*
X82747381Y-66637048D01*
X82699762Y-66732286D01*
X82652143Y-66779905D01*
X82556905Y-66827524D01*
X81747381Y-66827524D01*
X81747381Y-67208477D02*
X81747381Y-67827524D01*
X82128334Y-67494191D01*
X82128334Y-67637048D01*
X82175953Y-67732286D01*
X82223572Y-67779905D01*
X82318810Y-67827524D01*
X82556905Y-67827524D01*
X82652143Y-67779905D01*
X82699762Y-67732286D01*
X82747381Y-67637048D01*
X82747381Y-67351334D01*
X82699762Y-67256096D01*
X82652143Y-67208477D01*
X102958905Y-63549381D02*
X102958905Y-64358905D01*
X102911286Y-64454143D01*
X102863667Y-64501762D01*
X102768429Y-64549381D01*
X102577953Y-64549381D01*
X102482715Y-64501762D01*
X102435096Y-64454143D01*
X102387477Y-64358905D01*
X102387477Y-63549381D01*
X101482715Y-63882715D02*
X101482715Y-64549381D01*
X101720810Y-63501762D02*
X101958905Y-64216048D01*
X101339858Y-64216048D01*
X63015381Y-62700096D02*
X63824905Y-62700096D01*
X63920143Y-62747715D01*
X63967762Y-62795334D01*
X64015381Y-62890572D01*
X64015381Y-63081048D01*
X63967762Y-63176286D01*
X63920143Y-63223905D01*
X63824905Y-63271524D01*
X63015381Y-63271524D01*
X63015381Y-63652477D02*
X63015381Y-64319143D01*
X64015381Y-63890572D01*
X73178774Y-61557797D02*
X73988298Y-61557797D01*
X74083536Y-61605416D01*
X74131155Y-61653035D01*
X74178774Y-61748273D01*
X74178774Y-61938749D01*
X74131155Y-62033987D01*
X74083536Y-62081606D01*
X73988298Y-62129225D01*
X73178774Y-62129225D01*
X73607346Y-62748273D02*
X73559727Y-62653035D01*
X73512108Y-62605416D01*
X73416870Y-62557797D01*
X73369251Y-62557797D01*
X73274013Y-62605416D01*
X73226394Y-62653035D01*
X73178774Y-62748273D01*
X73178774Y-62938749D01*
X73226394Y-63033987D01*
X73274013Y-63081606D01*
X73369251Y-63129225D01*
X73416870Y-63129225D01*
X73512108Y-63081606D01*
X73559727Y-63033987D01*
X73607346Y-62938749D01*
X73607346Y-62748273D01*
X73654965Y-62653035D01*
X73702584Y-62605416D01*
X73797822Y-62557797D01*
X73988298Y-62557797D01*
X74083536Y-62605416D01*
X74131155Y-62653035D01*
X74178774Y-62748273D01*
X74178774Y-62938749D01*
X74131155Y-63033987D01*
X74083536Y-63081606D01*
X73988298Y-63129225D01*
X73797822Y-63129225D01*
X73702584Y-63081606D01*
X73654965Y-63033987D01*
X73607346Y-62938749D01*
X103538381Y-69391334D02*
X103062191Y-69058001D01*
X103538381Y-68819905D02*
X102538381Y-68819905D01*
X102538381Y-69200858D01*
X102586001Y-69296096D01*
X102633620Y-69343715D01*
X102728858Y-69391334D01*
X102871715Y-69391334D01*
X102966953Y-69343715D01*
X103014572Y-69296096D01*
X103062191Y-69200858D01*
X103062191Y-68819905D01*
X102538381Y-70296096D02*
X102538381Y-69819905D01*
X103014572Y-69772286D01*
X102966953Y-69819905D01*
X102919334Y-69915143D01*
X102919334Y-70153239D01*
X102966953Y-70248477D01*
X103014572Y-70296096D01*
X103109810Y-70343715D01*
X103347905Y-70343715D01*
X103443143Y-70296096D01*
X103490762Y-70248477D01*
X103538381Y-70153239D01*
X103538381Y-69915143D01*
X103490762Y-69819905D01*
X103443143Y-69772286D01*
X73502858Y-67978381D02*
X73836191Y-67502191D01*
X74074286Y-67978381D02*
X74074286Y-66978381D01*
X73693334Y-66978381D01*
X73598096Y-67026001D01*
X73550477Y-67073620D01*
X73502858Y-67168858D01*
X73502858Y-67311715D01*
X73550477Y-67406953D01*
X73598096Y-67454572D01*
X73693334Y-67502191D01*
X74074286Y-67502191D01*
X73121905Y-67073620D02*
X73074286Y-67026001D01*
X72979048Y-66978381D01*
X72740953Y-66978381D01*
X72645715Y-67026001D01*
X72598096Y-67073620D01*
X72550477Y-67168858D01*
X72550477Y-67264096D01*
X72598096Y-67406953D01*
X73169524Y-67978381D01*
X72550477Y-67978381D01*
X71931429Y-66978381D02*
X71836191Y-66978381D01*
X71740953Y-67026001D01*
X71693334Y-67073620D01*
X71645715Y-67168858D01*
X71598096Y-67359334D01*
X71598096Y-67597429D01*
X71645715Y-67787905D01*
X71693334Y-67883143D01*
X71740953Y-67930762D01*
X71836191Y-67978381D01*
X71931429Y-67978381D01*
X72026667Y-67930762D01*
X72074286Y-67883143D01*
X72121905Y-67787905D01*
X72169524Y-67597429D01*
X72169524Y-67359334D01*
X72121905Y-67168858D01*
X72074286Y-67073620D01*
X72026667Y-67026001D01*
X71931429Y-66978381D01*
X74137857Y-66708381D02*
X74471190Y-66232191D01*
X74709285Y-66708381D02*
X74709285Y-65708381D01*
X74328333Y-65708381D01*
X74233095Y-65756001D01*
X74185476Y-65803620D01*
X74137857Y-65898858D01*
X74137857Y-66041715D01*
X74185476Y-66136953D01*
X74233095Y-66184572D01*
X74328333Y-66232191D01*
X74709285Y-66232191D01*
X73756904Y-65803620D02*
X73709285Y-65756001D01*
X73614047Y-65708381D01*
X73375952Y-65708381D01*
X73280714Y-65756001D01*
X73233095Y-65803620D01*
X73185476Y-65898858D01*
X73185476Y-65994096D01*
X73233095Y-66136953D01*
X73804523Y-66708381D01*
X73185476Y-66708381D01*
X72233095Y-66708381D02*
X72804523Y-66708381D01*
X72518809Y-66708381D02*
X72518809Y-65708381D01*
X72614047Y-65851239D01*
X72709285Y-65946477D01*
X72804523Y-65994096D01*
X70010381Y-59009143D02*
X69534191Y-58675810D01*
X70010381Y-58437715D02*
X69010381Y-58437715D01*
X69010381Y-58818667D01*
X69058001Y-58913905D01*
X69105620Y-58961524D01*
X69200858Y-59009143D01*
X69343715Y-59009143D01*
X69438953Y-58961524D01*
X69486572Y-58913905D01*
X69534191Y-58818667D01*
X69534191Y-58437715D01*
X69105620Y-59390096D02*
X69058001Y-59437715D01*
X69010381Y-59532953D01*
X69010381Y-59771048D01*
X69058001Y-59866286D01*
X69105620Y-59913905D01*
X69200858Y-59961524D01*
X69296096Y-59961524D01*
X69438953Y-59913905D01*
X70010381Y-59342477D01*
X70010381Y-59961524D01*
X69105620Y-60342477D02*
X69058001Y-60390096D01*
X69010381Y-60485334D01*
X69010381Y-60723429D01*
X69058001Y-60818667D01*
X69105620Y-60866286D01*
X69200858Y-60913905D01*
X69296096Y-60913905D01*
X69438953Y-60866286D01*
X70010381Y-60294858D01*
X70010381Y-60913905D01*
D18*
X124900054Y-59058432D02*
X125615178Y-59058432D01*
X125758202Y-59010757D01*
X125853552Y-58915407D01*
X125901227Y-58772383D01*
X125901227Y-58677033D01*
X125901227Y-60059605D02*
X125901227Y-59487506D01*
X125901227Y-59773556D02*
X124900054Y-59773556D01*
X125043079Y-59678206D01*
X125138429Y-59582856D01*
X125186104Y-59487506D01*
X124900054Y-60679379D02*
X124900054Y-60774729D01*
X124947729Y-60870079D01*
X124995404Y-60917753D01*
X125090754Y-60965428D01*
X125281453Y-61013103D01*
X125519828Y-61013103D01*
X125710527Y-60965428D01*
X125805877Y-60917753D01*
X125853552Y-60870079D01*
X125901227Y-60774729D01*
X125901227Y-60679379D01*
X125853552Y-60584029D01*
X125805877Y-60536354D01*
X125710527Y-60488679D01*
X125519828Y-60441004D01*
X125281453Y-60441004D01*
X125090754Y-60488679D01*
X124995404Y-60536354D01*
X124947729Y-60584029D01*
X124900054Y-60679379D01*
X124900054Y-67155181D02*
X125615178Y-67155181D01*
X125758202Y-67107506D01*
X125853552Y-67012156D01*
X125901227Y-66869132D01*
X125901227Y-66773782D01*
X124900054Y-67536580D02*
X124900054Y-68156354D01*
X125281453Y-67822630D01*
X125281453Y-67965655D01*
X125329128Y-68061004D01*
X125376803Y-68108679D01*
X125472153Y-68156354D01*
X125710527Y-68156354D01*
X125805877Y-68108679D01*
X125853552Y-68061004D01*
X125901227Y-67965655D01*
X125901227Y-67679605D01*
X125853552Y-67584255D01*
X125805877Y-67536580D01*
D19*
X112296524Y-60952239D02*
X111026524Y-60952239D01*
X112175572Y-62282715D02*
X112236048Y-62222239D01*
X112296524Y-62040810D01*
X112296524Y-61919858D01*
X112236048Y-61738429D01*
X112115096Y-61617477D01*
X111994143Y-61557001D01*
X111752239Y-61496524D01*
X111570810Y-61496524D01*
X111328905Y-61557001D01*
X111207953Y-61617477D01*
X111087001Y-61738429D01*
X111026524Y-61919858D01*
X111026524Y-62040810D01*
X111087001Y-62222239D01*
X111147477Y-62282715D01*
X112296524Y-63492239D02*
X112296524Y-62766524D01*
X112296524Y-63129381D02*
X111026524Y-63129381D01*
X111207953Y-63008429D01*
X111328905Y-62887477D01*
X111389381Y-62766524D01*
D10*
X104101905Y-55234381D02*
X104101905Y-56043905D01*
X104054286Y-56139143D01*
X104006667Y-56186762D01*
X103911429Y-56234381D01*
X103720953Y-56234381D01*
X103625715Y-56186762D01*
X103578096Y-56139143D01*
X103530477Y-56043905D01*
X103530477Y-55234381D01*
X102578096Y-55234381D02*
X103054286Y-55234381D01*
X103101905Y-55710572D01*
X103054286Y-55662953D01*
X102959048Y-55615334D01*
X102720953Y-55615334D01*
X102625715Y-55662953D01*
X102578096Y-55710572D01*
X102530477Y-55805810D01*
X102530477Y-56043905D01*
X102578096Y-56139143D01*
X102625715Y-56186762D01*
X102720953Y-56234381D01*
X102959048Y-56234381D01*
X103054286Y-56186762D01*
X103101905Y-56139143D01*
M02*
