M48
; DRILL file {KiCad 5.1.5+dfsg1-2build2} date sob, 20 mar 2021, 12:24:39
; FORMAT={-:-/ absolute / inch / decimal}
; #@! TF.CreationDate,2021-03-20T12:24:39+01:00
; #@! TF.GenerationSoftware,Kicad,Pcbnew,5.1.5+dfsg1-2build2
; #@! TF.FileFunction,NonPlated,1,2,NPTH
FMAT,2
INCH
T1C0.0197
T2C0.0200
T3C0.0270
%
G90
G05
T1
X1.9448Y-2.5088
X5.3022Y-2.5088
X5.3022Y-5.0638
X5.3022Y-4.985
X3.6432Y-4.3503
X3.5644Y-4.3503
X5.3022Y-3.8257
X3.6038Y-3.183
X1.9448Y-3.7076
X5.3022Y-3.7469
X1.9448Y-5.0244
X3.6038Y-4.4211
X3.6432Y-3.183
X1.9448Y-5.0638
X3.5644Y-5.5884
X1.9448Y-2.5876
X1.9448Y-4.985
X3.6826Y-5.5884
X3.6432Y-5.5884
X3.6038Y-3.1122
X3.6432Y-1.9448
X3.6826Y-4.4211
X1.9448Y-4.9457
X3.6038Y-4.3503
X1.9448Y-3.7863
X3.6826Y-3.1122
X3.6432Y-4.4211
X3.6038Y-1.9448
X5.3022Y-5.0244
X5.3022Y-2.5482
X3.5644Y-4.4211
X5.3022Y-4.9457
X5.3022Y-2.4694
X1.9448Y-2.5482
X1.9448Y-3.8257
X1.9448Y-3.7469
X3.5644Y-3.1122
X3.6826Y-1.9448
X3.6432Y-3.1122
X5.3022Y-3.7076
X3.5644Y-3.183
X3.6826Y-4.3503
X5.3022Y-2.5876
X3.5644Y-1.9448
X3.6038Y-5.5884
X3.6826Y-3.183
X1.9448Y-2.4694
X5.3022Y-3.7863
T2
X2.0259Y-3.7198
X2.0259Y-4.0734
X2.0489Y-3.7198
X2.0489Y-4.0734
X2.2685Y-3.734
X2.2685Y-4.0592
X2.2915Y-3.734
X2.2915Y-4.0592
X2.0259Y-4.958
X2.0259Y-5.3115
X2.0489Y-4.958
X2.0489Y-5.3115
X2.2685Y-4.9721
X2.2685Y-5.2973
X2.2915Y-4.9721
X2.2915Y-5.2973
X2.0259Y-2.4817
X2.0259Y-2.8353
X2.0489Y-2.4817
X2.0489Y-2.8353
X2.2685Y-2.4959
X2.2685Y-2.8211
X2.2915Y-2.4959
X2.2915Y-2.8211
T3
X2.3292Y-3.7549
X2.3292Y-4.0333
X2.3292Y-4.0433
X2.3292Y-4.993
X2.3292Y-5.2715
X2.3292Y-5.2815
X2.3292Y-2.5168
X2.3292Y-2.7952
X2.3292Y-2.8052
T0
M30
